<?xml version="1.0" encoding="utf-8"?>
<!-- Generator: Adobe Illustrator 16.0.3, SVG Export Plug-In . SVG Version: 6.00 Build 0)  -->
<!DOCTYPE svg PUBLIC "-//W3C//DTD SVG 1.1//EN" "http://www.w3.org/Graphics/SVG/1.1/DTD/svg11.dtd">
<svg version="1.1" id="圖層_1" xmlns="http://www.w3.org/2000/svg" xmlns:xlink="http://www.w3.org/1999/xlink" x="0px" y="0px"
	 width="283.46px" height="283.46px" viewBox="0 0 283.46 283.46" enable-background="new 0 0 283.46 283.46" xml:space="preserve">
<g>
	<path fill-rule="evenodd" clip-rule="evenodd" fill="#FFFFFF" d="M107.926,281.57c-0.244-0.037-0.49-0.12-0.73-0.104
		c-1.679,0.116-3.333-0.161-4.922-0.589c-2.083-0.566-4.142-1.274-6.13-2.114c-1.451-0.611-2.779-1.519-4.137-2.335
		c-0.414-0.248-0.739-0.638-1.116-0.948c-0.507-0.42-1.037-0.813-1.537-1.241c-0.316-0.267-0.627-0.551-0.887-0.873
		c-1.104-1.361-2.273-2.685-3.261-4.127c-1.272-1.859-2.254-3.885-2.872-6.072c-0.324-1.151-0.939-2.21-1.021-3.443
		c-0.103-1.55-0.353-3.095-0.395-4.645c-0.07-2.62-0.031-5.242-0.031-7.862c-0.001-35.882-0.001-71.763-0.001-107.644
		c0-0.52,0-1.041,0-1.711c1.095,0.048,2.043,0.04,2.978,0.144c1.192,0.132,2.367,0.431,3.56,0.526
		c3.108,0.248,6.216,0.407,9.327-0.072c1.043-0.16,2.12-0.134,3.182-0.143c0.766-0.006,0.888,0.158,0.922,0.962
		c0.01,0.248,0.003,0.497,0.003,0.744c0,37.9-0.001,75.8,0.001,113.7c0,0.673-0.021,1.353,0.064,2.017
		c0.074,0.583,0.174,1.211,0.454,1.713c1.004,1.8,2.43,3.197,4.452,3.764c0.899,0.251,1.892,0.232,2.842,0.234
		c6.801,0.017,13.602,0.009,20.402,0.009c33.048,0,66.095,0.002,99.143-0.005c0.775,0,1.587,0.017,2.321-0.186
		c1.701-0.469,3.086-1.451,4.076-2.941c1.062-1.595,1.308-3.383,1.308-5.255c-0.008-53.485-0.006-106.97-0.005-160.455
		c0-5.313,0.006-10.626-0.006-15.94c-0.001-0.668-0.118-1.336-0.133-2.006c-0.029-1.475-0.62-2.728-1.469-3.891
		c-0.853-1.167-2.008-1.907-3.341-2.411c-1.155-0.437-2.359-0.384-3.558-0.384c-20.721-0.001-41.441,0-62.163,0
		c-0.601,0-1.201,0-1.91,0c-0.093-0.431-0.226-0.828-0.256-1.232c-0.056-0.776-0.07-1.557-0.073-2.335
		c-0.009-2.911-0.496-5.769-1.01-8.615c-0.426-2.357-1.042-4.679-1.57-7.017c-0.03-0.135-0.023-0.278-0.044-0.546
		c0.299-0.061,0.589-0.165,0.881-0.171c0.922-0.022,1.843-0.01,2.764-0.01c21.146,0,42.293,0,63.438,0
		c0.744,0,1.487,0.011,2.231,0.009c2.585-0.007,5.034,0.649,7.459,1.467c1.396,0.472,2.79,0.905,4.105,1.615
		c3.308,1.782,6.135,4.097,8.54,6.985c1.55,1.861,2.609,4.001,3.743,6.094c0.541,0.998,0.686,2.205,1.054,3.303
		c0.919,2.749,1.17,5.59,1.171,8.459c0.006,59.294,0.008,118.588-0.013,177.883c-0.001,1.835-0.174,3.682-0.424,5.499
		c-0.151,1.104-0.6,2.169-0.924,3.248c-0.202,0.67-0.391,1.345-0.64,1.996c-0.224,0.585-0.508,1.149-0.793,1.708
		c-0.257,0.504-0.57,0.977-0.825,1.48c-1.581,3.133-3.951,5.592-6.633,7.785c-1.976,1.615-4.185,2.841-6.525,3.819
		c-1.061,0.446-2.18,0.754-3.288,1.064c-1.109,0.315-2.228,0.615-3.36,0.817c-0.796,0.143-1.621,0.109-2.433,0.165
		c-0.422,0.026-0.842,0.079-1.263,0.116C188.408,281.57,148.167,281.57,107.926,281.57z"/>
	<path fill-rule="evenodd" clip-rule="evenodd" fill="#FFFFFF" d="M96.874,4.206c0.27,0.125,0.53,0.314,0.813,0.365
		c1.732,0.31,3.479,0.544,5.203,0.888c2.316,0.461,4.626,0.965,6.922,1.521c0.885,0.214,1.726,0.612,2.583,0.937
		c1.405,0.532,2.82,1.04,4.203,1.624c0.996,0.421,1.963,0.922,2.916,1.439c1.605,0.871,3.198,1.768,4.78,2.68
		c2.125,1.225,4.038,2.742,5.98,4.233c2.373,1.821,4.618,3.787,6.604,5.992c1.205,1.338,2.571,2.549,3.556,4.113
		c1.061,1.685,2.348,3.228,3.529,4.838c0.185,0.251,0.338,0.526,0.503,0.792c0.54,0.864,1.103,1.715,1.612,2.597
		c0.454,0.786,0.869,1.598,1.266,2.416c0.717,1.48,1.455,2.953,2.091,4.468c0.559,1.33,0.928,2.739,1.493,4.065
		c0.728,1.707,0.961,3.529,1.437,5.294c0.431,1.606,0.561,3.273,0.951,4.863c0.842,3.417,0.722,6.869,0.802,10.32
		c0.026,1.168-0.071,2.337-0.063,3.506c0.012,1.885-0.304,3.714-0.742,5.542c-0.264,1.094-0.304,2.239-0.53,3.344
		c-0.672,3.287-1.642,6.483-2.812,9.634c-0.786,2.117-1.849,4.084-2.8,6.111c-1.197,2.547-2.741,4.888-4.327,7.209
		c-1.786,2.613-3.851,4.999-5.93,7.37c-0.903,1.03-1.926,1.963-2.947,2.881c-2.768,2.487-5.676,4.809-8.818,6.798
		c-1.972,1.247-4.084,2.275-6.146,3.376c-1.057,0.565-2.122,1.126-3.222,1.597c-1.185,0.506-2.407,0.932-3.629,1.342
		c-1.427,0.48-2.857,0.971-4.315,1.337c-1.916,0.479-3.857,0.86-5.794,1.251c-2.955,0.596-5.96,0.778-8.958,0.961
		c-1.87,0.114-3.752,0.172-5.608-0.236c-0.103-0.022-0.212-0.024-0.318-0.023c-3.391,0.031-6.676-0.718-9.973-1.375
		c-2.449-0.489-4.833-1.184-7.13-2.179c-0.797-0.345-1.682-0.48-2.486-0.811c-1.14-0.468-2.227-1.063-3.361-1.545
		c-2.232-0.951-4.282-2.232-6.331-3.503c-1.581-0.98-3.083-2.094-4.579-3.205c-3.189-2.368-6.014-5.123-8.694-8.055
		c-2.551-2.79-4.772-5.807-6.77-8.999c-1.43-2.284-2.617-4.693-3.773-7.128c-0.85-1.79-1.514-3.635-2.146-5.497
		c-0.63-1.857-1.245-3.728-1.705-5.632c-0.422-1.747-0.569-3.558-0.944-5.317c-0.596-2.791-0.638-5.625-0.689-8.446
		c-0.045-2.544,0.082-5.1,0.293-7.638c0.157-1.898,0.52-3.783,0.888-5.656c0.304-1.548,0.799-3.059,1.12-4.605
		c0.366-1.772,1.251-3.361,1.719-5.081c0.405-1.489,1.182-2.785,1.754-4.181c0.925-2.255,2.168-4.335,3.368-6.435
		c0.816-1.428,1.839-2.74,2.788-4.091c0.686-0.975,1.402-1.928,2.109-2.887c0.167-0.226,0.331-0.459,0.53-0.656
		c1.995-1.968,3.812-4.099,5.879-6.011c2.462-2.277,5.095-4.322,7.862-6.149c2.062-1.362,4.152-2.766,6.496-3.688
		c1.072-0.422,2.074-1.02,3.12-1.514c0.5-0.235,1.023-0.42,1.542-0.613c1.35-0.5,2.695-1.015,4.057-1.48
		c0.932-0.318,1.878-0.601,2.834-0.833c1.816-0.442,3.645-0.838,5.468-1.25c0.171-0.039,0.35-0.051,0.525-0.075
		c1.433-0.184,2.869-0.357,4.299-0.565c0.21-0.03,0.397-0.226,0.595-0.345C89.505,4.206,93.19,4.206,96.874,4.206z M140.906,67.875
		c-0.217-28.506-22.362-50.305-49.678-50.317c-13.59-0.006-25.379,4.993-34.948,14.591c-9.591,9.62-14.554,21.438-14.451,35.071
		c0.116,15.28,6.142,28.002,17.813,37.881c9.146,7.741,19.861,11.587,31.829,11.502c15.244-0.109,27.929-6.134,37.792-17.678
		C137.04,89.824,140.778,79.064,140.906,67.875z"/>
	<path fill-rule="evenodd" clip-rule="evenodd" fill="#FFFFFF" d="M169.863,141.063c-11.759,0-23.52,0.004-35.278-0.007
		c-0.945-0.001-1.872,0.005-2.821-0.313c-1.308-0.44-2.174-1.305-3.107-2.244c-0.952-0.959-1.169-2.119-1.485-3.291
		c-0.063-0.234-0.061-0.494-0.048-0.74c0.111-1.98,0.872-3.586,2.387-4.957c1.345-1.216,2.888-1.546,4.559-1.683
		c0.563-0.046,1.132-0.03,1.699-0.03c22.917-0.002,45.835-0.008,68.751,0.015c1.193,0.001,2.405,0.164,3.572,0.416
		c1.052,0.228,1.869,0.967,2.626,1.718c0.247,0.244,0.433,0.55,0.644,0.83c1.649,2.187,1.635,4.99,0.105,7.248
		c-1.002,1.48-2.303,2.447-3.998,2.915c-0.302,0.083-0.629,0.094-0.945,0.097c-1.417,0.016-2.834,0.024-4.251,0.024
		C191.471,141.064,180.667,141.063,169.863,141.063z"/>
	<path fill-rule="evenodd" clip-rule="evenodd" fill="#FFFFFF" d="M170.015,168.439c11.509,0,23.019,0,34.528,0.001
		c0.602,0,1.204,0.01,1.806,0.011c2.116,0.004,3.649,0.971,5.016,2.586c1.578,1.867,1.552,3.937,1.021,5.982
		c-0.351,1.354-1.391,2.489-2.623,3.329c-1.362,0.93-2.848,1.313-4.494,1.313c-23.515-0.016-47.028-0.02-70.542,0.001
		c-1.893,0.002-3.568-0.504-4.992-1.711c-1.347-1.14-2.386-2.498-2.324-4.404c0.027-0.85,0.059-1.698,0.109-2.545
		c0.012-0.203,0.067-0.426,0.17-0.601c1.026-1.727,2.319-3.165,4.306-3.801c0.331-0.104,0.697-0.122,1.048-0.133
		c0.813-0.024,1.629-0.026,2.443-0.027C146.996,168.439,158.505,168.439,170.015,168.439z"/>
	<path fill-rule="evenodd" clip-rule="evenodd" fill="#FFFFFF" d="M170.016,210.497c11.547,0,23.094-0.002,34.641,0.001
		c0.779,0,1.559,0.022,2.337,0.038c1.59,0.028,2.766,0.896,3.828,1.943c0.421,0.416,0.739,0.938,1.098,1.415
		c0.774,1.031,0.787,2.263,0.759,3.447c-0.072,2.953-1.838,4.79-4.377,5.866c-0.967,0.41-2.155,0.388-3.245,0.396
		c-5.029,0.037-10.059,0.015-15.089,0.015c-18.275,0-36.553,0.004-54.829-0.005c-0.847-0.002-1.695-0.102-2.54-0.181
		c-1.367-0.127-2.404-0.916-3.353-1.805c-0.483-0.45-0.867-1.018-1.241-1.57c-0.337-0.497-0.569-1.05-0.551-1.682
		c0.01-0.388-0.033-0.779-0.07-1.166c-0.277-2.832,1.336-4.624,3.451-6.06c0.573-0.39,1.381-0.496,2.101-0.592
		c0.802-0.105,1.626-0.061,2.44-0.061C146.922,210.495,158.469,210.497,170.016,210.497z"/>
	<path fill-rule="evenodd" clip-rule="evenodd" fill="#FFFFFF" d="M110.096,73.728c-5.912,0.001-11.826-0.002-17.738,0.003
		c-1.166,0.001-2.377,0.083-3.41-0.503c-1.003-0.57-2.062-1.025-2.79-2.106c-1.116-1.66-1.537-3.433-1.538-5.359
		c-0.007-10.303-0.003-20.606,0.001-30.909c0.001-1.981,0.65-3.819,2.003-5.177c1.892-1.9,4.689-2.764,7.497-1.347
		c2.373,1.198,3.703,3.182,3.872,5.865c0.071,1.129,0.065,2.264,0.066,3.396c0.007,7.151,0.006,14.304,0.007,21.455
		c0,0.177-0.007,0.355,0.009,0.53c0.063,0.727,0.19,0.854,0.899,0.889c0.282,0.014,0.566,0.004,0.849,0.004
		c9.418,0,18.836-0.002,28.254,0.004c1.093,0.001,2.19-0.066,3.233,0.415c3.732,1.721,5.185,5.225,3.798,8.778
		c-0.646,1.656-1.892,2.797-3.452,3.493c-1.005,0.448-2.137,0.596-3.292,0.588C122.276,73.707,116.186,73.728,110.096,73.728z"/>
</g>
</svg>
