<?xml version="1.0" encoding="utf-8"?>
<!-- Generator: Adobe Illustrator 15.0.2, SVG Export Plug-In . SVG Version: 6.00 Build 0)  -->
<!DOCTYPE svg PUBLIC "-//W3C//DTD SVG 1.1//EN" "http://www.w3.org/Graphics/SVG/1.1/DTD/svg11.dtd">
<svg version="1.1" id="Layer_1" xmlns:sketch="http://www.bohemiancoding.com/sketch/ns"
	 xmlns="http://www.w3.org/2000/svg" xmlns:xlink="http://www.w3.org/1999/xlink" x="0px" y="0px" width="32px" height="62px"
	 viewBox="0 0 32 62" enable-background="new 0 0 32 62" xml:space="preserve">
<title>icon-4</title>
<desc>Created with Sketch.</desc>
<path fill="#505977" d="M14.254,23.561c-2.046,0-4.151-0.9-5.482-2.753l0.624,0.027c5.051,0,3.316-5.734,8.501-5.79l2.336,1.95
	C20.588,21.304,17.495,23.561,14.254,23.561z M26.14,11.901c1.451-2.28,4.692-8.354,5.932-10.716c0.076-0.132,0.11-0.266,0.11-0.395
	C32.182,0.359,31.797,0,31.376,0c-0.167,0-0.341,0.058-0.498,0.19c-2.046,1.73-7.224,6.147-9.2,7.992
	c-1.876,1.753-1.883,2.557-2.491,5.447l2.058,1.714C23.972,14.223,24.756,14.071,26.14,11.901z M28.605,13.06v13.554H2.861V9.736
	h14.442c0.936-2.559,2.489-3.811,8.017-8.581H0v28.32h31.465V8.569C30.479,10.307,29.642,11.809,28.605,13.06z"/>
<path fill="#FFFFFF" d="M14.254,54.549c-2.046,0-4.151-0.9-5.482-2.753l0.624,0.027c5.051,0,3.316-5.734,8.501-5.79l2.336,1.951
	C20.588,52.291,17.495,54.549,14.254,54.549z M26.14,42.889c1.451-2.279,4.692-8.354,5.932-10.715
	c0.076-0.133,0.11-0.267,0.11-0.395c0-0.431-0.385-0.791-0.806-0.791c-0.167,0-0.341,0.058-0.498,0.19
	c-2.046,1.73-7.224,6.148-9.2,7.992c-1.876,1.754-1.883,2.557-2.491,5.447l2.058,1.715C23.972,45.211,24.756,45.059,26.14,42.889z
	 M28.605,44.048v13.554H2.861V40.725h14.442c0.936-2.56,2.489-3.811,8.017-8.582H0v28.32h31.465V39.557
	C30.479,41.295,29.642,42.797,28.605,44.048z"/>
</svg>
