<?xml version="1.0" encoding="utf-8"?>
<!-- Generator: Adobe Illustrator 15.0.2, SVG Export Plug-In . SVG Version: 6.00 Build 0)  -->
<!DOCTYPE svg PUBLIC "-//W3C//DTD SVG 1.1//EN" "http://www.w3.org/Graphics/SVG/1.1/DTD/svg11.dtd">
<svg version="1.1" id="Layer_1" xmlns:sketch="http://www.bohemiancoding.com/sketch/ns"
	 xmlns="http://www.w3.org/2000/svg" xmlns:xlink="http://www.w3.org/1999/xlink" x="0px" y="0px" width="32px" height="62px"
	 viewBox="0 0 32 62" enable-background="new 0 0 32 62" xml:space="preserve">
<title>icon-4</title>
<desc>Created with Sketch.</desc>
<path fill="#FFFFFF" d="M15.938,42.324l9.296,8.65v8.369H6.641v-8.369L15.938,42.324z M15.938,38.695L3.984,49.818V62h23.907V49.818
	L15.938,38.695z M18.594,58.016h-5.313v-7.969h5.313V58.016z M31.875,46.26l-1.809,1.945L15.938,35.079L1.807,48.184L0,46.239
	l15.938-14.786L31.875,46.26z"/>
<path fill="#505977" d="M15.938,10.871l9.296,8.651v8.368H6.641v-8.368L15.938,10.871z M15.938,7.242L3.984,18.365v12.182h23.907
	V18.365L15.938,7.242z M18.594,26.563h-5.313v-7.969h5.313V26.563z M31.875,14.807l-1.809,1.945L15.938,3.626L1.807,16.731L0,14.786
	L15.938,0L31.875,14.807z"/>
</svg>
