<?xml version="1.0" encoding="utf-8"?>
<!-- Generator: Adobe Illustrator 15.0.2, SVG Export Plug-In . SVG Version: 6.00 Build 0)  -->
<!DOCTYPE svg PUBLIC "-//W3C//DTD SVG 1.1//EN" "http://www.w3.org/Graphics/SVG/1.1/DTD/svg11.dtd">
<svg version="1.1" id="Layer_1" xmlns:sketch="http://www.bohemiancoding.com/sketch/ns"
	 xmlns="http://www.w3.org/2000/svg" xmlns:xlink="http://www.w3.org/1999/xlink" x="0px" y="0px" width="32px" height="62px"
	 viewBox="0 0 32 62" enable-background="new 0 0 32 62" xml:space="preserve">
<title>icon-4</title>
<desc>Created with Sketch.</desc>
<path fill="#505977" d="M6.675,2.67H2.67V1.335h4.005V2.67z M21.268,2.67l1.084,1.627c0.991,1.489,2.651,2.377,4.443,2.377h2.576
	V24.03H2.67V6.675h5.247c1.79,0,3.451-0.889,4.442-2.377l1.084-1.627L21.268,2.67L21.268,2.67z M22.695,0h-10.68l-1.877,2.815
	c-0.495,0.744-1.328,1.19-2.221,1.19H0v22.696h32.041V4.005h-5.246c-0.895,0-1.727-0.446-2.222-1.189L22.695,0z M8.01,10.681
	c0-0.737-0.597-1.335-1.335-1.335c-0.739,0-1.335,0.598-1.335,1.335c0,0.736,0.596,1.335,1.335,1.335
	C7.414,12.016,8.01,11.417,8.01,10.681z M17.355,10.681c2.209,0,4.004,1.796,4.004,4.005c0,2.208-1.795,4.005-4.004,4.005
	c-2.208,0-4.005-1.797-4.005-4.005C13.351,12.477,15.147,10.681,17.355,10.681z M17.355,8.01c-3.687,0-6.675,2.99-6.675,6.676
	s2.99,6.675,6.675,6.675c3.685,0,6.674-2.989,6.674-6.675S21.041,8.01,17.355,8.01z"/>
<path fill="#FFFFFF" d="M6.675,35.045H2.67V33.71h4.005V35.045z M21.268,35.045l1.084,1.627c0.991,1.49,2.651,2.377,4.443,2.377
	h2.576v17.356H2.67V39.051h5.247c1.79,0,3.451-0.889,4.442-2.377l1.084-1.627h7.825V35.045z M22.695,32.375h-10.68l-1.877,2.815
	c-0.495,0.744-1.328,1.19-2.221,1.19H0v22.695h32.041V36.381h-5.246c-0.895,0-1.727-0.446-2.222-1.189L22.695,32.375z M8.01,43.057
	c0-0.737-0.597-1.335-1.335-1.335c-0.739,0-1.335,0.598-1.335,1.335c0,0.736,0.596,1.335,1.335,1.335
	C7.414,44.392,8.01,43.793,8.01,43.057z M17.355,43.057c2.209,0,4.004,1.796,4.004,4.005c0,2.208-1.795,4.005-4.004,4.005
	c-2.208,0-4.005-1.797-4.005-4.005C13.351,44.853,15.147,43.057,17.355,43.057z M17.355,40.385c-3.687,0-6.675,2.99-6.675,6.677
	s2.99,6.675,6.675,6.675c3.685,0,6.674-2.988,6.674-6.675S21.041,40.385,17.355,40.385z"/>
</svg>
