<?xml version="1.0" encoding="utf-8"?>
<!-- Generator: Adobe Illustrator 15.0.2, SVG Export Plug-In . SVG Version: 6.00 Build 0)  -->
<!DOCTYPE svg PUBLIC "-//W3C//DTD SVG 1.1//EN" "http://www.w3.org/Graphics/SVG/1.1/DTD/svg11.dtd">
<svg version="1.1" id="Layer_1" xmlns:sketch="http://www.bohemiancoding.com/sketch/ns"
	 xmlns="http://www.w3.org/2000/svg" xmlns:xlink="http://www.w3.org/1999/xlink" x="0px" y="0px" width="32px" height="62px"
	 viewBox="0 0 32 62" enable-background="new 0 0 32 62" xml:space="preserve">
<title>icon-4</title>
<desc>Created with Sketch.</desc>
<path fill="#505977" d="M29.428,8.025v16.052H8.025V8.025H29.428z M32.104,5.351H5.351v21.401h26.752V5.351z M21.4,20.97v0.432
	H10.701v-0.445c-0.004-1.189,0.047-1.869,1.417-2.186c1.5-0.347,2.981-0.656,2.27-1.97c-2.109-3.895-0.602-6.1,1.664-6.1
	c2.224,0,3.767,2.124,1.665,6.1c-0.691,1.306,0.736,1.615,2.27,1.97C21.359,19.087,21.407,19.771,21.4,20.97z M26.752,10.701h-4.013
	v2.675h4.013V10.701z M26.752,14.714h-4.013v2.675h4.013V14.714z M26.752,18.727h-4.013v2.675h4.013V18.727z M28.09,0H0v22.739
	h2.675V2.675H28.09V0z"/>
<path fill="#FFFFFF" d="M29.428,40.375v16.052H8.025V40.375H29.428z M32.104,37.701H5.351v21.4h26.752V37.701z M21.4,53.32v0.432
	H10.701v-0.445c-0.004-1.189,0.047-1.869,1.417-2.186c1.5-0.348,2.981-0.656,2.27-1.971c-2.109-3.895-0.602-6.1,1.664-6.1
	c2.224,0,3.767,2.124,1.665,6.1c-0.691,1.307,0.736,1.615,2.27,1.971C21.359,51.437,21.407,52.121,21.4,53.32z M26.752,43.051
	h-4.013v2.675h4.013V43.051z M26.752,47.063h-4.013v2.675h4.013V47.063z M26.752,51.076h-4.013v2.676h4.013V51.076z M28.09,32.35H0
	v22.739h2.675V35.024H28.09V32.35z"/>
</svg>
