<?xml version="1.0" encoding="utf-8"?>
<!-- Generator: Adobe Illustrator 15.0.2, SVG Export Plug-In . SVG Version: 6.00 Build 0)  -->
<!DOCTYPE svg PUBLIC "-//W3C//DTD SVG 1.1//EN" "http://www.w3.org/Graphics/SVG/1.1/DTD/svg11.dtd">
<svg version="1.1" id="Layer_1" xmlns:sketch="http://www.bohemiancoding.com/sketch/ns"
	 xmlns="http://www.w3.org/2000/svg" xmlns:xlink="http://www.w3.org/1999/xlink" x="0px" y="0px" width="32px" height="62px"
	 viewBox="0 0 32 62" enable-background="new 0 0 32 62" xml:space="preserve">
<title>icon-4</title>
<desc>Created with Sketch.</desc>
<path fill="#505977" d="M8.112,2.667c1.839,2.148,3.435,4,6.555,4h14.667V24H2.667V2.667H8.112z M9.333,0H0v26.667h32V4H14.667
	C12.495,4,11.593,2.589,9.333,0z M14.287,12.87l-3.895,0.539l2.833,2.721L12.535,20L16,18.146L19.466,20l-0.69-3.87l2.834-2.721
	l-3.896-0.539L16,9.333L14.287,12.87z"/>
<path fill="#FFFFFF" d="M8.112,35.059c1.839,2.148,3.435,4,6.555,4h14.667v17.334H2.667V35.059H8.112z M9.333,32.393H0v26.666h32
	V36.393H14.667C12.495,36.393,11.593,34.98,9.333,32.393z M14.287,45.262l-3.895,0.539l2.833,2.721l-0.69,3.871L16,50.538
	l3.466,1.854l-0.69-3.871l2.834-2.721l-3.896-0.539L16,41.725L14.287,45.262z"/>
</svg>
