<?xml version="1.0" encoding="utf-8"?>
<!-- Generator: Adobe Illustrator 22.0.1, SVG Export Plug-In . SVG Version: 6.00 Build 0)  -->
<svg version="1.1" id="圖層_1" xmlns="http://www.w3.org/2000/svg" xmlns:xlink="http://www.w3.org/1999/xlink" x="0px" y="0px"
	 viewBox="0 0 154 40" style="enable-background:new 0 0 154 40;" xml:space="preserve">
<style type="text/css">
	.st0{clip-path:url(#SVGID_2_);fill:#FFFFFF;}
	.st1{clip-path:url(#SVGID_4_);fill:#FFFFFF;}
	.st2{clip-path:url(#SVGID_6_);fill:#FFFFFF;}
	.st3{clip-path:url(#SVGID_8_);fill:#FFFFFF;}
	.st4{clip-path:url(#SVGID_10_);fill:#FFFFFF;}
	.st5{clip-path:url(#SVGID_12_);fill:#FFFFFF;}
	.st6{clip-path:url(#SVGID_14_);fill:#FFFFFF;}
	.st7{clip-path:url(#SVGID_16_);fill:#FFFFFF;}
	.st8{fill:#FFFFFF;}
</style>
<g>
	<title>工作區域 1</title>
	<g>
		<defs>
			<rect id="SVGID_1_" x="0" y="0" width="154" height="23.8"/>
		</defs>
		<clipPath id="SVGID_2_">
			<use xlink:href="#SVGID_1_"  style="overflow:visible;"/>
		</clipPath>
		<rect x="0" y="5.4" class="st0" width="7.2" height="18.4"/>
	</g>
	<g>
		<defs>
			<rect id="SVGID_3_" x="0" y="0" width="154" height="23.8"/>
		</defs>
		<clipPath id="SVGID_4_">
			<use xlink:href="#SVGID_3_"  style="overflow:visible;"/>
		</clipPath>
		<path class="st1" d="M57,24c-4.2,0-7.4-4.5-7.4-9.6l0,0c0-5.1,3.2-9.6,7.4-9.6h10.1c4.2,0,7.4,4.5,7.4,9.6l0,0
			c0,5.1-3.2,9.6-7.4,9.6H57z M56,12.6c-0.3,0.5-0.5,1.1-0.5,1.6l0,0c0,0.6,0.2,1.2,0.5,1.7l0,0c0.2,0.3,0.6,0.5,1,0.6h10.1
			c0.4,0,0.7-0.2,1-0.6l0,0c0.3-0.5,0.5-1.1,0.5-1.7l0,0c0-0.6-0.2-1.2-0.5-1.6l0,0c-0.2-0.3-0.6-0.5-1-0.6H57
			C56.6,12.1,56.2,12.4,56,12.6z"/>
	</g>
	<g>
		<defs>
			<rect id="SVGID_5_" x="0" y="-1" width="154" height="23.8"/>
		</defs>
		<clipPath id="SVGID_6_">
			<use xlink:href="#SVGID_5_"  style="overflow:visible;"/>
		</clipPath>
		<path class="st2" d="M133.1,15.5h-11.7c-0.4,0-0.7-0.2-1-0.6c-0.7-1-0.7-2.3,0-3.3c0.2-0.3,0.6-0.5,1-0.6h11.7V3.7h-11.7
			c-4.2,0-7.4,4.5-7.4,9.6s3.2,9.6,7.4,9.6h11.7V15.5z"/>
	</g>
	<g>
		<defs>
			<rect id="SVGID_7_" x="0" y="0" width="154" height="23.8"/>
		</defs>
		<clipPath id="SVGID_8_">
			<use xlink:href="#SVGID_7_"  style="overflow:visible;"/>
		</clipPath>
		<path class="st3" d="M98.7,10H111V4.7H98.8c-4.2,0-7.4,4.5-7.4,9.6s3.2,9.6,7.4,9.6h12.1v-5.8H98.7c-0.4,0-0.7-0.7-1-1.3h12.9
			v-5.4H97.7v-0.1C97.8,10.8,98.3,10,98.7,10z"/>
	</g>
	<g>
		<defs>
			<rect id="SVGID_9_" x="0" y="0" width="154" height="23.8"/>
		</defs>
		<clipPath id="SVGID_10_">
			<use xlink:href="#SVGID_9_"  style="overflow:visible;"/>
		</clipPath>
		<path class="st4" d="M145.6,4.3c-1.4,0-2.7,0.3-3.9,0.8V0h-5.5v12.3c-0.1,0.3-0.1,0.7-0.1,1c0,0.2,0,0.4,0,0.5V24h6.8V13.8
			c0-0.5,0.3-0.9,0.6-1.2c0.4-0.4,1-0.6,1.5-0.6c0.6,0,1.2,0.2,1.7,0.6c0.3,0.3,0.5,0.7,0.5,1.2V24h7.3V13.8
			C154.6,8.8,150.6,4.5,145.6,4.3z"/>
	</g>
	<g>
		<defs>
			<rect id="SVGID_11_" x="0" y="0" width="154" height="23.8"/>
		</defs>
		<clipPath id="SVGID_12_">
			<use xlink:href="#SVGID_11_"  style="overflow:visible;"/>
		</clipPath>
		<path class="st5" d="M84.8,14.8v-2.5h3.1V6h-3.1V0h-5.7v6h-2.4v6.2h2.4v2.6l0,0v1.6c0.1,3.4,2.4,6.4,5.6,7.4h3.2V17h-1.4
			C84.7,17,84.8,14.8,84.8,14.8L84.8,14.8z"/>
	</g>
	<g>
		<defs>
			<rect id="SVGID_13_" x="0" y="0" width="154" height="23.8"/>
		</defs>
		<clipPath id="SVGID_14_">
			<use xlink:href="#SVGID_13_"  style="overflow:visible;"/>
		</clipPath>
		<path class="st6" d="M15.5,24v-8.6c0-0.7,0.2-1.4,0.7-1.9c0.5-0.6,1.2-1,2-1s1.5,0.4,2,1c0.4,0.5,0.7,1.2,0.7,1.9V24h5.7v-7.7
			c0-6.2-4-10.7-8.5-10.7s-8.4,4.6-8.5,10.7V24H15.5z"/>
	</g>
	<g>
		<defs>
			<rect id="SVGID_15_" x="0" y="0" width="154" height="23.8"/>
		</defs>
		<clipPath id="SVGID_16_">
			<use xlink:href="#SVGID_15_"  style="overflow:visible;"/>
		</clipPath>
		<path class="st7" d="M35,24v-8.6c0-0.7,0.2-1.4,0.7-1.9c0.9-1.1,2.5-1.3,3.6-0.5c0.2,0.1,0.3,0.3,0.5,0.5c0.4,0.5,0.7,1.2,0.7,1.9
			V24h5.7v-7.7c0-6.2-4-10.7-8.5-10.7s-8.4,4.6-8.5,10.7V24H35z"/>
	</g>
</g>
<g>
	<path class="st8" d="M0.9,31.9c0.8-0.1,2.1-1.4,3.7-3.8l1.3,0.5C5,29.9,4,31,3,31.9c1.9-0.1,3.8-0.2,5.7-0.4C8.4,31,8,30.5,7.6,30
		l1.1-0.5c1,1.2,1.9,2.5,2.7,4L10.3,34c-0.3-0.5-0.5-1-0.8-1.4c-2.5,0.2-5.3,0.4-8.3,0.5L0.9,31.9z M10.1,39.3H8.9v-0.5H3.1v0.5H1.9
		v-5.1h8.3V39.3z M8.9,37.7v-2.3H3.1v2.3H8.9z"/>
	<path class="st8" d="M38.5,32.9l-0.8,0.8c-0.4-0.6-1-1.1-1.8-1.8l0.8-0.8C37.4,31.7,38,32.3,38.5,32.9z M38.7,34.9
		c-0.5,1.5-1.1,2.9-1.7,4.3l-1.1-0.5c0.7-1.4,1.3-2.8,1.8-4.2L38.7,34.9z M38.6,30l-0.8,0.8c-0.4-0.5-1-1.1-1.7-1.7l0.8-0.8
		C37.5,28.9,38.1,29.5,38.6,30z M39.4,32.4c0,0.5-0.1,1-0.2,1.5l-0.7-0.3c0.1-0.4,0.2-0.9,0.3-1.4L39.4,32.4z M41.4,32l-0.7,0.2
		c0-0.1-0.1-0.2-0.1-0.3c-0.6,0.1-1.2,0.2-1.9,0.3l-0.2-0.7c0.2-0.1,0.6-0.4,1-1c-0.3,0-0.5,0.1-0.8,0.1l-0.2-0.6
		c0.3-0.4,0.6-0.9,0.9-1.6l0.8,0.2c-0.2,0.5-0.5,0.9-0.8,1.3l0.5,0c0.1-0.2,0.3-0.4,0.4-0.6l0.8,0.3c-0.3,0.5-0.6,0.9-0.9,1.3
		l0.6-0.2C41.1,30.9,41.3,31.4,41.4,32z M40.5,36.8h5.9c0,1.1-0.1,1.8-0.3,2.1c-0.2,0.3-0.6,0.4-1.2,0.5c-0.6,0-1.2,0-1.7,0l-0.3-1
		c0.6,0,1.2,0,1.8,0c0.2,0,0.4-0.1,0.4-0.2c0-0.1,0.1-0.3,0.1-0.5h-6l0.3-2.4h5.3v-0.5h-5.4V34H46v2.3h-5.4L40.5,36.8z M40.4,33.7
		l-0.7,0.1c0-0.6,0-1.1-0.1-1.4l0.6-0.1C40.3,32.7,40.3,33.1,40.4,33.7z M39.8,31.3l0.6-0.1c-0.1-0.2-0.1-0.3-0.2-0.5
		C40.1,30.9,39.9,31.1,39.8,31.3z M41.4,33.4l-0.6,0.2c-0.1-0.4-0.2-0.8-0.3-1.2l0.6-0.2C41.2,32.6,41.3,33,41.4,33.4z M42.1,28.9
		c-0.1-0.2-0.1-0.4-0.2-0.6l1-0.2c0.1,0.2,0.1,0.5,0.2,0.7h1v0.8h-2.9v-0.8H42.1z M43.8,31.9v1.8h-2.4v-1.8H43.8z M43.7,30v0.7h-2.2
		V30H43.7z M43.7,30.9v0.7h-2.1v-0.7H43.7z M43,32.5h-0.7V33H43V32.5z M46.9,31.9l-0.7,0.2c0-0.1,0-0.2-0.1-0.3
		c-0.6,0.1-1.2,0.2-2,0.3L44,31.4c0.2-0.1,0.6-0.4,1-1l-0.7,0.1l-0.2-0.6c0.3-0.4,0.6-0.9,0.9-1.6l0.8,0.2c-0.2,0.5-0.5,0.9-0.8,1.3
		c0.2,0,0.4,0,0.5-0.1c0.1-0.2,0.3-0.4,0.4-0.6l0.8,0.3c-0.3,0.4-0.6,0.8-0.8,1.1l0.5-0.1C46.6,30.8,46.7,31.3,46.9,31.9z
		 M44.9,32.4c0,0.5-0.1,1-0.2,1.4L44,33.6c0.1-0.4,0.2-0.9,0.3-1.4L44.9,32.4z M45.9,33.7l-0.7,0.1c0-0.6-0.1-1.1-0.1-1.4l0.6-0.1
		C45.8,32.6,45.9,33.1,45.9,33.7z M45.2,31.3c0.3,0,0.5-0.1,0.7-0.1c-0.1-0.2-0.1-0.3-0.2-0.5C45.5,30.9,45.3,31.1,45.2,31.3z
		 M46.9,33.3l-0.6,0.2c-0.1-0.4-0.2-0.8-0.4-1.2l0.6-0.2C46.7,32.6,46.8,33,46.9,33.3z"/>
	<path class="st8" d="M80.8,34.9h1.4V36H77c-0.2,0.6-0.6,1.1-1,1.5c-0.8,0.8-2.1,1.4-3.9,1.9l-0.7-1.1c1.8-0.4,3.1-1,3.7-1.6
		c0.2-0.2,0.4-0.5,0.5-0.7h-4.2v-1.2h1.4v-2.9h3.4v-1h1.2v1h3.4V34.9z M74,29.1v-0.9h1.2v0.9h1.3v1.2h-1.3v0.9H74v-0.9h-2.4v-1.2H74
		z M76.1,34.9c0-0.3,0.1-0.5,0.1-0.8v-0.9H74v1.8H76.1z M82.4,38.4l-0.9,1.1c-1.2-0.7-2.7-1.4-4.6-2l0.7-0.9
		C79.5,37.1,81.1,37.7,82.4,38.4z M79.6,28.2v0.9H82v1.2h-2.4v0.9h-1.2v-0.9H77v-1.2h1.3v-0.9H79.6z M77.4,34c0,0.3,0,0.6-0.1,0.8
		h2.2v-1.8h-2.1V34z"/>
	<path class="st8" d="M108.7,31.3v-1.4c-0.5,0.1-1,0.1-1.6,0.2l-0.3-1.2c1.5-0.1,2.9-0.3,4.1-0.7l0.4,1.2c-0.5,0.1-1,0.2-1.5,0.3
		v1.6h1.5v1.2H110v0.4c0.6,0.5,1.3,1,1.9,1.6l-0.7,1.1c-0.5-0.6-0.9-1.1-1.2-1.4v5.1h-1.3v-5c-0.4,1-1,1.9-1.7,2.8l-0.6-1.4
		c0.9-0.9,1.6-2,2.1-3.1h-1.7v-1.2H108.7z M117.8,35.8l-1.1,0.2v3.3h-1.3v-3.1l-3.6,0.6l-0.2-1.2l3.8-0.6v-6.7h1.3v6.5l0.9-0.1
		L117.8,35.8z M114.8,33.4l-0.9,0.9c-0.5-0.6-1.2-1.2-2.1-1.8l0.9-0.9C113.6,32.2,114.2,32.8,114.8,33.4z M115.1,30.6l-0.9,0.9
		c-0.5-0.5-1.2-1.1-2.1-1.7l0.9-0.9C113.9,29.4,114.6,30,115.1,30.6z"/>
	<path class="st8" d="M143.1,33.5l-1.1-0.3c0.4-1.3,0.6-2.6,0.6-4l1.1,0.1c0,0.5,0,0.9-0.1,1.3h0.6v-2.4h1.2v2.4h0.9v1.2h-0.9v2.4
		c0.3-0.1,0.6-0.3,1-0.4V35c-0.3,0.1-0.6,0.3-1,0.4v3.9h-1.2v-3.5c-0.6,0.2-1.2,0.4-1.9,0.6l-0.3-1.2c0.7-0.1,1.5-0.3,2.2-0.5v-2.9
		h-0.8C143.4,32.4,143.2,32.9,143.1,33.5z M150.3,28.2v1.2h2.7v1.2h-2.7v1h2.4v1.2h-5.8v-1.2h2.2v-1h-2.7v-1.2h2.7v-1.2H150.3z
		 M150.5,33.8v-0.6h1.2v0.6h1.3V35h-1.3V38c0,0.8-0.4,1.2-1.3,1.2H149l-0.3-1.2c0.4,0,0.8,0.1,1.2,0.1c0.3,0,0.5-0.1,0.5-0.4V35
		h-3.8v-1.2H150.5z M149.2,37l-1,0.7c-0.3-0.6-0.8-1.2-1.4-1.9l1-0.6C148.4,35.9,148.9,36.5,149.2,37z"/>
</g>
</svg>
