<?xml version="1.0" encoding="utf-8"?>
<!-- Generator: Adobe Illustrator 16.0.3, SVG Export Plug-In . SVG Version: 6.00 Build 0)  -->
<!DOCTYPE svg PUBLIC "-//W3C//DTD SVG 1.1//EN" "http://www.w3.org/Graphics/SVG/1.1/DTD/svg11.dtd">
<svg version="1.1" id="圖層_1" xmlns="http://www.w3.org/2000/svg" xmlns:xlink="http://www.w3.org/1999/xlink" x="0px" y="0px"
	 width="400px" height="114px" viewBox="0 0 400 114" enable-background="new 0 0 400 114" xml:space="preserve">
<g>
	<g>
		<polygon fill="#E5006E" points="378.463,64.909 328.619,64.909 328.619,110.953 307.066,110.953 307.066,0.877 328.619,0.877 
			328.619,47.446 378.463,47.446 378.463,47.446 378.463,0.877 400,0.877 400,110.953 378.463,110.953 378.463,63.694 		"/>
		<polygon fill="#E5006E" points="169.015,0.877 159.817,0.877 150.604,0.877 103.823,110.953 126.418,110.953 159.276,31.44 
			160.357,31.44 192.91,110.953 215.803,110.953 		"/>
		<path fill="#E5006E" d="M212.496,86.752l0.22,0.556c1.535,4.016,10.49,25.079,39.933,26.199
			c47.211,1.81,46.364-28.659,46.364-34.923c0-4.125-2.287-16.621-16.037-23.891c-17.69-9.37-47.822-8.242-47.822-26.269
			c0-5.527,4.92-13.28,19.523-13.562c14.142-0.267,21.546,8.955,22.548,14.125l16.147-4.736c-2.867-6.311-9.01-23.946-39.447-23.946
			c-5.97,0-11.399,0.658-16.029,2.233c-18.928,6.413-22.359,21.036-22.336,28.326c0.267,42.161,62.872,31.209,62.167,52.997
			c-0.251,7.983-8.069,14.29-23.786,13.616c-16.288-0.674-21.851-10.671-24.467-16.512L212.496,86.752z"/>
		<path fill="#E5006E" d="M56.393,16.782c14.141-0.306,22.556,7.035,24.083,11.92l17.267-4.736C94.868,17.659,84.965,1.234,56.996,0
			l0,0C4.019,0,0,49.651,0,54.693c0,52.331,38.906,58.156,54.027,58.849c13.499,0.65,34.276-0.748,44.422-2.816v-7.212V90.708
			V47.446H43.779V64.94H77.93c0.172,0,0.313,0.141,0.313,0.313v30.672c0,0.185-0.141,0.368-0.298,0.432
			c0,0-8.461,1.684-20.667,1.265c-4.795-0.145-34.777-1.344-34.777-40.657C22.501,31.707,35.099,17.005,56.393,16.782"/>
	</g>
</g>
</svg>
