<?xml version="1.0" encoding="utf-8"?>
<!-- Generator: Adobe Illustrator 16.0.0, SVG Export Plug-In . SVG Version: 6.00 Build 0)  -->
<!DOCTYPE svg PUBLIC "-//W3C//DTD SVG 1.1//EN" "http://www.w3.org/Graphics/SVG/1.1/DTD/svg11.dtd">
<svg version="1.1" id="Layer_1" xmlns="http://www.w3.org/2000/svg" xmlns:xlink="http://www.w3.org/1999/xlink" x="0px" y="0px"
	 width="24px" height="24px" viewBox="0 0 24 24" enable-background="new 0 0 24 24" xml:space="preserve">
<g>
	<path fill-rule="evenodd" clip-rule="evenodd" fill="#7F96A1" d="M0.423,22.615c0.064,0.003,0.07-0.041,0.073-0.09
		c0.008-0.123-0.007-0.253,0.029-0.368c0.088-0.29,0.039-0.585,0.065-0.877c0.004-0.048,0.032-0.093,0.047-0.14
		c0.011-0.033,0.021-0.067,0.025-0.104C0.67,20.97,0.664,20.9,0.675,20.834c0.014-0.094,0.039-0.186,0.056-0.278
		c0.01-0.051,0.015-0.103,0.016-0.155c0.004-0.159,0.004-0.318,0.008-0.477c0.001-0.059-0.019-0.125,0.058-0.161
		c0.015-0.008,0.015-0.053,0.015-0.081c0.005-0.176,0.007-0.352,0.011-0.526c0.002-0.09,0.08-0.158,0.15-0.203
		c0.157-0.1,0.325-0.063,0.489-0.064c6.922-0.002,13.843-0.001,20.765-0.006c0.13,0,0.235,0.053,0.348,0.089
		c0.044,0.015,0.084,0.103,0.09,0.16c0.016,0.181,0.012,0.363,0.021,0.545c0.002,0.035,0.033,0.068,0.047,0.104
		c0.013,0.032,0.026,0.065,0.027,0.098c0.006,0.199,0.006,0.396,0.014,0.595c0.002,0.041,0.028,0.081,0.039,0.122
		c0.011,0.04,0.021,0.082,0.024,0.122c0.004,0.089-0.002,0.177,0.007,0.264c0.004,0.037,0.035,0.072,0.049,0.109
		c0.013,0.032,0.023,0.067,0.024,0.101c0.004,0.218,0.002,0.436,0.01,0.653c0.002,0.048,0.036,0.095,0.052,0.143
		c0.01,0.03,0.014,0.063,0.016,0.094c0.01,0.136-0.012,0.282,0.034,0.405c0.044,0.12,0.045,0.236,0.055,0.355
		c0.004,0.068,0.002,0.138-0.002,0.205c-0.002,0.055,0.016,0.121-0.06,0.148c-0.006,0.002-0.012,0.016-0.013,0.025
		c-0.001,0.107-0.071,0.165-0.148,0.229c-0.073,0.062-0.131,0.14-0.201,0.206c-0.018,0.017-0.055,0.017-0.083,0.019
		c-0.165,0.007-0.33,0.019-0.496,0.019c-2.302,0.002-4.604,0.001-6.905,0.001c-4.577,0-9.155,0.001-13.732,0
		c-0.155,0-0.312-0.018-0.467-0.016c-0.159,0.002-0.238-0.109-0.33-0.207c-0.034-0.036-0.065-0.075-0.094-0.116
		c-0.024-0.034-0.055-0.071-0.061-0.11c-0.007-0.058-0.03-0.072-0.082-0.061C0.423,22.993,0.423,22.805,0.423,22.615z"/>
	<path fill-rule="evenodd" clip-rule="evenodd" fill="#7F96A1" d="M12.206,1c-0.009,0.055,0.017,0.074,0.07,0.076
		c0.243,0.012,0.473,0.119,0.722,0.089c0.031-0.004,0.069,0.035,0.103,0.055c0.008,0.005,0.014,0.016,0.021,0.018
		c0.111,0.031,0.223,0.06,0.333,0.092c0.021,0.006,0.041,0.021,0.06,0.034c0.013,0.008,0.023,0.032,0.031,0.031
		c0.116-0.018,0.219,0.039,0.293,0.102c0.078,0.066,0.19,0.038,0.254,0.136c0.032,0.051,0.119,0.065,0.18,0.1
		c0.064,0.037,0.13,0.075,0.188,0.12c0.129,0.098,0.245,0.211,0.39,0.291c0.048,0.027,0.081,0.083,0.121,0.125
		c0.036,0.037,0.072,0.073,0.108,0.11c0.046,0.048,0.091,0.096,0.137,0.145c0.062,0.064,0.125,0.126,0.183,0.193
		c0.053,0.062,0.097,0.131,0.146,0.196c0.029,0.038,0.054,0.084,0.092,0.111c0.077,0.055,0.135,0.118,0.158,0.213
		c0.009,0.034,0.04,0.072,0.071,0.087c0.088,0.045,0.046,0.176,0.146,0.211c0.01,0.003,0.007,0.036,0.016,0.052
		c0.017,0.037,0.04,0.071,0.058,0.107c0.009,0.019,0.01,0.042,0.02,0.062c0.018,0.032,0.039,0.062,0.059,0.093
		c0.004,0.008,0.015,0.012,0.018,0.021c0.033,0.103,0.063,0.208,0.099,0.311c0.042,0.124,0.091,0.246,0.134,0.37
		c0.013,0.033,0.017,0.068,0.022,0.103c0.011,0.066-0.017,0.145,0.064,0.188c0.013,0.006,0.01,0.042,0.011,0.064
		c0.003,0.091,0.003,0.182,0.008,0.273c0.003,0.054-0.019,0.116,0.055,0.151c0.017,0.007,0.018,0.059,0.018,0.091
		c0.002,0.172,0.003,0.345,0.003,0.517c0,1.057,0.001,2.113-0.002,3.17c-0.001,0.071,0.042,0.163-0.063,0.21
		c-0.012,0.004-0.015,0.042-0.011,0.064c0.016,0.115-0.065,0.174-0.136,0.239c-0.029,0.029-0.059,0.059-0.088,0.088
		c-0.042,0.043-0.081,0.09-0.128,0.128c-0.02,0.016-0.055,0.013-0.084,0.019c-0.052,0.009-0.113-0.015-0.142,0.065
		c-0.015,0.04-0.213,0.011-0.244-0.028c-0.011-0.014-0.03-0.032-0.042-0.029c-0.102,0.017-0.175-0.048-0.254-0.089
		c-0.037-0.02-0.066-0.057-0.096-0.089c-0.055-0.058-0.108-0.117-0.159-0.178c-0.011-0.013-0.005-0.039-0.013-0.056
		c-0.015-0.035-0.034-0.066-0.049-0.102c-0.011-0.025-0.023-0.053-0.025-0.081c-0.004-0.055-0.003-0.11-0.003-0.166
		c-0.001-1.235-0.001-2.47-0.006-3.706c0-0.091,0.036-0.195-0.066-0.267c-0.018-0.012-0.003-0.063-0.014-0.093
		c-0.016-0.048-0.04-0.094-0.06-0.14c-0.004-0.009-0.014-0.018-0.013-0.025c0.021-0.123-0.049-0.225-0.101-0.316
		c-0.043-0.078-0.037-0.19-0.136-0.235c-0.007-0.003-0.013-0.016-0.014-0.024c-0.004-0.106-0.07-0.171-0.146-0.23
		c-0.007-0.005-0.009-0.018-0.01-0.027c-0.002-0.101-0.088-0.139-0.146-0.2c-0.065-0.069-0.121-0.145-0.186-0.215
		c-0.036-0.04-0.08-0.073-0.12-0.11C14,3.475,13.96,3.435,13.919,3.396c-0.04-0.039-0.09-0.071-0.118-0.117
		c-0.051-0.085-0.163-0.071-0.219-0.157c-0.032-0.049-0.142-0.05-0.171-0.099c-0.057-0.097-0.198-0.025-0.234-0.137
		c-0.001-0.003-0.004-0.006-0.007-0.007c-0.091-0.029-0.179-0.062-0.271-0.086c-0.052-0.014-0.121,0.021-0.144-0.062
		c0-0.002-0.004-0.004-0.008-0.005c-0.116-0.034-0.232-0.093-0.352-0.096c-0.426-0.012-0.852-0.006-1.276-0.002
		c-0.05,0-0.098,0.034-0.146,0.052c-0.027,0.01-0.055,0.018-0.083,0.024c-0.056,0.013-0.127-0.007-0.152,0.073
		c-0.002,0.005-0.018,0.013-0.025,0.011c-0.124-0.029-0.22,0.051-0.328,0.087c-0.018,0.006-0.031,0.024-0.049,0.036
		c-0.017,0.013-0.034,0.031-0.055,0.037c-0.044,0.013-0.11-0.02-0.115,0.065c-0.001,0.005-0.027,0.013-0.043,0.014
		C10.03,3.034,9.975,3.096,9.92,3.162c-0.009,0.01-0.024,0.021-0.038,0.022c-0.097,0.012-0.143,0.083-0.198,0.15
		C9.649,3.376,9.595,3.402,9.551,3.438C9.519,3.463,9.489,3.491,9.462,3.521C9.373,3.622,9.287,3.727,9.196,3.826
		c-0.037,0.04-0.084,0.07-0.124,0.106c-0.013,0.012-0.02,0.03-0.028,0.045C8.998,4.047,8.951,4.115,8.907,4.186
		c-0.014,0.021-0.02,0.046-0.033,0.068c-0.018,0.028-0.04,0.055-0.06,0.082c-0.007,0.009-0.018,0.019-0.02,0.029
		C8.788,4.422,8.776,4.467,8.732,4.521C8.695,4.566,8.675,4.646,8.645,4.711c-0.035,0.074-0.053,0.165-0.07,0.241
		C8.536,5.125,8.467,5.291,8.468,5.476c0.005,1.213,0.001,2.425-0.001,3.638c0,0.065,0.018,0.154-0.017,0.189
		C8.382,9.374,8.409,9.482,8.318,9.545C8.244,9.596,8.212,9.712,8.136,9.757c-0.062,0.037-0.109,0.12-0.207,0.101
		C7.885,9.85,7.829,9.846,7.808,9.92c-0.013,0.04-0.21,0.012-0.245-0.027C7.55,9.878,7.525,9.859,7.511,9.862
		C7.41,9.883,7.337,9.82,7.27,9.771C7.196,9.719,7.153,9.627,7.084,9.566c-0.072-0.063-0.049-0.159-0.09-0.219
		C6.863,9.154,6.931,8.944,6.929,8.744c-0.008-1.03-0.004-2.061-0.002-3.091c0-0.105-0.024-0.214,0.058-0.313
		C7.016,5.3,6.999,5.221,7.007,5.16c0.026-0.186,0.026-0.383,0.094-0.553C7.142,4.504,7.151,4.404,7.18,4.303
		C7.203,4.22,7.264,4.147,7.308,4.069c0.004-0.008,0.014-0.018,0.012-0.025C7.291,3.925,7.384,3.846,7.422,3.75
		c0.032-0.083,0.091-0.156,0.136-0.234c0.034-0.061,0.055-0.134,0.102-0.183C7.748,3.24,7.766,3.104,7.881,3.021
		c0.083-0.059,0.127-0.171,0.195-0.253c0.064-0.079,0.138-0.149,0.205-0.225c0.037-0.041,0.07-0.086,0.107-0.128
		c0.028-0.032,0.054-0.075,0.09-0.092c0.104-0.048,0.143-0.175,0.268-0.204c0.047-0.011,0.08-0.075,0.124-0.11
		c0.077-0.063,0.156-0.126,0.238-0.184c0.083-0.058,0.165-0.124,0.258-0.16c0.072-0.028,0.111-0.104,0.21-0.106
		c0.065-0.001,0.132-0.083,0.197-0.128c0.006-0.004,0.008-0.012,0.014-0.013c0.098-0.01,0.188-0.024,0.278-0.083
		c0.12-0.076,0.278-0.069,0.4-0.153c0.025-0.017,0.062-0.019,0.094-0.021c0.077-0.004,0.156,0.003,0.234-0.007
		c0.069-0.009,0.137-0.041,0.207-0.054c0.079-0.014,0.16-0.02,0.241-0.024C11.295,1.074,11.323,1.058,11.309,1
		C11.607,1,11.907,1,12.206,1z"/>
	<path fill-rule="evenodd" clip-rule="evenodd" fill="#7F96A1" d="M11.76,18.066c-3.498,0-6.997-0.001-10.495,0.003
		c-0.104,0-0.173-0.043-0.248-0.092c-0.015-0.009-0.02-0.04-0.02-0.061c0.005-0.146-0.005-0.289,0.054-0.437
		c0.048-0.125,0.002-0.283,0.04-0.413c0.093-0.314,0.049-0.635,0.076-0.951c0.002-0.026,0.025-0.052,0.04-0.077
		c0.009-0.02,0.021-0.037,0.027-0.058c0.005-0.019,0.003-0.039,0.005-0.059c0.014-0.151,0.004-0.301,0.049-0.456
		c0.05-0.17,0.021-0.36,0.032-0.543c0.005-0.074-0.043-0.168,0.065-0.216c0.014-0.006,0.01-0.055,0.01-0.085
		c0.004-0.204,0.004-0.408,0.011-0.613c0-0.033,0.026-0.066,0.038-0.1c0.011-0.028,0.025-0.059,0.028-0.089
		c0.006-0.094-0.001-0.188,0.01-0.282c0.008-0.067,0.037-0.132,0.055-0.199c0.008-0.03,0.014-0.063,0.014-0.095
		c0.004-0.201,0.001-0.403,0.012-0.604c0.013-0.264,0.124-0.515,0.094-0.783c0.138-0.237,0.04-0.498,0.074-0.745
		c0.007-0.05,0.033-0.098,0.047-0.147c0.012-0.037,0.024-0.075,0.025-0.112c0.006-0.117,0.004-0.234,0.01-0.352
		c0.003-0.064-0.015-0.136,0.055-0.185c0.015-0.01,0.011-0.049,0.012-0.074c0.003-0.146,0.003-0.293,0.01-0.439
		C1.892,9.732,1.86,9.647,1.952,9.598c0.015-0.008,0.011-0.054,0.013-0.083c0.003-0.188,0.001-0.377,0.009-0.565
		c0.003-0.053,0.032-0.106,0.048-0.16c0.008-0.027,0.014-0.056,0.016-0.085c0.007-0.117,0.002-0.235,0.02-0.35
		c0.02-0.138,0.052-0.275,0.089-0.41c0.011-0.042,0.048-0.08,0.082-0.109c0.1-0.085,0.196-0.175,0.312-0.239
		C2.556,7.588,2.577,7.59,2.597,7.588c0.074-0.009,0.152,0.01,0.212-0.065C2.825,7.501,2.882,7.505,2.92,7.505
		c0.943-0.001,1.886-0.001,2.829,0c0.217,0,0.278,0.067,0.279,0.287c0.001,0.53,0.002,1.06,0.004,1.59
		c0,0.07-0.005,0.14,0.056,0.197C6.111,9.6,6.113,9.652,6.112,9.689C6.108,9.804,6.157,9.888,6.249,9.952
		c0.009,0.007,0.019,0.02,0.02,0.03c0.004,0.103,0.083,0.149,0.147,0.21c0.069,0.066,0.122,0.149,0.191,0.215
		c0.047,0.046,0.109,0.077,0.166,0.114c0.052,0.034,0.104,0.067,0.157,0.103c0.012,0.009,0.019,0.03,0.031,0.034
		c0.124,0.033,0.247,0.068,0.371,0.096c0.06,0.013,0.132-0.016,0.17,0.063c0.005,0.012,0.041,0.013,0.063,0.013
		c0.098,0.001,0.196,0.005,0.293-0.002c0.039-0.003,0.076-0.036,0.114-0.049c0.032-0.012,0.067-0.016,0.101-0.023
		c0.058-0.013,0.137,0.029,0.16-0.067c0.001-0.004,0.018-0.009,0.025-0.008c0.178,0.024,0.285-0.121,0.43-0.177
		c0.041-0.016,0.072-0.063,0.104-0.099c0.034-0.041,0.061-0.09,0.099-0.127c0.068-0.065,0.149-0.119,0.212-0.189
		c0.045-0.051,0.064-0.122,0.1-0.181c0.021-0.04,0.059-0.072,0.07-0.113c0.015-0.05-0.012-0.125,0.015-0.152
		c0.127-0.127,0.055-0.288,0.09-0.43C9.49,8.758,9.403,8.295,9.429,7.838C9.43,7.822,9.43,7.804,9.425,7.79
		C9.406,7.745,9.348,7.718,9.399,7.647c0.062-0.084,0.11-0.146,0.232-0.146c1.421,0.004,2.842,0.004,4.263,0
		c0.109,0,0.177,0.052,0.244,0.115c0.02,0.018,0.014,0.067,0.014,0.103c0.002,0.569,0.002,1.138,0.004,1.707
		c0,0.053-0.006,0.105,0.055,0.143c0.023,0.015,0.028,0.08,0.023,0.118c-0.018,0.112,0.07,0.172,0.116,0.253
		c0.014,0.023,0.028,0.045,0.043,0.066c0.039,0.059,0.073,0.122,0.118,0.175c0.034,0.039,0.087,0.063,0.123,0.1
		c0.036,0.039,0.055,0.097,0.097,0.127c0.089,0.066,0.198,0.111,0.278,0.186c0.078,0.071,0.19,0.047,0.249,0.092
		c0.103,0.079,0.229,0.027,0.308,0.084c0.129,0.094,0.259,0.045,0.387,0.057c0.026,0.002,0.057-0.027,0.086-0.039
		c0.033-0.013,0.069-0.026,0.105-0.033c0.076-0.015,0.172,0.031,0.221-0.071c0.003-0.005,0.019-0.007,0.027-0.006
		c0.134,0.02,0.223-0.059,0.314-0.138c0.055-0.047,0.128-0.075,0.189-0.116c0.038-0.025,0.074-0.055,0.104-0.089
		c0.063-0.074,0.106-0.167,0.18-0.222c0.104-0.08,0.11-0.224,0.218-0.296c0.016-0.01,0.012-0.049,0.016-0.075
		c0.007-0.057-0.013-0.12,0.06-0.16c0.021-0.011,0.019-0.072,0.019-0.11c0.002-0.559,0.003-1.118,0.004-1.677
		c0.001-0.168,0.119-0.29,0.288-0.29c0.939-0.001,1.879-0.001,2.819,0.002c0.048,0,0.095,0.038,0.144,0.051
		c0.05,0.013,0.101,0.025,0.15,0.027c0.11,0.004,0.196,0.041,0.254,0.14c0.021,0.036,0.059,0.066,0.096,0.088
		c0.111,0.065,0.112,0.181,0.159,0.282c0.089,0.191,0.014,0.396,0.083,0.568c0.111,0.276,0.03,0.554,0.071,0.827
		c0.006,0.044,0.033,0.084,0.049,0.127c0.008,0.021,0.017,0.042,0.018,0.063c0.004,0.062,0.002,0.124,0.007,0.185
		c0.01,0.123-0.006,0.244,0.055,0.368c0.046,0.095,0.021,0.223,0.025,0.337c0.003,0.059,0,0.117,0.003,0.175
		c0.004,0.075-0.013,0.153,0.06,0.214c0.023,0.019,0.021,0.073,0.023,0.111c0.003,0.182,0.002,0.363,0.006,0.546
		c0.003,0.074-0.017,0.154,0.056,0.215c0.019,0.015,0.012,0.061,0.013,0.094c0.004,0.095,0.001,0.189,0.01,0.283
		c0.003,0.036,0.033,0.068,0.047,0.104c0.011,0.032,0.022,0.067,0.023,0.1c0.006,0.271,0.007,0.54,0.017,0.81
		c0.001,0.046,0.032,0.09,0.048,0.137c0.008,0.023,0.016,0.049,0.018,0.073c0.005,0.097-0.016,0.203,0.016,0.291
		c0.106,0.295,0.048,0.601,0.075,0.899c0.003,0.037,0.034,0.071,0.05,0.108c0.011,0.027,0.023,0.057,0.025,0.087
		c0.006,0.14,0.003,0.28,0.015,0.419c0.008,0.087,0.041,0.173,0.051,0.26c0.013,0.109,0.012,0.221,0.022,0.33
		c0.007,0.081-0.032,0.175,0.063,0.236c0.017,0.011,0.01,0.062,0.011,0.094c0.003,0.204,0.003,0.41,0.009,0.615
		c0.001,0.033,0.028,0.065,0.04,0.099c0.012,0.032,0.027,0.064,0.029,0.098c0.005,0.11,0.003,0.221,0.01,0.331
		c0.004,0.074-0.021,0.158,0.06,0.214c0.013,0.009,0.01,0.043,0.01,0.065c0.003,0.078,0.007,0.155,0.007,0.233
		c0.001,0.209-0.045,0.256-0.252,0.256c-1.07,0-2.14,0-3.209,0C16.631,18.066,14.195,18.066,11.76,18.066z"/>
</g>
</svg>
