<?xml version="1.0" encoding="utf-8"?>
<!-- Generator: Adobe Illustrator 16.0.3, SVG Export Plug-In . SVG Version: 6.00 Build 0)  -->
<!DOCTYPE svg PUBLIC "-//W3C//DTD SVG 1.1//EN" "http://www.w3.org/Graphics/SVG/1.1/DTD/svg11.dtd">
<svg version="1.1" id="home" xmlns="http://www.w3.org/2000/svg" xmlns:xlink="http://www.w3.org/1999/xlink" x="0px" y="0px"
	 width="200px" height="793.701px" viewBox="0 0.334 200 793.701" enable-background="new 0 0.334 200 793.701"
	 xml:space="preserve">
<g>
	<g>
		<g>
			
				<path fill="#91BCB8" stroke="#91BCB8" stroke-width="5" stroke-linecap="round" stroke-linejoin="round" stroke-miterlimit="10" d="
				M188.453,72.485l-85.326-62.47c-1.639-1.204-3.879-1.204-5.525,0L12.28,72.485c-2.082,1.528-2.536,4.457-1.009,6.54
				c1.524,2.083,4.452,2.537,6.536,1.009l82.56-60.449l82.559,60.447c0.84,0.61,1.801,0.905,2.766,0.905
				c1.438,0,2.857-0.66,3.771-1.912C190.988,76.94,190.537,74.014,188.453,72.485z"/>
		</g>
	</g>
	<g>
		<g>
			
				<path fill="#91BCB8" stroke="#91BCB8" stroke-width="5" stroke-linecap="round" stroke-linejoin="round" stroke-miterlimit="10" d="
				M165.848,58.919c-2.589,0-4.683,2.094-4.683,4.673v116.926h-37.412v-40.636c0-12.897-10.485-23.385-23.386-23.385
				c-12.893,0-23.386,10.489-23.386,23.385v40.636H39.568V63.594c0-2.581-2.095-4.674-4.679-4.674s-4.679,2.093-4.679,4.674v121.602
				c0,2.583,2.094,4.678,4.679,4.678h46.77c2.458,0,4.471-1.903,4.659-4.313c0.012-0.107,0.019-0.227,0.019-0.363v-45.313
				c0-7.739,6.293-14.032,14.029-14.032c7.737,0,14.028,6.295,14.028,14.032v45.313c0,0.135,0.01,0.252,0.021,0.36
				c0.187,2.412,2.203,4.317,4.663,4.317h46.77c2.58,0,4.672-2.093,4.672-4.678V63.594
				C170.521,61.014,168.428,58.919,165.848,58.919z"/>
		</g>
	</g>
</g>
<g>
	<g>
		
			<path fill="#91BCB8" stroke="#91BCB8" stroke-width="3" stroke-linecap="round" stroke-linejoin="round" stroke-miterlimit="10" d="
			M100.278,209.871c-28.328,0-51.285,22.964-51.285,51.282c0,28.326,22.958,51.285,51.285,51.285
			c28.326,0,51.283-22.958,51.283-51.285C151.561,232.834,128.604,209.871,100.278,209.871z M100.278,301.666
			c-22.371,0-40.508-18.135-40.508-40.512c0-22.37,18.137-40.509,40.508-40.509c22.375,0,40.513,18.14,40.513,40.508
			C140.791,283.529,122.654,301.666,100.278,301.666z"/>
		
			<path fill="#91BCB8" stroke="#91BCB8" stroke-width="3" stroke-linecap="round" stroke-linejoin="round" stroke-miterlimit="10" d="
			M166.982,307.2c-0.063-0.005-4.422-1.986-8.282-2.938c-0.917-0.957-4.897-1.556-6.32-1.556c-2.577,0-4.694,1.938-4.976,4.438
			c-9.744,15.487-26.982,25.789-46.631,25.789c-20.022,0-37.536-10.695-47.163-26.679c-0.225-0.725-0.604-1.375-1.104-1.915
			c-0.093-0.173-0.193-0.345-0.287-0.518l-0.215,0.025c-0.866-0.72-1.975-1.142-3.189-1.142c-1.272,0-4.221,0.485-5.106,1.272
			c-4.392,1.246-7.795,2.477-7.856,2.479c-18.451,7.693-25.579,26.382-25.579,43.404v35.41c0,2.541,2.057,4.593,4.591,4.593h40.312
			h65.401h65.103c2.543,0,4.596-2.052,4.596-4.593v-35.41C190.271,332.843,182.844,312.946,166.982,307.2z M181.089,380.684H120.58
			H55.179H19.461v-30.82c0-12.313,4.35-26.73,17.476-33.35c0.118-0.052,4.852-2.293,9.719-3.729
			c11.129,17.764,31.065,28.639,53.821,28.639c22.616,0,42.145-11.202,53.242-28.89c0.275,0.063,0.551,0.105,0.79,0.136v0.043
			c5.283,1.575,9.765,3.758,9.888,3.802c12.783,5.226,16.697,21.033,16.697,33.35v30.82H181.089z"/>
	</g>
</g>
<g>
	<g>
		<g>
			
				<path fill="#91BCB8" stroke="#91BCB8" stroke-width="6" stroke-linecap="round" stroke-linejoin="round" stroke-miterlimit="10" d="
				M85.987,555.51c-8.201,0-14.868,6.675-14.868,14.869c0,8.203,6.669,14.869,14.868,14.869c8.201,0,14.865-6.666,14.865-14.869
				C100.85,562.185,94.188,555.51,85.987,555.51z M85.987,576.95c-3.621,0-6.566-2.948-6.566-6.574c0-3.62,2.946-6.564,6.566-6.564
				c3.621,0,6.566,2.945,6.566,6.564C92.553,574.002,89.606,576.95,85.987,576.95z"/>
		</g>
	</g>
	<g>
		<g>
			
				<path fill="#91BCB8" stroke="#91BCB8" stroke-width="6" stroke-linecap="round" stroke-linejoin="round" stroke-miterlimit="10" d="
				M138.145,555.51c-8.205,0-14.869,6.675-14.869,14.869c0,8.203,6.664,14.869,14.869,14.869c8.196,0,14.869-6.666,14.869-14.869
				C153.012,562.185,146.341,555.51,138.145,555.51z M138.145,576.95c-3.621,0-6.572-2.948-6.572-6.574
				c0-3.62,2.953-6.564,6.572-6.564c3.621,0,6.563,2.945,6.563,6.564C144.707,574.002,141.764,576.95,138.145,576.95z"/>
		</g>
	</g>
	<g>
		<g>
			
				<path fill="#91BCB8" stroke="#91BCB8" stroke-width="5" stroke-linecap="round" stroke-linejoin="round" stroke-miterlimit="10" d="
				M182.292,438.521c-1.582-1.942-3.929-3.063-6.438-3.063H40.67l-2.615-12.672c-0.542-2.646-2.346-4.024-4.823-5.101l-12.368-2.088
				c-2.105-0.922-4.547,0.045-5.46,2.151c-0.914,2.104,0.052,4.546,2.154,5.459l12.369,2.938l20.085,116.026
				c0.788,3.841,4.211,6.63,8.129,6.63h105.335c2.289,0,4.148-1.859,4.148-4.155c0-2.29-1.859-4.152-4.148-4.152H58.143
				l-3.357-25.918h107.702c3.923,0,7.343-2.786,8.134-6.626l13.366-62.513C184.497,442.986,183.879,440.461,182.292,438.521z
				 M162.488,506.281H53.076l-10.696-62.52h133.474L162.488,506.281z"/>
		</g>
	</g>
	<path fill="#91BCB8" stroke="#91BCB8" stroke-miterlimit="10" d="M166.545,441.464c1.816,3.427,12.249,0.811,8.814,2.63
		L60.146,505.868c-3.43,1.817-7.684,0.516-9.503-2.911l0,0c-1.82-3.437-0.516-7.688,2.916-9.506l103.477-54.898
		C160.468,436.732,164.725,438.037,166.545,441.464L166.545,441.464z"/>
</g>
<g>
	<path fill="#91BCB8" stroke="#91BCB8" stroke-linecap="round" stroke-linejoin="round" stroke-miterlimit="10" d="M159.268,741.954
		c-13.385,18.616-35.215,30.752-59.894,30.752c-40.731,0-73.751-33.02-73.751-73.752c0-40.731,33.02-73.75,73.751-73.75
		c24.681,0,46.514,12.134,59.9,30.75h18.604c-15.211-27.712-44.66-46.5-78.503-46.5c-49.43,0-89.5,40.07-89.5,89.5
		c0,49.431,40.071,89.501,89.5,89.501c33.843,0,63.287-18.79,78.497-46.501H159.268z"/>
	
		<path fill-rule="evenodd" clip-rule="evenodd" fill="#91BCB8" stroke="#91BCB8" stroke-linecap="round" stroke-linejoin="round" stroke-miterlimit="10" d="
		M188.728,698.812c-11.979-9.582-24.008-19.204-36.036-28.826c-0.066,0.024-0.132,0.048-0.197,0.072
		c-0.016,0.345-0.046,0.689-0.046,1.034c-0.003,6.379-0.001,12.759-0.001,19.138c0,0.219,0.006,0.438-0.004,0.656
		c-0.026,0.62-0.214,0.805-0.854,0.833c-0.248,0.011-0.493,0.002-0.741,0.002c-18.562,0.001-37.124,0-55.688,0.003
		c-0.371,0-0.743,0.024-1.135,0.038c0,0.023,0,0.046,0,0.068c-3.812,0.148-6.859,3.276-6.859,7.124s3.047,6.976,6.859,7.124
		c0,0.033,0,0.065,0,0.1c0.442,0.02,0.846,0.052,1.249,0.052c13.169,0.003,26.337,0.002,39.508,0.002
		c5.503,0,11.006-0.001,16.51,0.001c1.089,0,1.153,0.073,1.154,1.174c0.001,3.341,0.001,6.682,0.001,10.021
		c0,3.176-0.004,6.353,0.002,9.527c0,0.308,0.052,0.613,0.083,0.968c0.19-0.084,0.272-0.102,0.333-0.149
		c11.948-9.566,23.896-19.135,35.842-28.705c0.016-0.014,0.016-0.051,0.021-0.077C188.731,698.966,188.728,698.938,188.728,698.812z
		"/>
</g>
</svg>
