<?xml version="1.0" encoding="utf-8"?>
<!-- Generator: Adobe Illustrator 16.0.3, SVG Export Plug-In . SVG Version: 6.00 Build 0)  -->
<!DOCTYPE svg PUBLIC "-//W3C//DTD SVG 1.1//EN" "http://www.w3.org/Graphics/SVG/1.1/DTD/svg11.dtd">
<svg version="1.1" id="home" xmlns="http://www.w3.org/2000/svg" xmlns:xlink="http://www.w3.org/1999/xlink" x="0px" y="0px"
	 width="200px" height="793.701px" viewBox="0 0.399 200 793.701" enable-background="new 0 0.399 200 793.701"
	 xml:space="preserve">
<g>
	<g>
		<g>
			
				<path fill="#51636B" stroke="#51636B" stroke-width="5" stroke-linecap="round" stroke-linejoin="round" stroke-miterlimit="10" d="
				M186.006,73.236l-82.957-60.734c-1.592-1.171-3.77-1.171-5.371,0L14.726,73.236c-2.025,1.486-2.465,4.333-0.981,6.358
				c1.483,2.025,4.33,2.466,6.354,0.98l80.268-58.769l80.265,58.767c0.815,0.594,1.751,0.88,2.688,0.88
				c1.396,0,2.777-0.641,3.666-1.859C188.471,77.567,188.032,74.722,186.006,73.236z"/>
		</g>
	</g>
	<g>
		<g>
			
				<path fill="#51636B" stroke="#51636B" stroke-width="5" stroke-linecap="round" stroke-linejoin="round" stroke-miterlimit="10" d="
				M164.025,60.047c-2.514,0-4.551,2.034-4.551,4.544v113.677h-36.371V138.76c0-12.539-10.194-22.735-22.736-22.735
				c-12.535,0-22.736,10.198-22.736,22.735v39.508H41.257V64.592c0-2.509-2.037-4.544-4.548-4.544c-2.513,0-4.549,2.036-4.549,4.544
				v118.223c0,2.51,2.036,4.548,4.549,4.548H82.18c2.39,0,4.347-1.851,4.529-4.194c0.012-0.105,0.019-0.221,0.019-0.354V138.76
				c0-7.522,6.118-13.641,13.64-13.641c7.522,0,13.638,6.12,13.638,13.641v44.055c0,0.131,0.01,0.245,0.021,0.35
				c0.183,2.345,2.144,4.198,4.535,4.198h45.465c2.514,0,4.547-2.037,4.547-4.548V64.592
				C168.572,62.084,166.537,60.047,164.025,60.047z"/>
		</g>
	</g>
</g>
<g>
	<g>
		
			<path fill="#51636B" stroke="#51636B" stroke-width="3" stroke-linecap="round" stroke-linejoin="round" stroke-miterlimit="10" d="
			M100.278,212.371c-27.541,0-49.86,22.326-49.86,49.859c0,27.538,22.32,49.857,49.86,49.857c27.539,0,49.859-22.319,49.859-49.857
			C150.137,234.696,127.816,212.371,100.278,212.371z M100.278,301.616c-21.749,0-39.382-17.631-39.382-39.385
			c0-21.75,17.633-39.385,39.382-39.385c21.751,0,39.387,17.636,39.387,39.384C139.665,283.983,122.032,301.616,100.278,301.616z"/>
		
			<path fill="#51636B" stroke="#51636B" stroke-width="3" stroke-linecap="round" stroke-linejoin="round" stroke-miterlimit="10" d="
			M165.129,306.996c-0.061-0.004-4.299-1.932-8.052-2.855c-0.892-0.932-4.763-1.513-6.146-1.513c-2.506,0-4.563,1.886-4.838,4.313
			c-9.474,15.058-26.232,25.074-45.335,25.074c-19.466,0-36.492-10.398-45.852-25.938c-0.218-0.704-0.587-1.337-1.074-1.861
			c-0.089-0.168-0.188-0.333-0.279-0.504l-0.209,0.024c-0.841-0.698-1.92-1.108-3.1-1.108c-1.237,0-4.103,0.472-4.964,1.237
			c-4.27,1.212-7.578,2.408-7.638,2.41c-17.938,7.479-24.869,25.648-24.869,42.199V382.9c0,2.472,2,4.466,4.464,4.466H56.43h63.583
			h63.293c2.475,0,4.469-1.994,4.469-4.466v-34.426C187.771,331.927,180.55,312.583,165.129,306.996z M178.844,378.438h-58.828
			H56.432H21.706v-29.963c0-11.972,4.23-25.988,16.992-32.425c0.115-0.049,4.717-2.228,9.449-3.623
			c10.819,17.27,30.202,27.843,52.325,27.843c21.988,0,40.973-10.893,51.764-28.088c0.267,0.063,0.533,0.104,0.767,0.133v0.041
			c5.138,1.531,9.492,3.653,9.612,3.694c12.428,5.081,16.234,20.45,16.234,32.425v29.963H178.844z"/>
	</g>
</g>
<g>
	<g>
		<g>
			
				<path fill="#51636B" stroke="#51636B" stroke-width="6" stroke-linecap="round" stroke-linejoin="round" stroke-miterlimit="10" d="
				M85.988,555.508c-8.2,0-14.868,6.678-14.868,14.87c0,8.204,6.67,14.87,14.868,14.87c8.201,0,14.864-6.666,14.864-14.87
				C100.852,562.186,94.19,555.508,85.988,555.508z M85.988,576.953c-3.621,0-6.566-2.953-6.566-6.578
				c0-3.62,2.946-6.564,6.566-6.564c3.621,0,6.565,2.946,6.565,6.564C92.553,574.002,89.608,576.953,85.988,576.953z"/>
		</g>
	</g>
	<g>
		<g>
			
				<path fill="#51636B" stroke="#51636B" stroke-width="6" stroke-linecap="round" stroke-linejoin="round" stroke-miterlimit="10" d="
				M138.146,555.508c-8.205,0-14.869,6.678-14.869,14.87c0,8.204,6.664,14.87,14.869,14.87c8.195,0,14.869-6.666,14.869-14.87
				C153.014,562.186,146.342,555.508,138.146,555.508z M138.146,576.953c-3.619,0-6.574-2.953-6.574-6.578
				c0-3.62,2.955-6.564,6.574-6.564s6.563,2.946,6.563,6.564C144.709,574.002,141.764,576.953,138.146,576.953z"/>
		</g>
	</g>
	<g>
		<g>
			
				<path fill="#51636B" stroke="#51636B" stroke-width="5" stroke-linecap="round" stroke-linejoin="round" stroke-miterlimit="10" d="
				M182.293,438.523c-1.581-1.945-3.93-3.066-6.436-3.066H40.671l-2.614-12.671c-0.542-2.646-2.346-4.026-4.823-5.101l-12.368-2.088
				c-2.106-0.923-4.547,0.043-5.46,2.152c-0.914,2.102,0.052,4.543,2.154,5.456l12.369,2.938l20.085,116.027
				c0.788,3.842,4.211,6.631,8.129,6.631h105.335c2.289,0,4.149-1.86,4.149-4.155c0-2.29-1.86-4.153-4.149-4.153H58.145
				l-3.357-25.919H162.49c3.924,0,7.344-2.785,8.133-6.626l13.369-62.514C184.499,442.987,183.88,440.46,182.293,438.523z
				 M162.49,506.28H53.077l-10.696-62.52h133.475L162.49,506.28z"/>
		</g>
	</g>
	<path fill="#51636B" d="M166.547,441.463c1.818,3.426,12.249,0.811,8.814,2.631L60.147,505.868c-3.43,1.816-7.685,0.516-9.502-2.91
		l0,0c-1.82-3.438-0.516-7.69,2.916-9.507l103.477-54.898C160.469,436.733,164.729,438.036,166.547,441.463L166.547,441.463z"/>
</g>
<path fill="none" d="M-116.626,422.633c-40.731,0-73.751,33.019-73.751,73.75c0,40.732,33.02,73.752,73.751,73.752
	c27.659,0,51.748-15.235,64.37-37.762c-1.077,0.862-2.154,1.726-3.232,2.588c-0.081,0.064-0.193,0.089-0.451,0.202
	c-0.042-0.48-0.111-0.895-0.111-1.311c-0.008-4.298-0.004-8.599-0.004-12.897c0-4.522,0-9.045-0.001-13.567
	c-0.001-1.491-0.089-1.589-1.563-1.589c-7.45-0.003-14.9-0.002-22.351-0.002c-17.829,0-35.657,0.001-53.485-0.003
	c-0.546,0-1.092-0.043-1.69-0.069c0-6.532,0-12.965,0-19.518c0.53-0.019,1.034-0.052,1.536-0.052
	c25.132-0.003,50.263-0.002,75.393-0.003c0.334,0,0.667,0.012,1.001-0.003c0.867-0.039,1.122-0.289,1.157-1.127
	c0.013-0.295,0.004-0.593,0.004-0.889c0-8.637-0.002-17.273,0.002-25.909c0-0.467,0.041-0.934,0.063-1.4
	c0.088-0.032,0.178-0.064,0.268-0.098c0.838,0.671,1.676,1.341,2.514,2.011C-66.068,437.123-89.65,422.633-116.626,422.633z"/>
<g>
	<path fill="#51636B" stroke="#51636B" stroke-linecap="round" stroke-linejoin="round" stroke-miterlimit="10" d="M159.268,742.02
		c-13.385,18.616-35.215,30.752-59.894,30.752c-40.731,0-73.751-33.02-73.751-73.752c0-40.731,33.02-73.75,73.751-73.75
		c24.681,0,46.514,12.134,59.9,30.75h18.604c-15.211-27.712-44.66-46.5-78.503-46.5c-49.43,0-89.5,40.07-89.5,89.5
		c0,49.431,40.071,89.501,89.5,89.501c33.843,0,63.287-18.79,78.497-46.501H159.268z"/>
	
		<path fill-rule="evenodd" clip-rule="evenodd" fill="#51636B" stroke="#51636B" stroke-linecap="round" stroke-linejoin="round" stroke-miterlimit="10" d="
		M188.728,698.877c-11.979-9.582-24.008-19.204-36.036-28.826c-0.066,0.024-0.132,0.048-0.197,0.072
		c-0.016,0.345-0.046,0.689-0.046,1.034c-0.003,6.379-0.001,12.759-0.001,19.138c0,0.219,0.006,0.438-0.004,0.656
		c-0.026,0.62-0.214,0.805-0.854,0.833c-0.248,0.011-0.493,0.002-0.741,0.002c-18.562,0.001-37.124,0-55.688,0.003
		c-0.371,0-0.743,0.024-1.135,0.038c0,0.023,0,0.046,0,0.068c-3.812,0.148-6.859,3.276-6.859,7.124s3.047,6.976,6.859,7.124
		c0,0.033,0,0.065,0,0.1c0.442,0.02,0.846,0.052,1.249,0.052c13.169,0.003,26.337,0.002,39.508,0.002
		c5.503,0,11.006-0.001,16.51,0.001c1.089,0,1.153,0.073,1.154,1.174c0.001,3.341,0.001,6.682,0.001,10.021
		c0,3.176-0.004,6.353,0.002,9.527c0,0.308,0.052,0.613,0.083,0.968c0.19-0.084,0.272-0.102,0.333-0.149
		c11.948-9.566,23.896-19.135,35.842-28.705c0.016-0.014,0.016-0.051,0.021-0.077C188.731,699.031,188.728,699.003,188.728,698.877z
		"/>
</g>
</svg>
