<?xml version="1.0" encoding="utf-8"?>
<!-- Generator: Adobe Illustrator 16.0.0, SVG Export Plug-In . SVG Version: 6.00 Build 0)  -->
<!DOCTYPE svg PUBLIC "-//W3C//DTD SVG 1.1//EN" "http://www.w3.org/Graphics/SVG/1.1/DTD/svg11.dtd">
<svg version="1.1" id="圖層_1" xmlns="http://www.w3.org/2000/svg" xmlns:xlink="http://www.w3.org/1999/xlink" x="0px" y="0px"
	 width="159px" height="50px" viewBox="0 0 159 50" enable-background="new 0 0 159 50" xml:space="preserve">
<g>
	<g>
		<g>
			<path fill="#EF8200" d="M73.054,9.818c-0.028,0-0.057-0.001-0.086-0.005c-0.078-0.009-0.152-0.03-0.222-0.062
				c-0.112-0.051-0.213-0.13-0.288-0.234c-0.036-0.047-0.066-0.098-0.088-0.154c-0.025-0.058-0.042-0.119-0.051-0.179l-1.452-8.313
				c-0.037-0.216,0.023-0.438,0.165-0.605C71.171,0.097,71.379,0,71.6,0h15.45c0.007,0,0.012,0,0.018,0
				c0.177,0.004,0.341,0.07,0.468,0.179c0.036,0.03,0.069,0.064,0.099,0.101c0.093,0.115,0.15,0.258,0.161,0.415
				c0.002,0.028,0.002,0.059,0.002,0.089c-0.004,0.035-0.008,0.069-0.014,0.103l-1.451,8.315c-0.063,0.357-0.373,0.617-0.733,0.617
				h-12.53C73.063,9.818,73.06,9.818,73.054,9.818z M75.759,8.33h9.214l1.067-6.118L75.759,8.33z M72.485,1.488L73.6,7.882
				l10.747-6.394H72.485z"/>
		</g>
		<g>
			<path fill="#EF8200" d="M87.78,13.438H69.409l-2.088-11.95h-2.332c-0.41,0-0.743-0.333-0.743-0.744
				C64.246,0.333,64.579,0,64.989,0h3.583l2.087,11.95h17.12c0.411,0,0.743,0.333,0.743,0.743
				C88.523,13.104,88.191,13.438,87.78,13.438z"/>
		</g>
	</g>
	<g>
		<path fill="#4D9790" d="M15.093,34.529h-2.024v-7.877H4.132v7.877H2.109v-17.27h2.022v7.575h8.937v-7.575h2.024V34.529z"/>
		<path fill="#4D9790" d="M26.583,34.819c-2.45,0-4.412-0.809-5.883-2.42c-1.474-1.616-2.21-3.713-2.21-6.301
			c0-2.777,0.75-4.993,2.251-6.648c1.502-1.653,3.546-2.481,6.13-2.481c2.385,0,4.305,0.804,5.764,2.408
			c1.456,1.606,2.184,3.706,2.184,6.3c0,2.817-0.746,5.047-2.239,6.685C31.085,33.998,29.087,34.819,26.583,34.819z M26.727,18.8
			c-1.815,0-3.289,0.655-4.42,1.963c-1.133,1.309-1.698,3.028-1.698,5.154c0,2.13,0.552,3.841,1.656,5.137
			c1.104,1.297,2.542,1.944,4.318,1.944c1.894,0,3.388-0.616,4.479-1.854c1.093-1.237,1.64-2.967,1.64-5.191
			c0-2.28-0.531-4.043-1.593-5.286C30.051,19.421,28.59,18.8,26.727,18.8z"/>
		<path fill="#4D9790" d="M55.824,34.529h-2.012V22.944c0-0.917,0.056-2.035,0.169-3.36h-0.048
			c-0.193,0.777-0.366,1.336-0.518,1.674l-5.902,13.271h-0.987l-5.89-13.176c-0.169-0.384-0.341-0.975-0.519-1.769H40.07
			c0.064,0.689,0.098,1.819,0.098,3.383v11.563h-1.952v-17.27h2.675l5.298,12.042c0.41,0.926,0.675,1.615,0.796,2.07h0.072
			c0.346-0.944,0.623-1.651,0.832-2.119l5.407-11.994h2.53V34.529z"/>
		<path fill="#4D9790" d="M69.518,34.529h-9.155v-17.27h8.767v1.829h-6.744v5.746h6.24v1.818h-6.24v6.047h7.131V34.529z"/>
		<path fill="#4D9790" d="M86.908,34.529h-4.913l-5.036-7.503c-0.096-0.145-0.248-0.461-0.457-0.951h-0.06v8.454h-3.889v-9.13h7.815
			L86.908,34.529z"/>
		<path fill="#4D9790" d="M98.917,34.529H88.559v-17.27h9.961v3.167h-6.07v3.843h5.647v3.155h-5.647v3.948h6.468V34.529z"/>
		<path fill="#4D9790" d="M112.046,34.529h-10.358v-17.27h9.959v3.167h-6.07v3.843h5.649v3.155h-5.649v3.948h6.47V34.529z"/>
		<path fill="#4D9790" d="M118.704,28.58v5.949h-3.891v-17.27h6.094c4.352,0,6.529,1.836,6.529,5.504
			c0,1.733-0.624,3.136-1.874,4.209c-1.249,1.073-2.918,1.607-5.003,1.607H118.704z M118.704,20.246v5.384h1.529
			c2.07,0,3.107-0.907,3.107-2.721c0-1.777-1.037-2.663-3.107-2.663H118.704z"/>
		<path fill="#4D9790" d="M140.322,34.529h-10.355v-17.27h9.959v3.167h-6.071v3.843h5.648v3.155h-5.648v3.948h6.468V34.529z"/>
		<path fill="#4D9790" d="M157.581,34.529h-4.468l-2.686-4.444c-0.202-0.335-0.394-0.637-0.579-0.904
			c-0.185-0.264-0.372-0.49-0.561-0.679c-0.188-0.188-0.384-0.335-0.591-0.434c-0.202-0.1-0.427-0.151-0.666-0.151h-1.05v6.612
			h-3.888v-17.27h6.164c4.191,0,6.289,1.565,6.289,4.697c0,0.603-0.094,1.157-0.279,1.669c-0.185,0.508-0.444,0.968-0.783,1.378
			c-0.337,0.411-0.743,0.763-1.221,1.061c-0.479,0.296-1.01,0.53-1.597,0.698v0.048c0.257,0.08,0.507,0.21,0.747,0.392
			c0.241,0.181,0.473,0.392,0.699,0.632c0.224,0.241,0.439,0.501,0.644,0.776c0.205,0.276,0.391,0.549,0.56,0.813L157.581,34.529z
			 M146.981,20.173v4.806h1.688c0.832,0,1.505-0.241,2.011-0.724c0.513-0.489,0.771-1.095,0.771-1.817
			c0-1.511-0.904-2.265-2.712-2.265H146.981z"/>
	</g>
	<g>
		<path fill="#4D9790" d="M58.41,42.757c0.077,0,0.115,0.05,0.115,0.142v0.294c0,0.104-0.038,0.15-0.115,0.15h-3.354
			c-0.075,0-0.15-0.047-0.15-0.15v-0.294c0-0.092,0.075-0.142,0.15-0.142H58.41z M57.9,46.737c0.095,0,0.141,0.036,0.141,0.113
			v2.805c0,0.076-0.046,0.116-0.141,0.116h-0.37c-0.102,0-0.151-0.04-0.151-0.116v-0.443h-1.799v0.443
			c0,0.076-0.058,0.116-0.151,0.116h-0.368c-0.095,0-0.143-0.04-0.143-0.116v-2.767c0-0.096,0.048-0.151,0.143-0.151H57.9z
			 M57.863,45.337c0.065,0,0.104,0.058,0.104,0.151v0.293c0,0.095-0.038,0.143-0.104,0.143h-2.808c-0.075,0-0.15-0.048-0.15-0.143
			v-0.293c0-0.094,0.075-0.151,0.15-0.151H57.863z M57.863,44.042c0.065,0,0.104,0.059,0.104,0.151v0.294
			c0,0.104-0.038,0.15-0.104,0.15h-2.808c-0.075,0-0.15-0.046-0.15-0.15v-0.294c0-0.093,0.075-0.151,0.15-0.151H57.863z
			 M57.787,41.465c0.077,0,0.113,0.046,0.113,0.139v0.304c0,0.094-0.037,0.144-0.113,0.144h-2.731c-0.075,0-0.15-0.05-0.15-0.144
			v-0.304c0-0.093,0.075-0.139,0.15-0.139H57.787z M57.379,48.628v-1.296h-1.799v1.296H57.379z M63.098,41.907
			c0.075,0,0.113,0.046,0.113,0.144v0.302c0,0.094-0.038,0.142-0.113,0.142h-1.094v6.577c0,0.464-0.387,0.7-1.145,0.7h-0.633
			c-0.047,0-0.065-0.068-0.065-0.182c-0.019-0.142-0.067-0.303-0.151-0.491v-0.027c0.283,0.035,0.546,0.064,0.813,0.064
			c0.339,0,0.51-0.113,0.51-0.331v-6.311h-2.516c-0.076,0-0.103-0.048-0.103-0.142v-0.302c0-0.098,0.027-0.144,0.103-0.144H63.098z"
			/>
		<path fill="#4D9790" d="M76.59,41.649v8.077c0,0.076-0.057,0.114-0.15,0.114h-0.371c-0.102,0-0.15-0.038-0.15-0.114v-8.123
			c0-0.075,0.048-0.114,0.15-0.114C76.533,41.489,76.59,41.47,76.59,41.649z M77.581,43.13v2.77c0,0.075-0.056,0.113-0.152,0.113
			h-0.369c-0.104,0-0.15-0.038-0.15-0.113v-2.813c0-0.077,0.046-0.116,0.15-0.116C77.525,42.97,77.581,42.948,77.581,43.13z
			 M75.5,44.165v2.769c0,0.076-0.057,0.115-0.151,0.115h-0.369c-0.105,0-0.151-0.039-0.151-0.115v-2.814
			c0-0.074,0.046-0.112,0.151-0.112C75.444,44.007,75.5,43.985,75.5,44.165z M78,44.366c0.194-0.359,0.604-1.276,0.698-1.638
			c0.029-0.104,0.067-0.159,0.105-0.159l0.566,0.226c0.086,0.049-0.129,0.386-0.171,0.499c-0.103,0.286-0.196,0.484-0.291,0.713
			h3.109c-0.076-0.124-0.143-0.249-0.2-0.361c-0.169-0.35-0.283-0.773-0.34-1.265h-1.787c-0.074,0-0.112-0.048-0.112-0.144v-0.302
			c0-0.094,0.038-0.143,0.112-0.143h2.363c0.019,0,0.038,0.04,0.038,0.104c0,0.577,0.132,1.115,0.416,1.616
			c0.246,0.455,0.549,0.851,0.907,1.19c0,0.075-0.027,0.124-0.075,0.144c-0.228,0.208-0.379,0.301-0.436,0.301
			c-0.217-0.207-0.405-0.425-0.558-0.643v2.051c0,0.075-0.056,0.104-0.151,0.104h-0.718c-0.008,0.019-0.02,0.038-0.02,0.038v2.301
			c0,0.103,0.02,0.149,0.076,0.149h0.888c0.114,0,0.394-0.653,0.491-0.882l0.532,0.313c-0.146,0.292-0.549,1.194-0.843,1.194h-1.321
			c-0.322,0-0.483-0.15-0.483-0.444V46.66h-0.672c-0.026,0.623-0.085,1.069-0.18,1.351c-0.122,0.436-0.292,0.686-0.51,0.97
			c-0.189,0.227-0.415,0.414-0.689,0.574c-0.247,0.163-0.558,0.314-0.936,0.445c-0.171-0.18-0.319-0.339-0.444-0.482
			c0.189-0.057,0.425-0.15,0.689-0.292c0.304-0.16,0.55-0.34,0.739-0.548c0.227-0.266,0.388-0.476,0.491-0.825
			c0.084-0.266,0.142-0.661,0.17-1.192h-0.69c-0.104,0-0.15-0.028-0.15-0.104v-1.898C78.537,44.809,77.925,44.504,78,44.366z
			 M81.685,44.602h-2.4v1.472h2.4V44.602z"/>
		<path fill="#4D9790" d="M99.453,41.524v0.602h3.62c0.095,0,0.142,0.037,0.142,0.112v1.806c0,0.075-0.047,0.114-0.142,0.114h-0.368
			c-0.104,0-0.15-0.039-0.15-0.114v-1.323h-6.833v1.323c0,0.075-0.047,0.114-0.143,0.114h-0.368c-0.105,0-0.151-0.039-0.151-0.114
			v-1.767c0-0.095,0.046-0.151,0.151-0.151h3.581v-0.622c0-0.063,0.049-0.102,0.143-0.102
			C99.396,41.402,99.453,41.413,99.453,41.524z M101.854,43.534c0.068,0,0.104,0.048,0.104,0.142v0.293
			c0,0.103-0.035,0.15-0.104,0.15h-2.362c-0.18,0.15-0.341,0.274-0.48,0.38c0.272,0.339,0.499,0.621,0.688,0.858
			c0.135,0.225,0.255,0.436,0.352,0.622c0.604-0.414,1.124-0.812,1.549-1.199c0.094-0.064,0.18-0.103,0.255-0.103
			c0.038,0,0.088,0.023,0.142,0.067c0.537,0.423,0.357,0.453,0.357,0.453c-0.104,0.087-0.301,0.188-0.431,0.272
			c-0.418,0.265-0.901,0.605-1.457,1.021c0.17,0.273,0.351,0.519,0.538,0.728c0.283,0.33,0.576,0.595,0.879,0.795
			c0.397,0.312,0.889,0.565,1.457,0.765c0.064,0.019,0.101,0.037,0.101,0.067c0,0.046-0.018,0.084-0.055,0.111
			c-0.142,0.104-0.265,0.218-0.368,0.331c-0.037,0.049-0.065,0.074-0.095,0.074c-0.436-0.169-0.785-0.357-1.068-0.565
			c-0.396-0.246-0.766-0.567-1.086-0.945c-0.096-0.096-0.199-0.207-0.292-0.339c0,0.057,0.008,0.104,0.008,0.149
			c0,0.285-0.037,0.567-0.104,0.85c-0.094,0.294-0.189,0.522-0.301,0.689c-0.144,0.175-0.321,0.314-0.549,0.418
			c-0.321,0.122-0.981,0.164-1.304,0.164c-0.103,0-0.063-0.436-0.066-0.684c-0.001-0.077,0.019-0.103,0.074-0.103l0.218,0.037
			c0.474,0,0.794-0.077,0.965-0.219c0.141-0.111,0.235-0.265,0.293-0.471c0.074-0.21,0.114-0.436,0.114-0.683
			c0-0.149-0.021-0.293-0.04-0.443c-0.151,0.142-4.034,2.22-4.13,2.22c-0.047,0-0.093-0.045-0.132-0.132
			c-0.094-0.113-0.198-0.225-0.312-0.339c-0.057-0.059,3.932-1.949,4.403-2.393c-0.094-0.236-0.208-0.472-0.33-0.709
			c-0.151,0.144-3.525,1.947-3.601,1.947c-0.038,0-0.086-0.038-0.122-0.123c-0.096-0.111-0.199-0.227-0.313-0.35
			c-0.058-0.057,3.325-1.606,3.705-1.956c-0.133-0.17-0.281-0.398-0.431-0.589c-0.048,0.037-2.25,1.081-2.765,1.354
			c-0.066,0.037-0.122-0.019-0.161-0.057c-0.123-0.115-0.245-0.228-0.358-0.33c-0.019-0.038-0.028-0.065-0.028-0.094
			c0.464-0.125,2.985-1.306,3.327-1.552h-2.079c-0.077,0-0.104-0.048-0.104-0.15v-0.293c0-0.094,0.026-0.142,0.104-0.142H101.854z"
			/>
	</g>
	<circle fill="#EF8200" cx="74.052" cy="19.226" r="2.046"/>
	<circle fill="#EF8200" cx="83.633" cy="19.226" r="2.045"/>
</g>
</svg>
