<?xml version="1.0" encoding="utf-8"?>
<!-- Generator: Adobe Illustrator 16.0.0, SVG Export Plug-In . SVG Version: 6.00 Build 0)  -->
<!DOCTYPE svg PUBLIC "-//W3C//DTD SVG 1.1//EN" "http://www.w3.org/Graphics/SVG/1.1/DTD/svg11.dtd">
<svg version="1.1" id="Layer_1" xmlns="http://www.w3.org/2000/svg" xmlns:xlink="http://www.w3.org/1999/xlink" x="0px" y="0px"
	 width="60px" height="35px" viewBox="-1.75 3.75 60 35" enable-background="new -1.75 3.75 60 35" xml:space="preserve">
<g>
	<path fill="#931B1D" d="M18.869,6.297C10.652,6.349,4,13.048,4,21.293c0,8.278,6.704,14.996,14.964,14.996
		c3.875,0,7.409-1.48,10.068-3.907v-0.001h0.002c0.545-0.497,1.053-1.035,1.52-1.606h-3.065c-0.41-0.495-0.782-1.012-1.116-1.545
		h5.287c0.323-0.516,0.612-1.051,0.872-1.604H25.5c-0.24-0.516-0.448-1.04-0.625-1.575h8.282c0.5-1.495,0.771-3.095,0.771-4.756
		c0-1.104-0.12-2.177-0.345-3.212h-9.147c0.114-0.533,0.256-1.059,0.426-1.575h8.287c-0.186-0.55-0.4-1.085-0.646-1.606H25.5
		c0.252-0.541,0.539-1.066,0.858-1.575h5.284c-0.353-0.562-0.741-1.099-1.161-1.604h-2.946c0.456-0.539,0.957-1.045,1.5-1.514
		c-2.659-2.428-6.193-3.909-10.07-3.909C18.932,6.297,18.9,6.297,18.869,6.297z"/>
	<path fill="#F16622" d="M54,21.298c0.001,8.281-6.694,14.996-14.961,14.998c-8.263,0.004-14.963-6.709-14.966-14.991v-0.007
		c-0.002-8.283,6.696-14.999,14.96-15C47.297,6.294,53.998,13.007,54,21.29C54,21.29,54,21.293,54,21.298z"/>
	<path fill="#F7981D" d="M54,21.464c0.001,8.281-6.694,14.997-14.961,14.999c-8.263,0.003-14.963-6.711-14.966-14.992v-0.007
		c-0.002-8.282,6.696-14.998,14.96-15C47.297,6.461,53.998,13.173,54,21.456C54,21.456,54,21.461,54,21.464z"/>
	<path fill="#CB2026" d="M18.869,6.467C10.652,6.521,4,13.218,4,21.464c0,8.278,6.704,14.996,14.964,14.996
		c3.875,0,7.409-1.481,10.068-3.908v-0.001h0.002c0.545-0.497,1.053-1.033,1.52-1.606h-3.065c-0.41-0.494-0.782-1.01-1.116-1.543
		h5.287c0.323-0.516,0.612-1.053,0.872-1.606H25.5c-0.24-0.516-0.448-1.04-0.625-1.574h8.282c0.5-1.496,0.771-3.096,0.771-4.757
		c0-1.103-0.12-2.177-0.345-3.211h-9.147c0.114-0.533,0.256-1.06,0.426-1.575h8.287c-0.186-0.551-0.4-1.086-0.646-1.607H25.5
		c0.252-0.54,0.539-1.066,0.858-1.575h5.284c-0.353-0.562-0.741-1.098-1.161-1.606h-2.946c0.456-0.537,0.957-1.043,1.5-1.514
		c-2.659-2.428-6.193-3.909-10.07-3.909C18.932,6.467,18.9,6.467,18.869,6.467z"/>
	<g>
		<path fill="#FFFFFF" d="M24.345,25.281l0.2-1.356c-0.109,0-0.27,0.046-0.411,0.046c-0.554,0-0.616-0.295-0.58-0.514l0.448-2.769
			h0.843l0.204-1.502h-0.794l0.162-0.933h-1.594c-0.035,0.035-0.941,5.25-0.941,5.884c0,0.941,0.526,1.36,1.27,1.354
			C23.731,25.486,24.185,25.325,24.345,25.281z"/>
		<path fill="#FFFFFF" d="M24.851,22.694c0,2.256,1.485,2.793,2.751,2.793c1.168,0,1.682-0.263,1.682-0.263l0.282-1.54
			c0,0-0.89,0.395-1.692,0.395c-1.71,0-1.411-1.278-1.411-1.278h3.238c0,0,0.208-1.036,0.208-1.458c0-1.051-0.523-2.333-2.272-2.333
			C26.035,19.01,24.851,20.739,24.851,22.694z M27.645,20.438c0.898,0,0.732,1.013,0.732,1.095h-1.769
			C26.608,21.429,26.775,20.438,27.645,20.438z"/>
		<path fill="#FFFFFF" d="M37.732,25.281l0.285-1.742c0,0-0.782,0.396-1.318,0.396c-1.13,0-1.583-0.867-1.583-1.795
			c0-1.886,0.973-2.923,2.056-2.923c0.812,0,1.464,0.458,1.464,0.458l0.26-1.69c0,0-0.967-0.393-1.795-0.393
			c-1.839,0-3.629,1.598-3.629,4.603c0,1.989,0.967,3.307,2.868,3.307C36.877,25.5,37.732,25.281,37.732,25.281z"/>
		<path fill="#FFFFFF" d="M15.582,19.034c-1.093,0-1.93,0.351-1.93,0.351l-0.231,1.376c0,0,0.692-0.281,1.736-0.281
			c0.593,0,1.026,0.067,1.026,0.551c0,0.292-0.053,0.401-0.053,0.401s-0.467-0.04-0.684-0.04c-1.378,0-2.825,0.59-2.825,2.367
			c0,1.399,0.949,1.721,1.538,1.721c1.124,0,1.607-0.729,1.634-0.733l-0.052,0.61h1.402l0.626-4.398
			C17.771,19.094,16.146,19.034,15.582,19.034z M15.924,22.613c0.031,0.27-0.168,1.528-1.128,1.528
			c-0.495,0-0.623-0.379-0.623-0.604c0-0.437,0.237-0.961,1.405-0.961C15.848,22.577,15.878,22.606,15.924,22.613z"/>
		<path fill="#FFFFFF" d="M19.262,25.447c0.358,0,2.41,0.092,2.41-2.029c0-1.984-1.899-1.592-1.899-2.39
			c0-0.395,0.31-0.522,0.875-0.522c0.225,0,1.089,0.073,1.089,0.073l0.201-1.411c0,0-0.559-0.125-1.469-0.125
			c-1.18,0-2.375,0.47-2.375,2.083c0,1.83,1.995,1.645,1.995,2.415c0,0.514-0.558,0.557-0.988,0.557
			c-0.742,0-1.411-0.256-1.414-0.244l-0.212,1.395C17.511,25.263,17.924,25.447,19.262,25.447z"/>
		<path fill="#FFFFFF" d="M50.93,17.769l-0.344,2.137c0,0-0.6-0.829-1.538-0.829c-1.46,0-2.677,1.764-2.677,3.79
			c0,1.309,0.647,2.59,1.976,2.59c0.954,0,1.482-0.667,1.482-0.667l-0.069,0.569h1.55l1.219-7.593L50.93,17.769z M50.189,21.938
			c0,0.842-0.417,1.967-1.28,1.967c-0.573,0-0.842-0.482-0.842-1.238c0-1.237,0.555-2.056,1.254-2.056
			C49.896,20.61,50.189,21.006,50.189,21.938z"/>
		<path fill="#FFFFFF" d="M6.955,25.365l0.971-5.733l0.141,5.733h1.098l2.047-5.733l-0.907,5.733h1.631l1.257-7.602H10.67
			L9.1,22.427l-0.082-4.663H6.693l-1.274,7.602H6.955L6.955,25.365z"/>
		<path fill="#FFFFFF" d="M31.503,25.376c0.464-2.643,0.55-4.789,1.656-4.397c0.194-1.022,0.381-1.417,0.592-1.851
			c0,0-0.099-0.021-0.308-0.021c-0.712,0-1.241,0.977-1.241,0.977l0.142-0.896h-1.484l-0.993,6.188L31.503,25.376L31.503,25.376z"/>
		<path fill="#FFFFFF" d="M41.408,19.034c-1.093,0-1.93,0.351-1.93,0.351l-0.229,1.376c0,0,0.689-0.281,1.735-0.281
			c0.593,0,1.027,0.067,1.027,0.551c0,0.292-0.054,0.401-0.054,0.401s-0.468-0.04-0.687-0.04c-1.378,0-2.823,0.59-2.823,2.367
			c0,1.399,0.949,1.721,1.537,1.721c1.124,0,1.608-0.729,1.635-0.733l-0.053,0.61h1.404l0.625-4.398
			C43.597,19.094,41.974,19.034,41.408,19.034z M41.751,22.613c0.03,0.27-0.168,1.528-1.129,1.528c-0.494,0-0.622-0.379-0.622-0.604
			c0-0.437,0.237-0.961,1.402-0.961C41.676,22.577,41.704,22.606,41.751,22.613z"/>
		<path fill="#FFFFFF" d="M44.878,25.376c0.464-2.643,0.55-4.789,1.657-4.397c0.194-1.022,0.38-1.417,0.593-1.851
			c0,0-0.101-0.021-0.309-0.021c-0.714,0-1.241,0.977-1.241,0.977l0.142-0.896h-1.484l-0.993,6.188L44.878,25.376L44.878,25.376
			L44.878,25.376z"/>
	</g>
</g>
</svg>
