<?xml version="1.0" encoding="utf-8"?>
<!-- Generator: Adobe Illustrator 16.0.0, SVG Export Plug-In . SVG Version: 6.00 Build 0)  -->
<!DOCTYPE svg PUBLIC "-//W3C//DTD SVG 1.1//EN" "http://www.w3.org/Graphics/SVG/1.1/DTD/svg11.dtd">
<svg version="1.1" id="Capa_1" xmlns="http://www.w3.org/2000/svg" xmlns:xlink="http://www.w3.org/1999/xlink" x="0px" y="0px"
	 width="35px" height="35px" viewBox="7.5 7.5 35 35" enable-background="new 7.5 7.5 35 35" xml:space="preserve">
<g>
	<path fill="#B8C9D1" d="M37.493,23.788h-8.276c-1.225,0.766-2.664,1.219-4.218,1.219c-1.549,0-2.992-0.453-4.215-1.219h-8.275
		L11,39.553c0,1.628,1.294,2.947,2.891,2.947h22.221c1.595,0,2.889-1.319,2.889-2.947L37.493,23.788z M34.803,40.896H15.198
		c-1.251,0-2.265-1.032-2.265-2.31l1.183-12.998h6.63c0.958,0.601,3.04,1.203,4.254,1.203c1.217,0,3.296-0.603,4.254-1.203h6.633
		l1.18,12.998C37.066,39.864,36.053,40.896,34.803,40.896z"/>
	<path fill="#B8C9D1" d="M25.001,7.5c-4.193,0-7.592,3.398-7.592,7.591c0,4.192,3.398,7.589,7.592,7.589
		c4.191,0,7.59-3.397,7.59-7.589C32.591,10.898,29.192,7.5,25.001,7.5z M25,20.805c-3.156,0-5.715-2.558-5.715-5.714
		c0-3.157,2.559-5.715,5.715-5.715c3.157,0,5.716,2.559,5.716,5.715C30.716,18.247,28.157,20.805,25,20.805z"/>
	<path fill="#B8C9D1" d="M25.781,34.281c0,0.432-0.35,0.781-0.781,0.781l0,0c-0.432,0-0.781-0.35-0.781-0.781v-8.125
		c0-0.432,0.35-0.781,0.781-0.781l0,0c0.432,0,0.781,0.35,0.781,0.781V34.281z"/>
</g>
</svg>
