<?xml version="1.0" encoding="utf-8"?>
<!-- Generator: Adobe Illustrator 16.0.0, SVG Export Plug-In . SVG Version: 6.00 Build 0)  -->
<!DOCTYPE svg PUBLIC "-//W3C//DTD SVG 1.1//EN" "http://www.w3.org/Graphics/SVG/1.1/DTD/svg11.dtd">
<svg version="1.1" id="Capa_1" xmlns="http://www.w3.org/2000/svg" xmlns:xlink="http://www.w3.org/1999/xlink" x="0px" y="0px"
	 width="35px" height="35px" viewBox="7.5 7.5 35 35" enable-background="new 7.5 7.5 35 35" xml:space="preserve">
<g>
	<path fill="#B8C9D1" d="M39,37.755l-2.004-22.567c-0.043-0.501-0.465-0.88-0.958-0.88h-4.124C31.856,10.542,28.779,7.5,25,7.5
		c-3.778,0-6.856,3.042-6.914,6.807h-4.124c-0.5,0-0.917,0.38-0.958,0.88L11,37.755c0,0.028-0.007,0.057-0.007,0.085
		c0,2.569,2.354,4.66,5.253,4.66h17.507c2.898,0,5.253-2.091,5.253-4.66C39.007,37.812,39.007,37.783,39,37.755z M25,9.433
		c2.713,0,4.924,2.176,4.982,4.874h-9.965C20.075,11.608,22.288,9.433,25,9.433z M33.754,40.566H16.247
		c-1.818,0-3.292-1.201-3.322-2.683l1.919-21.637h3.234v2.934c0,0.538,0.43,0.966,0.966,0.966c0.537,0,0.966-0.429,0.966-0.966
		v-2.934h9.972v2.934c0,0.538,0.428,0.966,0.965,0.966c0.538,0,0.966-0.429,0.966-0.966v-2.934h3.235l1.926,21.637
		C37.046,39.365,35.563,40.566,33.754,40.566z"/>
</g>
</svg>
