<?xml version="1.0" encoding="utf-8"?>
<!-- Generator: Adobe Illustrator 16.0.0, SVG Export Plug-In . SVG Version: 6.00 Build 0)  -->
<!DOCTYPE svg PUBLIC "-//W3C//DTD SVG 1.1//EN" "http://www.w3.org/Graphics/SVG/1.1/DTD/svg11.dtd">
<svg version="1.1" id="Layer_1" xmlns="http://www.w3.org/2000/svg" xmlns:xlink="http://www.w3.org/1999/xlink" x="0px" y="0px"
	 width="60px" height="35px" viewBox="2.25 -4.25 60 35" enable-background="new 2.25 -4.25 60 35" xml:space="preserve">
<g>
	<g>
		<polygon fill="#293688" points="25.184,22.032 27.708,7.128 31.794,7.128 29.271,22.032 		"/>
		<path fill="#293688" d="M43.817,7.514c-0.81-0.302-2.078-0.626-3.663-0.626c-4.038,0-6.883,2.022-6.907,4.919
			c-0.022,2.142,2.03,3.335,3.582,4.049c1.591,0.729,2.125,1.197,2.117,1.849c-0.01,0.999-1.271,1.456-2.445,1.456
			c-1.636-0.001-2.505-0.227-3.847-0.782l-0.527-0.237l-0.573,3.336c0.955,0.416,2.72,0.777,4.553,0.796
			c4.295-0.002,7.085-1.998,7.116-5.093c0.016-1.694-1.073-2.985-3.432-4.05c-1.429-0.688-2.303-1.148-2.294-1.847
			c0-0.619,0.741-1.282,2.341-1.282c1.337-0.021,2.305,0.27,3.06,0.571l0.365,0.172L43.817,7.514L43.817,7.514z"/>
		<path fill="#293688" d="M50.785,7.128c-0.979,0-1.687,0.299-2.117,1.27l-6.056,13.635h4.326l0.842-2.283h5.169l0.479,2.283h3.847
			L53.91,7.129L50.785,7.128L50.785,7.128L50.785,7.128z M48.928,16.767c0.338-0.858,1.627-4.166,1.627-4.166
			c-0.023,0.039,0.336-0.862,0.543-1.421l0.276,1.284c0,0,0.781,3.558,0.945,4.304L48.928,16.767L48.928,16.767L48.928,16.767z"/>
		<path fill="#293688" d="M17.732,17.345l-0.36-2.043c-0.746-2.382-3.061-4.959-5.654-6.25l3.61,12.98h4.327l6.49-14.904h-4.326
			L17.732,17.345z"/>
	</g>
	<path fill="#F7981D" d="M7.275,7.128v0.241c5.128,1.233,8.688,4.351,10.097,7.933L15.891,8.4c-0.247-0.943-0.997-1.239-1.884-1.272
		H7.275L7.275,7.128z"/>
</g>
</svg>
