<?xml version="1.0" encoding="UTF-8"?>
<svg width="545px" height="100px" viewBox="0 0 545 100" version="1.1" xmlns="http://www.w3.org/2000/svg" xmlns:xlink="http://www.w3.org/1999/xlink">
    <title>logo/bg-dark</title>
    <g id="UI" stroke="none" stroke-width="1" fill="none" fill-rule="evenodd">
        <g id="logo" transform="translate(-785.000000, -179.000000)">
            <g id="logo" transform="translate(785.000000, 179.000000)">
                <g id="Dr.Good" fill="#FFFFFF" fill-rule="nonzero">
                    <path d="M21.2139423,0.0882550705 C23.7976146,0.096017503 26.2484503,0.179510984 27.5037563,0.263004465 C47.8020558,1.57802679 58.9617269,15.6925997 58.9617269,33.9275759 C58.9617269,67.0074008 31.6779127,68.0822825 21.7003045,68.1170036 L21.7003045,68.1170036 L19.8647769,68.1170036 C12.7174126,68.0867027 1.27930458,67.4890084 0.43935713,55.7569465 C0.175742852,51.4612069 0,44.3600864 0,36.9959614 L0.000677413039,36.1438512 C0.0155067222,26.75896 0.271367639,17.0437207 0.527228556,12.448878 C1.21614054,0.678551519 9.58469881,0.106359006 20.1744471,0.0881794356 Z M19.9454968,9.55598863 L19.1333506,9.556379 C19.0560861,9.5565961 18.9787075,9.55689276 18.9012449,9.55729428 L18.4357025,9.56116406 C18.3580244,9.56208619 18.2803225,9.56316376 18.202627,9.56442208 L17.7367709,9.57434313 C14.0919333,9.67221742 10.5940987,10.2810836 10.3688283,14.0269048 C10.1395306,17.2296455 9.91023302,25.2743997 9.85441995,33.5456142 L9.84846455,34.559234 L9.84846455,34.559234 L9.84615927,35.0663043 L9.84211522,36.5295536 L9.84211522,38.0265555 C9.85485878,44.6609721 10.0303606,50.7955783 10.3688283,54.0035834 C10.8081854,58.0363185 13.5321996,58.7376638 20.825528,58.7376638 L20.825528,58.7376638 L21.9756342,58.7360759 C31.505632,58.6979676 48.5928986,57.7452603 48.5928986,33.9275759 C48.5928986,19.813003 40.0693703,9.64349704 26.6250421,9.64349704 L26.6250421,9.64349704 L26.5687775,9.64221908 C26.1619238,9.63308165 23.6123075,9.57755423 21.008444,9.56068514 L21.008444,9.56068514 L20.2985236,9.55710685 C20.0624812,9.55582888 19.8275596,9.55582888 19.595328,9.55582888 Z" id="Combined-Shape"></path>
                    <path d="M70.4469729,67.4168111 C73.9618299,67.4168111 75.016287,64.7867665 74.9284156,62.9457352 C74.760661,57.0042253 74.6729712,52.7401839 74.665346,49.3911253 L74.6648013,48.9188304 C74.6648013,46.5517902 74.6648013,44.710759 74.7526727,43.1327322 C75.016287,37.6096384 80.8158011,33.3138989 86.0002153,32.7878899 C89.4272009,32.4372173 91.0088865,30.1578453 91.0088865,27.9661414 C91.0088865,25.7744375 89.4272009,23.75807 86.7031867,23.75807 C83.7155582,23.75807 78.9705012,25.2484286 75.4556441,29.1058274 C75.2799013,29.3688319 75.1041584,29.4565 75.1041584,29.4565 C75.016287,29.4565 75.016287,29.3688319 75.016287,29.1934956 L75.016287,28.842823 L75.016287,28.842823 C75.016287,28.5798185 75.1041584,28.316814 75.1041584,27.9661414 C75.1041584,25.1607605 72.8195014,23.8457381 70.6227157,23.8457381 C68.4259301,23.8457381 65.8776587,25.1607605 65.8776587,27.7908051 L65.8776587,27.9661414 L65.8776587,27.9661414 C66.0534016,33.8399078 66.141273,38.3986518 66.141273,43.6587411 C66.141273,48.8311623 66.0534016,54.6172605 65.7897873,62.9457352 L65.7897873,63.1210715 L65.7897873,63.1210715 C65.7897873,65.9264525 68.0744444,67.4168111 70.4469729,67.4168111 Z" id="Path"></path>
                    <path d="M89.996112,67.329143 C94.3896833,67.329143 96.2349833,63.384076 96.2349833,61.104704 C96.2349833,57.3349733 92.8958691,55.2309376 89.996112,55.2309376 C87.5357121,55.2309376 83.8451122,56.8966325 83.8451122,61.1923721 C83.8451122,66.2771251 87.6235835,67.329143 89.996112,67.329143 Z" id="Path"></path>
                    <path d="M153.563203,68.1181564 C174.476602,68.1181564 183.439488,51.7242114 183.439488,41.7300417 C183.439488,36.2946161 180.627602,32.4372173 173.070659,32.4372173 C170.170902,32.4372173 165.250103,32.261881 160.944403,32.261881 L160.467205,32.2626148 C157.647202,32.2754571 154.266174,32.5130384 154.266174,36.9082932 C154.266174,39.4506697 155.84786,41.9930462 158.659746,41.9930462 L158.835488,41.9930462 L158.835488,41.9930462 C163.668417,41.8177099 168.061988,41.7300417 168.940702,41.7300417 L169.116445,41.7300417 L169.116445,41.7300417 C170.698131,41.7300417 172.016202,42.5190551 172.016202,44.1847501 C172.016202,46.7271266 168.061988,57.9486504 153.563203,57.9486504 C138.537189,57.9486504 130.980246,45.9381132 130.980246,34.2782486 C130.980246,23.0567247 138.449318,9.64349704 153.826817,9.64349704 C159.362717,9.64349704 164.898617,11.6598646 168.325602,15.867936 C169.643674,17.533631 171.225359,18.2349762 172.807045,18.2349762 C175.618931,18.2349762 178.167202,15.7802679 178.167202,12.7995506 C178.167202,8.06547025 168.677088,0 154.705531,0 C133.264903,0 120.69929,16.9199539 120.69929,34.7165893 C120.69929,54.9679331 135.901046,68.1181564 153.563203,68.1181564 Z" id="Path"></path>
                    <path d="M210.957889,23.4073974 C223.523503,23.4073974 233.013617,32.7878899 233.013617,45.5874405 C233.013617,58.8253319 223.523503,67.7674837 210.957889,67.7674837 C198.392275,67.7674837 188.81429,58.8253319 188.81429,45.5874405 C188.81429,32.7878899 198.392275,23.4073974 210.957889,23.4073974 Z M210.957889,31.4728676 C203.752432,31.4728676 197.689304,36.9082932 197.689304,45.5874405 C197.689304,54.1789197 203.664561,59.5266772 210.957889,59.5266772 C218.251218,59.5266772 224.138603,54.1789197 224.138603,45.5874405 C224.138603,36.9082932 218.163346,31.4728676 210.957889,31.4728676 Z" id="Combined-Shape"></path>
                    <path d="M327.504691,0.701345239 C329.789348,0.701345239 332.074005,2.19170387 332.074005,5.26008929 L332.074005,5.26008929 L332.074005,5.69843007 C331.898262,8.67914733 331.810391,14.9035863 331.810391,22.2677113 L331.810964,26.0182027 L331.812496,28.6363472 C331.83004,49.3045753 331.984101,54.0182762 333.209826,57.3250492 L333.289528,57.5343492 C333.343645,57.6727956 333.399739,57.8092548 333.457881,57.9448478 L333.457881,57.9448478 L333.572237,58.204831 C333.708644,58.507588 333.855595,58.8096018 334.013904,59.123532 L334.013904,59.123532 L334.152399,59.3958286 C334.246608,59.5796989 334.344602,59.7686413 334.446533,59.9650179 C334.88589,60.7540313 335.061633,61.5430447 335.061633,62.3320581 C335.061633,65.1374391 332.513362,67.1538066 329.965091,67.1538066 C327.944048,67.1538066 326.274491,66.4524614 325.044291,61.6307129 C324.956419,61.2800403 324.868548,61.104704 324.692805,61.104704 C324.604934,61.104704 324.429191,61.2800403 324.253448,61.4553766 C320.826462,65.1374391 316.081405,67.5921474 310.369763,67.5921474 C298.243506,67.5921474 289.017006,58.8253319 289.017006,45.5874405 C289.017006,32.7878899 298.243506,23.5827337 310.369763,23.5827337 C315.290562,23.5827337 319.420519,25.4237649 322.671762,28.316814 C322.759634,28.4044822 322.935376,28.4044822 323.023248,28.4044822 C323.198991,28.4044822 323.286862,28.316814 323.286862,28.0538096 L323.286862,28.0538096 L323.286152,26.9291202 C323.273965,17.2291375 323.107865,8.80577911 323.023248,5.26008929 C322.935376,2.54237649 324.956419,0.701345239 327.504691,0.701345239 Z M310.545505,31.5605358 C303.515791,31.5605358 297.89202,36.9082932 297.89202,45.5874405 C297.89202,54.1789197 303.515791,59.439009 310.545505,59.439009 C317.57522,59.439009 323.198991,54.1789197 323.198991,45.5874405 C323.198991,36.9082932 317.57522,31.5605358 310.545505,31.5605358 Z" id="Combined-Shape"></path>
                    <path d="M260.588203,59.5192028 L263.007463,67.6945569 C262.36711,67.7429522 261.717397,67.7674837 261.059247,67.7674837 C259.919918,67.7674837 258.805151,67.6939692 257.719857,67.5504037 L260.333076,59.5088601 C260.417916,59.5130415 260.502961,59.5164902 260.588203,59.5192028 Z M261.059247,23.4073974 C273.624861,23.4073974 283.114975,32.7878899 283.114975,45.5874405 C283.114975,55.7826535 277.486038,63.4299046 269.158402,66.4066816 L266.765643,58.3109054 C271.192097,56.2714879 274.239961,51.7690919 274.239961,45.5874405 C274.239961,36.9082932 268.264704,31.4728676 261.059247,31.4728676 C253.85379,31.4728676 247.790662,36.9082932 247.790662,45.5874405 C247.790662,51.2808604 250.414682,55.5498076 254.30741,57.7819755 L251.668189,65.9049952 C244.021527,62.6281197 238.915648,55.2527769 238.915648,45.5874405 C238.915648,32.7878899 248.493633,23.4073974 261.059247,23.4073974 Z" id="Combined-Shape"></path>
                    <path d="M3.26072175,87.3438248 C3.77557255,87.3438248 4.29042335,87.0005093 4.29042335,86.3138783 L4.29042335,85.7416858 L4.29042335,85.7416858 L4.29028089,85.561124 L4.29028089,85.561124 L4.28920377,85.1518312 C4.2834707,83.5461889 4.25923891,80.8808228 4.25350584,80.2642562 L4.25228626,80.1341991 L4.25228626,80.1341991 C4.25228626,79.8290298 4.3094919,79.8290298 4.50017738,79.8290298 L5.98752415,79.8290298 C6.55958059,79.8290298 6.84560882,79.3712758 6.84560882,78.8944487 C6.84560882,78.4366947 6.55958059,77.9789407 5.98752415,77.9789407 L4.51924593,77.9789407 C4.38576609,77.9789407 4.25228626,77.9789407 4.25228626,77.7882098 C4.24084513,77.6394398 4.23626868,77.518135 4.2344381,77.374858 L4.23321771,77.0443596 C4.23321771,76.4340209 4.2713548,74.7746626 5.79683866,74.7746626 L6.00659269,74.7746626 L6.00659269,74.7746626 C6.59771769,74.7746626 6.92188301,74.2978355 6.92188301,73.8210084 C6.92188301,73.1153043 6.40703221,72.9055004 5.73963302,72.9055004 C5.22478222,72.9055004 2.28822579,73.1534505 2.28822579,76.8345556 C2.28822579,77.3304558 2.30729434,77.5402597 2.30729434,77.7309906 C2.30729434,77.9435192 2.22323706,77.9738805 2.07913888,77.9782178 L1.31572983,77.9789407 C0.743673381,77.9789407 0.457645158,78.4557678 0.457645158,78.9135218 C0.457645158,79.3712758 0.724604833,79.8290298 1.31572983,79.8290298 L1.98312902,79.8290298 C2.28822579,79.8290298 2.30729434,79.867176 2.30729434,80.1341991 L2.30818296,80.2475889 C2.31138012,80.6639581 2.3222771,82.1581062 2.32547426,83.5747847 L2.32625788,84.069691 C2.32632684,84.1510122 2.32636288,84.2315951 2.32636288,84.3112045 L2.32634382,84.5815082 L2.32634382,84.5815082 L2.3251425,85.3237564 C2.32331192,85.7760173 2.31873547,86.1307767 2.30729434,86.3138783 L2.30729434,86.3901706 L2.30729434,86.3901706 C2.30729434,87.0195824 2.78400804,87.3438248 3.26072175,87.3438248 Z M9.09569751,75.4612936 C9.91564508,75.4612936 10.4304959,74.7937357 10.4304959,74.1071047 C10.4304959,73.3823275 9.78216524,72.810135 9.09569751,72.810135 C8.56177816,72.810135 7.76089913,73.1725236 7.76089913,74.1071047 C7.76089913,74.9844665 8.35202413,75.4612936 9.09569751,75.4612936 Z M3.26072175,87.3438248 C3.77557255,87.3438248 4.29042335,87.0005093 4.29042335,86.3138783 L4.29042335,85.7416858 L4.29042335,85.7416858 L4.29028089,85.561124 L4.29028089,85.561124 L4.28920377,85.1518312 C4.2834707,83.5461889 4.25923891,80.8808228 4.25350584,80.2642562 L4.25228626,80.1341991 L4.25228626,80.1341991 C4.25228626,79.8290298 4.3094919,79.8290298 4.50017738,79.8290298 L5.98752415,79.8290298 C6.55958059,79.8290298 6.84560882,79.3712758 6.84560882,78.8944487 C6.84560882,78.4366947 6.55958059,77.9789407 5.98752415,77.9789407 L4.51924593,77.9789407 C4.38576609,77.9789407 4.25228626,77.9789407 4.25228626,77.7882098 C4.24084513,77.6394398 4.23626868,77.518135 4.2344381,77.374858 L4.23321771,77.0443596 C4.23321771,76.4340209 4.2713548,74.7746626 5.79683866,74.7746626 L6.00659269,74.7746626 L6.00659269,74.7746626 C6.59771769,74.7746626 6.92188301,74.2978355 6.92188301,73.8210084 C6.92188301,73.1153043 6.40703221,72.9055004 5.73963302,72.9055004 C5.22478222,72.9055004 2.28822579,73.1534505 2.28822579,76.8345556 C2.28822579,77.3304558 2.30729434,77.5402597 2.30729434,77.7309906 C2.30729434,77.9435192 2.22323706,77.9738805 2.07913888,77.9782178 L1.31572983,77.9789407 C0.743673381,77.9789407 0.457645158,78.4557678 0.457645158,78.9135218 C0.457645158,79.3712758 0.724604833,79.8290298 1.31572983,79.8290298 L1.98312902,79.8290298 C2.28822579,79.8290298 2.30729434,79.867176 2.30729434,80.1341991 L2.30818296,80.2475889 C2.31138012,80.6639581 2.3222771,82.1581062 2.32547426,83.5747847 L2.32625788,84.069691 C2.32632684,84.1510122 2.32636288,84.2315951 2.32636288,84.3112045 L2.32634382,84.5815082 L2.32634382,84.5815082 L2.3251425,85.3237564 C2.32331192,85.7760173 2.31873547,86.1307767 2.30729434,86.3138783 L2.30729434,86.3901706 L2.30729434,86.3901706 C2.30729434,87.0195824 2.78400804,87.3438248 3.26072175,87.3438248 Z M9.09569751,87.4582633 C9.61054831,87.4582633 10.1253991,87.1340209 10.1253991,86.485536 L10.1253991,86.4473899 L10.1253991,86.4473899 C10.1090546,85.5482302 10.0927102,84.4248645 10.0883739,83.2934914 L10.0885466,81.9977531 C10.0931293,80.6795313 10.1092642,79.4989187 10.1253991,78.8372294 L10.1253991,78.7990833 L10.1253991,78.7990833 C10.1253991,78.1887446 9.61054831,77.8835752 9.09569751,77.8835752 C8.54270961,77.8835752 8.0659959,78.2268908 8.08506445,78.8563025 C8.104133,79.3712758 8.104133,80.1341991 8.104133,80.9924879 C8.104133,82.7281385 8.08506445,84.9024701 8.08506445,86.485536 C8.08506445,87.1340209 8.58084671,87.4582633 9.09569751,87.4582633 Z M20.4224152,87.4010441 C20.9181974,87.4010441 21.3949111,87.0768016 21.4139797,86.3901706 C21.4330482,85.9896359 21.4330482,85.4555895 21.4330482,84.8643239 C21.4330482,83.4529157 21.3949111,81.7554113 21.3758426,81.0687802 C21.2995684,78.9325949 19.755016,77.8835752 18.1532579,77.8835752 C17.1616934,77.8835752 16.1510604,78.2650369 15.4455241,79.0279603 C15.407387,79.0661064 15.3692499,79.1042526 15.3501813,79.1042526 C15.337469,79.1042526 15.3332315,79.0957757 15.331819,79.0844731 L15.3311128,79.0088872 L15.3311128,79.0088872 C15.3311128,78.9516679 15.3501813,78.8944487 15.3501813,78.8181564 C15.3501813,78.2078177 14.8543991,77.9217214 14.3776854,77.9217214 C13.9009717,77.9217214 13.3479838,78.2078177 13.3479838,78.7800102 L13.3479838,78.8181564 L13.3479838,78.8181564 C13.3861209,80.096053 13.4051894,81.0878533 13.4051894,82.2322383 C13.4051894,83.3575503 13.3861209,84.6163738 13.3289152,86.4283168 L13.3289152,86.4664629 L13.3289152,86.4664629 C13.3289152,87.0768016 13.8246975,87.4010441 14.3395483,87.4010441 C15.1022902,87.4010441 15.3311128,86.8288515 15.3120442,86.4283168 C15.2781446,85.2245933 15.2593115,84.2921314 15.2555448,83.5505573 L15.256059,82.6861777 C15.2578896,82.4115253 15.262466,82.1712045 15.2739071,81.9652152 C15.3311128,80.6873186 16.7231168,79.657372 17.8862982,79.657372 C18.6871773,79.657372 19.3545765,80.1341991 19.4308507,81.3167303 C19.4499192,81.6218997 19.4689877,82.2703845 19.4689877,83.0333079 C19.4689877,84.196766 19.4499192,85.6463203 19.4308507,86.4283168 L19.4308507,86.4473899 C19.4308507,87.0577285 19.9266329,87.4010441 20.4224152,87.4010441 Z M28.2214514,87.4391902 C29.460907,87.4391902 30.4906086,86.9051439 31.234282,86.1040744 C31.2724191,86.0659282 31.3105562,86.027782 31.3296248,86.027782 C31.3677618,86.027782 31.3868304,86.0659282 31.4058989,86.1422205 C31.6728586,87.1912401 32.035161,87.3438248 32.4737376,87.3438248 C33.0267255,87.3438248 33.5797134,86.9051439 33.5797134,86.2948052 C33.5797134,86.1231474 33.5415763,85.9514897 33.4462336,85.7798319 C33.3756394,85.6434797 33.3137465,85.5236016 33.2594837,85.403492 L33.2077246,85.2826866 L33.2077246,85.2826866 L33.1608142,85.1580145 C32.9231324,84.4761856 32.8821739,83.4709841 32.8754444,79.6081022 L32.8755311,76.8582299 C32.8804957,75.5762964 32.899113,74.522311 32.9313828,73.9735931 L32.9313828,73.8782277 L32.9313828,73.8782277 C32.9313828,73.2106697 32.4356005,72.8864273 31.9398183,72.8864273 C31.3868304,72.8864273 30.9482538,73.2869621 30.9673223,73.8782277 C30.9863909,74.6792972 31.024528,76.6247517 31.024528,78.8372294 C31.024528,78.8944487 31.0054594,78.9135218 30.9673223,78.9135218 C30.9482538,78.9135218 30.9101167,78.9135218 30.8910481,78.8944487 C30.1855119,78.2650369 29.2892901,77.8645022 28.2214514,77.8645022 C25.5899917,77.8645022 23.5877942,79.867176 23.5877942,82.6518462 C23.5877942,85.5318818 25.5899917,87.4391902 28.2214514,87.4391902 Z M28.2595885,85.6653934 C26.7341046,85.6653934 25.5137175,84.5210084 25.5137175,82.6518462 C25.5137175,80.7636109 26.7341046,79.6001528 28.2595885,79.6001528 C29.7850723,79.6001528 31.0054594,80.7636109 31.0054594,82.6518462 C31.0054594,84.5210084 29.7850723,85.6653934 28.2595885,85.6653934 Z M40.2155682,87.4773364 C42.9423706,87.4773364 45.0017738,85.5318818 45.0017738,82.6518462 C45.0017738,79.867176 42.9423706,77.826356 40.2155682,77.826356 C37.4887658,77.826356 35.4102941,79.867176 35.4102941,82.6518462 C35.4102941,85.5318818 37.4887658,87.4773364 40.2155682,87.4773364 Z M40.2155682,85.6844665 C38.6328787,85.6844665 37.3362174,84.5210084 37.3362174,82.6518462 C37.3362174,80.7636109 38.6519473,79.5810797 40.2155682,79.5810797 C41.7791892,79.5810797 43.0758505,80.7636109 43.0758505,82.6518462 C43.0758505,84.5210084 41.7982577,85.6844665 40.2155682,85.6844665 Z M51.4469431,87.4773364 C53.6779633,87.4773364 55.2987899,86.1231474 55.2987899,85.3030048 C55.2987899,84.7689585 54.7839391,84.2921314 54.2309512,84.2921314 C53.9639915,84.2921314 53.6779633,84.4065699 53.4491407,84.7117392 C53.0296326,85.2839318 52.2287536,85.5891011 51.4278746,85.5891011 C48.7964149,85.5891011 48.6057295,83.052381 48.6057295,82.6327731 C48.6057295,80.8971225 49.7689109,79.638299 51.3897375,79.638299 C52.0571367,79.638299 52.7245359,79.867176 53.1249754,80.3630761 C53.3728665,80.6682455 53.6588947,80.782684 53.9258544,80.782684 C54.4597738,80.782684 54.9364875,80.32493 54.9364875,79.7908836 C54.9364875,79.0088872 53.5444834,77.8072829 51.5041488,77.8072829 C48.5103867,77.8072829 46.6798061,80.1532722 46.6798061,82.7281385 C46.6798061,84.7689585 47.9764674,87.4773364 51.4469431,87.4773364 Z M60.7523947,87.4773364 C61.7439592,87.4773364 62.3732213,87.153094 62.3732213,86.4664629 C62.3732213,86.0468551 62.0681245,85.6272473 61.5532737,85.6272473 C61.4960681,85.6272473 61.457931,85.6463203 61.4007253,85.6463203 C61.2481769,85.6653934 61.0956285,85.6844665 60.9621487,85.6844665 C59.89431,85.6844665 59.8371044,85.0741278 59.8371044,83.5864273 C59.8371044,82.3276038 59.89431,80.7063916 59.89431,80.0006875 C59.89431,79.886249 59.89431,79.7908836 60.1803382,79.7908836 L61.4388624,79.7908836 C62.0109189,79.7908836 62.2778785,79.3331296 62.2778785,78.8944487 C62.2778785,78.4366947 62.0109189,77.9980138 61.4388624,77.9980138 L60.1612697,77.9980138 C59.9705842,77.9980138 59.89431,77.9789407 59.89431,77.6737713 C59.89431,77.6737713 59.9258283,77.0747819 59.9315589,76.5789677 L59.9324471,76.4340209 C59.9324471,76.1860708 59.9324471,75.2705628 58.921814,75.2705628 C58.4260318,75.2705628 57.9683866,75.556659 57.9683866,76.1288515 L57.9683866,76.1860708 L57.9683866,76.1860708 C57.9874552,76.3958747 57.9874552,76.6247517 57.9874552,76.8536287 C57.9874552,77.2923097 57.9683866,77.6737713 57.9683866,77.6737713 C57.9683866,77.9407945 57.9493181,77.9980138 57.6442213,77.9980138 L57.0912334,77.9980138 C56.519177,77.9980138 56.2331487,78.4366947 56.2331487,78.8753756 C56.2331487,79.3331296 56.5382455,79.7908836 57.0912334,79.7908836 L57.6632899,79.7908836 C57.8539753,79.7908836 57.9683866,79.8099567 57.9683866,80.0579068 L57.9683866,80.3440031 C57.9683866,81.1132841 57.9363409,82.7800597 57.9309999,83.904599 L57.9310857,84.374804 C57.9427924,85.3008008 58.1183925,87.4773364 60.7523947,87.4773364 Z M68.5323624,87.4773364 C71.2591648,87.4773364 73.318568,85.5318818 73.318568,82.6518462 C73.318568,79.867176 71.2591648,77.826356 68.5323624,77.826356 C65.80556,77.826356 63.7270882,79.867176 63.7270882,82.6518462 C63.7270882,85.5318818 65.80556,87.4773364 68.5323624,87.4773364 Z M68.5323624,85.6844665 C66.9496729,85.6844665 65.6530116,84.5210084 65.6530116,82.6518462 C65.6530116,80.7636109 66.9687414,79.5810797 68.5323624,79.5810797 C70.0959833,79.5810797 71.3926446,80.7636109 71.3926446,82.6518462 C71.3926446,84.5210084 70.1150519,85.6844665 68.5323624,85.6844665 Z M76.7509066,87.4010441 C77.5136486,87.4010441 77.7424712,86.8288515 77.7234026,86.4283168 C77.689503,85.2245933 77.6706698,84.3373417 77.6669032,83.6326056 L77.6674174,82.8099239 C77.6692479,82.5503774 77.6738244,82.3237892 77.6852655,82.1177998 C77.7424712,80.9161956 79.0009953,79.9816145 80.1260397,79.867176 C80.8697131,79.7908836 81.2129469,79.2949834 81.2129469,78.8181564 C81.2129469,78.3413293 80.8697131,77.9026483 80.2785881,77.9026483 C79.6302574,77.9026483 78.6005558,78.2268908 77.8378139,79.0661064 C77.7996768,79.1233257 77.7615397,79.1423988 77.7615397,79.1423988 C77.7424712,79.1423988 77.7424712,79.1233257 77.7424712,79.0851795 L77.7424712,79.0088872 L77.7424712,79.0088872 C77.7424712,78.9516679 77.7615397,78.8944487 77.7615397,78.8181564 C77.7615397,78.2078177 77.2657575,77.9217214 76.7890437,77.9217214 C76.31233,77.9217214 75.7593421,78.2078177 75.7593421,78.7800102 L75.7593421,78.8181564 L75.7593421,78.8181564 C75.7974792,80.096053 75.8165478,81.0878533 75.8165478,82.2322383 C75.8165478,83.3575503 75.7974792,84.6163738 75.7402736,86.4283168 L75.7402736,86.4664629 L75.7402736,86.4664629 C75.7402736,87.0768016 76.2360558,87.4010441 76.7509066,87.4010441 Z M82.4905397,87.381971 C83.4439671,87.381971 83.8444066,86.5236822 83.8444066,86.027782 C83.8444066,85.2076394 83.1198018,84.7498854 82.4905397,84.7498854 C81.9566203,84.7498854 81.1557413,85.112274 81.1557413,86.0468551 C81.1557413,87.153094 81.9756889,87.381971 82.4905397,87.381971 Z M90.5946727,87.4773364 C92.8256928,87.4773364 94.4465194,86.1231474 94.4465194,85.3030048 C94.4465194,84.7689585 93.9316686,84.2921314 93.3786807,84.2921314 C93.111721,84.2921314 92.8256928,84.4065699 92.5968702,84.7117392 C92.1773622,85.2839318 91.3764831,85.5891011 90.5756041,85.5891011 C87.9441445,85.5891011 87.753459,83.052381 87.753459,82.6327731 C87.753459,80.8971225 88.9166404,79.638299 90.537467,79.638299 C91.2048662,79.638299 91.8722654,79.867176 92.2727049,80.3630761 C92.520596,80.6682455 92.8066243,80.782684 93.0735839,80.782684 C93.6075033,80.782684 94.084217,80.32493 94.084217,79.7908836 C94.084217,79.0088872 92.692213,77.8072829 90.6518783,77.8072829 C87.6581162,77.8072829 85.8275356,80.1532722 85.8275356,82.7281385 C85.8275356,84.7689585 87.1241969,87.4773364 90.5946727,87.4773364 Z M100.624729,87.4773364 C103.351531,87.4773364 105.410935,85.5318818 105.410935,82.6518462 C105.410935,79.867176 103.351531,77.826356 100.624729,77.826356 C97.8979266,77.826356 95.8194549,79.867176 95.8194549,82.6518462 C95.8194549,85.5318818 97.8979266,87.4773364 100.624729,87.4773364 Z M100.624729,85.6844665 C99.0420395,85.6844665 97.7453783,84.5210084 97.7453783,82.6518462 C97.7453783,80.7636109 99.0611081,79.5810797 100.624729,79.5810797 C102.18835,79.5810797 103.485011,80.7636109 103.485011,82.6518462 C103.485011,84.5210084 102.207419,85.6844665 100.624729,85.6844665 Z M119.52166,87.4582633 C119.998374,87.4582633 120.456019,87.1149478 120.475088,86.3901706 C120.494156,85.9705628 120.494156,85.3983703 120.494156,84.7689585 C120.494156,83.3766234 120.475088,81.7363382 120.456019,81.0687802 C120.398814,78.9898141 119.00681,77.8454291 117.500394,77.8454291 C116.451624,77.8454291 115.364717,78.3985485 114.621043,79.5620066 C114.125261,78.3985485 113.09556,77.826356 112.046789,77.826356 C111.207773,77.826356 110.368757,78.1696715 109.758564,78.8563025 C109.739495,78.8753756 109.701358,78.9135218 109.682289,78.9135218 C109.682289,78.9135218 109.663221,78.8753756 109.663221,78.8181564 C109.663221,78.1696715 109.14837,77.8645022 108.709793,77.8645022 C108.271217,77.8645022 107.756366,78.1505984 107.756366,78.7800102 L107.756366,78.8181564 L107.756366,78.8181564 C107.775435,79.9243952 107.794503,80.8399032 107.794503,81.7935574 C107.794503,83.0333079 107.775435,84.3684237 107.718229,86.4092437 L107.718229,86.4473899 L107.718229,86.4473899 C107.718229,87.1149478 108.214011,87.4582633 108.690725,87.4582633 C109.110233,87.4582633 109.644152,87.2103132 109.625084,86.4283168 C109.586947,84.9406162 109.567878,83.8343774 109.567878,83.0142348 C109.567878,82.5755539 109.567878,82.2131653 109.586947,81.9079959 C109.644152,80.5919531 110.826402,79.6192259 111.817967,79.6192259 C112.485366,79.6192259 113.076491,80.0769799 113.152765,81.2213649 C113.165478,81.4375265 113.169715,81.8401805 113.171128,82.3389063 L113.170613,84.5908922 C113.168783,85.3091082 113.164206,85.9820066 113.152765,86.4283168 L113.152765,86.4473899 C113.152765,87.1149478 113.61041,87.4391902 114.068056,87.4391902 C114.544769,87.4391902 115.021483,87.0958747 115.021483,86.4664629 L115.021483,86.4283168 L115.021483,86.4283168 C114.983346,84.9406162 114.964277,83.8343774 114.964277,83.0142348 C114.964277,82.5755539 114.964277,82.2131653 114.983346,81.9079959 C115.040552,80.6110262 116.24187,79.638299 117.252503,79.638299 C117.938971,79.638299 118.530096,80.096053 118.587301,81.2213649 C118.600014,81.4375265 118.604251,81.8401805 118.605664,82.3389063 L118.606344,82.8663072 C118.60637,82.9584284 118.60637,83.052381 118.60637,83.1477464 L118.606351,83.5022387 L118.606351,83.5022387 L118.60515,84.5908922 C118.603319,85.3091082 118.598743,85.9820066 118.587301,86.4283168 L118.587301,86.4473899 C118.587301,87.0958747 119.064015,87.4582633 119.52166,87.4582633 Z M124.403209,87.381971 C125.356636,87.381971 125.757076,86.5236822 125.757076,86.027782 C125.757076,85.2076394 125.032471,84.7498854 124.403209,84.7498854 C123.869289,84.7498854 123.06841,85.112274 123.06841,86.0468551 C123.06841,87.153094 123.888358,87.381971 124.403209,87.381971 Z M131.820874,87.4773364 C132.812438,87.4773364 133.441701,87.153094 133.441701,86.4664629 C133.441701,86.0468551 133.136604,85.6272473 132.621753,85.6272473 C132.564547,85.6272473 132.52641,85.6463203 132.469205,85.6463203 C132.316656,85.6653934 132.164108,85.6844665 132.030628,85.6844665 C130.962789,85.6844665 130.905584,85.0741278 130.905584,83.5864273 C130.905584,82.3276038 130.962789,80.7063916 130.962789,80.0006875 C130.962789,79.886249 130.962789,79.7908836 131.248818,79.7908836 L132.507342,79.7908836 C133.079398,79.7908836 133.346358,79.3331296 133.346358,78.8944487 C133.346358,78.4366947 133.079398,77.9980138 132.507342,77.9980138 L131.229749,77.9980138 C131.039063,77.9980138 130.962789,77.9789407 130.962789,77.6737713 C130.962789,77.6737713 130.994308,77.0747819 131.000038,76.5789677 L131.000926,76.4340209 C131.000926,76.1860708 131.000926,75.2705628 129.990293,75.2705628 C129.494511,75.2705628 129.036866,75.556659 129.036866,76.1288515 L129.036866,76.1860708 L129.036866,76.1860708 C129.049578,76.3259401 129.053816,76.4742863 129.055228,76.6254581 L129.055934,76.8536287 C129.055934,77.2923097 129.036866,77.6737713 129.036866,77.6737713 C129.036866,77.9407945 129.017797,77.9980138 128.712701,77.9980138 L128.159713,77.9980138 C127.587656,77.9980138 127.301628,78.4366947 127.301628,78.8753756 C127.301628,79.3331296 127.606725,79.7908836 128.159713,79.7908836 L128.731769,79.7908836 C128.922455,79.7908836 129.036866,79.8099567 129.036866,80.0579068 L129.036866,80.3440031 C129.036866,80.7636109 129.027332,81.4502419 129.017797,82.1702508 L129.008616,82.8927322 C129.004379,83.2508823 129.000936,83.5979065 128.999479,83.904599 L128.999565,84.374804 C129.011272,85.3008008 129.186872,87.4773364 131.820874,87.4773364 Z M137.770261,87.3628979 C138.456729,87.3628979 139.162265,86.8860708 139.410156,85.9514897 C139.75339,84.6926662 140.363584,81.7935574 140.573338,80.096053 C140.592406,79.9243952 140.630543,79.867176 140.66868,79.867176 C140.706817,79.867176 140.764023,79.9816145 140.783092,80.1151261 C140.992846,81.7935574 141.698382,84.9978355 141.946273,85.9514897 C142.194164,86.924217 142.804358,87.3438248 143.43362,87.3438248 C144.120088,87.3438248 144.806555,86.8479246 145.092584,85.9896359 C145.817188,83.7962312 147.075713,79.3331296 147.075713,78.7227909 C147.075713,78.2078177 146.57993,77.9217214 146.103217,77.9217214 C145.683709,77.9217214 145.283269,78.1315253 145.187926,78.5892793 C144.901898,80.0006875 144.024745,83.5673542 143.624305,85.2267125 C143.586168,85.3602241 143.528963,85.5318818 143.471757,85.5318818 C143.43362,85.5318818 143.395483,85.4555895 143.357346,85.2076394 C143.128523,83.510135 142.327644,80.1723453 142.079753,78.9898141 C141.946273,78.3413293 141.278874,77.9407945 140.649612,77.9407945 C140.058487,77.9407945 139.467362,78.28411 139.314813,79.0279603 C139.028785,80.4012223 138.285112,83.7771581 138.018152,85.3030048 C137.980015,85.5128088 137.922809,85.6463203 137.846535,85.6463203 C137.808398,85.6463203 137.751192,85.5318818 137.713055,85.2839318 C137.465164,83.7008658 136.740559,80.0388337 136.378257,78.5702063 C136.263846,78.1315253 135.863406,77.9407945 135.443898,77.9407945 C134.948116,77.9407945 134.433265,78.2268908 134.433265,78.7609371 C134.433265,78.8181564 134.433265,78.8753756 134.452334,78.9516679 C134.833705,80.5919531 135.768063,84.2539852 136.168503,85.9514897 C136.397326,86.8860708 137.083793,87.3628979 137.770261,87.3628979 Z" id="ffindoctor.com.tw"></path>
                </g>
                <path d="M258.71308,60.6863516 C259.504771,58.2339812 262.896676,58.2145836 263.763532,60.5595318 L263.828183,60.7548426 L269.594961,80.3874911 L271.353189,85.5675267 L273.873109,80.0856482 L279.825674,67.6946604 C280.8029,65.6604445 283.651706,65.6836944 284.627157,67.651641 L284.713003,67.8418299 L289.097548,78.5622237 L331.54375,78.5633558 C332.961211,78.5633558 334.121474,79.671967 334.215701,81.0749116 L334.22188,81.2595066 C334.22188,82.6865061 333.120678,83.8545756 331.727111,83.9494373 L331.54375,83.9556574 L287.305468,83.9556574 C286.288101,83.9556574 285.365011,83.3762131 284.913101,82.4714174 L284.829113,82.2861955 L282.040093,75.4686837 L278.714728,82.3915051 L273.410496,93.9346221 C272.425324,96.0785627 269.406249,95.9831985 268.518371,93.8666346 L268.445665,93.6746392 L264.492666,82.0243556 L261.139033,70.6132679 L257.453127,82.0328719 L252.681197,98.0772089 C251.946504,100.547416 248.557184,100.645838 247.635763,98.3243435 L247.564801,98.125283 L242.460006,82.0590614 L239.594058,72.7690162 L235.076927,82.4100628 C234.664139,83.2907535 233.814846,83.8738728 232.860813,83.9477079 L232.654895,83.9556574 L157.192768,83.9556574 C155.713678,83.9556574 154.514638,82.7485495 154.514638,81.2595066 C154.514638,79.8325071 155.615839,78.6644376 157.009407,78.5695759 L157.192768,78.5633558 L230.956506,78.5622237 L237.688943,64.2012442 C238.701456,62.0410266 241.762481,62.1930283 242.600562,64.3561687 L242.668632,64.5522456 L247.568469,80.4380672 L250.030615,88.1886541 L252.340543,80.4261666 L258.71308,60.6863516 Z" id="Line-2-Copy-2" fill="#E8F4F1" fill-rule="nonzero"></path>
                <ellipse id="Oval" fill="#2AB5CD" cx="260.743451" cy="45.7983193" rx="8.8174114" ry="8.82352941"></ellipse>
                <path d="M356.749697,63.676241 C357.848648,65.110782 359.277284,65.2629303 361.035606,64.1326859 C364.947871,61.2201329 368.134829,57.6120448 370.596479,53.3084217 C372.486675,54.9168465 373.893332,56.2427102 374.816451,57.2860128 C376.17915,58.8509666 377.563829,58.6988183 378.970486,56.8295679 C380.025479,55.4819687 380.069437,54.2647824 379.10236,53.1780089 C377.563829,51.5261132 375.629675,49.7872756 373.299899,47.9614961 C374.882388,44.2229952 376.135192,40.0280495 377.058311,35.3766589 C377.76164,31.9859255 378.311115,28.1170118 378.706738,23.7699178 C378.838612,22.2484349 378.541895,21.0638518 377.816587,20.2161684 C377.09128,19.3684851 376.047276,18.9446434 374.684577,18.9446434 L374.684577,18.9446434 L366.904004,18.9446434 C367.783165,14.5975494 368.442536,11.3806998 368.882116,9.29409469 C369.277738,7.42484425 368.442536,6.38154169 366.376508,6.16418699 C364.53027,5.99030323 363.453298,6.75104468 363.145592,8.44641135 C362.793928,10.6634293 362.134557,14.16284 361.16748,18.9446434 L361.16748,18.9446434 L357.211257,18.9446434 C355.321061,18.9446434 354.375963,19.8792686 354.375963,21.7485191 C354.375963,23.6177695 355.321061,24.5523947 357.211257,24.5523947 L357.211257,24.5523947 L360.04655,24.5523947 C358.288229,32.7249315 356.771676,39.0716888 355.496893,43.5926666 C355.145229,44.8967948 355.804599,46.0053038 357.475005,46.9181935 C358.178333,47.309432 358.826714,47.4181093 359.420148,47.2442256 C360.013582,47.0703418 360.398214,46.6138969 360.574047,45.8748909 L360.574047,45.8748909 L360.639984,45.7444781 C361.826851,46.526955 363.607151,47.7876123 365.980885,49.5264499 C363.695067,53.5692474 360.969669,56.742626 357.80469,59.0465858 C356.705739,59.7421209 356.068348,60.4485237 355.892515,61.1657942 C355.716683,61.8830647 356.00241,62.7198803 356.749697,63.676241 Z M389.124793,65.5672269 C392.157898,65.523756 394.509653,65.1759884 396.180058,64.5239243 C397.279009,64.002273 398.048275,63.2850025 398.487855,62.3721128 C398.927436,61.459223 399.147226,60.1550948 399.147226,58.4597282 L399.147226,58.4597282 L399.147226,37.3980576 L411.213708,37.3980576 C413.147861,37.3980576 414.114938,36.4416969 414.114938,34.5289755 C414.114938,32.6162542 413.147861,31.6598935 411.213708,31.6598935 L411.213708,31.6598935 L399.147226,31.6598935 L399.147226,26.8346191 C403.411156,23.226531 406.993736,19.0533208 409.894967,14.3149883 C410.818085,12.6630926 411.037876,11.3806998 410.554337,10.4678101 C410.070799,9.55492033 409.015806,9.09847546 407.389358,9.09847546 L407.389358,9.09847546 L383.58608,9.09847546 C381.695884,9.09847546 380.750787,10.0331007 380.750787,11.9023511 C380.750787,13.7716015 381.695884,14.7062268 383.58608,14.7062268 L383.58608,14.7062268 L403.103449,14.7062268 C400.553883,18.183902 397.93838,21.1181904 395.256939,23.5090922 L395.256939,23.5090922 L395.059128,23.5090922 C394.487674,23.5090922 394.015125,23.6829759 393.641482,24.0307434 C393.267838,24.378511 393.081017,24.8566913 393.081017,25.4652845 L393.081017,25.4652845 L393.081017,31.6598935 L381.410157,31.6598935 C379.476003,31.6598935 378.508927,32.6162542 378.508927,34.5289755 C378.508927,36.4416969 379.476003,37.3980576 381.410157,37.3980576 L381.410157,37.3980576 L393.081017,37.3980576 L393.081017,58.4597282 C393.081017,59.285676 392.619457,59.69865 391.696338,59.69865 L391.696338,59.69865 L390.839157,59.69865 C389.87208,59.7421209 389.080835,59.7638564 388.465422,59.7638564 C386.926891,59.7203854 385.805961,59.9594756 385.102632,60.4811269 C384.26743,61.08972 384.091598,62.0026098 384.575136,63.2197961 C385.14659,64.78475 386.663143,65.5672269 389.124793,65.5672269 Z M368.420557,44.3099371 C367.145773,43.3535764 365.145683,42.0494482 362.420284,40.3975525 C362.244452,40.2671396 362.112578,40.1801978 362.024662,40.1367268 C362.024662,40.0497849 362.046641,39.9411076 362.090599,39.8106948 C363.717046,33.1596409 364.925892,28.0735409 365.717137,24.5523947 L365.717137,24.5523947 L371.387724,24.5523947 C372.442717,24.5523947 372.904277,25.0957815 372.772402,26.182555 C372.420738,29.1385789 371.915221,32.1598093 371.25585,35.246246 C370.464605,38.6369794 369.519508,41.6582097 368.420557,44.3099371 Z M473.656102,36.4199614 C475.194634,36.6807871 476.359522,36.2895486 477.150766,35.246246 C478.469508,33.3769956 477.700242,32.2250157 474.842969,31.7903063 C472.469235,31.3555969 470.161438,30.7252682 467.919578,29.8993204 C469.985606,28.2908956 471.590075,26.552058 472.732984,24.6828075 C473.436312,23.0743828 473.535218,21.835461 473.0297,20.9660422 C472.524183,20.0966233 471.502158,19.6619139 469.963627,19.6619139 L469.963627,19.6619139 L454.20467,19.6619139 C457.325691,17.7926635 458.996096,15.1192007 459.215887,11.6415255 L459.215887,11.6415255 L465.941467,11.6415255 C466.205215,11.6415255 466.337089,11.7719383 466.337089,12.0327639 L466.337089,12.0327639 L466.337089,12.8804473 C466.337089,15.3582909 466.710732,16.9449802 467.458019,17.6405152 C468.249264,18.4229921 469.414152,18.8142306 470.952683,18.8142306 L470.952683,18.8142306 L473.853914,18.8142306 C474.996823,18.8142306 475.875983,18.6620823 476.491396,18.3577857 C477.326599,18.0969601 477.942011,17.6187798 478.337634,16.9232447 C478.557424,16.4885353 478.733256,15.8582067 478.86513,15.0322588 C479.040962,13.7281306 478.64534,12.8152409 477.678263,12.2935896 C476.227648,11.5111126 475.392445,12.0327639 475.172655,13.8585434 C475.040781,14.2497819 474.82099,14.532343 474.513284,14.7062268 C474.425368,14.7496977 474.117662,14.7714332 473.590165,14.7714332 L472.13955,14.7714332 C471.69997,14.7714332 471.436221,14.7062268 471.348305,14.5758139 C471.216431,14.4454011 471.150494,13.9237498 471.150494,13.0108601 L471.150494,13.0108601 L471.150494,11.6415255 C471.150494,10.3808682 470.754872,9.3593011 469.963627,8.57682417 C469.172382,7.79434725 468.139368,7.40310878 466.864585,7.40310878 L466.864585,7.40310878 L456.050908,7.40310878 C455.039873,7.40310878 454.534355,7.9030246 454.534355,8.90285622 L454.534355,8.90285622 L454.534355,10.7938421 C454.534355,12.358796 454.006859,13.6629242 452.951866,14.7062268 C451.984789,15.271349 451.413335,16.173371 451.237502,17.4122928 C451.06167,18.6512146 451.347397,19.7053849 452.094684,20.5748037 C452.138642,20.6182746 452.226558,20.6400101 452.358432,20.6400101 L452.358432,20.6400101 L452.490307,20.5748037 L452.490307,21.1616614 C452.490307,21.8137255 452.688118,22.3353768 453.08374,22.7266152 C453.479362,23.1178537 454.006859,23.3134729 454.666229,23.3134729 L454.666229,23.3134729 L457.303712,23.3134729 L457.105901,23.3786793 C456.182782,23.596034 455.600338,23.9981402 455.358569,24.5849979 C455.116799,25.1718556 455.259663,25.8565229 455.787159,26.6389999 C456.842152,27.986599 457.941103,29.095108 459.084012,29.9645268 C457.677355,30.529649 455.941013,31.0730358 453.874985,31.5946871 C452.819992,31.8555127 452.160621,32.1815447 451.896873,32.5727832 C451.589167,33.0509636 451.699062,33.7030277 452.226558,34.5289755 C452.841971,35.4853362 453.853006,35.8331037 455.259663,35.5722781 C458.24881,34.7898012 460.886292,33.855176 463.17211,32.7684024 C466.161257,34.4202982 469.655921,35.6374845 473.656102,36.4199614 Z M448.797831,34.5941819 C450.028656,34.5941819 450.644069,33.9638533 450.644069,32.703196 C450.644069,31.4860097 450.028656,30.8774165 448.797831,30.8774165 L448.797831,30.8774165 L429.873895,30.8774165 C428.818902,30.8774165 428.291406,30.3557653 428.291406,29.3124627 L428.291406,29.3124627 L428.291406,13.3368921 C428.291406,12.2935896 428.818902,11.7719383 429.873895,11.7719383 L429.873895,11.7719383 L433.302622,11.7719383 C432.68721,13.3368921 431.873986,14.7714332 430.862951,16.0755614 C429.764,17.2927477 429.829937,18.2491084 431.060762,18.9446434 C431.939923,19.4662947 432.775126,19.3141464 433.566371,18.4881986 C433.654287,18.3577857 433.775171,18.183902 433.929024,17.9665473 C434.082878,17.7491926 434.203762,17.5970443 434.291678,17.5101024 L434.291678,17.5101024 L437.588531,17.5101024 L437.588531,19.987946 L431.060762,19.987946 C430.005769,19.987946 429.478273,20.5095973 429.478273,21.5528998 C429.478273,22.6396734 430.005769,23.1830601 431.060762,23.1830601 L431.060762,23.1830601 L436.929161,23.1830601 C436.225832,24.5741302 434.951049,25.7261101 433.104811,26.6389999 C432.093776,26.9867674 431.390448,27.3997413 430.994825,27.8779217 C430.511287,28.4430439 430.555245,29.051637 431.126699,29.7037012 C431.830028,30.4427071 432.863042,30.529649 434.225741,29.9645268 C436.687391,28.8777533 438.555608,27.5301541 439.830391,25.9217293 C442.028293,27.2693285 443.830573,28.4865148 445.23723,29.5732883 C446.028475,30.1818815 446.819719,30.0406009 447.610964,29.1494467 C448.402209,28.2582924 448.402209,27.5084187 447.610964,26.8998255 C445.588894,25.4652845 443.588804,24.2263627 441.610692,23.1830601 L441.610692,23.1830601 L447.676901,23.1830601 C448.731894,23.1830601 449.259391,22.6396734 449.259391,21.5528998 C449.259391,20.5095973 448.731894,19.987946 447.676901,19.987946 L447.676901,19.987946 L441.544755,19.987946 L441.544755,17.5101024 L446.424097,17.5101024 C447.435132,17.5101024 447.940649,16.9884511 447.940649,15.9451486 C447.940649,14.9453169 447.435132,14.4454011 446.424097,14.4454011 L446.424097,14.4454011 L436.137916,14.4454011 C436.401664,13.9237498 436.577496,13.5325114 436.665412,13.2716857 C436.797287,13.0108601 436.808276,12.7609022 436.698381,12.521812 C436.588486,12.2827218 436.379685,12.1414413 436.071979,12.0979703 L436.071979,12.0979703 L434.687301,11.7719383 L448.336272,11.7719383 C449.567097,11.7719383 450.182509,11.1416096 450.182509,9.88095238 C450.182509,8.66376605 449.567097,8.05517289 448.336272,8.05517289 L448.336272,8.05517289 L427.961721,8.05517289 C426.686937,8.05517289 425.653924,8.44641135 424.862679,9.22888828 C424.071434,10.0113652 423.675812,11.0329323 423.675812,12.2935896 L423.675812,12.2935896 L423.675812,30.3557653 C423.675812,31.6164225 424.071434,32.6379896 424.862679,33.4204665 C425.653924,34.2029435 426.686937,34.5941819 427.961721,34.5941819 L427.961721,34.5941819 L448.797831,34.5941819 Z M463.567732,27.7475088 C461.545663,26.5303225 459.963173,25.0523105 458.820264,23.3134729 L458.820264,23.3134729 L468.513012,23.3134729 C467.150313,25.0523105 465.501886,26.5303225 463.567732,27.7475088 Z M470.754872,64.1978923 C472.029655,64.1978923 473.062669,63.8066538 473.853914,63.0241769 C474.645158,62.2417 475.040781,61.2201329 475.040781,59.9594756 L475.040781,59.9594756 L475.040781,47.7658768 C475.040781,46.5052196 474.645158,45.4836525 473.853914,44.7011756 C473.062669,43.9186986 472.029655,43.5274602 470.754872,43.5274602 L470.754872,43.5274602 L457.633397,43.5274602 L457.633397,40.9844102 L476.227648,40.9844102 C477.590347,40.9844102 478.271696,40.3106106 478.271696,38.9630114 C478.271696,37.6154123 477.590347,36.9416127 476.227648,36.9416127 L476.227648,36.9416127 L423.93956,36.9416127 C422.576861,36.9416127 421.895511,37.6154123 421.895511,38.9630114 C421.895511,40.3106106 422.576861,40.9844102 423.93956,40.9844102 L423.93956,40.9844102 L441.676629,40.9844102 L441.676629,43.5274602 L429.807958,43.5274602 C428.533175,43.5274602 427.500161,43.9186986 426.708917,44.7011756 C425.917672,45.4836525 425.522049,46.5052196 425.522049,47.7658768 L425.522049,47.7658768 L425.522049,59.9594756 C425.522049,61.2201329 425.917672,62.2417 426.708917,63.0241769 C427.500161,63.8066538 428.533175,64.1978923 429.807958,64.1978923 L429.807958,64.1978923 L470.754872,64.1978923 Z M452.885929,43.5274602 L446.35816,43.5274602 L446.35816,40.9844102 L452.885929,40.9844102 L452.885929,43.5274602 Z M430.994825,55.264614 L430.994825,48.5483538 C430.994825,47.5050512 431.522322,46.9833999 432.577315,46.9833999 L432.577315,46.9833999 L441.281007,46.9833999 C440.489762,48.9395922 438.29186,50.3958687 434.687301,51.3522294 C432.665231,51.7869388 432.071797,52.4607384 432.907,53.3736281 C433.258664,53.7648666 433.720224,54.3299888 434.291678,55.0689948 L434.291678,55.0689948 L434.357615,55.1994076 L430.994825,55.264614 Z M469.370194,55.264614 L435.016986,55.264614 C441.65465,53.6127183 445.369104,50.8523136 446.160349,46.9833999 L446.160349,46.9833999 L452.885929,46.9833999 L452.885929,48.4179409 C452.885929,50.2871914 453.31452,51.5152454 454.171702,52.1021031 C455.028883,52.6889608 456.798194,52.9823897 459.479635,52.9823897 L459.479635,52.9823897 L468.183327,52.9823897 C468.710823,52.9823897 469.106445,52.9606542 469.370194,52.9171833 L469.370194,52.9171833 L469.370194,55.264614 Z M467.458019,49.9828948 L460.007131,49.9828948 C458.996096,49.9828948 458.347715,49.8959529 458.061988,49.7220692 C457.776261,49.5481854 457.633397,49.1352115 457.633397,48.4831474 L457.633397,48.4831474 L457.633397,46.9833999 L468.249264,46.9833999 C468.99655,46.9833999 469.370194,47.3529029 469.370194,48.0919089 L469.370194,48.0919089 L469.370194,49.6568627 L469.238319,49.5916563 C469.062487,49.852482 468.469054,49.9828948 467.458019,49.9828948 L467.458019,49.9828948 Z M467.787704,60.8071589 L431.917944,60.8071589 C431.302532,60.8071589 430.994825,60.5028623 430.994825,59.8942692 L430.994825,59.8942692 L430.994825,58.5249346 L469.370194,58.5249346 L469.370194,59.2422051 C469.370194,60.2855076 468.842697,60.8071589 467.787704,60.8071589 L467.787704,60.8071589 Z M542.032832,63.676241 C544.010944,63.676241 545,62.6981448 545,60.7419525 C545,58.7857602 544.010944,57.807664 542.032832,57.807664 L542.032832,57.807664 L519.152673,57.807664 L519.152673,42.8101896 L536.494119,42.8101896 C538.428273,42.8101896 539.39535,41.8320935 539.39535,39.8759012 C539.39535,37.9631798 538.428273,37.0068191 536.494119,37.0068191 L536.494119,37.0068191 L519.152673,37.0068191 L519.152673,23.965537 L538.867854,23.965537 C540.845965,23.965537 541.835021,22.9657054 541.835021,20.9660422 C541.835021,19.0098498 540.845965,18.0317537 538.867854,18.0317537 L538.867854,18.0317537 L519.152673,18.0317537 L519.152673,9.03326905 C519.152673,6.94666391 518.09768,5.90336134 515.987694,5.90336134 C513.877708,5.90336134 512.822715,6.94666391 512.822715,9.03326905 L512.822715,9.03326905 L512.822715,18.0317537 L501.019982,18.0317537 C501.591436,16.5972127 502.40466,14.4019302 503.459653,11.4459062 C504.119024,9.3593011 503.371737,8.05517289 501.217793,7.53352161 C499.195723,7.0988122 497.876982,7.94649554 497.261569,10.0765716 C494.931793,17.3796896 492.052542,23.2917375 488.623815,27.8127153 C487.788612,28.7690759 487.436948,29.5841561 487.568822,30.2579556 C487.700696,30.9317552 488.294129,31.638158 489.349122,32.377164 C490.272241,32.9857571 491.074475,33.2357151 491.755825,33.1270377 C492.437175,33.0183603 493.107535,32.5293123 493.766905,31.6598935 C495.437311,29.2689917 496.975842,26.7042063 498.382499,23.965537 L498.382499,23.965537 L512.822715,23.965537 L512.822715,37.0068191 L497.129695,37.0068191 C495.195542,37.0068191 494.228465,37.9631798 494.228465,39.8759012 C494.228465,41.8320935 495.195542,42.8101896 497.129695,42.8101896 L497.129695,42.8101896 L512.822715,42.8101896 L512.822715,57.807664 L489.942556,57.807664 C487.964444,57.807664 486.975388,58.7857602 486.975388,60.7419525 C486.975388,62.6981448 487.964444,63.676241 489.942556,63.676241 L489.942556,63.676241 L542.032832,63.676241 Z" id="好醫生" fill="#E8F4F1" fill-rule="nonzero"></path>
                <g id="Group" transform="translate(355.215716, 68.088235)" fill-rule="nonzero">
                    <rect id="Rectangle" fill="#E8F4F1" x="0" y="0" width="188.104777" height="20.1680672" rx="7.5"></rect>
                    <path d="M17.9762739,17.1253782 C18.0962247,17.1352381 18.2411654,17.0859384 18.4110958,16.977479 C19.3906946,16.2872829 20.1803711,15.399888 20.7801255,14.3152941 C21.1999536,14.6603922 21.579798,15.0153501 21.9196588,15.3801681 C22.1795523,15.6562465 22.4344479,15.6266667 22.6843456,15.2914286 C22.8742678,15.04493 22.8792658,14.8181513 22.6993395,14.6110924 C22.2895073,14.1871148 21.8147018,13.7680672 21.2749228,13.3539496 C21.9146608,11.8946779 22.3444848,10.0607283 22.5643947,7.85210084 C22.6243702,7.15204482 22.3594786,6.80201681 21.7697202,6.80201681 L21.7697202,6.80201681 L19.8055247,6.80201681 C19.9654592,6.06252101 20.1303916,5.25893557 20.300322,4.3912605 C20.3702934,4.06588235 20.2203548,3.87854342 19.8505062,3.8292437 C19.5206413,3.77994398 19.3257212,3.90812325 19.2657457,4.21378151 C19.1158072,5.04201681 18.9408788,5.9047619 18.7409607,6.80201681 L18.7409607,6.80201681 L17.646409,6.80201681 C17.3065482,6.80201681 17.1366178,6.96963585 17.1366178,7.30487395 C17.1366178,7.64011204 17.3065482,7.80773109 17.646409,7.80773109 L17.646409,7.80773109 L18.5460405,7.80773109 C18.1062206,9.72056022 17.7263762,11.2488515 17.4065072,12.392605 C17.3465318,12.6292437 17.4514888,12.8165826 17.7213783,12.9546218 C18.071235,13.1222409 18.2961429,13.0187115 18.3961019,12.6440336 L18.3961019,12.6440336 L18.4110958,12.5996639 C18.9808624,12.9644818 19.4906536,13.3145098 19.9404694,13.6497479 C19.3607068,14.694902 18.6509975,15.4984874 17.8113414,16.0605042 C17.6114233,16.1788235 17.4939714,16.3020728 17.4589857,16.4302521 C17.4240001,16.5584314 17.4764786,16.7112605 17.6164213,16.8887395 C17.7363721,17.0366387 17.856323,17.1155182 17.9762739,17.1253782 Z M24.7984797,17.2289076 C25.6481317,17.2091877 26.2228963,17.145098 26.5227735,17.0366387 C26.7626752,16.9478992 26.9276077,16.8147899 27.0175708,16.6373109 C27.107534,16.4598319 27.1525156,16.2034734 27.1525156,15.8682353 L27.1525156,15.8682353 L27.1525156,10.7065546 L30.1662812,10.7065546 C30.506142,10.7065546 30.6760724,10.5340056 30.6760724,10.1889076 C30.6760724,9.85366947 30.506142,9.68605042 30.1662812,9.68605042 L30.1662812,9.68605042 L27.1525156,9.68605042 L27.1525156,8.3697479 C28.1820939,7.58095238 29.0567357,6.63932773 29.7764409,5.54487395 C29.9663631,5.2194958 30.0138437,4.96806723 29.9188826,4.79058824 C29.8239215,4.61310924 29.6115085,4.52436975 29.2816436,4.52436975 L29.2816436,4.52436975 L23.5839771,4.52436975 C23.2441163,4.52436975 23.0741859,4.6919888 23.0741859,5.02722689 C23.0741859,5.36246499 23.2441163,5.53008403 23.5839771,5.53008403 L23.5839771,5.53008403 L28.6219138,5.53008403 C27.9022085,6.43719888 27.1924992,7.16683473 26.4927858,7.7189916 L26.4927858,7.7189916 L26.4478042,7.7189916 C26.1879106,7.7189916 26.0579639,7.84717087 26.0579639,8.10352941 L26.0579639,8.10352941 L26.0579639,9.68605042 L23.0891798,9.68605042 C22.749319,9.68605042 22.5793886,9.85366947 22.5793886,10.1889076 C22.5793886,10.5340056 22.749319,10.7065546 23.0891798,10.7065546 L23.0891798,10.7065546 L26.0579639,10.7065546 L26.0579639,15.8682353 C26.0579639,15.9766947 26.0354731,16.0531092 25.9904915,16.097479 C25.9455099,16.1418487 25.8580457,16.1689636 25.728099,16.1788235 C25.5581686,16.1985434 25.2183078,16.1985434 24.7085166,16.1788235 C24.4286312,16.1689636 24.2187172,16.2133333 24.0787745,16.3119328 C23.91884,16.4302521 23.8788564,16.5978711 23.9588236,16.8147899 C24.0687786,17.0908683 24.3486639,17.2289076 24.7984797,17.2289076 Z M20.3902852,12.7031933 C19.9004858,12.3482353 19.3257212,11.9834174 18.6659914,11.6087395 C18.9558727,10.4847059 19.2607478,9.21770308 19.5806168,7.80773109 L19.5806168,7.80773109 L21.2299413,7.80773109 C21.4398553,7.80773109 21.5298184,7.92605042 21.4998307,8.16268908 C21.3099085,9.92761905 20.94006,11.4411204 20.3902852,12.7031933 Z M39.4174922,17.2141176 C40.2871361,17.2535574 40.8868904,17.2584874 41.2167553,17.2289076 C41.7765261,17.1993277 42.2013521,17.0366387 42.4912333,16.7408403 C42.741131,16.4746218 42.9460471,15.9619048 43.1059816,15.2026891 C43.275912,14.3941737 43.4308485,13.1321008 43.5707912,11.4164706 C43.6107748,10.8051541 43.5607953,10.3713165 43.4208526,10.114958 C43.2909058,9.88817927 43.0809918,9.77478992 42.7911105,9.77478992 L42.7911105,9.77478992 L37.7831616,9.77478992 C37.8831207,9.12403361 37.95809,8.31551821 38.0080695,7.3492437 L38.0080695,7.3492437 L44.9202385,7.3492437 C45.2700952,7.3492437 45.4450236,7.17176471 45.4450236,6.81680672 C45.4450236,6.47170868 45.2700952,6.29915966 44.9202385,6.29915966 L44.9202385,6.29915966 L39.3575168,6.29915966 L39.3575168,4.27294118 C39.3575168,3.90812325 39.1725925,3.72571429 38.802744,3.72571429 C38.4228996,3.72571429 38.2329774,3.90812325 38.2329774,4.27294118 L38.2329774,4.27294118 L38.2329774,6.29915966 L32.7752127,6.29915966 C32.425356,6.29915966 32.2504276,6.47170868 32.2504276,6.81680672 C32.2504276,7.17176471 32.425356,7.3492437 32.7752127,7.3492437 L32.7752127,7.3492437 L36.8085608,7.3492437 C36.6986058,9.40011204 36.4487082,10.9826331 36.0588678,12.0968067 C35.4691094,13.802577 34.4395311,15.0942297 32.9701329,15.9717647 C32.4003662,16.267563 32.2654215,16.5880112 32.5652987,16.9331092 C32.7952045,17.1894678 33.1100756,17.2091877 33.5099118,16.9922689 C34.6994246,16.3119328 35.6440377,15.399888 36.3437511,14.2561345 C36.9135178,13.3095798 37.3383438,12.1608964 37.6182292,10.810084 L37.6182292,10.810084 L42.20635,10.810084 C42.316305,10.810084 42.3912743,10.8445938 42.4312579,10.9136134 C42.4712415,11.0023529 42.4862354,11.160112 42.4762395,11.3868908 C42.3562886,12.8658824 42.2213439,13.9751261 42.0714053,14.7146218 C41.9214667,15.4343978 41.7415404,15.8830252 41.5316264,16.0605042 C41.4216714,16.1689636 41.1917656,16.2231933 40.8419088,16.2231933 C40.1721831,16.2231933 39.5624329,16.2084034 39.012658,16.1788235 C38.7927481,16.1591036 38.6478075,16.1862185 38.5778361,16.2601681 C38.5078648,16.3341176 38.5128627,16.445042 38.59283,16.5929412 L38.59283,16.5929412 L38.6078239,16.622521 L38.6078239,16.6373109 C38.697787,17.0021289 38.9676765,17.1943978 39.4174922,17.2141176 Z M49.3734146,17.2436975 C49.7232713,17.2436975 49.8981997,17.0711485 49.8981997,16.7260504 L49.8981997,16.7260504 L49.8981997,7.39361345 C50.3380195,6.53579832 50.7478517,5.61882353 51.1276961,4.64268908 C51.247647,4.29759104 51.1276961,4.07081232 50.7678435,3.96235294 C50.4379786,3.8637535 50.2080728,3.99193277 50.078126,4.34689076 C49.3584208,6.3287395 48.4437954,7.99014006 47.3342498,9.33109244 C47.2142989,9.45927171 47.1518245,9.58252101 47.1468266,9.70084034 C47.1418286,9.81915966 47.1843112,9.95719888 47.2742744,10.114958 C47.4042211,10.3417367 47.5391659,10.457591 47.6791086,10.462521 C47.8190512,10.467451 47.9739878,10.3663866 48.1439182,10.1593277 C48.4337995,9.78464986 48.6637053,9.45927171 48.8336357,9.18319328 L48.8336357,9.18319328 L48.8336357,16.7260504 C48.8336357,17.0711485 49.013562,17.2436975 49.3734146,17.2436975 Z M50.8428128,16.977479 C51.0127432,17.2042577 51.2826327,17.2634174 51.6524812,17.154958 C52.7920145,16.7802801 53.7066399,16.3217927 54.3963574,15.7794958 C55.7757924,16.449972 57.5050842,16.8985994 59.5842326,17.1253782 C59.9340893,17.154958 60.183987,17.0514286 60.3339255,16.8147899 C60.6138109,16.3809524 60.4388826,16.1393838 59.8091405,16.090084 C57.9099183,15.8830252 56.3655509,15.5280672 55.1760381,15.0252101 C55.7458047,14.335014 56.1156532,13.462409 56.2855836,12.407395 L56.2855836,12.407395 L59.0444537,12.407395 C59.3043472,12.407395 59.5142613,12.3285154 59.6741958,12.1707563 C59.8341302,12.0129972 59.9140975,11.8059384 59.9140975,11.5495798 L59.9140975,11.5495798 L59.9140975,7.68941176 C59.9140975,7.43305322 59.8341302,7.2259944 59.6741958,7.06823529 C59.5142613,6.91047619 59.3043472,6.83159664 59.0444537,6.83159664 L59.0444537,6.83159664 L56.4055345,6.83159664 L56.4055345,5.60403361 L59.9290914,5.60403361 C60.2589563,5.60403361 60.4238887,5.43641457 60.4238887,5.10117647 C60.4238887,4.77579832 60.2589563,4.61310924 59.9290914,4.61310924 L59.9290914,4.61310924 L51.8174136,4.61310924 C51.4875487,4.61310924 51.3226163,4.77579832 51.3226163,5.10117647 C51.3226163,5.43641457 51.4875487,5.60403361 51.8174136,5.60403361 L51.8174136,5.60403361 L55.3259766,5.60403361 L55.3259766,6.83159664 L52.5671066,6.83159664 C52.307213,6.83159664 52.097299,6.91047619 51.9373645,7.06823529 C51.77743,7.2259944 51.6974628,7.43305322 51.6974628,7.68941176 L51.6974628,7.68941176 L51.6974628,11.5495798 C51.6974628,11.8059384 51.77743,12.0129972 51.9373645,12.1707563 C52.097299,12.3285154 52.307213,12.407395 52.5671066,12.407395 L52.5671066,12.407395 L55.2210196,12.407395 C55.071081,13.27507 54.7412161,13.989916 54.2314249,14.5519328 C53.5117197,14.1476751 52.9269592,13.6645378 52.4771434,13.102521 C52.3172089,12.8856022 52.102297,12.8264426 51.8324075,12.925042 C51.4825508,13.0630812 51.4125794,13.28 51.6224935,13.5757983 C52.0723092,14.1871148 52.6720636,14.7343417 53.4217565,15.217479 C52.8819776,15.5921569 52.1772663,15.912605 51.3076224,16.1788235 C50.7278599,16.3365826 50.5729233,16.6028011 50.8428128,16.977479 Z M55.3259766,9.21277311 L52.7470329,9.21277311 L52.7470329,8 C52.7470329,7.79294118 52.8519899,7.68941176 53.0619039,7.68941176 L53.0619039,7.68941176 L55.3259766,7.68941176 L55.3259766,9.21277311 Z M58.8345396,9.21277311 L56.4055345,9.21277311 L56.4055345,7.68941176 L58.5196686,7.68941176 C58.7295826,7.68941176 58.8345396,7.79294118 58.8345396,8 L58.8345396,8 L58.8345396,9.21277311 Z M55.3109828,11.5495798 L53.0619039,11.5495798 C52.8519899,11.5495798 52.7470329,11.4460504 52.7470329,11.2389916 L52.7470329,11.2389916 L52.7470329,10.0262185 L55.3259766,10.0262185 L55.3259766,10.7657143 C55.3259766,11.1206723 55.3209787,11.3819608 55.3109828,11.5495798 L55.3109828,11.5495798 Z M58.5196686,11.5495798 L56.3755468,11.5495798 C56.3955386,11.3819608 56.4055345,11.1206723 56.4055345,10.7657143 L56.4055345,10.7657143 L56.4055345,10.0262185 L58.8345396,10.0262185 L58.8345396,11.2389916 C58.8345396,11.4460504 58.7295826,11.5495798 58.5196686,11.5495798 L58.5196686,11.5495798 Z M73.0337241,17.1253782 C73.153675,17.1352381 73.2986156,17.0859384 73.468546,16.977479 C74.4481448,16.2872829 75.2378214,15.399888 75.8375758,14.3152941 C76.2574038,14.6603922 76.6372482,15.0153501 76.977109,15.3801681 C77.2370026,15.6562465 77.4918982,15.6266667 77.7417959,15.2914286 C77.9317181,15.04493 77.936716,14.8181513 77.7567897,14.6110924 C77.3469576,14.1871148 76.872152,13.7680672 76.3323731,13.3539496 C76.9721111,11.8946779 77.401935,10.0607283 77.621845,7.85210084 C77.6818204,7.15204482 77.4169289,6.80201681 76.8271705,6.80201681 L76.8271705,6.80201681 L74.8629749,6.80201681 C75.0229094,6.06252101 75.1878419,5.25893557 75.3577723,4.3912605 C75.4277436,4.06588235 75.277805,3.87854342 74.9079565,3.8292437 C74.5780916,3.77994398 74.3831714,3.90812325 74.323196,4.21378151 C74.1732574,5.04201681 73.9983291,5.9047619 73.7984109,6.80201681 L73.7984109,6.80201681 L72.7038592,6.80201681 C72.3639984,6.80201681 72.194068,6.96963585 72.194068,7.30487395 C72.194068,7.64011204 72.3639984,7.80773109 72.7038592,7.80773109 L72.7038592,7.80773109 L73.6034908,7.80773109 C73.1636709,9.72056022 72.7838265,11.2488515 72.4639575,12.392605 C72.403982,12.6292437 72.5089391,12.8165826 72.7788285,12.9546218 C73.1286852,13.1222409 73.3535931,13.0187115 73.4535522,12.6440336 L73.4535522,12.6440336 L73.468546,12.5996639 C74.0383127,12.9644818 74.5481039,13.3145098 74.9979197,13.6497479 C74.4181571,14.694902 73.7084478,15.4984874 72.8687917,16.0605042 C72.6688736,16.1788235 72.5514217,16.3020728 72.516436,16.4302521 C72.4814503,16.5584314 72.5339288,16.7112605 72.6738715,16.8887395 C72.7938224,17.0366387 72.9137733,17.1155182 73.0337241,17.1253782 Z M79.85593,17.2289076 C80.705582,17.2091877 81.2803466,17.145098 81.5802238,17.0366387 C81.8201255,16.9478992 81.9850579,16.8147899 82.0750211,16.6373109 C82.1649843,16.4598319 82.2099658,16.2034734 82.2099658,15.8682353 L82.2099658,15.8682353 L82.2099658,10.7065546 L85.2237315,10.7065546 C85.5635923,10.7065546 85.7335227,10.5340056 85.7335227,10.1889076 C85.7335227,9.85366947 85.5635923,9.68605042 85.2237315,9.68605042 L85.2237315,9.68605042 L82.2099658,9.68605042 L82.2099658,8.3697479 C83.2395442,7.58095238 84.1141859,6.63932773 84.8338912,5.54487395 C85.0238134,5.2194958 85.0712939,4.96806723 84.9763328,4.79058824 C84.8813717,4.61310924 84.6689587,4.52436975 84.3390938,4.52436975 L84.3390938,4.52436975 L78.6414274,4.52436975 C78.3015666,4.52436975 78.1316362,4.6919888 78.1316362,5.02722689 C78.1316362,5.36246499 78.3015666,5.53008403 78.6414274,5.53008403 L78.6414274,5.53008403 L83.679364,5.53008403 C82.9596588,6.43719888 82.2499495,7.16683473 81.550236,7.7189916 L81.550236,7.7189916 L81.5052545,7.7189916 C81.2453609,7.7189916 81.1154141,7.84717087 81.1154141,8.10352941 L81.1154141,8.10352941 L81.1154141,9.68605042 L78.14663,9.68605042 C77.8067692,9.68605042 77.6368388,9.85366947 77.6368388,10.1889076 C77.6368388,10.5340056 77.8067692,10.7065546 78.14663,10.7065546 L78.14663,10.7065546 L81.1154141,10.7065546 L81.1154141,15.8682353 C81.1154141,15.9766947 81.0929233,16.0531092 81.0479418,16.097479 C81.0029602,16.1418487 80.915496,16.1689636 80.7855492,16.1788235 C80.6156188,16.1985434 80.275758,16.1985434 79.7659668,16.1788235 C79.4860814,16.1689636 79.2761674,16.2133333 79.1362247,16.3119328 C78.9762902,16.4302521 78.9363066,16.5978711 79.0162739,16.8147899 C79.1262288,17.0908683 79.4061142,17.2289076 79.85593,17.2289076 Z M75.4477354,12.7031933 C74.957936,12.3482353 74.3831714,11.9834174 73.7234416,11.6087395 C74.0133229,10.4847059 74.318198,9.21770308 74.638067,7.80773109 L74.638067,7.80773109 L76.2873915,7.80773109 C76.4973056,7.80773109 76.5872687,7.92605042 76.557281,8.16268908 C76.3673588,9.92761905 75.9975103,11.4411204 75.4477354,12.7031933 Z M99.5428668,17.0514286 C99.9127154,17.2387675 100.207595,17.1845378 100.427505,16.8887395 C100.597435,16.6718207 100.647414,16.4894118 100.577443,16.3415126 C100.527464,16.2034734 100.367529,16.0703641 100.09764,15.9421849 C98.5182865,15.1040896 97.3537634,13.6448179 96.6040705,11.5643697 L96.6040705,11.5643697 L100.232584,11.5643697 C100.582441,11.5643697 100.757369,11.3868908 100.757369,11.0319328 C100.757369,10.6868347 100.582441,10.5142857 100.232584,10.5142857 L100.232584,10.5142857 L99.4828914,10.5142857 L99.4828914,6.96470588 C99.4828914,6.70834734 99.4029242,6.50128852 99.2429897,6.34352941 C99.0830552,6.18577031 98.8731411,6.10689076 98.6132476,6.10689076 L98.6132476,6.10689076 L96.1842424,6.10689076 L96.1842424,4.28773109 C96.1842424,3.93277311 96.0043161,3.75529412 95.6444635,3.75529412 C95.274615,3.75529412 95.0896907,3.93277311 95.0896907,4.28773109 L95.0896907,4.28773109 L95.0896907,6.10689076 L92.720661,6.10689076 C92.3708043,6.10689076 92.1958759,6.27943978 92.1958759,6.62453782 C92.1958759,6.96963585 92.3708043,7.14218487 92.720661,7.14218487 L92.720661,7.14218487 L95.0896907,7.14218487 L95.0896907,8.66554622 C95.0896907,9.36560224 95.064701,9.98184874 95.0147214,10.5142857 L95.0147214,10.5142857 L91.9259865,10.5142857 C91.5761298,10.5142857 91.4012014,10.6868347 91.4012014,11.0319328 C91.4012014,11.3868908 91.5761298,11.5643697 91.9259865,11.5643697 L91.9259865,11.5643697 L94.8647828,11.5643697 C94.4849384,13.4771989 93.4403662,14.9660504 91.7310663,16.0309244 C91.5011605,16.1492437 91.3462239,16.2872829 91.2662567,16.445042 C91.1762935,16.622521 91.2062812,16.79507 91.3562198,16.9626891 C91.5861257,17.2091877 91.8959987,17.2141176 92.2858391,16.977479 C94.1150899,15.8140056 95.2896088,14.2512045 95.8093959,12.2890756 C96.6290602,14.5470028 97.8735505,16.1344538 99.5428668,17.0514286 Z M89.6019383,17.2584874 C89.9617909,17.2584874 90.1417172,17.0810084 90.1417172,16.7260504 L90.1417172,16.7260504 L90.1417172,4.28773109 C90.1417172,3.93277311 89.9617909,3.75529412 89.6019383,3.75529412 C89.2320898,3.75529412 89.0471655,3.93277311 89.0471655,4.28773109 L89.0471655,4.28773109 L89.0471655,16.7260504 C89.0471655,17.0810084 89.2320898,17.2584874 89.6019383,17.2584874 Z M91.1463058,8.76907563 C91.226273,9.06487395 91.4211932,9.13882353 91.7310663,8.99092437 C91.8610131,8.93176471 91.9459783,8.86767507 91.9859619,8.79865546 C92.0359414,8.72963585 92.0409394,8.63596639 92.0009558,8.51764706 C91.8010376,7.91619048 91.5111564,7.23585434 91.1313119,6.47663866 C91.0113611,6.24 90.8264368,6.18084034 90.5765392,6.29915966 C90.3166456,6.41747899 90.2416763,6.59495798 90.3516313,6.83159664 C90.4415944,7.01893557 90.5615453,7.29994398 90.7114839,7.67462185 C90.7614634,7.78308123 90.7964491,7.86196078 90.8164409,7.9112605 C90.9164,8.13803922 91.0263549,8.42397759 91.1463058,8.76907563 Z M87.397841,10.5142857 C87.6777264,10.6128852 87.8576527,10.5389356 87.93762,10.292437 C88.0675668,9.87831933 88.1925156,9.36067227 88.3124664,8.7394958 C88.4324173,7.97042017 88.5073866,7.41333333 88.5373743,7.06823529 C88.5473702,6.83159664 88.4174235,6.69848739 88.147534,6.66890756 C87.8576527,6.63932773 87.6977182,6.75271709 87.6677305,7.00907563 C87.5477796,8.16268908 87.3528595,9.16347339 87.08297,10.0114286 C87.0429864,10.1494678 87.0479843,10.2529972 87.0979639,10.3220168 C87.1479434,10.3910364 87.2479025,10.4551261 87.397841,10.5142857 Z M98.4033336,10.5142857 L96.124267,10.5142857 C96.1642506,9.95226891 96.1842424,9.33602241 96.1842424,8.66554622 L96.1842424,8.66554622 L96.1842424,7.14218487 L98.0884625,7.14218487 C98.2983765,7.14218487 98.4033336,7.24571429 98.4033336,7.45277311 L98.4033336,7.45277311 L98.4033336,10.5142857 Z M110.728286,15.3801681 C111.078142,15.3801681 111.253071,15.207619 111.253071,14.862521 L111.253071,14.862521 L111.253071,11.8453782 C112.152702,12.9792717 113.187279,13.9159664 114.3568,14.6554622 C114.516734,14.7540616 114.651679,14.7959664 114.761634,14.7811765 C114.871589,14.7663866 114.986542,14.689972 115.106492,14.5519328 C115.266427,14.3744538 115.3314,14.2216246 115.301413,14.0934454 C115.271425,13.9652661 115.141478,13.8469468 114.911572,13.7384874 C114.321814,13.4229692 113.74455,13.0285714 113.179782,12.5552941 C112.615013,12.0820168 112.137708,11.5988796 111.747868,11.1058824 L111.747868,11.1058824 L113.966959,11.1058824 C114.226853,11.1058824 114.436767,11.0270028 114.596701,10.8692437 C114.756636,10.7114846 114.836603,10.5044258 114.836603,10.2480672 L114.836603,10.2480672 L114.836603,8.2810084 C114.836603,8.02464986 114.756636,7.81759104 114.596701,7.65983193 C114.436767,7.50207283 114.226853,7.42319328 113.966959,7.42319328 L113.966959,7.42319328 L111.253071,7.42319328 L111.253071,6.18084034 L114.956554,6.18084034 C115.276423,6.18084034 115.436357,6.02308123 115.436357,5.70756303 C115.436357,5.39204482 115.276423,5.23428571 114.956554,5.23428571 L114.956554,5.23428571 L111.253071,5.23428571 L111.253071,4.30252101 C111.253071,3.95742297 111.078142,3.78487395 110.728286,3.78487395 C110.368433,3.78487395 110.188507,3.95742297 110.188507,4.30252101 L110.188507,4.30252101 L110.188507,5.23428571 L106.769907,5.23428571 C106.450038,5.23428571 106.290103,5.39204482 106.290103,5.70756303 C106.290103,6.02308123 106.450038,6.18084034 106.769907,6.18084034 L106.769907,6.18084034 L110.188507,6.18084034 L110.188507,7.42319328 L107.654545,7.42319328 C107.394651,7.42319328 107.184737,7.50207283 107.024802,7.65983193 C106.864868,7.81759104 106.784901,8.02464986 106.784901,8.2810084 L106.784901,8.2810084 L106.784901,10.2480672 C106.784901,10.5044258 106.864868,10.7114846 107.024802,10.8692437 C107.184737,11.0270028 107.394651,11.1058824 107.654545,11.1058824 L107.654545,11.1058824 L109.603746,11.1058824 C109.233898,11.6284594 108.779084,12.1313165 108.239305,12.6144538 C107.699526,13.097591 107.139755,13.4969188 106.559993,13.812437 C106.340083,13.9208964 106.212635,14.0342857 106.177649,14.152605 C106.142664,14.2709244 106.205138,14.4188235 106.365073,14.5963025 C106.564991,14.8132213 106.804893,14.8477311 107.084778,14.6998319 C108.284287,13.980056 109.318863,13.0039216 110.188507,11.7714286 L110.188507,11.7714286 L110.188507,14.862521 C110.188507,15.207619 110.368433,15.3801681 110.728286,15.3801681 Z M105.227938,6.28732773 L105.300509,6.28436975 C105.410464,6.2745098 105.535412,6.20056022 105.675355,6.06252101 C105.915257,5.82588235 105.935249,5.59910364 105.735331,5.38218487 C105.525417,5.20470588 105.265523,5.00504202 104.95565,4.78319328 C104.645777,4.56134454 104.300918,4.34196078 103.921074,4.12504202 C103.701164,4.00672269 103.496248,4.03630252 103.306325,4.21378151 C103.006448,4.49971989 103.036436,4.74128852 103.396289,4.93848739 C104.026031,5.3427451 104.535822,5.73714286 104.925662,6.12168067 C105.055609,6.24985994 105.180558,6.30408964 105.300509,6.28436975 L105.227938,6.28732773 Z M104.49084,9.03529412 C104.730742,9.26207283 104.98064,9.24235294 105.240533,8.97613445 C105.480435,8.72963585 105.490431,8.50285714 105.270521,8.29579832 C104.76073,7.86196078 104.120992,7.45277311 103.351307,7.06823529 C103.111405,6.96963585 102.901491,7.00907563 102.721565,7.18655462 C102.411692,7.472493 102.44168,7.70913165 102.811528,7.89647059 C103.081418,8.04436975 103.381295,8.23170868 103.71116,8.45848739 C104.041025,8.68526611 104.300918,8.87753501 104.49084,9.03529412 Z M110.188507,10.2332773 L108.119354,10.2332773 C107.90944,10.2332773 107.804483,10.1297479 107.804483,9.92268908 L107.804483,9.92268908 L107.804483,8.60638655 C107.804483,8.39932773 107.90944,8.29579832 108.119354,8.29579832 L108.119354,8.29579832 L110.188507,8.29579832 L110.188507,10.2332773 Z M113.457168,10.2332773 L111.253071,10.2332773 L111.253071,8.29579832 L113.457168,8.29579832 C113.667082,8.29579832 113.772039,8.39932773 113.772039,8.60638655 L113.772039,8.60638655 L113.772039,9.92268908 C113.772039,10.1297479 113.667082,10.2332773 113.457168,10.2332773 L113.457168,10.2332773 Z M111.62042,17.0218487 C112.615013,17.0169188 113.727057,16.9971989 114.956554,16.9626891 C115.126484,16.9528291 115.248934,16.9158543 115.323903,16.8517647 C115.398873,16.7876751 115.461347,16.6767507 115.511327,16.5189916 C115.591294,16.2626331 115.60129,16.092549 115.541314,16.0087395 C115.481339,15.92493 115.316407,15.8879552 115.046517,15.8978151 C112.727467,15.9865546 110.703296,16.0062745 108.974004,15.9569748 C107.154749,15.8780952 105.905261,15.3210084 105.225539,14.2857143 L105.225539,14.2857143 L105.225539,11.2833613 C105.225539,11.0664426 105.163065,10.8963585 105.038116,10.7731092 C104.913167,10.6498599 104.740738,10.5882353 104.520828,10.5882353 L104.520828,10.5882353 L102.736559,10.5882353 C102.396698,10.5882353 102.226768,10.7558543 102.226768,11.0910924 C102.226768,11.4361905 102.396698,11.6087395 102.736559,11.6087395 L102.736559,11.6087395 L103.846104,11.6087395 C104.056018,11.6087395 104.160975,11.7122689 104.160975,11.9193277 L104.160975,11.9193277 L104.160975,14.3596639 C103.581213,14.8822409 103.011446,15.3456583 102.451675,15.749916 C102.161794,15.9569748 102.106817,16.2182633 102.286743,16.5337815 C102.486661,16.9281793 102.776542,16.972549 103.156387,16.6668908 C103.806121,16.1147339 104.340902,15.6365266 104.76073,15.2322689 C105.650365,16.3168627 107.059788,16.9035294 108.988998,16.9922689 C109.495457,17.0087021 110.054117,17.0185621 110.664978,17.0218487 L111.62042,17.0218487 Z M128.091174,17.1253782 C128.211125,17.1352381 128.356066,17.0859384 128.525996,16.977479 C129.505595,16.2872829 130.295272,15.399888 130.895026,14.3152941 C131.314854,14.6603922 131.694698,15.0153501 132.034559,15.3801681 C132.294453,15.6562465 132.549348,15.6266667 132.799246,15.2914286 C132.989168,15.04493 132.994166,14.8181513 132.81424,14.6110924 C132.404408,14.1871148 131.929602,13.7680672 131.389823,13.3539496 C132.029561,11.8946779 132.459385,10.0607283 132.679295,7.85210084 C132.739271,7.15204482 132.474379,6.80201681 131.884621,6.80201681 L131.884621,6.80201681 L129.920425,6.80201681 C130.08036,6.06252101 130.245292,5.25893557 130.415223,4.3912605 C130.485194,4.06588235 130.335255,3.87854342 129.965407,3.8292437 C129.635542,3.77994398 129.440622,3.90812325 129.380646,4.21378151 C129.230708,5.04201681 129.055779,5.9047619 128.855861,6.80201681 L128.855861,6.80201681 L127.761309,6.80201681 C127.421449,6.80201681 127.251518,6.96963585 127.251518,7.30487395 C127.251518,7.64011204 127.421449,7.80773109 127.761309,7.80773109 L127.761309,7.80773109 L128.660941,7.80773109 C128.221121,9.72056022 127.841277,11.2488515 127.521408,12.392605 C127.461432,12.6292437 127.566389,12.8165826 127.836279,12.9546218 C128.186135,13.1222409 128.411043,13.0187115 128.511002,12.6440336 L128.511002,12.6440336 L128.525996,12.5996639 C129.095763,12.9644818 129.605554,13.3145098 130.05537,13.6497479 C129.475607,14.694902 128.765898,15.4984874 127.926242,16.0605042 C127.726324,16.1788235 127.608872,16.3020728 127.573886,16.4302521 C127.538901,16.5584314 127.591379,16.7112605 127.731322,16.8887395 C127.851273,17.0366387 127.971224,17.1155182 128.091174,17.1253782 Z M134.91338,17.2289076 C135.763032,17.2091877 136.337797,17.145098 136.637674,17.0366387 C136.877576,16.9478992 137.042508,16.8147899 137.132471,16.6373109 C137.222435,16.4598319 137.267416,16.2034734 137.267416,15.8682353 L137.267416,15.8682353 L137.267416,10.7065546 L140.281182,10.7065546 C140.621043,10.7065546 140.790973,10.5340056 140.790973,10.1889076 C140.790973,9.85366947 140.621043,9.68605042 140.281182,9.68605042 L140.281182,9.68605042 L137.267416,9.68605042 L137.267416,8.3697479 C138.296994,7.58095238 139.171636,6.63932773 139.891341,5.54487395 C140.081264,5.2194958 140.128744,4.96806723 140.033783,4.79058824 C139.938822,4.61310924 139.726409,4.52436975 139.396544,4.52436975 L139.396544,4.52436975 L133.698878,4.52436975 C133.359017,4.52436975 133.189086,4.6919888 133.189086,5.02722689 C133.189086,5.36246499 133.359017,5.53008403 133.698878,5.53008403 L133.698878,5.53008403 L138.736814,5.53008403 C138.017109,6.43719888 137.3074,7.16683473 136.607686,7.7189916 L136.607686,7.7189916 L136.562705,7.7189916 C136.302811,7.7189916 136.172864,7.84717087 136.172864,8.10352941 L136.172864,8.10352941 L136.172864,9.68605042 L133.20408,9.68605042 C132.864219,9.68605042 132.694289,9.85366947 132.694289,10.1889076 C132.694289,10.5340056 132.864219,10.7065546 133.20408,10.7065546 L133.20408,10.7065546 L136.172864,10.7065546 L136.172864,15.8682353 C136.172864,15.9766947 136.150374,16.0531092 136.105392,16.097479 C136.06041,16.1418487 135.972946,16.1689636 135.842999,16.1788235 C135.673069,16.1985434 135.333208,16.1985434 134.823417,16.1788235 C134.543532,16.1689636 134.333618,16.2133333 134.193675,16.3119328 C134.033741,16.4302521 133.993757,16.5978711 134.073724,16.8147899 C134.183679,17.0908683 134.463564,17.2289076 134.91338,17.2289076 Z M130.505186,12.7031933 C130.015386,12.3482353 129.440622,11.9834174 128.780892,11.6087395 C129.070773,10.4847059 129.375648,9.21770308 129.695517,7.80773109 L129.695517,7.80773109 L131.344842,7.80773109 C131.554756,7.80773109 131.644719,7.92605042 131.614731,8.16268908 C131.424809,9.92761905 131.054961,11.4411204 130.505186,12.7031933 Z M154.450379,9.07966387 C154.890198,9.16840336 155.185078,9.09938375 155.335016,8.87260504 C155.454967,8.69512605 155.404988,8.527507 155.185078,8.3697479 C155.015147,8.23170868 154.785241,8.13803922 154.49536,8.0887395 C153.535753,7.8422409 152.81105,7.49221289 152.321251,7.03865546 C151.921414,6.68369748 151.641529,6.22521008 151.481594,5.66319328 L151.481594,5.66319328 L153.865618,5.66319328 C153.745667,5.8702521 153.575737,6.10689076 153.355827,6.37310924 C153.085937,6.64918768 153.145913,6.8562465 153.535753,6.99428571 C153.755663,7.06330532 153.925593,7.03372549 154.045544,6.90554622 C154.285446,6.61960784 154.540342,6.26957983 154.810231,5.85546218 C154.970166,5.53008403 155.000153,5.27865546 154.900194,5.10117647 C154.800235,4.92369748 154.585323,4.83495798 154.255458,4.83495798 L154.255458,4.83495798 L149.337473,4.83495798 C149.357464,4.80537815 149.382454,4.7610084 149.412442,4.70184874 C149.492409,4.57366947 149.552385,4.48 149.592368,4.42084034 C149.752303,4.08560224 149.642348,3.88840336 149.262503,3.8292437 C148.982618,3.77994398 148.792696,3.8637535 148.692737,4.08067227 C148.312892,4.79058824 147.813097,5.41176471 147.193351,5.94420168 C146.813506,6.24985994 146.783519,6.51114846 147.103388,6.72806723 C147.333293,6.87596639 147.568197,6.85131653 147.808099,6.65411765 C148.087984,6.41747899 148.402855,6.08717087 148.752712,5.66319328 L148.752712,5.66319328 L150.327067,5.66319328 C150.167133,6.26464986 149.887247,6.73792717 149.487411,7.08302521 C149.057587,7.45770308 148.422847,7.75843137 147.583191,7.98521008 C147.343289,8.0345098 147.163363,8.11338936 147.043412,8.22184874 C146.893474,8.35002801 146.868484,8.4929972 146.968443,8.6507563 C147.09839,8.86767507 147.358283,8.93176471 147.748124,8.84302521 C148.607771,8.63596639 149.297489,8.35988796 149.817276,8.01478992 C150.317071,7.67955182 150.701914,7.2605042 150.971803,6.75764706 C151.551566,7.89154062 152.711091,8.66554622 154.450379,9.07966387 Z M146.098799,5.70756303 C146.398676,5.70756303 146.548615,5.55966387 146.548615,5.26386555 C146.548615,4.96806723 146.398676,4.82016807 146.098799,4.82016807 L146.098799,4.82016807 L143.145009,4.82016807 C142.845132,4.82016807 142.695193,4.96806723 142.695193,5.26386555 C142.695193,5.55966387 142.845132,5.70756303 143.145009,5.70756303 L143.145009,5.70756303 L146.098799,5.70756303 Z M142.846968,8.84362888 L142.950089,8.82823529 C143.060044,8.79865546 143.234972,8.74935574 143.474874,8.68033613 C144.734358,8.3352381 145.703961,8.06408964 146.383682,7.86689076 C146.623584,7.7880112 146.728541,7.6302521 146.698553,7.39361345 C146.668566,7.09781513 146.503633,6.98935574 146.203756,7.06823529 C145.304125,7.28515406 144.644395,7.44784314 144.224567,7.55630252 C144.064632,7.5957423 143.834726,7.64997199 143.534849,7.7189916 C143.135013,7.80773109 142.845132,7.8767507 142.665205,7.92605042 C142.345336,7.99507003 142.255373,8.19226891 142.395316,8.51764706 C142.515267,8.78386555 142.700191,8.88739496 142.950089,8.82823529 L142.846968,8.84362888 Z M152.995974,14.9068908 C153.255868,14.9068908 153.465782,14.8280112 153.625716,14.6702521 C153.785651,14.512493 153.865618,14.3054342 153.865618,14.0490756 L153.865618,14.0490756 L153.865618,9.83394958 C153.865618,9.57759104 153.785651,9.37053221 153.625716,9.21277311 C153.465782,9.05501401 153.255868,8.97613445 152.995974,8.97613445 L152.995974,8.97613445 L145.124198,8.97613445 C144.864305,8.97613445 144.654391,9.05501401 144.494456,9.21277311 C144.334522,9.37053221 144.254554,9.57759104 144.254554,9.83394958 L144.254554,9.83394958 L144.254554,14.0490756 C144.254554,14.3054342 144.334522,14.512493 144.494456,14.6702521 C144.654391,14.8280112 144.864305,14.9068908 145.124198,14.9068908 L145.124198,14.9068908 L152.995974,14.9068908 Z M152.756072,10.7065546 L145.319118,10.7065546 L145.319118,10.0262185 C145.319118,9.81915966 145.424075,9.71563025 145.633989,9.71563025 L145.633989,9.71563025 L152.441201,9.71563025 C152.651115,9.71563025 152.756072,9.81915966 152.756072,10.0262185 L152.756072,10.0262185 L152.756072,10.7065546 Z M152.756072,12.4369748 L145.319118,12.4369748 L145.319118,11.4164706 L152.756072,11.4164706 L152.756072,12.4369748 Z M152.441201,14.1821849 L145.633989,14.1821849 C145.424075,14.1821849 145.319118,14.0786555 145.319118,13.8715966 L145.319118,13.8715966 L145.319118,13.1468908 L152.756072,13.1468908 L152.756072,13.8715966 C152.756072,14.0786555 152.651115,14.1821849 152.441201,14.1821849 L152.441201,14.1821849 Z M142.935095,17.0366387 C143.115021,17.2141176 143.324935,17.2683473 143.564837,17.1993277 C144.194579,17.0218487 144.864305,16.8 145.574014,16.5337815 C146.113793,16.3267227 146.63358,16.099944 147.133375,15.8534454 C147.533212,15.6365266 147.503224,15.4196078 147.043412,15.2026891 C146.843494,15.1139496 146.663568,15.1090196 146.503633,15.1878992 C145.673973,15.6020168 144.584419,15.9668347 143.234972,16.2823529 C142.655209,16.4105322 142.55525,16.6619608 142.935095,17.0366387 Z M154.075532,17.154958 C154.245462,17.2436975 154.445381,17.2387675 154.675286,17.1401681 C154.985159,17.0021289 155.147593,16.8739496 155.162587,16.7556303 C155.177581,16.6373109 155.035139,16.5189916 154.735262,16.4006723 C154.685282,16.3809524 154.610313,16.3513725 154.510354,16.3119328 C154.08053,16.1443137 153.750665,16.0161345 153.520759,15.927395 C152.950993,15.7203361 152.241283,15.4738375 151.391631,15.1878992 C151.201709,15.1287395 151.021783,15.1533894 150.851852,15.2618487 C150.641938,15.390028 150.556973,15.5157423 150.596957,15.6389916 C150.63694,15.7622409 150.781881,15.8633053 151.031779,15.9421849 C152.241283,16.3760224 153.255868,16.7802801 154.075532,17.154958 Z M161.662425,5.16033613 C161.962302,5.16033613 162.11224,5.01243697 162.11224,4.71663866 C162.11224,4.42084034 161.962302,4.27294118 161.662425,4.27294118 L161.662425,4.27294118 L158.348782,4.27294118 C158.048905,4.27294118 157.898966,4.42084034 157.898966,4.71663866 C157.898966,5.01243697 158.048905,5.16033613 158.348782,5.16033613 L158.348782,5.16033613 L161.662425,5.16033613 Z M169.654152,17.2289076 C170.024,17.3669468 170.308883,17.2979272 170.508802,17.0218487 C170.738707,16.7260504 170.90364,16.1393838 171.003599,15.2618487 C171.033587,14.7984314 170.993603,14.5026331 170.883648,14.3744538 C170.713718,14.1871148 170.578773,14.1772549 170.478814,14.3448739 C170.388851,14.4829132 170.333873,14.7047619 170.313881,15.0104202 C170.24391,15.749916 170.173939,16.1147339 170.103967,16.1048739 C169.664147,15.9964146 169.379264,14.9759104 169.249317,13.0433613 C169.177125,12.0748957 169.138822,10.5767016 169.134411,8.54877892 L169.134781,7.57520075 C169.136169,7.06960473 169.139362,6.53579832 169.14436,5.97378151 C169.154356,5.05680672 168.869473,4.59831933 168.28971,4.59831933 L168.28971,4.59831933 L163.371725,4.59831933 C163.021868,4.59831933 162.84694,4.77086835 162.84694,5.11596639 C162.84694,5.46106443 163.021868,5.63361345 163.371725,5.63361345 L163.371725,5.63361345 L167.70495,5.63361345 C167.914864,5.63361345 168.019821,5.80123249 168.019821,6.13647059 L168.019821,6.13647059 L168.019005,7.17156348 C168.022881,10.3461301 168.088126,12.5400347 168.214741,13.7532773 C168.434651,15.8435854 168.914454,17.0021289 169.654152,17.2289076 Z M162.202204,7.11260504 C162.502081,7.11260504 162.652019,6.95977591 162.652019,6.65411765 C162.652019,6.35831933 162.502081,6.21042017 162.202204,6.21042017 L162.202204,6.21042017 L157.614083,6.21042017 C157.314206,6.21042017 157.164267,6.35831933 157.164267,6.65411765 C157.164267,6.95977591 157.314206,7.11260504 157.614083,7.11260504 L157.614083,7.11260504 L162.202204,7.11260504 Z M165.081025,16.9922689 C165.420885,16.9922689 165.590816,16.8246499 165.590816,16.4894118 L165.590816,16.4894118 L165.590816,11.0319328 L167.060214,11.0319328 C167.400075,11.0319328 167.570005,10.8593838 167.570005,10.5142857 C167.570005,10.1790476 167.400075,10.0114286 167.060214,10.0114286 L167.060214,10.0114286 L165.590816,10.0114286 L165.590816,6.83159664 C165.590816,6.49635854 165.420885,6.3287395 165.081025,6.3287395 C164.741164,6.3287395 164.571233,6.49635854 164.571233,6.83159664 L164.571233,6.83159664 L164.571233,10.0114286 L163.086841,10.0114286 C162.74698,10.0114286 162.57705,10.1790476 162.57705,10.5142857 C162.57705,10.8593838 162.74698,11.0319328 163.086841,11.0319328 L163.086841,11.0319328 L164.571233,11.0319328 L164.571233,16.4894118 C164.571233,16.8246499 164.741164,16.9922689 165.081025,16.9922689 Z M161.707406,9.07966387 C161.997288,9.07966387 162.142228,8.93176471 162.142228,8.63596639 C162.142228,8.35002801 161.997288,8.20705882 161.707406,8.20705882 L161.707406,8.20705882 L158.273813,8.20705882 C157.983931,8.20705882 157.838991,8.35002801 157.838991,8.63596639 C157.838991,8.93176471 157.983931,9.07966387 158.273813,9.07966387 L158.273813,9.07966387 L161.707406,9.07966387 Z M161.692412,11.0467227 C161.99229,11.0467227 162.142228,10.8988235 162.142228,10.6030252 C162.142228,10.3072269 161.99229,10.1593277 161.692412,10.1593277 L161.692412,10.1593277 L158.288806,10.1593277 C157.988929,10.1593277 157.838991,10.3072269 157.838991,10.6030252 C157.838991,10.8988235 157.988929,11.0467227 158.288806,11.0467227 L158.288806,11.0467227 L161.692412,11.0467227 Z M161.287578,16.4154622 C161.547472,16.4154622 161.757386,16.3365826 161.91732,16.1788235 C162.077255,16.0210644 162.157222,15.8140056 162.157222,15.5576471 L162.157222,15.5576471 L162.157222,12.9989916 C162.157222,12.7426331 162.077255,12.5355742 161.91732,12.3778151 C161.757386,12.220056 161.547472,12.1411765 161.287578,12.1411765 L161.287578,12.1411765 L158.693641,12.1411765 C158.433747,12.1411765 158.223833,12.220056 158.063899,12.3778151 C157.903964,12.5355742 157.823997,12.7426331 157.823997,12.9989916 L157.823997,12.9989916 L157.823997,15.5576471 C157.823997,15.8140056 157.903964,16.0210644 158.063899,16.1788235 C158.223833,16.3365826 158.433747,16.4154622 158.693641,16.4154622 L158.693641,16.4154622 L161.287578,16.4154622 Z M160.897738,15.5280672 L159.098475,15.5280672 C158.888561,15.5280672 158.783604,15.4245378 158.783604,15.217479 L158.783604,15.217479 L158.783604,13.3539496 C158.783604,13.1468908 158.888561,13.0433613 159.098475,13.0433613 L159.098475,13.0433613 L160.897738,13.0433613 C161.107652,13.0433613 161.212609,13.1468908 161.212609,13.3539496 L161.212609,13.3539496 L161.212609,15.217479 C161.212609,15.4245378 161.107652,15.5280672 160.897738,15.5280672 L160.897738,15.5280672 Z" id="好方便好快速好資訊" fill="#001E2F"></path>
                </g>
            </g>
        </g>
    </g>
</svg>