<?xml version="1.0" encoding="UTF-8"?>
<svg width="600px" height="100px" viewBox="0 0 600 100" version="1.1" xmlns="http://www.w3.org/2000/svg" xmlns:xlink="http://www.w3.org/1999/xlink">
    <title>logo/bg-light</title>
    <g id="logo/bg-light" stroke="none" stroke-width="1" fill="none" fill-rule="evenodd">
        <g id="logo">
            <g id="Dr.Good" fill="#015B8C" fill-rule="nonzero">
                <path d="M21.2139423,0.0882550705 C23.7976146,0.096017503 26.2484503,0.179510984 27.5037563,0.263004465 C47.8020558,1.57802679 58.9617269,15.6925997 58.9617269,33.9275759 C58.9617269,67.0074008 31.6779127,68.0822825 21.7003045,68.1170036 L21.7003045,68.1170036 L19.8647769,68.1170036 C12.7174126,68.0867027 1.27930458,67.4890084 0.43935713,55.7569465 C0.175742852,51.4612069 0,44.3600864 0,36.9959614 L0.000677413039,36.1438512 C0.0155067222,26.75896 0.271367639,17.0437207 0.527228556,12.448878 C1.21614054,0.678551519 9.58469881,0.106359006 20.1744471,0.0881794356 Z M19.9454968,9.55598863 L19.1333506,9.556379 C19.0560861,9.5565961 18.9787075,9.55689276 18.9012449,9.55729428 L18.4357025,9.56116406 C18.3580244,9.56208619 18.2803225,9.56316376 18.202627,9.56442208 L17.7367709,9.57434313 C14.0919333,9.67221742 10.5940987,10.2810836 10.3688283,14.0269048 C10.1395306,17.2296455 9.91023302,25.2743997 9.85441995,33.5456142 L9.84846455,34.559234 L9.84846455,34.559234 L9.84615927,35.0663043 L9.84211522,36.5295536 L9.84211522,38.0265555 C9.85485878,44.6609721 10.0303606,50.7955783 10.3688283,54.0035834 C10.8081854,58.0363185 13.5321996,58.7376638 20.825528,58.7376638 L20.825528,58.7376638 L21.9756342,58.7360759 C31.505632,58.6979676 48.5928986,57.7452603 48.5928986,33.9275759 C48.5928986,19.813003 40.0693703,9.64349704 26.6250421,9.64349704 L26.6250421,9.64349704 L26.5687775,9.64221908 C26.1619238,9.63308165 23.6123075,9.57755423 21.008444,9.56068514 L21.008444,9.56068514 L20.2985236,9.55710685 C20.0624812,9.55582888 19.8275596,9.55582888 19.595328,9.55582888 Z" id="Combined-Shape"></path>
                <path d="M70.4469729,67.4168111 C73.9618299,67.4168111 75.016287,64.7867665 74.9284156,62.9457352 C74.760661,57.0042253 74.6729712,52.7401839 74.665346,49.3911253 L74.6648013,48.9188304 C74.6648013,46.5517902 74.6648013,44.710759 74.7526727,43.1327322 C75.016287,37.6096384 80.8158011,33.3138989 86.0002153,32.7878899 C89.4272009,32.4372173 91.0088865,30.1578453 91.0088865,27.9661414 C91.0088865,25.7744375 89.4272009,23.75807 86.7031867,23.75807 C83.7155582,23.75807 78.9705012,25.2484286 75.4556441,29.1058274 C75.2799013,29.3688319 75.1041584,29.4565 75.1041584,29.4565 C75.016287,29.4565 75.016287,29.3688319 75.016287,29.1934956 L75.016287,28.842823 L75.016287,28.842823 C75.016287,28.5798185 75.1041584,28.316814 75.1041584,27.9661414 C75.1041584,25.1607605 72.8195014,23.8457381 70.6227157,23.8457381 C68.4259301,23.8457381 65.8776587,25.1607605 65.8776587,27.7908051 L65.8776587,27.9661414 L65.8776587,27.9661414 C66.0534016,33.8399078 66.141273,38.3986518 66.141273,43.6587411 C66.141273,48.8311623 66.0534016,54.6172605 65.7897873,62.9457352 L65.7897873,63.1210715 L65.7897873,63.1210715 C65.7897873,65.9264525 68.0744444,67.4168111 70.4469729,67.4168111 Z" id="Path"></path>
                <path d="M89.996112,67.329143 C94.3896833,67.329143 96.2349833,63.384076 96.2349833,61.104704 C96.2349833,57.3349733 92.8958691,55.2309376 89.996112,55.2309376 C87.5357121,55.2309376 83.8451122,56.8966325 83.8451122,61.1923721 C83.8451122,66.2771251 87.6235835,67.329143 89.996112,67.329143 Z" id="Path"></path>
                <path d="M153.563203,68.1181564 C174.476602,68.1181564 183.439488,51.7242114 183.439488,41.7300417 C183.439488,36.2946161 180.627602,32.4372173 173.070659,32.4372173 C170.170902,32.4372173 165.250103,32.261881 160.944403,32.261881 L160.467205,32.2626148 C157.647202,32.2754571 154.266174,32.5130384 154.266174,36.9082932 C154.266174,39.4506697 155.84786,41.9930462 158.659746,41.9930462 L158.835488,41.9930462 L158.835488,41.9930462 C163.668417,41.8177099 168.061988,41.7300417 168.940702,41.7300417 L169.116445,41.7300417 L169.116445,41.7300417 C170.698131,41.7300417 172.016202,42.5190551 172.016202,44.1847501 C172.016202,46.7271266 168.061988,57.9486504 153.563203,57.9486504 C138.537189,57.9486504 130.980246,45.9381132 130.980246,34.2782486 C130.980246,23.0567247 138.449318,9.64349704 153.826817,9.64349704 C159.362717,9.64349704 164.898617,11.6598646 168.325602,15.867936 C169.643674,17.533631 171.225359,18.2349762 172.807045,18.2349762 C175.618931,18.2349762 178.167202,15.7802679 178.167202,12.7995506 C178.167202,8.06547025 168.677088,0 154.705531,0 C133.264903,0 120.69929,16.9199539 120.69929,34.7165893 C120.69929,54.9679331 135.901046,68.1181564 153.563203,68.1181564 Z" id="Path"></path>
                <path d="M210.957889,23.4073974 C223.523503,23.4073974 233.013617,32.7878899 233.013617,45.5874405 C233.013617,58.8253319 223.523503,67.7674837 210.957889,67.7674837 C198.392275,67.7674837 188.81429,58.8253319 188.81429,45.5874405 C188.81429,32.7878899 198.392275,23.4073974 210.957889,23.4073974 Z M210.957889,31.4728676 C203.752432,31.4728676 197.689304,36.9082932 197.689304,45.5874405 C197.689304,54.1789197 203.664561,59.5266772 210.957889,59.5266772 C218.251218,59.5266772 224.138603,54.1789197 224.138603,45.5874405 C224.138603,36.9082932 218.163346,31.4728676 210.957889,31.4728676 Z" id="Combined-Shape"></path>
                <path d="M327.504691,0.701345239 C329.789348,0.701345239 332.074005,2.19170387 332.074005,5.26008929 L332.074005,5.26008929 L332.074005,5.69843007 C331.898262,8.67914733 331.810391,14.9035863 331.810391,22.2677113 L331.810964,26.0182027 L331.812496,28.6363472 C331.83004,49.3045753 331.984101,54.0182762 333.209826,57.3250492 L333.289528,57.5343492 C333.343645,57.6727956 333.399739,57.8092548 333.457881,57.9448478 L333.457881,57.9448478 L333.572237,58.204831 C333.708644,58.507588 333.855595,58.8096018 334.013904,59.123532 L334.013904,59.123532 L334.152399,59.3958286 C334.246608,59.5796989 334.344602,59.7686413 334.446533,59.9650179 C334.88589,60.7540313 335.061633,61.5430447 335.061633,62.3320581 C335.061633,65.1374391 332.513362,67.1538066 329.965091,67.1538066 C327.944048,67.1538066 326.274491,66.4524614 325.044291,61.6307129 C324.956419,61.2800403 324.868548,61.104704 324.692805,61.104704 C324.604934,61.104704 324.429191,61.2800403 324.253448,61.4553766 C320.826462,65.1374391 316.081405,67.5921474 310.369763,67.5921474 C298.243506,67.5921474 289.017006,58.8253319 289.017006,45.5874405 C289.017006,32.7878899 298.243506,23.5827337 310.369763,23.5827337 C315.290562,23.5827337 319.420519,25.4237649 322.671762,28.316814 C322.759634,28.4044822 322.935376,28.4044822 323.023248,28.4044822 C323.198991,28.4044822 323.286862,28.316814 323.286862,28.0538096 L323.286862,28.0538096 L323.286152,26.9291202 C323.273965,17.2291375 323.107865,8.80577911 323.023248,5.26008929 C322.935376,2.54237649 324.956419,0.701345239 327.504691,0.701345239 Z M310.545505,31.5605358 C303.515791,31.5605358 297.89202,36.9082932 297.89202,45.5874405 C297.89202,54.1789197 303.515791,59.439009 310.545505,59.439009 C317.57522,59.439009 323.198991,54.1789197 323.198991,45.5874405 C323.198991,36.9082932 317.57522,31.5605358 310.545505,31.5605358 Z" id="Combined-Shape"></path>
                <path d="M260.588203,59.5192028 L263.007463,67.6945569 C262.36711,67.7429522 261.717397,67.7674837 261.059247,67.7674837 C259.919918,67.7674837 258.805151,67.6939692 257.719857,67.5504037 L260.333076,59.5088601 C260.417916,59.5130415 260.502961,59.5164902 260.588203,59.5192028 Z M261.059247,23.4073974 C273.624861,23.4073974 283.114975,32.7878899 283.114975,45.5874405 C283.114975,55.7826535 277.486038,63.4299046 269.158402,66.4066816 L266.765643,58.3109054 C271.192097,56.2714879 274.239961,51.7690919 274.239961,45.5874405 C274.239961,36.9082932 268.264704,31.4728676 261.059247,31.4728676 C253.85379,31.4728676 247.790662,36.9082932 247.790662,45.5874405 C247.790662,51.2808604 250.414682,55.5498076 254.30741,57.7819755 L251.668189,65.9049952 C244.021527,62.6281197 238.915648,55.2527769 238.915648,45.5874405 C238.915648,32.7878899 248.493633,23.4073974 261.059247,23.4073974 Z" id="Combined-Shape"></path>
                <path d="M3.26072175,87.3438248 C3.77557255,87.3438248 4.29042335,87.0005093 4.29042335,86.3138783 L4.29042335,85.7416858 L4.29042335,85.7416858 L4.29028089,85.561124 L4.29028089,85.561124 L4.28920377,85.1518312 C4.2834707,83.5461889 4.25923891,80.8808228 4.25350584,80.2642562 L4.25228626,80.1341991 L4.25228626,80.1341991 C4.25228626,79.8290298 4.3094919,79.8290298 4.50017738,79.8290298 L5.98752415,79.8290298 C6.55958059,79.8290298 6.84560882,79.3712758 6.84560882,78.8944487 C6.84560882,78.4366947 6.55958059,77.9789407 5.98752415,77.9789407 L4.51924593,77.9789407 C4.38576609,77.9789407 4.25228626,77.9789407 4.25228626,77.7882098 C4.24084513,77.6394398 4.23626868,77.518135 4.2344381,77.374858 L4.23321771,77.0443596 C4.23321771,76.4340209 4.2713548,74.7746626 5.79683866,74.7746626 L6.00659269,74.7746626 L6.00659269,74.7746626 C6.59771769,74.7746626 6.92188301,74.2978355 6.92188301,73.8210084 C6.92188301,73.1153043 6.40703221,72.9055004 5.73963302,72.9055004 C5.22478222,72.9055004 2.28822579,73.1534505 2.28822579,76.8345556 C2.28822579,77.3304558 2.30729434,77.5402597 2.30729434,77.7309906 C2.30729434,77.9435192 2.22323706,77.9738805 2.07913888,77.9782178 L1.31572983,77.9789407 C0.743673381,77.9789407 0.457645158,78.4557678 0.457645158,78.9135218 C0.457645158,79.3712758 0.724604833,79.8290298 1.31572983,79.8290298 L1.98312902,79.8290298 C2.28822579,79.8290298 2.30729434,79.867176 2.30729434,80.1341991 L2.30818296,80.2475889 C2.31138012,80.6639581 2.3222771,82.1581062 2.32547426,83.5747847 L2.32625788,84.069691 C2.32632684,84.1510122 2.32636288,84.2315951 2.32636288,84.3112045 L2.32634382,84.5815082 L2.32634382,84.5815082 L2.3251425,85.3237564 C2.32331192,85.7760173 2.31873547,86.1307767 2.30729434,86.3138783 L2.30729434,86.3901706 L2.30729434,86.3901706 C2.30729434,87.0195824 2.78400804,87.3438248 3.26072175,87.3438248 Z M9.09569751,75.4612936 C9.91564508,75.4612936 10.4304959,74.7937357 10.4304959,74.1071047 C10.4304959,73.3823275 9.78216524,72.810135 9.09569751,72.810135 C8.56177816,72.810135 7.76089913,73.1725236 7.76089913,74.1071047 C7.76089913,74.9844665 8.35202413,75.4612936 9.09569751,75.4612936 Z M3.26072175,87.3438248 C3.77557255,87.3438248 4.29042335,87.0005093 4.29042335,86.3138783 L4.29042335,85.7416858 L4.29042335,85.7416858 L4.29028089,85.561124 L4.29028089,85.561124 L4.28920377,85.1518312 C4.2834707,83.5461889 4.25923891,80.8808228 4.25350584,80.2642562 L4.25228626,80.1341991 L4.25228626,80.1341991 C4.25228626,79.8290298 4.3094919,79.8290298 4.50017738,79.8290298 L5.98752415,79.8290298 C6.55958059,79.8290298 6.84560882,79.3712758 6.84560882,78.8944487 C6.84560882,78.4366947 6.55958059,77.9789407 5.98752415,77.9789407 L4.51924593,77.9789407 C4.38576609,77.9789407 4.25228626,77.9789407 4.25228626,77.7882098 C4.24084513,77.6394398 4.23626868,77.518135 4.2344381,77.374858 L4.23321771,77.0443596 C4.23321771,76.4340209 4.2713548,74.7746626 5.79683866,74.7746626 L6.00659269,74.7746626 L6.00659269,74.7746626 C6.59771769,74.7746626 6.92188301,74.2978355 6.92188301,73.8210084 C6.92188301,73.1153043 6.40703221,72.9055004 5.73963302,72.9055004 C5.22478222,72.9055004 2.28822579,73.1534505 2.28822579,76.8345556 C2.28822579,77.3304558 2.30729434,77.5402597 2.30729434,77.7309906 C2.30729434,77.9435192 2.22323706,77.9738805 2.07913888,77.9782178 L1.31572983,77.9789407 C0.743673381,77.9789407 0.457645158,78.4557678 0.457645158,78.9135218 C0.457645158,79.3712758 0.724604833,79.8290298 1.31572983,79.8290298 L1.98312902,79.8290298 C2.28822579,79.8290298 2.30729434,79.867176 2.30729434,80.1341991 L2.30818296,80.2475889 C2.31138012,80.6639581 2.3222771,82.1581062 2.32547426,83.5747847 L2.32625788,84.069691 C2.32632684,84.1510122 2.32636288,84.2315951 2.32636288,84.3112045 L2.32634382,84.5815082 L2.32634382,84.5815082 L2.3251425,85.3237564 C2.32331192,85.7760173 2.31873547,86.1307767 2.30729434,86.3138783 L2.30729434,86.3901706 L2.30729434,86.3901706 C2.30729434,87.0195824 2.78400804,87.3438248 3.26072175,87.3438248 Z M9.09569751,87.4582633 C9.61054831,87.4582633 10.1253991,87.1340209 10.1253991,86.485536 L10.1253991,86.4473899 L10.1253991,86.4473899 C10.1090546,85.5482302 10.0927102,84.4248645 10.0883739,83.2934914 L10.0885466,81.9977531 C10.0931293,80.6795313 10.1092642,79.4989187 10.1253991,78.8372294 L10.1253991,78.7990833 L10.1253991,78.7990833 C10.1253991,78.1887446 9.61054831,77.8835752 9.09569751,77.8835752 C8.54270961,77.8835752 8.0659959,78.2268908 8.08506445,78.8563025 C8.104133,79.3712758 8.104133,80.1341991 8.104133,80.9924879 C8.104133,82.7281385 8.08506445,84.9024701 8.08506445,86.485536 C8.08506445,87.1340209 8.58084671,87.4582633 9.09569751,87.4582633 Z M20.4224152,87.4010441 C20.9181974,87.4010441 21.3949111,87.0768016 21.4139797,86.3901706 C21.4330482,85.9896359 21.4330482,85.4555895 21.4330482,84.8643239 C21.4330482,83.4529157 21.3949111,81.7554113 21.3758426,81.0687802 C21.2995684,78.9325949 19.755016,77.8835752 18.1532579,77.8835752 C17.1616934,77.8835752 16.1510604,78.2650369 15.4455241,79.0279603 C15.407387,79.0661064 15.3692499,79.1042526 15.3501813,79.1042526 C15.337469,79.1042526 15.3332315,79.0957757 15.331819,79.0844731 L15.3311128,79.0088872 L15.3311128,79.0088872 C15.3311128,78.9516679 15.3501813,78.8944487 15.3501813,78.8181564 C15.3501813,78.2078177 14.8543991,77.9217214 14.3776854,77.9217214 C13.9009717,77.9217214 13.3479838,78.2078177 13.3479838,78.7800102 L13.3479838,78.8181564 L13.3479838,78.8181564 C13.3861209,80.096053 13.4051894,81.0878533 13.4051894,82.2322383 C13.4051894,83.3575503 13.3861209,84.6163738 13.3289152,86.4283168 L13.3289152,86.4664629 L13.3289152,86.4664629 C13.3289152,87.0768016 13.8246975,87.4010441 14.3395483,87.4010441 C15.1022902,87.4010441 15.3311128,86.8288515 15.3120442,86.4283168 C15.2781446,85.2245933 15.2593115,84.2921314 15.2555448,83.5505573 L15.256059,82.6861777 C15.2578896,82.4115253 15.262466,82.1712045 15.2739071,81.9652152 C15.3311128,80.6873186 16.7231168,79.657372 17.8862982,79.657372 C18.6871773,79.657372 19.3545765,80.1341991 19.4308507,81.3167303 C19.4499192,81.6218997 19.4689877,82.2703845 19.4689877,83.0333079 C19.4689877,84.196766 19.4499192,85.6463203 19.4308507,86.4283168 L19.4308507,86.4473899 C19.4308507,87.0577285 19.9266329,87.4010441 20.4224152,87.4010441 Z M28.2214514,87.4391902 C29.460907,87.4391902 30.4906086,86.9051439 31.234282,86.1040744 C31.2724191,86.0659282 31.3105562,86.027782 31.3296248,86.027782 C31.3677618,86.027782 31.3868304,86.0659282 31.4058989,86.1422205 C31.6728586,87.1912401 32.035161,87.3438248 32.4737376,87.3438248 C33.0267255,87.3438248 33.5797134,86.9051439 33.5797134,86.2948052 C33.5797134,86.1231474 33.5415763,85.9514897 33.4462336,85.7798319 C33.3756394,85.6434797 33.3137465,85.5236016 33.2594837,85.403492 L33.2077246,85.2826866 L33.2077246,85.2826866 L33.1608142,85.1580145 C32.9231324,84.4761856 32.8821739,83.4709841 32.8754444,79.6081022 L32.8755311,76.8582299 C32.8804957,75.5762964 32.899113,74.522311 32.9313828,73.9735931 L32.9313828,73.8782277 L32.9313828,73.8782277 C32.9313828,73.2106697 32.4356005,72.8864273 31.9398183,72.8864273 C31.3868304,72.8864273 30.9482538,73.2869621 30.9673223,73.8782277 C30.9863909,74.6792972 31.024528,76.6247517 31.024528,78.8372294 C31.024528,78.8944487 31.0054594,78.9135218 30.9673223,78.9135218 C30.9482538,78.9135218 30.9101167,78.9135218 30.8910481,78.8944487 C30.1855119,78.2650369 29.2892901,77.8645022 28.2214514,77.8645022 C25.5899917,77.8645022 23.5877942,79.867176 23.5877942,82.6518462 C23.5877942,85.5318818 25.5899917,87.4391902 28.2214514,87.4391902 Z M28.2595885,85.6653934 C26.7341046,85.6653934 25.5137175,84.5210084 25.5137175,82.6518462 C25.5137175,80.7636109 26.7341046,79.6001528 28.2595885,79.6001528 C29.7850723,79.6001528 31.0054594,80.7636109 31.0054594,82.6518462 C31.0054594,84.5210084 29.7850723,85.6653934 28.2595885,85.6653934 Z M40.2155682,87.4773364 C42.9423706,87.4773364 45.0017738,85.5318818 45.0017738,82.6518462 C45.0017738,79.867176 42.9423706,77.826356 40.2155682,77.826356 C37.4887658,77.826356 35.4102941,79.867176 35.4102941,82.6518462 C35.4102941,85.5318818 37.4887658,87.4773364 40.2155682,87.4773364 Z M40.2155682,85.6844665 C38.6328787,85.6844665 37.3362174,84.5210084 37.3362174,82.6518462 C37.3362174,80.7636109 38.6519473,79.5810797 40.2155682,79.5810797 C41.7791892,79.5810797 43.0758505,80.7636109 43.0758505,82.6518462 C43.0758505,84.5210084 41.7982577,85.6844665 40.2155682,85.6844665 Z M51.4469431,87.4773364 C53.6779633,87.4773364 55.2987899,86.1231474 55.2987899,85.3030048 C55.2987899,84.7689585 54.7839391,84.2921314 54.2309512,84.2921314 C53.9639915,84.2921314 53.6779633,84.4065699 53.4491407,84.7117392 C53.0296326,85.2839318 52.2287536,85.5891011 51.4278746,85.5891011 C48.7964149,85.5891011 48.6057295,83.052381 48.6057295,82.6327731 C48.6057295,80.8971225 49.7689109,79.638299 51.3897375,79.638299 C52.0571367,79.638299 52.7245359,79.867176 53.1249754,80.3630761 C53.3728665,80.6682455 53.6588947,80.782684 53.9258544,80.782684 C54.4597738,80.782684 54.9364875,80.32493 54.9364875,79.7908836 C54.9364875,79.0088872 53.5444834,77.8072829 51.5041488,77.8072829 C48.5103867,77.8072829 46.6798061,80.1532722 46.6798061,82.7281385 C46.6798061,84.7689585 47.9764674,87.4773364 51.4469431,87.4773364 Z M60.7523947,87.4773364 C61.7439592,87.4773364 62.3732213,87.153094 62.3732213,86.4664629 C62.3732213,86.0468551 62.0681245,85.6272473 61.5532737,85.6272473 C61.4960681,85.6272473 61.457931,85.6463203 61.4007253,85.6463203 C61.2481769,85.6653934 61.0956285,85.6844665 60.9621487,85.6844665 C59.89431,85.6844665 59.8371044,85.0741278 59.8371044,83.5864273 C59.8371044,82.3276038 59.89431,80.7063916 59.89431,80.0006875 C59.89431,79.886249 59.89431,79.7908836 60.1803382,79.7908836 L61.4388624,79.7908836 C62.0109189,79.7908836 62.2778785,79.3331296 62.2778785,78.8944487 C62.2778785,78.4366947 62.0109189,77.9980138 61.4388624,77.9980138 L60.1612697,77.9980138 C59.9705842,77.9980138 59.89431,77.9789407 59.89431,77.6737713 C59.89431,77.6737713 59.9258283,77.0747819 59.9315589,76.5789677 L59.9324471,76.4340209 C59.9324471,76.1860708 59.9324471,75.2705628 58.921814,75.2705628 C58.4260318,75.2705628 57.9683866,75.556659 57.9683866,76.1288515 L57.9683866,76.1860708 L57.9683866,76.1860708 C57.9874552,76.3958747 57.9874552,76.6247517 57.9874552,76.8536287 C57.9874552,77.2923097 57.9683866,77.6737713 57.9683866,77.6737713 C57.9683866,77.9407945 57.9493181,77.9980138 57.6442213,77.9980138 L57.0912334,77.9980138 C56.519177,77.9980138 56.2331487,78.4366947 56.2331487,78.8753756 C56.2331487,79.3331296 56.5382455,79.7908836 57.0912334,79.7908836 L57.6632899,79.7908836 C57.8539753,79.7908836 57.9683866,79.8099567 57.9683866,80.0579068 L57.9683866,80.3440031 C57.9683866,81.1132841 57.9363409,82.7800597 57.9309999,83.904599 L57.9310857,84.374804 C57.9427924,85.3008008 58.1183925,87.4773364 60.7523947,87.4773364 Z M68.5323624,87.4773364 C71.2591648,87.4773364 73.318568,85.5318818 73.318568,82.6518462 C73.318568,79.867176 71.2591648,77.826356 68.5323624,77.826356 C65.80556,77.826356 63.7270882,79.867176 63.7270882,82.6518462 C63.7270882,85.5318818 65.80556,87.4773364 68.5323624,87.4773364 Z M68.5323624,85.6844665 C66.9496729,85.6844665 65.6530116,84.5210084 65.6530116,82.6518462 C65.6530116,80.7636109 66.9687414,79.5810797 68.5323624,79.5810797 C70.0959833,79.5810797 71.3926446,80.7636109 71.3926446,82.6518462 C71.3926446,84.5210084 70.1150519,85.6844665 68.5323624,85.6844665 Z M76.7509066,87.4010441 C77.5136486,87.4010441 77.7424712,86.8288515 77.7234026,86.4283168 C77.689503,85.2245933 77.6706698,84.3373417 77.6669032,83.6326056 L77.6674174,82.8099239 C77.6692479,82.5503774 77.6738244,82.3237892 77.6852655,82.1177998 C77.7424712,80.9161956 79.0009953,79.9816145 80.1260397,79.867176 C80.8697131,79.7908836 81.2129469,79.2949834 81.2129469,78.8181564 C81.2129469,78.3413293 80.8697131,77.9026483 80.2785881,77.9026483 C79.6302574,77.9026483 78.6005558,78.2268908 77.8378139,79.0661064 C77.7996768,79.1233257 77.7615397,79.1423988 77.7615397,79.1423988 C77.7424712,79.1423988 77.7424712,79.1233257 77.7424712,79.0851795 L77.7424712,79.0088872 L77.7424712,79.0088872 C77.7424712,78.9516679 77.7615397,78.8944487 77.7615397,78.8181564 C77.7615397,78.2078177 77.2657575,77.9217214 76.7890437,77.9217214 C76.31233,77.9217214 75.7593421,78.2078177 75.7593421,78.7800102 L75.7593421,78.8181564 L75.7593421,78.8181564 C75.7974792,80.096053 75.8165478,81.0878533 75.8165478,82.2322383 C75.8165478,83.3575503 75.7974792,84.6163738 75.7402736,86.4283168 L75.7402736,86.4664629 L75.7402736,86.4664629 C75.7402736,87.0768016 76.2360558,87.4010441 76.7509066,87.4010441 Z M82.4905397,87.381971 C83.4439671,87.381971 83.8444066,86.5236822 83.8444066,86.027782 C83.8444066,85.2076394 83.1198018,84.7498854 82.4905397,84.7498854 C81.9566203,84.7498854 81.1557413,85.112274 81.1557413,86.0468551 C81.1557413,87.153094 81.9756889,87.381971 82.4905397,87.381971 Z M90.5946727,87.4773364 C92.8256928,87.4773364 94.4465194,86.1231474 94.4465194,85.3030048 C94.4465194,84.7689585 93.9316686,84.2921314 93.3786807,84.2921314 C93.111721,84.2921314 92.8256928,84.4065699 92.5968702,84.7117392 C92.1773622,85.2839318 91.3764831,85.5891011 90.5756041,85.5891011 C87.9441445,85.5891011 87.753459,83.052381 87.753459,82.6327731 C87.753459,80.8971225 88.9166404,79.638299 90.537467,79.638299 C91.2048662,79.638299 91.8722654,79.867176 92.2727049,80.3630761 C92.520596,80.6682455 92.8066243,80.782684 93.0735839,80.782684 C93.6075033,80.782684 94.084217,80.32493 94.084217,79.7908836 C94.084217,79.0088872 92.692213,77.8072829 90.6518783,77.8072829 C87.6581162,77.8072829 85.8275356,80.1532722 85.8275356,82.7281385 C85.8275356,84.7689585 87.1241969,87.4773364 90.5946727,87.4773364 Z M100.624729,87.4773364 C103.351531,87.4773364 105.410935,85.5318818 105.410935,82.6518462 C105.410935,79.867176 103.351531,77.826356 100.624729,77.826356 C97.8979266,77.826356 95.8194549,79.867176 95.8194549,82.6518462 C95.8194549,85.5318818 97.8979266,87.4773364 100.624729,87.4773364 Z M100.624729,85.6844665 C99.0420395,85.6844665 97.7453783,84.5210084 97.7453783,82.6518462 C97.7453783,80.7636109 99.0611081,79.5810797 100.624729,79.5810797 C102.18835,79.5810797 103.485011,80.7636109 103.485011,82.6518462 C103.485011,84.5210084 102.207419,85.6844665 100.624729,85.6844665 Z M119.52166,87.4582633 C119.998374,87.4582633 120.456019,87.1149478 120.475088,86.3901706 C120.494156,85.9705628 120.494156,85.3983703 120.494156,84.7689585 C120.494156,83.3766234 120.475088,81.7363382 120.456019,81.0687802 C120.398814,78.9898141 119.00681,77.8454291 117.500394,77.8454291 C116.451624,77.8454291 115.364717,78.3985485 114.621043,79.5620066 C114.125261,78.3985485 113.09556,77.826356 112.046789,77.826356 C111.207773,77.826356 110.368757,78.1696715 109.758564,78.8563025 C109.739495,78.8753756 109.701358,78.9135218 109.682289,78.9135218 C109.682289,78.9135218 109.663221,78.8753756 109.663221,78.8181564 C109.663221,78.1696715 109.14837,77.8645022 108.709793,77.8645022 C108.271217,77.8645022 107.756366,78.1505984 107.756366,78.7800102 L107.756366,78.8181564 L107.756366,78.8181564 C107.775435,79.9243952 107.794503,80.8399032 107.794503,81.7935574 C107.794503,83.0333079 107.775435,84.3684237 107.718229,86.4092437 L107.718229,86.4473899 L107.718229,86.4473899 C107.718229,87.1149478 108.214011,87.4582633 108.690725,87.4582633 C109.110233,87.4582633 109.644152,87.2103132 109.625084,86.4283168 C109.586947,84.9406162 109.567878,83.8343774 109.567878,83.0142348 C109.567878,82.5755539 109.567878,82.2131653 109.586947,81.9079959 C109.644152,80.5919531 110.826402,79.6192259 111.817967,79.6192259 C112.485366,79.6192259 113.076491,80.0769799 113.152765,81.2213649 C113.165478,81.4375265 113.169715,81.8401805 113.171128,82.3389063 L113.170613,84.5908922 C113.168783,85.3091082 113.164206,85.9820066 113.152765,86.4283168 L113.152765,86.4473899 C113.152765,87.1149478 113.61041,87.4391902 114.068056,87.4391902 C114.544769,87.4391902 115.021483,87.0958747 115.021483,86.4664629 L115.021483,86.4283168 L115.021483,86.4283168 C114.983346,84.9406162 114.964277,83.8343774 114.964277,83.0142348 C114.964277,82.5755539 114.964277,82.2131653 114.983346,81.9079959 C115.040552,80.6110262 116.24187,79.638299 117.252503,79.638299 C117.938971,79.638299 118.530096,80.096053 118.587301,81.2213649 C118.600014,81.4375265 118.604251,81.8401805 118.605664,82.3389063 L118.606344,82.8663072 C118.60637,82.9584284 118.60637,83.052381 118.60637,83.1477464 L118.606351,83.5022387 L118.606351,83.5022387 L118.60515,84.5908922 C118.603319,85.3091082 118.598743,85.9820066 118.587301,86.4283168 L118.587301,86.4473899 C118.587301,87.0958747 119.064015,87.4582633 119.52166,87.4582633 Z M124.403209,87.381971 C125.356636,87.381971 125.757076,86.5236822 125.757076,86.027782 C125.757076,85.2076394 125.032471,84.7498854 124.403209,84.7498854 C123.869289,84.7498854 123.06841,85.112274 123.06841,86.0468551 C123.06841,87.153094 123.888358,87.381971 124.403209,87.381971 Z M131.820874,87.4773364 C132.812438,87.4773364 133.441701,87.153094 133.441701,86.4664629 C133.441701,86.0468551 133.136604,85.6272473 132.621753,85.6272473 C132.564547,85.6272473 132.52641,85.6463203 132.469205,85.6463203 C132.316656,85.6653934 132.164108,85.6844665 132.030628,85.6844665 C130.962789,85.6844665 130.905584,85.0741278 130.905584,83.5864273 C130.905584,82.3276038 130.962789,80.7063916 130.962789,80.0006875 C130.962789,79.886249 130.962789,79.7908836 131.248818,79.7908836 L132.507342,79.7908836 C133.079398,79.7908836 133.346358,79.3331296 133.346358,78.8944487 C133.346358,78.4366947 133.079398,77.9980138 132.507342,77.9980138 L131.229749,77.9980138 C131.039063,77.9980138 130.962789,77.9789407 130.962789,77.6737713 C130.962789,77.6737713 130.994308,77.0747819 131.000038,76.5789677 L131.000926,76.4340209 C131.000926,76.1860708 131.000926,75.2705628 129.990293,75.2705628 C129.494511,75.2705628 129.036866,75.556659 129.036866,76.1288515 L129.036866,76.1860708 L129.036866,76.1860708 C129.049578,76.3259401 129.053816,76.4742863 129.055228,76.6254581 L129.055934,76.8536287 C129.055934,77.2923097 129.036866,77.6737713 129.036866,77.6737713 C129.036866,77.9407945 129.017797,77.9980138 128.712701,77.9980138 L128.159713,77.9980138 C127.587656,77.9980138 127.301628,78.4366947 127.301628,78.8753756 C127.301628,79.3331296 127.606725,79.7908836 128.159713,79.7908836 L128.731769,79.7908836 C128.922455,79.7908836 129.036866,79.8099567 129.036866,80.0579068 L129.036866,80.3440031 C129.036866,80.7636109 129.027332,81.4502419 129.017797,82.1702508 L129.008616,82.8927322 C129.004379,83.2508823 129.000936,83.5979065 128.999479,83.904599 L128.999565,84.374804 C129.011272,85.3008008 129.186872,87.4773364 131.820874,87.4773364 Z M137.770261,87.3628979 C138.456729,87.3628979 139.162265,86.8860708 139.410156,85.9514897 C139.75339,84.6926662 140.363584,81.7935574 140.573338,80.096053 C140.592406,79.9243952 140.630543,79.867176 140.66868,79.867176 C140.706817,79.867176 140.764023,79.9816145 140.783092,80.1151261 C140.992846,81.7935574 141.698382,84.9978355 141.946273,85.9514897 C142.194164,86.924217 142.804358,87.3438248 143.43362,87.3438248 C144.120088,87.3438248 144.806555,86.8479246 145.092584,85.9896359 C145.817188,83.7962312 147.075713,79.3331296 147.075713,78.7227909 C147.075713,78.2078177 146.57993,77.9217214 146.103217,77.9217214 C145.683709,77.9217214 145.283269,78.1315253 145.187926,78.5892793 C144.901898,80.0006875 144.024745,83.5673542 143.624305,85.2267125 C143.586168,85.3602241 143.528963,85.5318818 143.471757,85.5318818 C143.43362,85.5318818 143.395483,85.4555895 143.357346,85.2076394 C143.128523,83.510135 142.327644,80.1723453 142.079753,78.9898141 C141.946273,78.3413293 141.278874,77.9407945 140.649612,77.9407945 C140.058487,77.9407945 139.467362,78.28411 139.314813,79.0279603 C139.028785,80.4012223 138.285112,83.7771581 138.018152,85.3030048 C137.980015,85.5128088 137.922809,85.6463203 137.846535,85.6463203 C137.808398,85.6463203 137.751192,85.5318818 137.713055,85.2839318 C137.465164,83.7008658 136.740559,80.0388337 136.378257,78.5702063 C136.263846,78.1315253 135.863406,77.9407945 135.443898,77.9407945 C134.948116,77.9407945 134.433265,78.2268908 134.433265,78.7609371 C134.433265,78.8181564 134.433265,78.8753756 134.452334,78.9516679 C134.833705,80.5919531 135.768063,84.2539852 136.168503,85.9514897 C136.397326,86.8860708 137.083793,87.3628979 137.770261,87.3628979 Z" id="ffindoctor.com.tw"></path>
            </g>
            <path d="M258.71308,60.6863516 C259.504771,58.2339812 262.896676,58.2145836 263.763532,60.5595318 L263.828183,60.7548426 L269.594961,80.3874911 L271.353189,85.5675267 L273.873109,80.0856482 L279.825674,67.6946604 C280.8029,65.6604445 283.651706,65.6836944 284.627157,67.651641 L284.713003,67.8418299 L289.097548,78.5622237 L331.54375,78.5633558 C332.961211,78.5633558 334.121474,79.671967 334.215701,81.0749116 L334.22188,81.2595066 C334.22188,82.6865061 333.120678,83.8545756 331.727111,83.9494373 L331.54375,83.9556574 L287.305468,83.9556574 C286.288101,83.9556574 285.365011,83.3762131 284.913101,82.4714174 L284.829113,82.2861955 L282.040093,75.4686837 L278.714728,82.3915051 L273.410496,93.9346221 C272.425324,96.0785627 269.406249,95.9831985 268.518371,93.8666346 L268.445665,93.6746392 L264.492666,82.0243556 L261.139033,70.6132679 L257.453127,82.0328719 L252.681197,98.0772089 C251.946504,100.547416 248.557184,100.645838 247.635763,98.3243435 L247.564801,98.125283 L242.460006,82.0590614 L239.594058,72.7690162 L235.076927,82.4100628 C234.664139,83.2907535 233.814846,83.8738728 232.860813,83.9477079 L232.654895,83.9556574 L157.192768,83.9556574 C155.713678,83.9556574 154.514638,82.7485495 154.514638,81.2595066 C154.514638,79.8325071 155.615839,78.6644376 157.009407,78.5695759 L157.192768,78.5633558 L230.956506,78.5622237 L237.688943,64.2012442 C238.701456,62.0410266 241.762481,62.1930283 242.600562,64.3561687 L242.668632,64.5522456 L247.568469,80.4380672 L250.030615,88.1886541 L252.340543,80.4261666 L258.71308,60.6863516 Z" id="Line-2-Copy-2" fill="#2AB5CD" fill-rule="nonzero"></path>
            <ellipse id="Oval" fill="#2AB5CD" cx="260.743451" cy="45.7983193" rx="8.8174114" ry="8.82352941"></ellipse>
            <path d="M357.081538,80.4427915 C358.508176,82.2988582 360.362806,82.4957137 362.645427,81.0333582 C367.724258,77.2649805 371.861509,72.5966916 375.057178,67.0284917 C377.510996,69.1095361 379.337093,70.8249916 380.535469,72.1748583 C382.3045,74.1996583 384.102064,74.0028027 385.928161,71.5842916 C387.297733,69.8407139 387.354799,68.2658694 386.099357,66.8597583 C384.102064,64.7224695 381.591181,62.4726917 378.566708,60.1104251 C380.621067,55.2734029 382.247434,49.8458141 383.44581,43.8276586 C384.358859,39.4405919 385.072178,34.4348364 385.585767,28.810392 C385.756964,26.8418365 385.371772,25.3091754 384.430191,24.2124087 C383.488609,23.1156421 382.133303,22.5672588 380.364272,22.5672588 L380.364272,22.5672588 L370.263674,22.5672588 C371.404985,16.9428144 372.260968,12.7807255 372.831623,10.0809922 C373.345213,7.66248112 372.260968,6.31261447 369.578888,6.03139225 C367.182136,5.80641447 365.784031,6.79069224 365.384572,8.98422555 C364.928048,11.8526922 364.072065,16.3803699 362.816623,22.5672588 L362.816623,22.5672588 L357.680726,22.5672588 C355.226909,22.5672588 354,23.7765143 354,26.1950254 C354,28.6135365 355.226909,29.822792 357.680726,29.822792 L357.680726,29.822792 L361.361453,29.822792 C359.078832,40.3967475 357.110071,48.6084363 355.455171,54.4578585 C354.998647,56.1451918 355.85463,57.5794251 358.023119,58.7605584 C358.936168,59.2667584 359.777884,59.4073695 360.548269,59.1823917 C361.318653,58.957414 361.817977,58.3668473 362.046239,57.4106918 L362.046239,57.4106918 L362.131837,57.2419584 C363.672606,58.2543584 365.98376,59.8854473 369.065298,62.135225 C366.097891,67.3659583 362.559829,71.4718027 358.451111,74.4527583 C357.024473,75.3526694 356.197023,76.2666416 355.968761,77.1946749 C355.740498,78.1227082 356.111424,79.2054138 357.081538,80.4427915 Z M398.714815,83 C402.633333,82.9438029 405.671605,82.4942263 407.82963,81.6512702 C409.249383,80.9769053 410.24321,80.0496536 410.811111,78.869515 C411.379012,77.6893764 411.662963,76.0034642 411.662963,73.8117783 L411.662963,73.8117783 L411.662963,46.5842956 L427.251852,46.5842956 C429.750617,46.5842956 431,45.34796 431,42.8752887 C431,40.4026174 429.750617,39.1662818 427.251852,39.1662818 L427.251852,39.1662818 L411.662963,39.1662818 L411.662963,32.9284065 C417.171605,28.2640493 421.8,22.8691301 425.548148,16.743649 C426.740741,14.6081601 427.024691,12.9503464 426.4,11.7702079 C425.775309,10.5900693 424.412346,10 422.311111,10 L422.311111,10 L391.559259,10 C389.117284,10 387.896296,11.2082371 387.896296,13.6247113 C387.896296,16.0411855 389.117284,17.2494226 391.559259,17.2494226 L391.559259,17.2494226 L416.774074,17.2494226 C413.480247,21.7451886 410.101235,25.5384911 406.637037,28.6293303 L406.637037,28.6293303 L406.381481,28.6293303 C405.64321,28.6293303 405.032716,28.8541186 404.55,29.3036952 C404.067284,29.7532717 403.825926,30.3714396 403.825926,31.1581986 L403.825926,31.1581986 L403.825926,39.1662818 L388.748148,39.1662818 C386.249383,39.1662818 385,40.4026174 385,42.8752887 C385,45.34796 386.249383,46.5842956 388.748148,46.5842956 L388.748148,46.5842956 L403.825926,46.5842956 L403.825926,73.8117783 C403.825926,74.8795227 403.22963,75.4133949 402.037037,75.4133949 L402.037037,75.4133949 L400.92963,75.4133949 C399.680247,75.469592 398.658025,75.4976905 397.862963,75.4976905 C395.875309,75.4414935 394.42716,75.7505774 393.518519,76.4249423 C392.439506,77.2117013 392.212346,78.3918399 392.837037,79.965358 C393.575309,81.9884527 395.534568,83 398.714815,83 Z M372.314286,55 C370.657143,53.789879 368.057143,52.139714 364.514286,50.049505 C364.285714,49.8844884 364.114286,49.7744774 364,49.7194719 C364,49.6094609 364.028571,49.4719472 364.085714,49.3069307 C366.2,40.8910891 367.771429,34.4554455 368.8,30 L368.8,30 L376.171429,30 C377.542857,30 378.142857,30.6875688 377.971429,32.0627063 C377.514286,35.8030803 376.857143,39.6259626 376,43.5313531 C374.971429,47.8217822 373.742857,51.6446645 372.314286,55 Z M508.181949,45.8978037 C510.180154,46.2384581 511.693081,45.7274765 512.720729,44.3648588 C514.433476,41.9235022 513.434373,40.4189452 509.723421,39.8511878 C506.640476,39.2834304 503.643169,38.4601823 500.731499,37.3814433 C503.414803,35.2807411 505.498645,33.0097116 506.983026,30.568355 C507.896491,28.4676528 508.024947,26.8495443 507.368394,25.7140296 C506.711841,24.5785149 505.384462,24.0107575 503.386257,24.0107575 L503.386257,24.0107575 L482.918929,24.0107575 C486.97243,21.5694009 489.14191,18.0776931 489.427368,13.5356342 L489.427368,13.5356342 L498.162378,13.5356342 C498.504928,13.5356342 498.676202,13.7059615 498.676202,14.0466159 L498.676202,14.0466159 L498.676202,15.1537427 C498.676202,18.3899597 499.161481,20.462274 500.132037,21.3706858 C501.159686,22.392649 502.672612,22.9036307 504.670817,22.9036307 L504.670817,22.9036307 L508.438861,22.9036307 C509.923242,22.9036307 511.065073,22.7049156 511.864355,22.3074854 C512.949095,21.966831 513.748377,21.3422979 514.262201,20.4338861 C514.547659,19.8661288 514.776025,19.0428806 514.9473,17.9641416 C515.175666,16.2608696 514.661842,15.0685791 513.405828,14.3872703 C511.521806,13.365307 510.437066,14.0466159 510.151608,16.4311968 C509.980333,16.9421784 509.694876,17.3112207 509.295235,17.5383236 C509.181051,17.5950994 508.78141,17.6234872 508.096312,17.6234872 L506.21229,17.6234872 C505.641374,17.6234872 505.298825,17.5383236 505.184641,17.3679964 C505.013367,17.1976692 504.927729,16.5163604 504.927729,15.3240699 L504.927729,15.3240699 L504.927729,13.5356342 C504.927729,11.8891379 504.413905,10.5549081 503.386257,9.53294487 C502.358609,8.51098162 501.016957,8 499.361301,8 L499.361301,8 L485.316775,8 C484.003668,8 483.347115,8.65292096 483.347115,9.95876289 L483.347115,9.95876289 L483.347115,12.4285074 C483.347115,14.4724339 482.662017,16.175706 481.291819,17.5383236 C480.035804,18.2764082 479.293614,19.4545047 479.065248,21.0726132 C478.836881,22.6907216 479.207976,24.0675332 480.178533,25.203048 C480.235625,25.2598237 480.349808,25.2882116 480.521083,25.2882116 L480.521083,25.2882116 L480.692357,25.203048 L480.692357,25.9695204 C480.692357,26.8211564 480.949269,27.5024653 481.463094,28.0134469 C481.976918,28.5244285 482.662017,28.7799193 483.51839,28.7799193 L483.51839,28.7799193 L486.943884,28.7799193 L486.686972,28.8650829 C485.488049,29.1489616 484.731586,29.6741372 484.417582,30.4406096 C484.103579,31.207082 484.289126,32.1012999 484.974225,33.1232631 C486.344423,34.8833109 487.771712,36.3310922 489.256093,37.4666069 C487.429163,38.2046915 485.174046,38.9143882 482.490742,39.595697 C481.120544,39.9363514 480.264171,40.3621694 479.921621,40.8731511 C479.52198,41.4976841 479.664709,42.3493202 480.349808,43.4280592 C481.14909,44.6771254 482.462196,45.1313312 484.289126,44.7906768 C488.171353,43.7687136 491.596847,42.5480353 494.565609,41.1286419 C498.447836,43.2861198 502.986616,44.8758404 508.181949,45.8978037 Z M476.603912,43 C478.201304,43 479,42.1924652 479,40.5773956 C479,39.018018 478.201304,38.2383292 476.603912,38.2383292 L476.603912,38.2383292 L452.04401,38.2383292 C450.674817,38.2383292 449.99022,37.5700246 449.99022,36.2334152 L449.99022,36.2334152 L449.99022,15.7665848 C449.99022,14.4299754 450.674817,13.7616708 452.04401,13.7616708 L452.04401,13.7616708 L456.493888,13.7616708 C455.695192,15.7665848 454.639772,17.6044226 453.327628,19.2751843 C451.901385,20.8345618 451.98696,22.0597871 453.584352,22.95086 C454.725346,23.6191646 455.809291,23.4242424 456.836186,22.3660934 C456.950285,22.1990172 457.107172,21.976249 457.306846,21.6977887 C457.50652,21.4193284 457.663407,21.2244062 457.777506,21.1130221 L457.777506,21.1130221 L462.056235,21.1130221 L462.056235,24.2874693 L453.584352,24.2874693 C452.215159,24.2874693 451.530562,24.955774 451.530562,26.2923833 C451.530562,27.6846847 452.215159,28.3808354 453.584352,28.3808354 L453.584352,28.3808354 L461.200489,28.3808354 C460.287694,30.1629812 458.633252,31.6388206 456.237164,32.8083538 C454.92502,33.2538903 454.012225,33.7829648 453.498778,34.3955774 C452.871231,35.1195741 452.92828,35.8992629 453.669927,36.7346437 C454.582722,37.6814087 455.92339,37.7927928 457.691932,37.0687961 C460.886716,35.6764947 463.311328,33.950041 464.96577,31.8894349 C467.818256,33.6158886 470.157294,35.1752662 471.982885,36.5675676 C473.00978,37.3472563 474.036675,37.1662572 475.06357,36.02457 C476.090465,34.8828829 476.090465,33.9221949 475.06357,33.1425061 C472.439283,31.3046683 469.843521,29.7174447 467.276284,28.3808354 L467.276284,28.3808354 L475.149144,28.3808354 C476.518337,28.3808354 477.202934,27.6846847 477.202934,26.2923833 C477.202934,24.955774 476.518337,24.2874693 475.149144,24.2874693 L475.149144,24.2874693 L467.190709,24.2874693 L467.190709,21.1130221 L473.523227,21.1130221 C474.835371,21.1130221 475.491443,20.4447174 475.491443,19.1081081 C475.491443,17.8271908 474.835371,17.1867322 473.523227,17.1867322 L473.523227,17.1867322 L460.173594,17.1867322 C460.515892,16.5184275 460.744091,16.017199 460.858191,15.6830467 C461.02934,15.3488943 461.043602,15.028665 460.900978,14.7223587 C460.758354,14.4160524 460.487368,14.2350532 460.08802,14.1793612 L460.08802,14.1793612 L458.290954,13.7616708 L476.00489,13.7616708 C477.602282,13.7616708 478.400978,12.954136 478.400978,11.3390663 C478.400978,9.77968878 477.602282,9 476.00489,9 L476.00489,9 L449.562347,9 C447.907905,9 446.567237,9.5012285 445.540342,10.5036855 C444.513447,11.5061425 444,12.8149058 444,14.4299754 L444,14.4299754 L444,37.5700246 C444,39.1850942 444.513447,40.4938575 445.540342,41.4963145 C446.567237,42.4987715 447.907905,43 449.562347,43 L449.562347,43 L476.603912,43 Z M495.367347,34 C492.655329,32.3529412 490.53288,30.3529412 489,28 L489,28 L502,28 C500.172336,30.3529412 497.961451,32.3529412 495.367347,34 Z M504.266667,81 C505.917349,81 507.254971,80.4976077 508.279532,79.492823 C509.304094,78.4880383 509.816374,77.176236 509.816374,75.5574163 L509.816374,75.5574163 L509.816374,59.8995215 C509.816374,58.2807018 509.304094,56.9688995 508.279532,55.9641148 C507.254971,54.9593301 505.917349,54.4569378 504.266667,54.4569378 L504.266667,54.4569378 L487.276023,54.4569378 L487.276023,51.1913876 L511.353216,51.1913876 C513.117739,51.1913876 514,50.3261563 514,48.5956938 C514,46.8652313 513.117739,46 511.353216,46 L511.353216,46 L443.646784,46 C441.882261,46 441,46.8652313 441,48.5956938 C441,50.3261563 441.882261,51.1913876 443.646784,51.1913876 L443.646784,51.1913876 L466.614035,51.1913876 L466.614035,54.4569378 L451.245614,54.4569378 C449.594932,54.4569378 448.25731,54.9593301 447.232749,55.9641148 C446.208187,56.9688995 445.695906,58.2807018 445.695906,59.8995215 L445.695906,59.8995215 L445.695906,75.5574163 C445.695906,77.176236 446.208187,78.4880383 447.232749,79.492823 C448.25731,80.4976077 449.594932,81 451.245614,81 L451.245614,81 L504.266667,81 Z M481,54 L473,54 L473,51 L481,51 L481,54 Z M453,70 L453,61.0787402 C453,59.6929134 453.666667,59 455,59 L455,59 L466,59 C465,61.5984252 462.222222,63.5328084 457.666667,64.8031496 C455.111111,65.3805774 454.361111,66.2755906 455.416667,67.488189 C455.861111,68.007874 456.444444,68.7585302 457.166667,69.7401575 L457.166667,69.7401575 L457.25,69.9133858 L453,70 Z M503,70 L459,70 C467.501599,67.8057743 472.259117,64.1391076 473.272553,59 L473.272553,59 L481.886756,59 L481.886756,60.9055118 C481.886756,63.3884514 482.435701,65.019685 483.533589,65.7992126 C484.631478,66.5787402 486.897633,66.9685039 490.332054,66.9685039 L490.332054,66.9685039 L501.479846,66.9685039 C502.15547,66.9685039 502.662188,66.9396325 503,66.8818898 L503,66.8818898 L503,70 Z M500.55618,63 L491.033708,63 C489.741573,63 488.912921,62.884058 488.547753,62.6521739 C488.182584,62.4202899 488,61.8695652 488,61 L488,61 L488,59 L501.567416,59 C502.522472,59 503,59.4927536 503,60.4782609 L503,60.4782609 L503,62.5652174 L502.831461,62.4782609 C502.606742,62.826087 501.848315,63 500.55618,63 L500.55618,63 Z M500.938144,77 L454.202749,77 C453.400916,77 453,76.6 453,75.8 L453,75.8 L453,74 L503,74 L503,74.9428571 C503,76.3142857 502.312715,77 500.938144,77 L500.938144,77 Z M596.164773,81 C598.721591,81 600,79.7302483 600,77.1907449 C600,74.6512415 598.721591,73.3814898 596.164773,73.3814898 L596.164773,73.3814898 L566.590909,73.3814898 L566.590909,53.9119639 L589.005682,53.9119639 C591.505682,53.9119639 592.755682,52.6422122 592.755682,50.1027088 C592.755682,47.6196388 591.505682,46.3781038 589.005682,46.3781038 L589.005682,46.3781038 L566.590909,46.3781038 L566.590909,29.4480813 L592.073864,29.4480813 C594.630682,29.4480813 595.909091,28.1501129 595.909091,25.5541761 C595.909091,23.0146727 594.630682,21.744921 592.073864,21.744921 L592.073864,21.744921 L566.590909,21.744921 L566.590909,10.0632054 C566.590909,7.35440181 565.227273,6 562.5,6 C559.772727,6 558.409091,7.35440181 558.409091,10.0632054 L558.409091,10.0632054 L558.409091,21.744921 L543.153409,21.744921 C543.892045,19.8826185 544.943182,17.0327314 546.306818,13.1952596 C547.159091,10.486456 546.193182,8.79345372 543.409091,8.11625282 C540.795455,7.55191874 539.090909,8.6523702 538.295455,11.4176072 C535.284091,20.8984199 531.5625,28.5733634 527.130682,34.4424379 C526.051136,35.6839729 525.596591,36.7420993 525.767045,37.6168172 C525.9375,38.491535 526.704545,39.4085779 528.068182,40.3679458 C529.261364,41.1580135 530.298295,41.4825056 531.178977,41.3414221 C532.059659,41.2003386 532.926136,40.5654628 533.778409,39.4367946 C535.9375,36.3329571 537.926136,33.003386 539.744318,29.4480813 L539.744318,29.4480813 L558.409091,29.4480813 L558.409091,46.3781038 L538.125,46.3781038 C535.625,46.3781038 534.375,47.6196388 534.375,50.1027088 C534.375,52.6422122 535.625,53.9119639 538.125,53.9119639 L538.125,53.9119639 L558.409091,53.9119639 L558.409091,73.3814898 L528.835227,73.3814898 C526.278409,73.3814898 525,74.6512415 525,77.1907449 C525,79.7302483 526.278409,81 528.835227,81 L528.835227,81 L596.164773,81 Z" id="好醫生" fill="#015B8C" fill-rule="nonzero"></path>
        </g>
    </g>
</svg>