<?xml version="1.0" encoding="utf-8"?>
<!-- Generator: Adobe Illustrator 16.0.3, SVG Export Plug-In . SVG Version: 6.00 Build 0)  -->
<!DOCTYPE svg PUBLIC "-//W3C//DTD SVG 1.1//EN" "http://www.w3.org/Graphics/SVG/1.1/DTD/svg11.dtd">
<svg version="1.1" id="Layer_1" xmlns="http://www.w3.org/2000/svg" xmlns:xlink="http://www.w3.org/1999/xlink" x="0px" y="0px"
	 width="200px" height="200px" viewBox="0 0 200 200" enable-background="new 0 0 200 200" xml:space="preserve">
<g>
	<g>
		<g>
			<path fill="#AF9975" d="M197.634,2.367c-3.155-3.156-8.271-3.156-11.426,0L2.366,186.209c-3.155,3.154-3.155,8.27,0,11.424
				C3.943,199.211,6.011,200,8.079,200c2.067,0,4.135-0.789,5.713-2.367L197.634,13.791C200.789,10.637,200.789,5.521,197.634,2.367
				z"/>
		</g>
	</g>
	<g>
		<g>
			<path fill="#AF9975" d="M197.633,186.209L13.791,2.367c-3.155-3.156-8.271-3.156-11.425,0c-3.155,3.154-3.155,8.27,0,11.424
				l183.843,183.844c1.577,1.576,3.646,2.365,5.713,2.365s4.137-0.789,5.713-2.365C200.789,194.479,200.789,189.363,197.633,186.209
				z"/>
		</g>
	</g>
</g>
</svg>
