<?xml version="1.0" encoding="utf-8"?>
<!-- Generator: Adobe Illustrator 16.0.3, SVG Export Plug-In . SVG Version: 6.00 Build 0)  -->
<!DOCTYPE svg PUBLIC "-//W3C//DTD SVG 1.1//EN" "http://www.w3.org/Graphics/SVG/1.1/DTD/svg11.dtd">
<svg version="1.1" id="Capa_1" xmlns="http://www.w3.org/2000/svg" xmlns:xlink="http://www.w3.org/1999/xlink" x="0px" y="0px"
	 width="200px" height="20px" viewBox="241.917 47.099 200 20" enable-background="new 241.917 47.099 200 20" xml:space="preserve"
	>
<g>
	<path fill="#A62126" d="M245.327,52.621c-2.835,2.356-4.035,5.875-3.095,8.605c0.061,0.177,0.486,0.835,0.547,1.012
		c0.836-2.483,3.208-4.497,7.043-5.634c3.946-1.557,5.137-3.562,5.492-4.818C252.835,49.881,248.454,50.114,245.327,52.621z"/>
	<path fill="#A62126" d="M249.717,57.829c-3.573,1.218-5.43,3.137-6.44,4.949c2.4,2.003,6.442,1.859,9.653-0.565
		c2.972-2.253,3.929-5.627,3.438-8.474c-0.109-0.634-0.213-1.03-0.619-1.548C255.278,54.022,253.398,56.48,249.717,57.829z"/>
</g>
<g>
	<path fill="#A62126" d="M430.754,52.621c-2.835,2.356-4.036,5.875-3.095,8.605c0.061,0.177,0.486,0.835,0.547,1.012
		c0.835-2.483,3.21-4.497,7.043-5.634c3.946-1.557,5.138-3.562,5.493-4.818C438.263,49.881,433.88,50.114,430.754,52.621z"/>
	<path fill="#A62126" d="M435.144,57.829c-3.572,1.218-5.429,3.137-6.441,4.949c2.401,2.003,6.444,1.859,9.655-0.565
		c2.971-2.253,3.928-5.627,3.438-8.474c-0.109-0.634-0.213-1.03-0.619-1.548C440.705,54.022,438.824,56.48,435.144,57.829z"/>
</g>
</svg>
