<?xml version="1.0" encoding="utf-8"?>
<!-- Generator: Adobe Illustrator 16.0.0, SVG Export Plug-In . SVG Version: 6.00 Build 0)  -->
<!DOCTYPE svg PUBLIC "-//W3C//DTD SVG 1.1//EN" "http://www.w3.org/Graphics/SVG/1.1/DTD/svg11.dtd">
<svg version="1.1" xmlns="http://www.w3.org/2000/svg" xmlns:xlink="http://www.w3.org/1999/xlink" x="0px" y="0px"
	 width="226.771px" height="226.771px" viewBox="0 0 226.771 226.771" enable-background="new 0 0 226.771 226.771"
	 xml:space="preserve">
<g id="圖層_1" display="none">
	<g display="inline">
		<path fill="none" d="M189.147,87.506c3.161,0,5.62-2.46,5.62-5.622c0-3.161-2.459-5.618-5.62-5.618h-21.546
			c-3.162,0-5.621,2.458-5.621,5.618v43.562c0,3.161,2.459,5.62,5.621,5.62h21.546c3.161,0,5.62-2.459,5.62-5.62
			c0-3.162-2.459-6.089-5.62-6.089h-15.926v-9.837h15.926c3.161,0,5.62-2.928,5.62-6.089c0-3.162-2.459-5.62-5.62-5.62h-15.926
			V87.506H189.147z"/>
		<path fill="none" d="M79.544,119.356H63.619V81.885c0-3.162-2.459-5.619-5.621-5.619s-6.089,2.458-6.089,5.619v43.561
			c0,3.161,2.927,5.62,6.089,5.62h21.546c3.162,0,5.621-2.459,5.621-5.62C85.165,122.282,82.706,119.356,79.544,119.356z"/>
		<path fill="none" d="M148.397,76.265c-3.161,0-5.622,2.458-5.622,5.619v26.697l-22.482-29.978c-1.054-1.463-2.458-2.34-4.216-2.34
			c-0.584,0-1.287-0.178-1.873,0c-2.342,0.76-4.216,3.16-4.216,5.618v43.562c0,3.161,2.928,5.62,6.089,5.62
			c3.162,0,5.622-2.459,5.622-5.62V98.278l22.013,30.445c1.055,1.463,2.929,2.342,4.686,2.342c0.585,0,1.287-0.292,1.874-0.468
			c2.342-0.762,3.746-2.694,3.746-5.152V81.885C154.017,78.722,151.558,76.265,148.397,76.265z"/>
		<path fill="none" d="M96.406,76.265c-3.162,0-6.089,2.458-6.089,5.619v43.561c0,3.161,2.928,5.62,6.089,5.62
			s5.621-2.459,5.621-5.62V81.885C102.027,78.722,99.567,76.265,96.406,76.265z"/>
		<path fill="#F2EADD" d="M122.167,13.5c-60.188,0-109.134,39.695-109.134,88.524c0,43.794,38.876,80.211,91.336,87.12
			c3.571,0.761,8.137,2.576,9.367,5.621c1.112,2.751,0.82,7.024,0.468,9.835c0,0-1.111,7.729-1.405,9.368
			c-0.468,2.752-2.282,11.007,9.368,6.089c11.65-4.917,62.822-37.354,85.714-63.7c15.809-17.331,23.419-34.778,23.419-54.333
			C231.301,53.196,182.354,13.5,122.167,13.5z M79.544,131.065H57.998c-3.162,0-6.089-2.459-6.089-5.62V81.885
			c0-3.162,2.927-5.619,6.089-5.619s5.621,2.458,5.621,5.619v37.472h15.925c3.162,0,5.621,2.927,5.621,6.089
			C85.165,128.605,82.706,131.065,79.544,131.065z M102.027,125.445c0,3.161-2.459,5.62-5.621,5.62s-6.089-2.459-6.089-5.62V81.885
			c0-3.162,2.928-5.619,6.089-5.619s5.621,2.458,5.621,5.619V125.445z M154.017,125.445c0,2.458-1.404,4.392-3.746,5.152
			c-0.586,0.176-1.289,0.468-1.874,0.468c-1.757,0-3.631-0.878-4.686-2.342l-22.013-30.445v27.167c0,3.161-2.46,5.62-5.622,5.62
			c-3.161,0-6.089-2.459-6.089-5.62V81.885c0-2.458,1.874-4.859,4.216-5.619c0.586-0.178,1.289,0,1.873,0
			c1.757,0,3.162,0.876,4.216,2.34l22.482,29.978V81.885c0-3.162,2.46-5.619,5.622-5.619s5.62,2.458,5.62,5.619V125.445z
			 M189.147,97.81c3.161,0,5.62,2.458,5.62,5.62c0,3.161-2.459,6.089-5.62,6.089h-15.926v9.837h15.926
			c3.161,0,5.62,2.927,5.62,6.089c0,3.161-2.459,5.62-5.62,5.62h-21.546c-3.162,0-5.621-2.459-5.621-5.62V81.885
			c0-3.162,2.459-5.619,5.621-5.619h21.546c3.161,0,5.62,2.458,5.62,5.619s-2.459,5.621-5.62,5.621h-15.926V97.81H189.147z"/>
	</g>
</g>
<g id="圖層_2">
	<g>
		<path fill="#F2EADD" d="M109.134,13.5C48.946,13.5,0,53.195,0,102.024c0,43.794,38.876,80.211,91.336,87.12
			c3.571,0.761,8.137,2.576,9.367,5.621c1.112,2.751,0.82,7.024,0.468,9.835c0,0-1.111,7.729-1.405,9.368
			c-0.468,2.752-2.282,11.007,9.368,6.089c11.65-4.917,62.822-37.354,85.714-63.7c15.809-17.331,23.419-34.778,23.419-54.333
			C218.267,53.196,169.321,13.5,109.134,13.5z M61.561,134.171h-23.98c-3.518,0-6.775-2.743-6.775-6.267V79.426
			c0-3.517,3.257-6.25,6.775-6.25c3.523,0,6.258,2.734,6.258,6.25v41.712h17.722c3.525,0,6.26,3.258,6.26,6.767
			C67.821,131.427,65.086,134.171,61.561,134.171z M86.584,127.904c0,3.523-2.736,6.267-6.253,6.267
			c-3.517,0-6.774-2.743-6.774-6.267V79.426c0-3.517,3.259-6.25,6.774-6.25c3.516,0,6.253,2.734,6.253,6.25V127.904z
			 M144.452,127.904c0,2.742-1.562,4.896-4.172,5.735c-0.648,0.206-1.431,0.531-2.079,0.531c-1.961,0-4.04-0.988-5.221-2.61
			l-24.504-33.889v30.233c0,3.523-2.728,6.267-6.252,6.267c-3.516,0-6.775-2.743-6.775-6.267V79.426c0-2.734,2.081-5.403,4.691-6.25
			c0.654-0.201,1.437,0,2.084,0c1.961,0,3.524,0.971,4.688,2.6l25.021,33.367V79.426c0-3.517,2.743-6.25,6.268-6.25
			c3.51,0,6.251,2.734,6.251,6.25V127.904z M183.552,97.156c3.511,0,6.254,2.734,6.254,6.251c0,3.516-2.743,6.774-6.254,6.774
			h-17.723v10.956h17.723c3.511,0,6.254,3.258,6.254,6.767c0,3.523-2.743,6.267-6.254,6.267h-23.986
			c-3.512,0-6.252-2.743-6.252-6.267V79.426c0-3.517,2.74-6.25,6.252-6.25h23.986c3.511,0,6.254,2.734,6.254,6.25
			c0,3.523-2.743,6.259-6.254,6.259h-17.723v11.471H183.552z"/>
	</g>
</g>
</svg>
