<?xml version="1.0" encoding="utf-8"?>
<!-- Generator: Adobe Illustrator 16.0.0, SVG Export Plug-In . SVG Version: 6.00 Build 0)  -->
<!DOCTYPE svg PUBLIC "-//W3C//DTD SVG 1.1//EN" "http://www.w3.org/Graphics/SVG/1.1/DTD/svg11.dtd">
<svg version="1.1" id="圖層_1" xmlns="http://www.w3.org/2000/svg" xmlns:xlink="http://www.w3.org/1999/xlink" x="0px" y="0px"
	 width="226.771px" height="226.771px" viewBox="0 0 226.771 226.771" enable-background="new 0 0 226.771 226.771"
	 xml:space="preserve">
<g>
	<path fill="#AF9975" d="M109.134,13.5C48.946,13.5,0,53.195,0,102.024c0,43.794,38.876,80.211,91.336,87.12
		c3.571,0.761,8.137,2.576,9.367,5.621c1.112,2.751,0.82,7.024,0.468,9.835c0,0-1.111,7.729-1.405,9.368
		c-0.468,2.752-2.282,11.007,9.368,6.089c11.65-4.917,62.822-37.354,85.715-63.7c15.809-17.331,23.418-34.778,23.418-54.333
		C218.268,53.196,169.321,13.5,109.134,13.5z M61.561,134.171h-23.98c-3.518,0-6.775-2.743-6.775-6.267V79.426
		c0-3.517,3.257-6.25,6.775-6.25c3.523,0,6.258,2.734,6.258,6.25v41.712h17.722c3.525,0,6.26,3.258,6.26,6.767
		C67.821,131.427,65.086,134.171,61.561,134.171z M86.584,127.904c0,3.523-2.736,6.267-6.253,6.267
		c-3.517,0-6.774-2.743-6.774-6.267V79.426c0-3.517,3.259-6.25,6.774-6.25c3.516,0,6.253,2.734,6.253,6.25V127.904z
		 M144.452,127.904c0,2.742-1.561,4.896-4.172,5.735c-0.648,0.206-1.43,0.531-2.078,0.531c-1.961,0-4.041-0.988-5.221-2.61
		l-24.505-33.889v30.233c0,3.523-2.728,6.267-6.252,6.267c-3.516,0-6.775-2.743-6.775-6.267V79.426c0-2.734,2.081-5.403,4.691-6.25
		c0.654-0.201,1.437,0,2.084,0c1.961,0,3.524,0.971,4.688,2.6l25.021,33.367V79.426c0-3.517,2.742-6.25,6.268-6.25
		c3.51,0,6.25,2.734,6.25,6.25V127.904z M183.552,97.156c3.512,0,6.254,2.734,6.254,6.251c0,3.516-2.742,6.774-6.254,6.774h-17.723
		v10.956h17.723c3.512,0,6.254,3.258,6.254,6.767c0,3.523-2.742,6.267-6.254,6.267h-23.986c-3.512,0-6.252-2.743-6.252-6.267V79.426
		c0-3.517,2.74-6.25,6.252-6.25h23.986c3.512,0,6.254,2.734,6.254,6.25c0,3.523-2.742,6.259-6.254,6.259h-17.723v11.471H183.552z"/>
</g>
</svg>
