<?xml version="1.0" encoding="utf-8"?>
<!-- Generator: Adobe Illustrator 16.0.0, SVG Export Plug-In . SVG Version: 6.00 Build 0)  -->
<!DOCTYPE svg PUBLIC "-//W3C//DTD SVG 1.1//EN" "http://www.w3.org/Graphics/SVG/1.1/DTD/svg11.dtd">
<svg version="1.1" id="Capa_1" xmlns="http://www.w3.org/2000/svg" xmlns:xlink="http://www.w3.org/1999/xlink" x="0px" y="0px"
	 width="210.004px" height="210px" viewBox="0 0 210.004 210" enable-background="new 0 0 210.004 210" xml:space="preserve">
<g>
	<path fill="#FFFFFF" d="M95.165,69.245c-6.223,5.173-8.86,12.898-6.794,18.893c0.132,0.388,1.067,1.835,1.2,2.222
		c1.835-5.451,7.046-9.874,15.463-12.371c8.664-3.419,11.282-7.821,12.063-10.579C111.654,63.23,102.029,63.741,95.165,69.245z"/>
	<path fill="#FFFFFF" d="M104.806,80.68c-7.847,2.677-11.92,6.888-14.144,10.869c5.272,4.397,14.148,4.082,21.2-1.239
		c6.521-4.948,8.625-12.357,7.549-18.605c-0.242-1.394-0.468-2.263-1.36-3.401C117.012,72.323,112.884,77.721,104.806,80.68z"/>
</g>
<g>
	<g>
		<g>
			<g>
				<path fill="#FFFFFF" d="M156.635,39.26c1.392,1.048,2.648,2.228,3.871,3.277c3.569,3.249,7.307,6.431,10.338,10.265
					c3.199,4.051,6.315,8.23,8.725,12.849c1.784,3.348,2.946,6.991,4.095,10.578c1.417,4.434,2.47,8.976,3.086,13.566
					c0.072,0.509,0.14,1.02,0.196,1.531l0.104,1.543c0.057,1.029,0.167,2.05,0.24,3.071c0.091,1.314,0.256,2.61,0.377,3.916
					c0.085,1.308,0.168,2.627,0.2,3.974h-3.524c-0.019-0.681-0.056-0.821-0.04-1.313c0.2-3.934,0.127-7.92-0.438-11.845
					c-0.616-4.282-1.936-8.42-3.396-12.46c-1.426-3.906-3.173-7.676-5.066-11.367c-2.046-4.064-4.589-7.867-7.418-11.419
					c-2.836-3.553-5.942-6.871-9.212-10.029c-0.507-0.491-1.283-1.072-2.066-1.678c-0.394-0.299-0.796-0.604-1.177-0.897
					c-0.394-0.279-0.764-0.549-1.086-0.802L156.635,39.26z"/>
				<path fill="#FFFFFF" d="M155.1,46.422c0.551,0.463,1.113,0.904,1.638,1.381c0.52,0.483,1.034,0.962,1.547,1.44
					c1.049,0.935,1.974,1.977,2.952,2.963c0.494,0.49,0.938,1.025,1.403,1.544c0.462,0.521,0.927,1.043,1.393,1.568
					c0.886,1.087,1.804,2.168,2.704,3.297c3.484,4.417,6.333,9.334,8.521,14.506c2.197,5.174,3.731,10.607,4.635,16.123
					c0.337,2.081,0.954,5.546,1.199,8.604c0.073,0.764,0.141,1.498,0.204,2.176c0.032,0.681,0.06,1.302,0.087,1.837
					c0.049,1.072,0.085,1.795,0.09,1.938h-1.28c-0.019-0.26,0.012-2.137-0.054-4.335c-0.064-1.098-0.134-2.277-0.2-3.375
					c-0.127-1.092-0.243-2.105-0.334-2.876c-0.761-5.742-2.31-11.361-4.431-16.74c-0.282-0.693-0.538-1.399-0.843-2.084
					l-0.932-2.046l-0.467-1.022l-0.517-1l-1.029-1.999c-0.354-0.659-0.747-1.299-1.116-1.951c-0.383-0.644-0.729-1.31-1.151-1.932
					c-0.818-1.255-1.597-2.539-2.493-3.742l-1.106-1.58l-1.166-1.538c-0.391-0.509-0.774-1.026-1.179-1.527l-1.265-1.455
					c-3.061-3.43-6.452-6.474-10.024-9.314c0.235-0.295,0.562-0.705,0.797-1.001c0.359,0.318,0.795,0.681,1.215,1.064
					C154.313,45.736,154.732,46.118,155.1,46.422z"/>
			</g>
			<g>
				<path fill="#FFFFFF" d="M86.732,23.099c0.425-0.083,0.85-0.164,1.271-0.247c0.425-0.062,0.847-0.125,1.264-0.187
					c0.834-0.122,1.653-0.241,2.447-0.356c4.766-0.595,9.536-1.438,14.376-1.447c5.161-0.004,10.374,0.156,15.488,1.151
					c3.714,0.753,7.323,1.986,10.829,3.379c4.343,1.67,8.56,3.643,12.556,5.99c0.877,0.542,1.734,1.116,2.593,1.682
					c0.866,0.555,1.679,1.191,2.545,1.735c0.549,0.365,1.123,0.688,1.66,1.059l1.642,1.083c0.543,0.367,1.11,0.707,1.639,1.106
					c0.532,0.395,1.064,0.796,1.596,1.212l-2.191,2.759c-0.535-0.42-0.669-0.48-1.038-0.806c-2.998-2.543-6.096-5.065-9.554-7.018
					c-3.76-2.134-7.803-3.703-11.873-5.082l-2.973-0.935l-3.014-0.787c-0.997-0.289-2.022-0.46-3.032-0.705l-1.515-0.353
					l-1.526-0.302c-4.451-0.932-9.01-1.333-13.555-1.294c-4.545,0.031-9.076,0.318-13.603,0.742
					c-0.701,0.073-1.646,0.279-2.616,0.482c-0.485,0.103-0.979,0.206-1.45,0.305c-0.468,0.105-0.915,0.218-1.315,0.294
					L86.732,23.099z"/>
				<path fill="#FFFFFF" d="M91.153,28.943c5.705-0.975,11.164-1.198,16.937-1.228c5.627,0.005,11.257,0.794,16.667,2.314
					c5.411,1.518,10.61,3.711,15.505,6.407c1.875,0.972,4.912,2.744,7.506,4.378c1.267,0.862,2.447,1.651,3.321,2.269
					c0.859,0.645,1.437,1.08,1.551,1.165l-0.796,1.002c-0.209-0.155-1.631-1.383-3.42-2.66c-0.445-0.323-0.892-0.677-1.365-0.994
					c-0.477-0.315-0.951-0.63-1.408-0.935c-0.46-0.304-0.901-0.596-1.31-0.866c-0.418-0.255-0.81-0.476-1.144-0.673
					c-4.993-2.925-10.325-5.278-15.864-6.947c-5.743-1.72-11.688-2.753-17.679-3.106c-1.283-0.072-2.569-0.098-3.855-0.16
					c-1.293-0.029-2.604,0.01-3.905,0.042c-4.648,0.224-9.205,0.844-13.722,1.681c-0.069-0.371-0.165-0.885-0.234-1.257
					C88.887,29.209,90.209,29.108,91.153,28.943z"/>
			</g>
			<g>
				<path fill="#FFFFFF" d="M30.038,66.564c0.173-0.399,0.339-0.802,0.52-1.196c0.191-0.388,0.382-0.774,0.571-1.157
					c0.378-0.763,0.749-1.512,1.108-2.237c2.271-4.284,4.492-8.703,7.578-12.543c3.253-4.057,6.728-8.013,10.819-11.3
					c0.363-0.312,0.744-0.596,1.134-0.871l1.169-0.824l1.181-0.806c0.396-0.266,0.815-0.497,1.222-0.744
					c0.822-0.484,1.637-0.974,2.463-1.443l2.513-1.339c4.137-2.174,8.424-4.012,12.828-5.436c0.983-0.302,1.976-0.584,2.969-0.846
					c1.001-0.231,2-0.469,2.982-0.754c2.535-0.688,4.994-1.482,7.635-1.968l0.649,3.463c-0.67,0.132-0.8,0.193-1.289,0.261
					l-1.467,0.199l-1.458,0.258c-0.971,0.18-1.953,0.32-2.92,0.534c-0.963,0.22-1.929,0.446-2.891,0.682
					c-0.963,0.233-1.899,0.561-2.843,0.863c-4.094,1.39-7.957,3.361-11.683,5.511c-3.592,2.106-6.932,4.577-10.205,7.124
					c-3.585,2.797-6.783,6.083-9.617,9.633c-2.843,3.549-5.315,7.371-7.555,11.325c-0.382,0.596-0.722,1.506-1.113,2.417
					c-0.194,0.457-0.388,0.92-0.574,1.364c-0.187,0.443-0.338,0.878-0.503,1.251L30.038,66.564z"/>
				<path fill="#FFFFFF" d="M37.355,66.246c1.188-2.615,2.611-4.992,4.083-7.33c0.382-0.576,0.786-1.138,1.177-1.71
					c0.403-0.562,0.763-1.159,1.202-1.702c0.859-1.098,1.654-2.264,2.594-3.349c3.524-4.337,7.717-8.15,12.39-11.227
					c4.668-3.091,9.739-5.535,15.002-7.415c0.489-0.195,1.074-0.387,1.713-0.603c0.637-0.224,1.33-0.465,2.052-0.718
					c0.718-0.257,1.488-0.463,2.243-0.707c0.763-0.224,1.513-0.499,2.261-0.679c0.744-0.197,1.459-0.387,2.118-0.562
					c0.66-0.18,1.262-0.34,1.792-0.445c1.052-0.229,1.763-0.384,1.903-0.415l0.234,1.257c-0.128,0.023-0.658,0.117-1.425,0.255
					c-0.384,0.07-0.833,0.14-1.313,0.236c-0.481,0.108-0.998,0.224-1.537,0.345c-1.077,0.239-2.238,0.49-3.294,0.808
					c-1.059,0.306-2.054,0.549-2.787,0.813c-5.51,1.799-10.78,4.253-15.669,7.285c-2.494,1.63-4.96,3.316-7.213,5.259
					c-1.17,0.921-2.232,1.964-3.329,2.964c-0.557,0.496-1.046,1.056-1.576,1.579c-0.509,0.54-1.059,1.042-1.534,1.614
					c-1.697,1.896-3.398,3.806-4.837,5.915c-2.604,3.74-4.705,7.753-6.536,11.909c-0.346-0.153-0.823-0.364-1.17-0.517
					C36.29,68.235,36.961,67.11,37.355,66.246z"/>
			</g>
			<g>
				<path fill="#FFFFFF" d="M31.165,138.454c-0.375-0.785-0.71-1.582-1.056-2.356c-0.337-0.778-0.691-1.53-0.964-2.288
					c-0.427-1.132-0.914-2.241-1.37-3.363c-0.431-1.131-0.88-2.259-1.332-3.388c-0.408-1.145-0.798-2.3-1.184-3.455
					c-0.382-1.157-0.653-2.343-0.943-3.529c-1.114-5.034-2.106-10.15-2.284-15.349c-0.02-0.943-0.047-1.895-0.011-2.834
					c0.05-0.937,0.113-1.874,0.182-2.808l0.106-1.4l0.167-1.4l0.31-2.791c0.584-4.587,1.417-9.144,2.652-13.602
					c0.291-0.988,0.617-1.965,0.936-2.942c0.349-0.968,0.718-1.929,1.024-2.907c0.37-1.264,0.823-2.491,1.219-3.746
					c0.38-1.261,0.895-2.483,1.418-3.729l3.224,1.418c-0.266,0.627-0.291,0.77-0.51,1.212c-1.695,3.545-3.337,7.193-4.309,11.041
					c-1.082,4.182-1.611,8.482-1.924,12.769c-0.105,1.036-0.109,2.075-0.167,3.11l-0.066,1.556
					c-0.017,0.517-0.003,1.037-0.009,1.556l-0.026,3.109c0.03,1.037,0.05,2.074,0.054,3.111c0.094,4.549,0.731,9.075,1.726,13.508
					c0.981,4.441,2.384,8.768,3.937,13.034c0.118,0.333,0.277,0.72,0.459,1.134c0.189,0.413,0.422,0.845,0.649,1.287
					c0.462,0.881,0.921,1.789,1.271,2.526L31.165,138.454z"/>
				<path fill="#FFFFFF" d="M35.691,132.69c-2.401-5.252-3.872-10.442-5.14-16.069c-1.232-5.501-1.656-11.145-1.416-16.794
					c0.226-5.658,1.036-11.265,2.38-16.703c0.059-0.258,0.124-0.537,0.191-0.835c0.08-0.293,0.162-0.606,0.247-0.932
					c0.168-0.654,0.352-1.364,0.542-2.105c0.167-0.746,0.423-1.497,0.644-2.258c0.23-0.758,0.438-1.526,0.675-2.253
					c0.518-1.438,0.936-2.796,1.339-3.785c0.398-0.991,0.667-1.66,0.719-1.793l1.172,0.516c-0.054,0.118-0.272,0.604-0.588,1.308
					c-0.152,0.355-0.356,0.752-0.529,1.209c-0.178,0.455-0.369,0.946-0.568,1.456c-0.2,0.511-0.406,1.041-0.612,1.571
					c-0.181,0.54-0.359,1.08-0.534,1.601c-0.339,1.046-0.68,2.006-0.855,2.766c-1.54,5.586-2.411,11.372-2.739,17.204l-0.072,1.133
					c-0.019,0.377-0.018,0.759-0.028,1.137l-0.044,2.274c-0.031,0.762,0,1.509,0.021,2.26l0.061,2.25
					c0.035,0.75,0.113,1.498,0.164,2.244c0.069,0.748,0.091,1.5,0.195,2.243l0.286,2.232l0.141,1.117l0.198,1.107
					c0.236,1.265,0.394,2.545,0.691,3.798c0.275,1.257,0.515,2.525,0.905,3.753c1.258,4.426,2.974,8.653,4.932,12.782
					c-0.342,0.164-0.814,0.388-1.154,0.551C36.553,134.787,36.105,133.549,35.691,132.69z"/>
			</g>
			<g>
				<path fill="#FFFFFF" d="M86.632,184.005c-1.705-0.372-3.349-0.894-4.893-1.36c-4.606-1.46-9.334-2.808-13.683-5.041
					c-4.594-2.363-9.156-4.883-13.26-8.08c-0.738-0.591-1.461-1.201-2.176-1.821c-0.709-0.625-1.372-1.306-2.05-1.966l-1.005-0.998
					c-0.333-0.337-0.643-0.694-0.964-1.039l-1.927-2.069c-3.111-3.453-5.978-7.107-8.498-10.985
					c-1.149-1.707-2.035-3.578-3.117-5.313c-0.647-1.146-1.327-2.259-2.012-3.376c-0.647-1.14-1.276-2.302-1.882-3.502l3.179-1.516
					c0.308,0.607,0.402,0.718,0.599,1.172c0.404,0.894,0.753,1.823,1.19,2.708l1.286,2.675c0.447,0.883,0.941,1.739,1.426,2.604
					c0.248,0.429,0.48,0.87,0.751,1.283l0.818,1.24c2.41,3.587,5.291,6.827,8.335,9.864c2.933,2.95,6.123,5.608,9.338,8.229
					c3.545,2.851,7.439,5.255,11.487,7.314c4.052,2.062,8.26,3.777,12.543,5.3c1.345,0.432,3.747,0.918,5.344,1.251L86.632,184.005z
					"/>
				<path fill="#FFFFFF" d="M85.022,176.861c-5.563-1.485-10.494-3.642-15.635-6.248c-5.014-2.563-9.623-5.89-13.77-9.685
					c-4.147-3.805-7.821-8.098-11.019-12.694c-0.575-0.887-1.392-2.035-2.253-3.298c-0.414-0.643-0.843-1.312-1.271-1.98
					c-0.215-0.335-0.43-0.669-0.643-1c-0.2-0.343-0.398-0.678-0.591-1.008c-0.39-0.663-0.767-1.298-1.112-1.885
					c-0.343-0.589-0.617-1.148-0.874-1.619c-0.503-0.949-0.843-1.589-0.909-1.716l1.155-0.55c0.056,0.117,0.288,0.599,0.625,1.298
					c0.347,0.694,0.745,1.638,1.289,2.596c0.534,0.963,1.06,2.027,1.636,2.966c0.576,0.939,1.108,1.81,1.516,2.477
					c3.178,4.853,6.945,9.314,11.12,13.332c4.314,4.189,9.177,7.781,14.339,10.825c1.09,0.683,2.231,1.271,3.355,1.901
					c1.113,0.646,2.295,1.154,3.456,1.703c4.203,1.846,8.549,3.195,12.972,4.27c-0.088,0.367-0.212,0.876-0.302,1.243
					c-0.458-0.134-1.003-0.293-1.547-0.452C86.018,177.167,85.484,176.983,85.022,176.861z"/>
			</g>
			<g>
				<path fill="#FFFFFF" d="M156.635,168.399c-0.687,0.535-1.361,1.076-2.043,1.585c-0.692,0.49-1.375,0.968-2.031,1.433
					c-3.973,2.744-7.921,5.664-12.344,7.744c-4.675,2.197-9.461,4.274-14.509,5.565c-1.842,0.435-3.702,0.813-5.59,1.012
					c-1.874,0.277-3.768,0.371-5.646,0.544c-4.642,0.323-9.285,0.333-13.909-0.081c-1.025-0.115-2.048-0.268-3.067-0.412
					c-1.02-0.142-2.028-0.368-3.045-0.494c-0.653-0.098-1.309-0.148-1.956-0.254c-0.648-0.097-1.296-0.195-1.946-0.293
					c-0.649-0.1-1.305-0.184-1.957-0.307c-0.649-0.134-1.303-0.279-1.959-0.438l0.828-3.425c0.664,0.159,0.807,0.159,1.281,0.301
					l0.709,0.215l0.715,0.181l1.435,0.364c0.958,0.246,1.916,0.5,2.889,0.673c0.972,0.188,1.944,0.383,2.924,0.545
					c0.981,0.123,1.966,0.236,2.954,0.327c4.312,0.318,8.637,0.037,12.908-0.454c4.131-0.507,8.185-1.394,12.228-2.333
					c4.43-1.039,8.706-2.676,12.809-4.619c4.107-1.952,8.032-4.238,11.857-6.694c0.588-0.392,1.344-0.996,2.114-1.616
					c0.774-0.621,1.512-1.329,2.162-1.826L156.635,168.399z"/>
				<path fill="#FFFFFF" d="M150.011,165.283c-4.598,3.482-9.319,6.071-14.521,8.555c-5.082,2.421-10.534,4.026-16.07,4.968
					c-5.541,0.936-11.189,1.175-16.761,0.829c-2.107-0.091-5.605-0.384-8.642-0.773c-1.509-0.247-2.908-0.475-3.963-0.647
					c-1.046-0.229-1.751-0.382-1.89-0.412l0.301-1.245c0.125,0.034,0.64,0.167,1.391,0.363c0.745,0.209,1.749,0.374,2.82,0.609
					c0.54,0.102,1.092,0.242,1.655,0.321c0.562,0.084,1.125,0.167,1.668,0.249c0.542,0.081,1.066,0.157,1.549,0.229
					c0.484,0.064,0.931,0.087,1.318,0.124c5.746,0.529,11.584,0.336,17.31-0.483c0.747-0.077,1.48-0.244,2.22-0.368l2.211-0.403
					l2.19-0.514c0.73-0.166,1.463-0.328,2.179-0.551c1.44-0.415,2.889-0.803,4.299-1.315c0.708-0.247,1.424-0.471,2.126-0.733
					l2.089-0.825c2.385-0.952,4.749-1.977,7.014-3.195c4.033-2.2,7.768-4.816,11.341-7.652c0.236,0.297,0.561,0.707,0.796,1.004
					C151.857,163.97,150.787,164.729,150.011,165.283z"/>
			</g>
			<g>
				<path fill="#FFFFFF" d="M187.866,103.83c-0.023,0.871-0.048,1.734-0.069,2.584c-0.029,0.848-0.036,1.681-0.116,2.482
					c-0.288,4.817-0.477,9.728-1.604,14.483c-1.188,5.027-2.533,10.066-4.665,14.82c-0.739,1.746-1.711,3.383-2.653,5.023
					c-0.487,0.811-1.024,1.594-1.531,2.391l-0.767,1.192l-0.808,1.164c-2.615,3.848-5.481,7.519-8.703,10.847
					c-0.689,0.764-1.484,1.432-2.228,2.14l-1.123,1.059c-0.385,0.338-0.767,0.681-1.14,1.033c-0.955,0.908-1.857,1.85-2.835,2.729
					c-0.957,0.896-1.914,1.809-2.991,2.624l-2.191-2.762c0.535-0.42,0.624-0.532,1.03-0.818c3.16-2.343,6.282-4.823,9-7.716
					c2.946-3.164,5.377-6.761,7.646-10.409c2.192-3.535,4.042-7.256,5.772-11.026c1.919-4.123,3.325-8.477,4.356-12.901
					c1.048-4.423,1.671-8.931,2.104-13.45c0.038-0.352,0.06-0.769,0.077-1.222c0.013-0.453-0.02-0.942-0.031-1.438
					c-0.036-0.993-0.076-2.013-0.056-2.829H187.866L187.866,103.83z"/>
				<path fill="#FFFFFF" d="M181.292,107.083c-0.103,5.77-1.015,11.08-2.333,16.691c-2.589,10.97-8.333,21.072-15.853,29.325
					c-0.712,0.78-1.618,1.854-2.687,2.946c-0.527,0.551-1.051,1.149-1.617,1.705c-0.564,0.559-1.133,1.114-1.678,1.652
					c-0.534,0.551-1.087,1.039-1.594,1.494c-0.507,0.456-0.965,0.874-1.364,1.234c-0.796,0.722-1.378,1.151-1.48,1.249l-0.795-1.001
					c0.102-0.08,0.529-0.401,1.147-0.872c0.597-0.496,1.378-1.146,2.223-1.851c1.662-1.438,3.506-3.168,4.561-4.311
					c2.022-2.071,3.846-4.327,5.614-6.617l1.256-1.772c0.413-0.593,0.854-1.168,1.229-1.789c0.767-1.227,1.587-2.422,2.276-3.694
					c3.002-5.189,5.417-10.725,7.072-16.485c0.347-1.237,0.752-2.458,1.033-3.715c0.307-1.248,0.631-2.494,0.814-3.767
					c0.785-4.525,1.065-9.075,1.077-13.645c0.379,0,0.903,0.001,1.282,0.002C181.404,104.82,181.292,106.129,181.292,107.083z"/>
			</g>
		</g>
	</g>
	<g>
		<path fill="#FFFFFF" d="M162.18,45.616c-0.012-0.013-0.023-0.024-0.037-0.037c0.059,0.059,0.117,0.121,0.177,0.18
			C162.273,45.713,162.226,45.663,162.18,45.616z"/>
		<path fill="#FFFFFF" d="M166.502,50.238c-0.406-0.456-0.798-0.894-1.179-1.323c0.037,0.059,0.081,0.124,0.119,0.182
			c0.903,1.02,1.783,2.063,2.636,3.127C167.604,51.569,167.095,50.909,166.502,50.238z"/>
		<path fill="#FFFFFF" d="M184.797,119.213c0.101-0.604,0.195-1.182,0.288-1.748c-0.046,0.143-0.095,0.3-0.145,0.45
			c-0.248,1.438-0.533,2.864-0.855,4.278C184.359,121.265,184.604,120.28,184.797,119.213z"/>
		<path fill="#FFFFFF" d="M158.904,42.496c-0.077-0.067-0.163-0.139-0.24-0.208c0.116,0.104,0.234,0.204,0.348,0.308
			C158.976,42.563,158.939,42.527,158.904,42.496z"/>
		<path fill="#FFFFFF" d="M185.436,114.665c0.018-0.018,0.035-0.036,0.052-0.055c0.321-2.283,0.454-4.291,0.613-6.169
			c0.097-1.559,0.097-3.384,0.058-5.025c0,0.004-0.002,0.01-0.003,0.015c0,0.104,0.003,0.207,0.003,0.311
			C186.158,107.443,185.911,111.091,185.436,114.665z"/>
		<path fill="#FFFFFF" d="M194.193,84.651c-0.964-2.253-2.272-3.968-3.788-5.195c-2.929-2.494-6.354-3.102-8.031-3.276
			c-0.407-1.342-0.92-2.476-1.326-3.434c-0.46-1.083-1.007-2.217-1.446-3.144c-0.431-0.931-0.761-1.651-0.865-1.877
			c-0.13-0.27-0.621-1.3-1.31-2.744c-0.33-0.732-0.769-1.534-1.233-2.399c-0.476-0.858-0.932-1.809-1.504-2.711
			c-2.101-3.731-4.897-7.379-6.078-8.723c-1.68-1.812-2.92-3.474-4.507-5.127c0.606,0.387,1.286,0.828,1.987,1.308
			c0.674,0.505,1.371,1.049,2.048,1.616c1.38,1.107,2.529,2.421,3.285,3.578c0.992,1.618,2.965,4.106,4.684,6.262
			c1.726,2.142,3.234,3.928,3.685,3.728c0.434-0.195,0.327-1.572-0.396-3.68c-0.745-2.087-2.206-4.856-4.453-7.653
			c-1.109-1.333-2.315-2.431-3.507-3.323c-1.233-0.861-2.444-1.529-3.564-2.038c-2.322-0.949-4.231-1.307-5.354-1.39
			c-0.254-0.222-0.505-0.442-0.773-0.676c-1.097-0.962-3.175-2.834-5.575-4.766c-1.216-0.947-2.461-1.969-3.742-2.846
			c-0.631-0.451-1.251-0.891-1.845-1.314c-0.611-0.394-1.197-0.772-1.742-1.124c0.638,0.295,1.323,0.611,2.036,0.94
			c0.701,0.349,1.435,0.704,2.19,1.054c1.53,0.672,3.04,1.473,4.592,2.107c1.524,0.668,2.987,1.298,4.379,1.697
			c1.357,0.432,2.594,0.684,3.642,0.6c0.139-0.356-0.462-1.284-1.602-2.471c-1.201-1.114-2.884-2.558-5.016-3.721
			c-4.194-2.422-9.826-4.037-14.317-2.59c-1.209-0.681-2.353-1.199-3.562-1.819c-1.202-0.638-2.555-1.203-4.193-1.955
			c-0.926-0.438-1.849-0.76-2.699-1.123c-0.857-0.343-1.653-0.702-2.433-0.956c0,0,0.869-0.488,1.743-0.906
			c0.887-0.427,1.771-0.853,1.771-0.853c4.954,1.625,9.57,2.502,12.832,2.886c3.285,0.316,5.172,0.063,4.355-0.844
			c-2.372-2.348-4.872-3.741-7.215-4.412c-1.16-0.365-2.301-0.519-3.382-0.543c-1.076-0.031-2.089,0.058-3.028,0.236
			c-3.812,0.822-6.369,2.993-7.575,4.259c-1.326-0.451-2.488-0.895-3.512-1.108c-1.144-0.288-2.36-0.593-3.356-0.842
			c-1-0.225-1.774-0.398-2.017-0.453c-0.296-0.051-1.388-0.402-2.96-0.705c-0.782-0.165-1.678-0.353-2.64-0.555
			c-0.966-0.173-2.007-0.322-3.062-0.49c-1.057-0.185-2.138-0.289-3.19-0.388c-1.053-0.088-2.076-0.236-3.028-0.25
			c-1.9-0.06-3.493-0.151-4.387-0.05c-1.233,0.094-2.365,0.12-3.477,0.129c-1.11,0.059-2.199,0.118-3.341,0.179
			c1.364-0.429,3.071-1.032,4.803-1.318c0.863-0.163,1.729-0.294,2.554-0.372c0.823-0.065,1.6-0.032,2.288,0.048
			c1.883,0.205,5.058,0.24,7.812,0.233c1.375,0.018,2.652-0.054,3.596-0.118c0.939-0.058,1.555-0.192,1.614-0.418
			c0.059-0.231-0.195-0.547-0.728-0.905c-0.265-0.179-0.6-0.37-0.999-0.564c-0.401-0.176-0.868-0.354-1.394-0.528
			c-2.095-0.727-5.171-1.325-8.757-1.282c-1.733,0.035-3.339,0.236-4.778,0.671c-1.441,0.418-2.72,0.886-3.814,1.51
			c-2.197,1.184-3.664,2.471-4.431,3.308c-0.33,0.057-0.661,0.113-1.011,0.173c-0.716,0.139-1.772,0.274-3.012,0.536
			c-1.242,0.255-2.698,0.467-4.192,0.848c-0.75,0.174-1.519,0.352-2.289,0.529c-0.769,0.177-1.524,0.417-2.272,0.62
			c-0.745,0.214-1.476,0.422-2.178,0.623c-0.691,0.234-1.351,0.457-1.964,0.665c0.628-0.317,1.3-0.657,2.004-1.013
			c0.708-0.329,1.443-0.679,2.191-1.049c1.482-0.771,3.045-1.473,4.514-2.271c2.947-1.537,5.615-3.14,6.803-4.836
			c-0.365-0.673-4.46-0.513-8.974,1.305c-4.513,1.772-9.288,5.172-10.955,9.584c-2.537,1.119-4.586,2.049-7.782,3.72
			c-0.917,0.458-1.745,0.973-2.559,1.412c-0.805,0.453-1.576,0.863-2.262,1.31c0,0,0.045-0.242,0.109-0.606
			c0.066-0.365,0.159-0.853,0.266-1.324c0.218-0.959,0.437-1.917,0.437-1.917c4.352-2.866,7.915-5.928,10.247-8.245
			c2.295-2.371,3.272-4.013,2.054-3.937c-3.317,0.399-5.965,1.487-7.951,2.903c-1.009,0.679-1.836,1.483-2.528,2.309
			c-0.693,0.825-1.256,1.665-1.698,2.517c-0.86,1.748-1.268,3.461-1.434,4.944c-0.162,1.486-0.055,2.786,0.052,3.634
			c-1.184,0.747-2.244,1.395-3.052,2.055c-0.922,0.734-1.953,1.455-2.747,2.102c-0.802,0.639-1.422,1.132-1.616,1.287
			c-0.234,0.185-1.163,0.85-2.392,1.877c-0.614,0.512-1.341,1.069-2.077,1.719c-0.73,0.656-1.511,1.359-2.306,2.074
			c-3.109,2.929-6.157,6.368-7.145,7.868c-0.734,1-1.399,1.912-2.055,2.809c-0.654,0.9-1.353,1.742-1.96,2.711
			c0.446-1.381,1.179-2.993,1.946-4.589c0.846-1.536,1.773-3.027,2.778-3.986c0.691-0.649,1.518-1.608,2.386-2.674
			c0.907-1.03,1.824-2.199,2.673-3.283c0.873-1.06,1.641-2.074,2.159-2.873c0.528-0.783,0.821-1.333,0.678-1.524
			c-0.284-0.379-1.649-0.02-3.505,1.193c-0.94,0.592-2.019,1.376-3.107,2.404c-0.552,0.506-1.12,1.058-1.696,1.652
			c-0.557,0.614-1.109,1.281-1.665,1.982c-2.151,2.727-3.208,5.646-3.659,8.084c-0.25,1.208-0.321,2.322-0.315,3.267
			c-0.001,0.94,0.063,1.707,0.132,2.255c-0.166,0.291-0.354,0.571-0.505,0.892c-0.327,0.654-0.833,1.589-1.448,2.697
			c-0.621,1.104-1.244,2.438-1.955,3.803c-0.669,1.389-1.32,2.864-1.95,4.282c-0.563,1.444-1.145,2.818-1.572,4.043
			c0.295-1.38,0.677-2.928,0.996-4.568c0.408-1.601,0.717-3.315,1.057-4.938c0.617-3.272,1.079-6.325,0.439-8.344
			c-0.729-0.118-3.137,3.194-4.564,7.836c-1.469,4.62-1.674,10.516,0.677,14.547c-0.698,2.682-1.269,4.861-1.931,8.405
			c-0.172,1.009-0.375,1.964-0.516,2.877c-0.13,0.915-0.251,1.777-0.365,2.586c0,0-0.634-0.747-1.266-1.494
			c-0.63-0.77-1.256-1.54-1.256-1.54c0.48-5.192,0.352-9.872-0.057-13.156c-0.364-3.253-1.109-5.064-1.779-4.055
			c-0.879,1.419-1.55,2.809-1.955,4.166c-0.418,1.352-0.709,2.631-0.742,3.859c-0.057,1.223,0.022,2.362,0.212,3.415
			c0.217,1.057,0.558,2.028,0.951,2.906c0.399,0.878,0.854,1.662,1.36,2.361c0.522,0.701,1.07,1.311,1.607,1.84
			c1.079,1.056,2.123,1.778,2.853,2.224c-0.191,1.388-0.238,2.629-0.286,3.669c-0.062,1.174-0.042,2.434-0.059,3.457
			c-0.018,1.024-0.031,1.817-0.037,2.064c0.026,0.598-0.108,4.563,0.215,8.831c0.327,4.262,1.161,8.782,1.691,10.495
			c0.327,1.198,0.624,2.288,0.917,3.36c0.286,1.074,0.524,2.144,0.9,3.224c-0.81-1.207-1.608-2.787-2.372-4.385
			c-0.707-1.613-1.236-3.282-1.399-4.655c-0.073-0.949-0.29-2.197-0.587-3.541c-0.276-1.346-0.554-2.801-0.897-4.139
			c-0.583-2.683-1.221-4.943-1.682-4.959c-0.497-0.014-0.979,1.271-1.243,3.48c-0.155,1.106-0.146,2.433-0.058,3.928
			c0.06,1.501,0.339,3.152,0.739,4.9c0.8,3.386,2.415,6.035,4.041,7.907c0.782,0.949,1.628,1.695,2.362,2.283
			c0.734,0.588,1.372,1.016,1.843,1.301c0.12,0.315,0.233,0.632,0.387,0.951c0.308,0.664,0.724,1.644,1.205,2.815
			c0.486,1.17,1.136,2.491,1.762,3.898c0.677,1.384,1.415,2.817,2.14,4.188c0.781,1.34,1.486,2.654,2.186,3.749
			c-0.906-1.084-1.866-2.357-2.958-3.622c-1.001-1.315-2.144-2.627-3.207-3.899c-2.175-2.522-4.279-4.784-6.256-5.541
			c-0.546,0.496,0.544,4.447,3.292,8.454c2.696,4.025,7.178,7.854,11.801,8.522c0.838,1.103,1.556,2.132,2.424,3.18
			c0.845,1.064,1.736,2.224,2.939,3.57c1.311,1.572,2.604,2.899,3.709,4.105c0,0-0.974,0.022-1.949,0.047
			c-0.99,0.009-1.981,0.014-1.981,0.014c-3.754-3.611-7.505-6.413-10.315-8.146c-2.781-1.735-4.647-2.286-4.28-1.132
			c0.282,0.786,0.59,1.525,0.921,2.219c0.34,0.687,0.728,1.312,1.117,1.902c0.782,1.178,1.623,2.185,2.556,2.979
			c0.919,0.804,1.841,1.467,2.797,1.959c0.965,0.485,1.927,0.833,2.855,1.073c1.841,0.498,3.652,0.468,5.133,0.3
			c1.496-0.181,2.702-0.537,3.51-0.833c1.002,0.978,1.899,1.834,2.684,2.517c1.828,1.484,3.867,3.217,4.28,3.496
			c0.239,0.179,1.098,0.932,2.348,1.928c1.278,0.964,2.896,2.243,4.685,3.414c0.88,0.608,1.785,1.212,2.701,1.744
			c0.909,0.54,1.779,1.095,2.617,1.545c1.689,0.878,3.084,1.65,3.934,1.949c1.153,0.447,2.18,0.93,3.195,1.388
			c1.025,0.431,2.032,0.854,3.086,1.296c-2.843-0.346-7.098-1.14-9.409-2.712c-0.799-0.516-1.928-1.084-3.137-1.74
			c-1.221-0.631-2.57-1.255-3.796-1.878c-2.5-1.157-4.608-2.152-4.924-1.781c-0.301,0.353,0.356,1.6,1.935,3.165
			c0.801,0.76,1.804,1.641,3.032,2.501c1.254,0.815,2.659,1.731,4.299,2.464c1.582,0.721,3.115,1.241,4.604,1.475
			c1.478,0.26,2.842,0.376,4.098,0.292c1.246-0.058,2.34-0.215,3.25-0.401c0.922-0.217,1.658-0.464,2.179-0.659
			c0.323,0.093,0.645,0.187,0.984,0.288c0.352,0.102,0.782,0.227,1.277,0.369c0.499,0.133,1.063,0.281,1.676,0.441
			c0.611,0.167,1.271,0.347,1.965,0.536c0.693,0.188,1.433,0.334,2.182,0.512c0.751,0.171,1.521,0.346,2.291,0.521
			c0.777,0.14,1.555,0.28,2.318,0.418c1.521,0.306,3.003,0.468,4.29,0.633c-1.41,0.012-3.014,0.061-4.67,0.043
			c-0.826,0.018-1.671,0.031-2.531,0.05c-0.842-0.004-1.688,0.011-2.522,0.044c-1.674,0.099-3.261,0.142-4.682,0.372
			c-1.424,0.24-2.643,0.534-3.546,1.053c0.033,0.363,0.955,1.017,2.524,1.515c0.78,0.261,1.707,0.52,2.741,0.747
			c1.036,0.218,2.193,0.341,3.396,0.442c4.838,0.35,10.609-0.671,14.019-3.905c2.769,0.077,5.016,0.149,8.619,0.021
			c1.025-0.006,1.994-0.107,2.916-0.155c0.921-0.068,1.793-0.093,2.606-0.183c0,0-0.146,0.2-0.363,0.498
			c-0.224,0.288-0.52,0.674-0.816,1.059c-0.615,0.77-1.226,1.541-1.226,1.541c-5.164,0.684-9.692,1.893-12.793,2.975
			c-3.092,1.132-4.683,2.221-3.553,2.667c1.578,0.543,3.085,0.817,4.489,0.972c1.407,0.142,2.717,0.029,3.917-0.151
			c1.199-0.171,2.292-0.533,3.272-0.98c0.98-0.44,1.854-0.961,2.619-1.526c3.07-2.402,4.438-5.445,4.978-7.113
			c1.391-0.17,2.627-0.296,3.646-0.514c1.149-0.26,2.381-0.507,3.388-0.7c1.001-0.23,1.774-0.41,2.016-0.465
			c0.582-0.127,4.495-0.85,8.568-2.169c0.51-0.159,1.025-0.319,1.539-0.479c0.507-0.183,1.009-0.366,1.508-0.547
			c0.989-0.377,1.969-0.705,2.839-1.087c1.74-0.772,3.212-1.387,3.975-1.865c1.068-0.625,2.088-1.122,3.073-1.636
			c0.978-0.533,1.937-1.056,2.938-1.604c-2.041,2.006-5.312,4.84-7.979,5.672c-0.902,0.3-2.05,0.838-3.314,1.372
			c-1.257,0.559-2.583,1.233-3.835,1.801c-2.467,1.229-4.557,2.27-4.464,2.74c0.088,0.451,1.477,0.733,3.682,0.456
			c1.096-0.152,2.414-0.381,3.849-0.813c1.416-0.474,3.016-0.996,4.607-1.829c1.55-0.785,2.909-1.67,4.02-2.687
			c1.126-0.989,2.062-1.995,2.78-3.024c0.729-1.011,1.29-1.96,1.706-2.793c0.402-0.858,0.671-1.585,0.841-2.115
			c0.273-0.193,0.549-0.385,0.84-0.59c0.599-0.415,1.454-1.047,2.472-1.802c0.513-0.374,1.064-0.775,1.647-1.198
			c0.563-0.444,1.153-0.911,1.757-1.39c2.438-1.887,4.929-4.156,6.785-5.966c-1.749,2.208-3.953,5.034-5.967,7.673
			c-0.972,1.361-1.91,2.649-2.625,3.89c-0.703,1.257-1.219,2.41-1.382,3.432c0.31,0.208,1.382-0.123,2.752-1.031
			c0.691-0.443,1.472-1.006,2.295-1.671c0.799-0.692,1.634-1.499,2.461-2.377c0.844-0.856,1.593-1.897,2.331-2.934
			c0.74-1.036,1.367-2.179,1.896-3.341c1.092-2.29,1.612-4.813,1.479-7.103c0.89-1.064,1.693-2.026,2.563-3.069
			c0.819-1.083,1.764-2.206,2.823-3.664c0.599-0.829,1.168-1.619,1.708-2.369c0.536-0.752,1-1.492,1.454-2.17
			c0,0,0.247,0.949,0.496,1.901c0.117,0.484,0.236,0.967,0.324,1.329c0.078,0.359,0.129,0.6,0.129,0.6
			c-2.659,4.49-4.629,8.718-5.668,11.859c-1.092,3.079-1.166,5.067-0.144,4.432c1.38-0.918,2.595-1.871,3.562-2.898
			c0.963-1.037,1.735-2.096,2.347-3.144c1.139-2.171,1.68-4.248,1.689-6.2c0.112-3.85-1.53-6.894-2.447-8.319
			c0.792-1.157,1.371-2.256,1.86-3.177c0.559-1.037,1.113-2.165,1.562-3.087c0.462-0.917,0.817-1.624,0.93-1.846
			c0.238-0.546,2.088-4.066,3.631-8.059c1.598-3.974,2.729-8.43,3.027-10.193c0.241-1.212,0.386-2.338,0.619-3.427
			c0.11-0.545,0.222-1.085,0.332-1.629c0.081-0.549,0.163-1.102,0.247-1.666c0.374,2.857,0.421,7.157-0.508,9.781
			c-0.66,1.782-1.368,4.881-1.985,7.566c-0.609,2.684-1.056,4.982-0.626,5.206c0.426,0.222,1.436-0.723,2.633-2.602
			c1.169-1.884,2.435-4.75,3.21-8.261c0.379-1.692,0.442-3.329,0.418-4.816c-0.082-1.497-0.341-2.866-0.643-4.061
			c-0.655-2.399-1.659-4.126-2.24-5.051c0.04-0.335,0.038-0.67,0.049-1.023c0.013-0.73,0.064-1.793,0.144-3.057
			c0.056-1.265,0.056-2.734,0.099-4.273c0-1.539-0.063-3.15-0.095-4.699c-0.116-1.546-0.231-3.031-0.332-4.324
			c0.299,1.373,0.667,2.931,1.071,4.547c0.329,1.618,0.797,3.294,1.195,4.902c0.386,1.605,0.921,3.146,1.403,4.475
			c0.503,1.328,1.104,2.453,1.825,3.219c0.365-0.113,0.703-1.161,0.902-2.793c0.114-0.817,0.143-1.778,0.101-2.835
			c-0.043-1.056-0.097-2.207-0.295-3.4c-0.689-4.786-3.057-10.183-6.903-12.803c-0.293-1.356-0.496-2.595-0.798-3.921
			c-0.335-1.318-0.596-2.762-1.099-4.494c-0.272-0.987-0.532-1.927-0.78-2.817c-0.282-0.879-0.546-1.711-0.797-2.49
			c0,0,0.898,0.399,1.795,0.799c0.9,0.41,1.8,0.846,1.8,0.846c1.839,4.886,3.917,9.063,5.745,11.836
			c1.701,2.78,3.197,4.083,3.35,2.886C195.604,89.726,195.092,86.91,194.193,84.651z M186.155,103.43
			c0-0.005,0.003-0.01,0.003-0.015c0.039,1.641,0.039,3.468-0.058,5.024c-0.159,1.88-0.292,3.887-0.613,6.171
			c-0.017,0.017-0.034,0.035-0.052,0.053c-0.145,1.092-0.31,2.174-0.495,3.252c0.05-0.15,0.099-0.31,0.145-0.45
			c-0.093,0.564-0.188,1.145-0.288,1.746c-0.192,1.069-0.438,2.054-0.712,2.98c-8.375,36.629-41.138,63.954-80.283,63.954
			c-45.483,0-82.355-36.895-82.355-82.404c0-45.512,36.872-82.407,82.355-82.407c21.075,0,40.297,7.924,54.862,20.954
			c0.078,0.068,0.163,0.141,0.24,0.208c0.035,0.032,0.071,0.069,0.107,0.102c1.07,0.967,2.111,1.961,3.131,2.983
			c0.014,0.012,0.025,0.024,0.037,0.037c0.046,0.047,0.094,0.096,0.14,0.144c1.071,1.083,2.112,2.198,3.123,3.338
			c-0.038-0.058-0.083-0.122-0.119-0.181c0.381,0.428,0.772,0.866,1.179,1.323c0.591,0.669,1.101,1.33,1.577,1.987
			C179.329,66.262,186.084,84.056,186.155,103.43z"/>
	</g>
</g>
</svg>
