<?xml version="1.0" encoding="utf-8"?>
<!-- Generator: Adobe Illustrator 16.0.3, SVG Export Plug-In . SVG Version: 6.00 Build 0)  -->
<!DOCTYPE svg PUBLIC "-//W3C//DTD SVG 1.1//EN" "http://www.w3.org/Graphics/SVG/1.1/DTD/svg11.dtd">
<svg version="1.1" id="Layer_1" xmlns="http://www.w3.org/2000/svg" xmlns:xlink="http://www.w3.org/1999/xlink" x="0px" y="0px"
	 width="200px" height="200px" viewBox="197.638 320.945 200 200" enable-background="new 197.638 320.945 200 200"
	 xml:space="preserve">
<g>
	<path fill="#A62126" d="M297.473,320.945c55.007,0,99.856,44.846,99.856,99.851c0,55-44.85,99.857-99.856,99.857
		c-54.983,0-99.835-44.857-99.835-99.857C197.639,365.791,242.49,320.945,297.473,320.945L297.473,320.945z"/>
	<path fill="#FFFFFF" d="M297.473,323.894c53.378,0,96.907,43.524,96.907,96.899c0,53.369-43.531,96.896-96.907,96.896
		c-53.345,0-96.872-43.527-96.872-96.896C200.603,367.418,244.129,323.894,297.473,323.894L297.473,323.894z"/>
	<path fill="#A62126" d="M297.473,328.236c51.002,0,92.564,41.574,92.564,92.557c0,50.981-41.563,92.555-92.564,92.555
		c-50.959,0-92.546-41.573-92.546-92.555C204.928,369.81,246.515,328.236,297.473,328.236L297.473,328.236z"/>
	<path fill="#FFFFFF" d="M297.473,365.326c30.557,0,55.479,24.907,55.479,55.468c0,30.541-24.925,55.465-55.479,55.465
		c-30.556,0-55.465-24.924-55.465-55.465C242.007,390.233,266.917,365.326,297.473,365.326L297.473,365.326z"/>
	<path fill="#FFFFFF" d="M223.475,414.567c10.019,0,18.183,4.191,18.183,9.329c0,5.147-8.164,9.347-18.183,9.347
		c-10.034,0-18.188-4.199-18.188-9.347C205.287,418.756,213.442,414.567,223.475,414.567L223.475,414.567z"/>
	<path fill="#FFFFFF" d="M223.475,415.709c9.181,0,16.681,3.68,16.681,8.187c0,4.526-7.5,8.218-16.681,8.218
		c-9.189,0-16.677-3.691-16.677-8.218C206.798,419.389,214.286,415.709,223.475,415.709L223.475,415.709z"/>
	<path fill="#A62126" d="M210.817,423.238c-5.722,0.688-1.942,4.411-1.942,4.411c2.34,2.258,6.324,3.076,6.324,3.076
		c5.73,0.984,8.365-1.165,8.913-1.559c1.644-1.211,0.078-3.175,0.078-3.175c-2.15-2.263-5.494-1.925-5.494-1.925
		c-3.063,0.058-4.699-0.296-5.114-0.407c-1.373-0.277-0.142-1.112-0.142-1.112c7.946-3.157,15.952-1.023,15.952-1.023
		c4.862,1.306,6.041,1.898,7.835,3.217c1.762,1.313,0.604,3.054-0.094,3.853c-2.995,2.135-8.04,3.568-13.729,3.568
		c-9.163,0-16.637-3.695-16.637-8.22s7.474-8.22,16.637-8.22c9.192,0,16.665,3.695,16.665,8.22c0,1.012-0.366,1.996-1.078,2.896
		c0.602-1.757-0.788-2.853-0.788-2.853c-3.435-3.006-11.899-4.086-11.899-4.086C214.405,418.883,210.269,422.913,210.817,423.238
		L210.817,423.238z"/>
	<path fill="#A62126" d="M210.817,423.458c-4.048,0.989-1.365,3.36-0.295,4.09c3.418,2.335,8.194,2.021,8.306,2.021
		c3.613-0.319,4.38-1.556,4.38-1.556c0.645-0.841-0.122-1.772-0.122-1.772c-0.777-0.939-2.569-1.39-3.299-1.358
		c-2.142,0.068-4.391,0.013-4.391,0.013C211.027,424.587,210.817,423.458,210.817,423.458L210.817,423.458z"/>
	<path fill="#FFFFFF" d="M371.453,414.567c10.014,0,18.189,4.191,18.189,9.329c0,5.147-8.176,9.347-18.189,9.347
		c-10.021,0-18.188-4.199-18.188-9.347C353.265,418.756,361.433,414.567,371.453,414.567L371.453,414.567z"/>
	<path fill="#FFFFFF" d="M371.453,415.709c9.2,0,16.677,3.68,16.677,8.187c0,4.526-7.477,8.218-16.677,8.218
		c-9.189,0-16.678-3.691-16.678-8.218C354.775,419.389,362.264,415.709,371.453,415.709L371.453,415.709z"/>
	<path fill="#A62126" d="M358.792,423.238c-5.691,0.688-1.939,4.411-1.939,4.411c2.362,2.258,6.324,3.076,6.324,3.076
		c5.731,0.984,8.372-1.165,8.935-1.559c1.629-1.211,0.083-3.175,0.083-3.175c-2.148-2.263-5.52-1.925-5.52-1.925
		c-3.063,0.058-4.68-0.296-5.101-0.407c-1.364-0.277-0.142-1.112-0.142-1.112c7.938-3.157,15.948-1.023,15.948-1.023
		c4.876,1.306,6.054,1.898,7.82,3.217c1.787,1.313,0.637,3.054-0.078,3.853c-3.021,2.135-8.041,3.568-13.719,3.568
		c-9.169,0-16.659-3.695-16.659-8.22s7.49-8.22,16.659-8.22c9.178,0,16.653,3.695,16.653,8.22c0,1.012-0.378,1.996-1.069,2.896
		c0.591-1.757-0.802-2.853-0.802-2.853c-3.423-3.006-11.911-4.086-11.911-4.086C362.404,418.883,358.245,422.913,358.792,423.238
		L358.792,423.238z"/>
	<path fill="#A62126" d="M358.792,423.458c-4.045,0.989-1.347,3.36-0.297,4.09c3.418,2.335,8.218,2.021,8.306,2.021
		c3.639-0.319,4.397-1.556,4.397-1.556c0.663-0.841-0.114-1.772-0.114-1.772c-0.783-0.939-2.584-1.39-3.297-1.358
		c-2.15,0.068-4.403,0.013-4.403,0.013C359.032,424.587,358.792,423.458,358.792,423.458L358.792,423.458z"/>
	<path fill="#FFFFFF" d="M211.771,403.089l5.156-15.016c0.877-2.502,2.162-4.202,3.85-5.117c1.706-0.916,3.469-1.065,5.296-0.419
		c1.522,0.518,2.678,1.459,3.457,2.78c0.51,0.886,0.773,2.037,0.773,3.401c1.086-1.715,2.342-2.81,3.712-3.318
		c1.406-0.505,2.938-0.476,4.581,0.099c1.341,0.479,2.445,1.183,3.313,2.191c0.855,0.998,1.406,2.134,1.652,3.445
		c0.176,0.802,0.098,1.906-0.19,3.328c-0.394,1.898-0.681,3.122-0.883,3.723l-4.78,13.836L211.771,403.089L211.771,403.089z
		 M224.744,398.509l1.175-3.483c0.452-1.249,0.536-2.193,0.274-2.84c-0.274-0.647-0.813-1.094-1.615-1.377
		c-0.768-0.268-1.44-0.223-2.024,0.112c-0.606,0.351-1.101,1.14-1.524,2.346l-1.218,3.544L224.744,398.509L224.744,398.509z
		 M234.932,402.022l1.415-4.087c0.469-1.393,0.55-2.46,0.255-3.19c-0.289-0.729-0.862-1.225-1.67-1.519
		c-0.76-0.265-1.496-0.207-2.141,0.195c-0.671,0.407-1.245,1.307-1.706,2.714l-1.406,4.06L234.932,402.022L234.932,402.022z
		 M256.974,371.495l-7.044,6.59l2.103,4.225l-6.347,5.885l-11.182-27.098l6.77-6.308l26.273,13.037l-6.507,6.057L256.974,371.495
		L256.974,371.495z M251.622,368.375l-8.944-5.158l4.525,9.261L251.622,368.375L251.622,368.375z M268.742,367.165l-7.096-26.521
		l13.643-3.655c2.532-0.676,4.514-0.985,5.982-0.897c1.45,0.068,2.74,0.588,3.891,1.543c1.131,0.955,1.928,2.28,2.367,3.962
		c0.406,1.477,0.432,2.825,0.071,4.06c-0.313,1.235-0.97,2.333-1.881,3.287c-0.588,0.619-1.454,1.208-2.602,1.813
		c1.069,0.069,1.865,0.21,2.403,0.421c0.352,0.126,0.93,0.477,1.682,1.023c0.772,0.576,1.306,0.998,1.604,1.35l6.007,6.616
		l-9.25,2.488l-6.546-6.942c-0.846-0.884-1.519-1.444-2.031-1.643c-0.708-0.253-1.429-0.269-2.18-0.056l-0.734,0.183l2.889,10.759
		L268.742,367.165L268.742,367.165z M272.738,349.183l3.449-0.926c0.37-0.102,1.084-0.405,2.066-0.942
		c0.533-0.252,0.897-0.644,1.127-1.18c0.226-0.544,0.253-1.096,0.085-1.685c-0.216-0.843-0.666-1.434-1.34-1.759
		c-0.659-0.309-1.736-0.25-3.23,0.13l-3.602,0.979L272.738,349.183L272.738,349.183z M298.133,333.855l8.47,0.59l-1.907,27.381
		l-8.473-0.589L298.133,333.855L298.133,333.855z M310.972,352.639l7.717,2.401c-0.305,1.292-0.335,2.362-0.08,3.192
		c0.412,1.348,1.384,2.301,2.906,2.89c1.14,0.441,2.094,0.511,2.923,0.213c0.8-0.297,1.343-0.801,1.627-1.489
		c0.242-0.661,0.182-1.364-0.187-2.139c-0.406-0.741-1.555-1.741-3.498-3.032c-3.173-2.104-5.258-4.088-6.246-5.958
		c-0.989-1.869-1.104-3.792-0.322-5.801c0.488-1.321,1.348-2.417,2.572-3.289c1.218-0.885,2.708-1.364,4.507-1.444
		c1.779-0.084,4.005,0.391,6.665,1.403c3.29,1.265,5.56,2.825,6.81,4.72c1.248,1.868,1.519,4.186,0.829,6.981l-7.639-2.429
		c0.263-1.222,0.156-2.235-0.271-3.005c-0.438-0.745-1.226-1.35-2.333-1.785c-0.928-0.352-1.677-0.438-2.305-0.228
		c-0.61,0.228-1.021,0.606-1.252,1.165c-0.152,0.409-0.102,0.847,0.15,1.325c0.255,0.478,1.002,1.137,2.304,1.965
		c3.182,2.066,5.365,3.782,6.567,5.113c1.206,1.336,1.938,2.713,2.173,4.106c0.251,1.376,0.127,2.78-0.42,4.186
		c-0.634,1.644-1.671,2.977-3.113,4.02c-1.435,1.036-3.107,1.598-5.019,1.686c-1.919,0.097-4.101-0.341-6.581-1.282
		c-4.347-1.682-7.065-3.68-8.071-5.999C310.318,357.792,310.2,355.31,310.972,352.639L310.972,352.639z M351.484,351.781
		l17.901,18.561l-4.889,4.692l-6.002-6.211l-14.882,14.359l-5.872-6.11l14.864-14.345l-6.016-6.223L351.484,351.781L351.484,351.781
		z M359.173,403.667l-3.315-9.077l-4.714,0.295l-2.967-8.131l29.315,0.29l3.172,8.688l-22.267,19.089l-3.018-8.344L359.173,403.667
		L359.173,403.667z M364.146,399.972l8.229-6.226l-10.309,0.534L364.146,399.972L364.146,399.972z"/>
	<path fill="#FFFFFF" d="M230.982,459.428l1.134,7.852c-2.149,0.442-4.096,0.464-5.874,0.07c-1.762-0.376-3.319-1.164-4.651-2.346
		c-1.354-1.164-2.558-2.881-3.618-5.155c-1.289-2.785-1.942-5.223-1.947-7.335c-0.021-2.136,0.694-4.326,2.108-6.533
		c1.437-2.219,3.73-4.059,6.894-5.534c4.212-1.966,7.987-2.348,11.281-1.167c3.3,1.18,5.915,3.81,7.823,7.91
		c1.504,3.207,2.021,6.04,1.583,8.474c-0.436,2.439-1.798,4.734-4.067,6.867l-4.792-6.212c0.673-0.615,1.116-1.135,1.356-1.571
		c0.385-0.719,0.61-1.472,0.632-2.246c0.02-0.799-0.141-1.589-0.514-2.372c-0.82-1.789-2.176-2.812-4.06-3.095
		c-1.408-0.226-3.238,0.196-5.519,1.265c-2.833,1.319-4.546,2.656-5.202,3.992c-0.646,1.346-0.625,2.793,0.1,4.354
		c0.71,1.491,1.672,2.433,2.875,2.813C227.72,459.835,229.199,459.821,230.982,459.428L230.982,459.428z M240.973,471.525
		c2.637-3.75,5.726-5.959,9.279-6.575c3.561-0.633,7.211,0.362,10.945,2.978c3.814,2.697,6.041,5.774,6.681,9.271
		c0.631,3.513-0.346,7.126-2.921,10.805c-1.889,2.699-3.893,4.594-6.008,5.688c-2.115,1.07-4.349,1.502-6.741,1.269
		c-2.371-0.24-4.829-1.269-7.389-3.052c-2.596-1.813-4.451-3.738-5.579-5.747c-1.109-2.021-1.572-4.299-1.396-6.825
		C238.058,476.821,239.074,474.191,240.973,471.525L240.973,471.525z M248.06,476.527c-1.625,2.33-2.36,4.283-2.198,5.914
		c0.147,1.613,0.954,2.951,2.439,3.991c1.535,1.064,3.068,1.39,4.588,0.981c1.534-0.406,3.211-1.883,5.02-4.454
		c1.508-2.176,2.178-4.061,1.998-5.673c-0.173-1.6-1.009-2.938-2.504-3.976c-1.429-1.021-2.93-1.323-4.514-0.916
		C251.311,472.819,249.704,474.181,248.06,476.527L248.06,476.527z M276.686,478.367l21.126,3.72l-1.057,5.958l-12.53-2.221
		l-0.855,4.836l10.7,1.896l-0.978,5.563l-10.706-1.882l-2,11.312l-8.57-1.52L276.686,478.367L276.686,478.367z M303.078,481.038
		l20.902-4.818l1.364,5.867l-12.402,2.872l1.101,4.777l10.591-2.46l1.28,5.535l-10.6,2.444l2.591,11.183l-8.502,1.954
		L303.078,481.038L303.078,481.038z M326.735,475.009l17.549-15.275l3.933,4.54l-10.98,9.539l2.939,3.372l10.194-8.851l3.756,4.316
		l-10.2,8.859l3.632,4.177l11.307-9.836l4.185,4.806l-17.879,15.521L326.735,475.009L326.735,475.009z M347.575,455.763
		l9.811-21.062l5.44,2.53l-6.144,13.178l4.064,1.882l5.688-12.223l5.187,2.404l-5.689,12.249l4.998,2.334l6.339-13.57l5.761,2.681
		l-10.002,21.468L347.575,455.763L347.575,455.763z"/>
	<path fill="#231815" d="M244.457,420.79c0-29.286,23.738-53.028,53.027-53.028l0,0c29.288,0,53.025,23.741,53.025,53.028l0,0
		c0,29.288-23.737,53.029-53.025,53.029l0,0C268.194,473.819,244.457,450.078,244.457,420.79L244.457,420.79z"/>
	<path fill="#FFFFFF" d="M259.984,433.922l6.192,18.181h10.469l6.664-18.181H259.984L259.984,433.922z M284.462,430.788
		l6.689-18.246h-31.167l6.192,18.246H284.462z M292.277,409.461l6.669-18.179h-38.962l6.192,18.179H292.277z M301.736,391.282
		l-22.297,60.824h16.551l22.302-60.824H301.736L301.736,391.282z M340.464,416.833c0,0-4.846-15.967-6.004-20.381
		c-1.33-5.085-8.001-5.171-8.001-5.171h-5.379l-22.295,60.81l30.14,0.015c6.286,0,5.701-6.225,5.701-6.225
		s-1.079-17.422-1.079-19.009c0-3.957,3.163-4.499,3.163-4.499C342.337,421.079,340.464,416.833,340.464,416.833z M327.332,433.922
		h-13.518l1.132-3.08h12.386c0.85,0,1.539,0.687,1.539,1.543C328.871,433.232,328.182,433.922,327.332,433.922z M327.332,412.542
		h-5.679l1.132-3.083h4.547c0.85,0,1.539,0.692,1.539,1.546C328.871,411.849,328.182,412.542,327.332,412.542z"/>
</g>
</svg>
