<?xml version="1.0" encoding="UTF-8"?>
<svg width="300px" height="300px" viewBox="0 0 300 300" version="1.1" xmlns="http://www.w3.org/2000/svg" xmlns:xlink="http://www.w3.org/1999/xlink">
    <title>awarded</title>
    <g id="awarded" stroke="none" stroke-width="1" fill="none" fill-rule="evenodd">
        <circle id="Oval" fill="#F48024" cx="150" cy="150" r="150"></circle>
        <g id="medal" transform="translate(80.000000, 50.000000)" fill="#FFFFFF" fill-rule="nonzero">
            <path d="M70.3125,39.484375 C51.4667969,39.484375 36.1324219,54.81875 36.1324219,73.6644531 C36.1324219,92.5101563 51.4667969,107.844531 70.3125,107.844531 C89.1582031,107.844531 104.492578,92.5101562 104.492578,73.6644531 C104.492578,54.81875 89.1582031,39.484375 70.3125,39.484375 Z" id="Path"></path>
            <polygon id="Path" points="62.6335937 156.187891 62.45 156.019922 58.0949219 152.078906 47.8460937 142.80625 36.7023437 144.005469 29.8828125 144.735938 28.2660156 144.911719 23.059375 145.470313 6.6625 180.314453 32.0546875 180.650391 48.4902344 200 67.1761719 160.296875"></polygon>
            <polygon id="Path" points="117.565625 145.470313 112.358984 144.911719 110.742188 144.739844 103.922656 144.005469 92.7789063 142.80625 82.5300781 152.078906 78.175 156.019922 77.9914063 156.187891 73.4488281 160.296875 92.1347656 200 108.570312 180.650391 133.9625 180.314453"></polygon>
            <path d="M130.173828,73.6648438 L140.372656,50.9015625 L118.741406,38.4804688 L113.612891,14.06875 L88.8105469,16.7324219 L70.3125,0 L51.8144531,16.7328125 L27.0121094,14.0691406 L21.8835938,38.4804688 L0.252734375,50.9011719 L10.4507813,73.6644531 L0.252734375,96.4277344 L21.8835938,108.848438 L27.0121094,133.260156 L28.9027344,133.057031 L35.7261719,132.322656 L42.5457031,131.592188 L44.3738281,131.396875 L44.3777344,131.396875 L51.8144531,130.596094 L57.4078125,135.654297 L63.3097656,140.99375 L65.1496094,142.657813 L67.8523438,145.102734 L70.3128906,147.328906 L72.7734375,145.102734 L75.4761719,142.657813 L77.3160156,140.99375 L81.9054687,136.845703 L81.909375,136.841797 L88.8109375,130.596484 L100.864453,131.889453 L100.868359,131.889453 L102.094922,132.022266 L104.899219,132.323047 L104.903125,132.323047 L111.722656,133.057422 L113.613281,133.260547 L118.741797,108.848828 L140.372656,96.428125 L130.173828,73.6648438 Z M70.3125,119.5625 C45.00625,119.5625 24.4144531,98.9746094 24.4144531,73.6644531 C24.4144531,48.3582031 45.00625,27.7664063 70.3125,27.7664063 C95.61875,27.7664063 116.210547,48.3582031 116.210547,73.6644531 C116.210547,98.9746094 95.61875,119.5625 70.3125,119.5625 Z" id="Shape"></path>
        </g>
    </g>
</svg>