<?xml version="1.0" encoding="UTF-8"?>
<svg width="300px" height="300px" viewBox="0 0 300 300" version="1.1" xmlns="http://www.w3.org/2000/svg" xmlns:xlink="http://www.w3.org/1999/xlink">
    <title>facebook</title>
    <g id="facebook" stroke="none" stroke-width="1" fill="none" fill-rule="evenodd">
        <path d="M278.3638,-1.66533454e-14 L21.6361998,-1.66533454e-14 C9.6862793,-1.66533454e-14 1.66533454e-14,9.6862793 1.66533454e-14,21.6361998 L1.66533454e-14,278.3638 C1.66533454e-14,290.313721 9.6862793,300 21.6361998,300 L160.253906,300 L160.253906,183.984375 L121.289062,183.984375 L121.289062,138.574219 L160.253906,138.574219 L160.253906,105.155182 C160.253906,66.4009096 183.913421,45.3071596 218.483734,45.3071596 C235.041046,45.3071596 249.27063,46.5408328 253.417969,47.0924379 L253.417969,87.5976562 L229.579925,87.5976562 C210.770416,87.5976562 207.128906,96.5354918 207.128906,109.65271 L207.128906,138.574219 L252.099609,138.574219 L246.240234,183.984375 L207.128906,183.984375 L207.128906,300 L278.3638,300 C290.313721,300 300,290.313721 300,278.3638 L300,21.6361998 C300,9.6862793 290.313721,-1.66533454e-14 278.3638,-1.66533454e-14 Z" id="Path" fill="#FFFFFF" fill-rule="nonzero"></path>
    </g>
</svg>