<?xml version="1.0" encoding="UTF-8"?>
<svg width="300px" height="300px" viewBox="0 0 300 300" version="1.1" xmlns="http://www.w3.org/2000/svg" xmlns:xlink="http://www.w3.org/1999/xlink">
    <title>line_d</title>
    <g id="line_d" stroke="none" stroke-width="1" fill="none" fill-rule="evenodd">
        <g id="line" fill="#052049" fill-rule="nonzero">
            <path d="M275.823026,0 C289.07786,-3.7752846e-14 299.823026,10.745166 299.823026,24 L299.823026,275.823026 C299.823026,289.07786 289.07786,299.823026 275.823026,299.823026 L24,299.823026 C10.745166,299.823026 1.623249e-15,289.07786 0,275.823026 L0,24 C-1.623249e-15,10.745166 10.745166,2.4348735e-15 24,0 L275.823026,0 Z M149.880263,46.0828947 C89.2763158,46.0828947 40.1480263,85.1598684 40.1480263,133.363816 C40.1480263,177.670395 81.6532895,214.265132 135.425,219.894079 C138.7125,220.238158 141.082895,223.205921 140.718421,226.490789 L138.428947,247.097368 C137.909211,251.775 142.746053,255.178289 146.984868,253.132237 C192.415132,231.207237 219.580921,208.651316 235.803289,189.109868 C238.755263,185.553947 248.380921,172.067763 250.343421,168.525658 C254.509211,161.005921 257.380921,152.930921 258.731579,144.476974 C259.235526,141.822368 259.484868,139.588816 259.599342,137.836842 C259.788816,134.945395 259.573026,130.652632 259.496053,129.308553 C256.832895,82.9875 208.775,46.0828947 149.880263,46.0828947 Z" id="Combined-Shape"></path>
            <path d="M83.9282895,108.667105 L84.148694,108.671353 C87.146539,108.787112 89.5414474,111.254073 89.5414474,114.280263 L89.5414474,114.280263 L89.5414474,151.044737 L106.380263,151.044737 C109.480263,151.044737 111.993421,153.557895 111.993421,156.657895 L111.993421,156.657895 L111.989173,156.878299 C111.873414,159.876144 109.406454,162.271053 106.380263,162.271053 L106.380263,162.271053 L83.9282895,162.271053 C80.8282895,162.271053 78.3151316,159.757895 78.3151316,156.657895 L78.3151316,156.657895 L78.3151316,114.280263 C78.3151316,111.180263 80.8282895,108.667105 83.9282895,108.667105 L83.9282895,108.667105 Z M124.165132,108.667105 C126.5875,108.667105 128.551316,110.630921 128.551316,113.053289 L128.551316,157.884868 C128.551316,160.307237 126.5875,162.271053 124.165132,162.271053 L121.711184,162.271053 C119.288816,162.271053 117.325,160.307237 117.325,157.884868 L117.325,113.053289 C117.325,110.630921 119.288816,108.667105 121.711184,108.667105 L124.165132,108.667105 Z M217.234868,108.667105 C220.334868,108.667105 222.848026,111.180263 222.848026,114.280263 L222.848026,114.280263 L222.843778,114.500668 C222.728019,117.498512 220.261059,119.89339 217.234868,119.892105 L217.234868,119.892105 L200.396053,119.892105 L200.396053,129.855263 L217.234868,129.855263 C220.334868,129.855263 222.848026,132.368421 222.848026,135.468421 L222.848026,135.468421 L222.843778,135.688826 C222.728019,138.686671 220.261059,141.081579 217.234868,141.081579 L217.234868,141.081579 L200.396053,141.081579 L200.396053,151.044737 L217.234868,151.044737 C220.334868,151.044737 222.848026,153.557895 222.848026,156.657895 L222.848026,156.657895 L222.843778,156.878299 C222.728019,159.876144 220.261059,162.271053 217.234868,162.271053 L217.234868,162.271053 L194.782895,162.271053 C191.682895,162.271053 189.169737,159.757895 189.169737,156.657895 L189.169737,156.657895 L189.169737,114.280263 C189.169737,111.180263 191.682895,108.667105 194.782895,108.667105 L194.782895,108.667105 Z M175.138158,108.666919 L175.358562,108.671168 C178.356407,108.786935 180.751316,111.254073 180.751316,114.280263 L180.751316,114.280263 L180.751316,156.424342 C180.751316,159.541447 178.203289,162.298684 175.086184,162.270611 C173.614474,162.257237 172.280921,161.675658 171.288158,160.736184 C170.953947,160.419079 148.196711,130.925658 148.196711,130.925658 L148.196711,130.925658 L148.196711,156.657237 C148.196711,159.757237 145.683553,162.270611 142.583553,162.270611 L142.583553,162.270611 L142.363148,162.266362 C139.365303,162.150594 136.970395,159.683427 136.970395,156.657237 L136.970395,156.657237 L136.970395,114.510526 C136.970395,111.455263 139.311842,108.786842 142.365132,108.671053 C144.117105,108.604605 145.695395,109.344079 146.766447,110.546053 C147.108553,110.930263 169.525,140.169079 169.525,140.169079 L169.525,140.169079 L169.525,114.280263 C169.525,111.180263 172.038158,108.667763 175.138158,108.666919 L175.138158,108.666919 Z" id="Combined-Shape"></path>
        </g>
    </g>
</svg>