<?xml version="1.0" encoding="UTF-8"?>
<svg width="300px" height="300px" viewBox="0 0 300 300" version="1.1" xmlns="http://www.w3.org/2000/svg" xmlns:xlink="http://www.w3.org/1999/xlink">
    <title>line</title>
    <g id="line" stroke="none" stroke-width="1" fill="none" fill-rule="evenodd">
        <g fill="#FFFFFF" fill-rule="nonzero">
            <path d="M275.823026,0 C289.07786,-3.7752846e-14 299.823026,10.745166 299.823026,24 L299.823026,275.823026 C299.823026,289.07786 289.07786,299.823026 275.823026,299.823026 L24,299.823026 C10.745166,299.823026 1.623249e-15,289.07786 0,275.823026 L0,24 C-1.623249e-15,10.745166 10.745166,2.4348735e-15 24,0 L275.823026,0 Z M149.880263,46.0828947 C89.2763158,46.0828947 40.1480263,85.1598684 40.1480263,133.363816 C40.1480263,177.670395 81.6532895,214.265132 135.425,219.894079 C138.7125,220.238158 141.082895,223.205921 140.718421,226.490789 L138.428947,247.097368 C137.909211,251.775 142.746053,255.178289 146.984868,253.132237 C192.415132,231.207237 219.580921,208.651316 235.803289,189.109868 C238.755263,185.553947 248.380921,172.067763 250.343421,168.525658 C254.509211,161.005921 257.380921,152.930921 258.731579,144.476974 C259.235526,141.822368 259.484868,139.588816 259.599342,137.836842 C259.788816,134.945395 259.573026,130.652632 259.496053,129.308553 C256.832895,82.9875 208.775,46.0828947 149.880263,46.0828947 Z" id="Combined-Shape"></path>
            <g id="Group" transform="translate(78.131579, 108.052632)">
                <path d="M11.4098684,42.9921053 L11.4098684,6.22763158 C11.4098684,3.12763158 8.89671053,0.614473684 5.79671053,0.614473684 L5.79671053,0.614473684 C2.69671053,0.614473684 0.183552632,3.12763158 0.183552632,6.22763158 L0.183552632,48.6052632 C0.183552632,51.7052632 2.69671053,54.2184211 5.79671053,54.2184211 L28.2486842,54.2184211 C31.3486842,54.2184211 33.8618421,51.7052632 33.8618421,48.6052632 L33.8618421,48.6052632 C33.8618421,45.5052632 31.3486842,42.9921053 28.2486842,42.9921053 L11.4098684,42.9921053 Z" id="Path"></path>
                <path d="M46.0335526,54.2184211 L43.5796053,54.2184211 C41.1572368,54.2184211 39.1934211,52.2546053 39.1934211,49.8322368 L39.1934211,5.00065789 C39.1934211,2.57828947 41.1572368,0.614473684 43.5796053,0.614473684 L46.0335526,0.614473684 C48.4559211,0.614473684 50.4197368,2.57828947 50.4197368,5.00065789 L50.4197368,49.8322368 C50.4197368,52.2546053 48.4559211,54.2184211 46.0335526,54.2184211 Z" id="Path"></path>
                <path d="M91.3934211,6.22763158 L91.3934211,32.1164474 C91.3934211,32.1164474 68.9769737,2.87763158 68.6348684,2.49342105 C67.5638158,1.29144737 65.9855263,0.551973684 64.2335526,0.618421053 C61.1802632,0.734210526 58.8388158,3.40263158 58.8388158,6.45789474 L58.8388158,48.6046053 C58.8388158,51.7046053 61.3519737,54.217979 64.4519737,54.217979 L64.4519737,54.217979 C67.5519737,54.217979 70.0651316,51.7046053 70.0651316,48.6046053 L70.0651316,22.8730263 C70.0651316,22.8730263 92.8223684,52.3664474 93.1565789,52.6835526 C94.1493421,53.6230263 95.4828947,54.2046053 96.9546053,54.217979 C100.071711,54.2460526 102.619737,51.4888158 102.619737,48.3717105 L102.619737,6.22763158 C102.619737,3.12763158 100.106579,0.614287782 97.0065789,0.614287782 L97.0065789,0.614287782 C93.9065789,0.615131579 91.3934211,3.12763158 91.3934211,6.22763158 Z" id="Path"></path>
                <path d="M144.716447,6.22763158 L144.716447,6.22763158 C144.716447,3.12763158 142.203289,0.614473684 139.103289,0.614473684 L116.651316,0.614473684 C113.551316,0.614473684 111.038158,3.12763158 111.038158,6.22763158 L111.038158,48.6052632 C111.038158,51.7052632 113.551316,54.2184211 116.651316,54.2184211 L139.103289,54.2184211 C142.203289,54.2184211 144.716447,51.7052632 144.716447,48.6052632 L144.716447,48.6052632 C144.716447,45.5052632 142.203289,42.9921053 139.103289,42.9921053 L122.264474,42.9921053 L122.264474,33.0289474 L139.103289,33.0289474 C142.203289,33.0289474 144.716447,30.5157895 144.716447,27.4157895 L144.716447,27.4157895 C144.716447,24.3157895 142.203289,21.8026316 139.103289,21.8026316 L122.264474,21.8026316 L122.264474,11.8394737 L139.103289,11.8394737 C142.203289,11.8407895 144.716447,9.32763158 144.716447,6.22763158 Z" id="Path"></path>
            </g>
        </g>
    </g>
</svg>