<?xml version="1.0" encoding="UTF-8"?>
<svg width="300px" height="300px" viewBox="0 0 300 300" version="1.1" xmlns="http://www.w3.org/2000/svg" xmlns:xlink="http://www.w3.org/1999/xlink">
    <title>media</title>
    <g id="media" stroke="none" stroke-width="1" fill="none" fill-rule="evenodd">
        <circle id="Oval" fill="#052049" cx="150" cy="150" r="150"></circle>
        <g id="video-marketing" transform="translate(50.000000, 69.578125)" fill="#FFFFFF" fill-rule="nonzero">
            <path d="M181.018881,43.9267453 L190.557717,39.7268982 C195.082703,37.7349707 197.146072,32.4281638 195.166168,27.8749295 C193.186859,23.3210953 187.913075,21.2433709 183.389282,23.2370983 L173.850446,27.4369455 C169.32546,29.428873 167.262091,34.7356798 169.241996,39.2889141 C171.223093,43.8457483 176.498665,45.9180728 181.018881,43.9267453 Z" id="Path"></path>
            <path d="M190.557717,102.538395 L181.018881,98.3383991 C176.494492,96.3464009 171.221304,98.4223991 169.241996,102.976395 C167.262091,107.530391 169.32546,112.836786 173.850446,114.828785 L183.389282,119.028781 C187.913671,121.021379 193.187455,118.944181 195.166168,114.390785 C197.146072,109.836789 195.082703,104.530394 190.557717,102.538395 Z" id="Path"></path>
            <path d="M186.974268,62.3163265 L177.433895,62.3163265 C172.494367,62.3163265 168.489796,66.2636898 168.489796,71.1326531 C168.489796,76.0016163 172.494367,79.9489796 177.433895,79.9489796 L186.974268,79.9489796 C191.913796,79.9489796 195.918367,76.0016163 195.918367,71.1326531 C195.918367,66.2636898 191.913796,62.3163265 186.974268,62.3163265 Z" id="Path"></path>
            <path d="M20.7619048,35.5574567 C9.31379048,35.5574567 0,44.8333385 0,56.234857 L0,85.7740002 C0,95.640074 6.976,103.909262 16.2725878,105.959278 L9.01897143,149.303835 C8.11493878,154.703591 12.3029116,159.622449 17.7959184,159.622449 L53.3877551,159.622449 C57.7008925,159.622449 61.3935456,156.541516 62.1486857,152.311511 L70.1865088,107.282041 L71.1836735,107.774754 L71.1836735,34.2346939 L68.5053878,35.5574567 L20.7619048,35.5574567 Z" id="Path"></path>
            <path d="M138.056645,1.21050461 L88.8163265,25.7209736 L88.8163265,117.198689 L138.056645,141.709158 C143.926297,144.631506 150.857143,140.341403 150.857143,133.738689 L150.857143,9.18156726 C150.857143,2.58359859 143.936342,-1.71658775 138.056645,1.21050461 Z" id="Path"></path>
        </g>
    </g>
</svg>