<?xml version="1.0" encoding="UTF-8"?>
<svg width="300px" height="300px" viewBox="0 0 300 300" version="1.1" xmlns="http://www.w3.org/2000/svg" xmlns:xlink="http://www.w3.org/1999/xlink">
    <title>memorabilia</title>
    <g id="memorabilia" stroke="none" stroke-width="1" fill="none" fill-rule="evenodd">
        <circle id="Oval" fill="#18A3AC" cx="150" cy="150" r="150"></circle>
        <g id="edit" transform="translate(55.000000, 55.000000)" fill="#FFFFFF" fill-rule="nonzero">
            <path d="M96.9791667,15.8333333 L88.2708333,15.8333333 C85.6583333,6.72916667 77.2666667,0 67.2916667,0 C57.3166667,0 48.925,6.72916667 46.3125,15.8333333 L37.6041667,15.8333333 C34.3583333,15.8333333 31.6666667,18.525 31.6666667,21.7708333 L31.6666667,33.6458333 C31.6666667,41.2458333 37.9208333,47.5 45.5208333,47.5 L89.0625,47.5 C96.6625,47.5 102.916667,41.2458333 102.916667,33.6458333 L102.916667,21.7708333 C102.916667,18.525 100.225,15.8333333 96.9791667,15.8333333 Z" id="Path"></path>
            <path d="M112.8125,23.75 L110.833333,23.75 L110.833333,33.6458333 C110.833333,45.6791667 101.095833,55.4166667 89.0625,55.4166667 L45.5208333,55.4166667 C33.4875,55.4166667 23.75,45.6791667 23.75,33.6458333 L23.75,23.75 L21.7708333,23.75 C9.7375,23.75 0,33.4875 0,45.5208333 L0,144.479167 C0,156.5125 9.7375,166.25 21.7708333,166.25 L80.1958333,166.25 L81.9375,156.5125 C82.7291667,152.079167 84.7875,148.120833 87.9541667,144.875 L94.2875,138.541667 L29.6875,138.541667 C26.4416667,138.541667 23.75,135.85 23.75,132.604167 C23.75,129.358333 26.4416667,126.666667 29.6875,126.666667 L104.895833,126.666667 C105.291667,126.666667 105.608333,126.666667 106.004167,126.825 L106.083333,126.825 L134.583333,98.325 L134.583333,45.5208333 C134.583333,33.4875 124.845833,23.75 112.8125,23.75 Z M104.895833,112.8125 L29.6875,112.8125 C26.4416667,112.8125 23.75,110.120833 23.75,106.875 C23.75,103.629167 26.4416667,100.9375 29.6875,100.9375 L104.895833,100.9375 C108.141667,100.9375 110.833333,103.629167 110.833333,106.875 C110.833333,110.120833 108.141667,112.8125 104.895833,112.8125 Z M104.895833,87.0833333 L29.6875,87.0833333 C26.4416667,87.0833333 23.75,84.3916667 23.75,81.1458333 C23.75,77.9 26.4416667,75.2083333 29.6875,75.2083333 L104.895833,75.2083333 C108.141667,75.2083333 110.833333,77.9 110.833333,81.1458333 C110.833333,84.3916667 108.141667,87.0833333 104.895833,87.0833333 Z" id="Shape"></path>
            <path d="M99.1720833,190 C97.6125,190 96.0925,189.3825 94.97625,188.258333 C93.6066667,186.88875 92.9891667,184.94125 93.3295833,183.025417 L97.5254167,159.235833 C97.73125,158.040417 98.3170833,156.932083 99.1720833,156.069167 L157.953333,97.2958333 C165.173333,90.06 172.266667,92.0154167 176.145833,95.8945833 L185.93875,105.6875 C191.345833,111.086667 191.345833,119.874167 185.93875,125.28125 L127.1575,184.0625 C126.3025,184.925417 125.194167,185.503333 123.990833,185.709167 L100.20125,189.905 C99.8608333,189.968333 99.5125,190 99.1720833,190 L99.1720833,190 Z" id="Shape"></path>
        </g>
    </g>
</svg>