<?xml version="1.0" encoding="utf-8"?>
<!-- Generator: Adobe Illustrator 16.0.3, SVG Export Plug-In . SVG Version: 6.00 Build 0)  -->
<!DOCTYPE svg PUBLIC "-//W3C//DTD SVG 1.1//EN" "http://www.w3.org/Graphics/SVG/1.1/DTD/svg11.dtd">
<svg version="1.1" id="Capa_1" xmlns="http://www.w3.org/2000/svg" xmlns:xlink="http://www.w3.org/1999/xlink" x="0px" y="0px"
	 width="100px" height="100px" viewBox="0 0 100 100" enable-background="new 0 0 100 100" xml:space="preserve">
<g>
	<g>
		<g>
			<path fill="#FFFFFF" d="M94.113,37.451c0.899,0,1.629-0.73,1.629-1.628v-4.886h1.629c0.898,0,1.629-0.73,1.629-1.628v-6.513
				c-0.002-0.64-0.377-1.219-0.961-1.481L50.816,0.144c-0.425-0.192-0.911-0.192-1.336,0L2.257,21.313
				c-0.583,0.262-0.959,0.841-0.96,1.481v6.513c0,0.898,0.729,1.628,1.628,1.628h1.627v4.886c0,0.898,0.729,1.628,1.628,1.628h1.628
				v30.938H6.18c-0.899,0-1.628,0.73-1.628,1.631v4.884H2.924c-0.899,0-1.628,0.729-1.628,1.629v6.514
				c0,0.898,0.729,1.629,1.628,1.629H97.37c0.898,0,1.628-0.73,1.628-1.629v-6.514c0-0.9-0.729-1.629-1.628-1.629h-1.629V70.02
				c0-0.9-0.729-1.631-1.629-1.631h-1.628V37.451H94.113z M4.552,27.68v-3.826L50.147,3.417l45.594,20.437v3.826H4.552z
				 M7.809,71.647h84.677v3.256H7.809V71.647z M11.066,68.389V37.451h9.771v30.938H11.066z M24.093,68.389V37.451h6.514v30.938
				H24.093z M33.864,68.389V37.451h9.771v30.938H33.864z M46.89,68.389V37.451h6.514v30.938H46.89z M56.661,68.389V37.451h9.771
				v30.938H56.661z M69.688,68.389V37.451H76.2v30.938H69.688z M79.459,68.389V37.451h9.77v30.938H79.459z M95.742,78.16v3.256
				H4.552V78.16H95.742z M7.809,34.193v-3.257h84.677v3.257H7.809z"/>
		</g>
	</g>
	<g>
		<g>
			<path fill="#FFFFFF" d="M50.147,8.139c-4.498,0-8.143,3.646-8.143,8.143c0,4.497,3.645,8.142,8.143,8.142
				c4.496,0,8.141-3.646,8.141-8.142C58.289,11.785,54.644,8.139,50.147,8.139z M50.147,21.167c-2.698,0-4.886-2.188-4.886-4.886
				s2.188-4.885,4.886-4.885s4.885,2.187,4.885,4.885S52.846,21.167,50.147,21.167z"/>
		</g>
	</g>
	<g>
		<g>
			<rect x="14.323" y="40.708" fill="#FFFFFF" width="3.256" height="24.425"/>
		</g>
	</g>
	<g>
		<g>
			<rect x="82.715" y="40.708" fill="#FFFFFF" width="3.257" height="24.425"/>
		</g>
	</g>
	<g>
		<g>
			<rect x="37.12" y="40.708" fill="#FFFFFF" width="3.257" height="24.425"/>
		</g>
	</g>
	<g>
		<g>
			<rect x="59.917" y="40.708" fill="#FFFFFF" width="3.258" height="24.425"/>
		</g>
	</g>
</g>
</svg>
