<?xml version="1.0" encoding="utf-8"?>
<!-- Generator: Adobe Illustrator 16.0.3, SVG Export Plug-In . SVG Version: 6.00 Build 0)  -->
<!DOCTYPE svg PUBLIC "-//W3C//DTD SVG 1.1//EN" "http://www.w3.org/Graphics/SVG/1.1/DTD/svg11.dtd">
<svg version="1.1" id="圖層_1" xmlns="http://www.w3.org/2000/svg" xmlns:xlink="http://www.w3.org/1999/xlink" x="0px" y="0px"
	 width="100px" height="100px" viewBox="-20 -20 100 100" enable-background="new -20 -20 100 100" xml:space="preserve">
<title>ic_settings_input_composite</title>
<desc>Created with Sketch.</desc>
<circle fill="none" stroke="#E5006E" stroke-width="1.5" stroke-miterlimit="10" cx="30.583" cy="30.077" r="48"/>
<g>
	<g>
		<g>
			<path fill="#E5006E" d="M51.434,9.164c-0.992-0.984-2.342-1.523-3.74-1.496H35.82c-0.199-0.001-0.391,0.077-0.531,0.217
				c-0.141,0.141-0.219,0.332-0.217,0.531v4.354c-0.006,0.54,0.281,1.04,0.748,1.31c0.463,0.267,1.033,0.267,1.496,0
				c0.617-0.374,1.35-0.507,2.057-0.374c1.627,0.297,2.703,1.856,2.406,3.482c-0.09,0.492-0.303,0.954-0.617,1.343
				c-0.564,0.695-1.41,1.102-2.305,1.107c-0.525-0.001-1.041-0.141-1.496-0.404c-0.463-0.267-1.033-0.267-1.496,0
				c-0.469,0.271-0.756,0.775-0.748,1.317l-0.045,4.324c-0.002,0.199,0.076,0.391,0.217,0.531c0.139,0.141,0.326,0.222,0.523,0.225
				h4.295c-1.24,2.146-0.504,4.892,1.643,6.131c0.686,0.396,1.463,0.603,2.254,0.601c0.326,0.003,0.648-0.032,0.967-0.104
				c1.754-0.389,3.109-1.787,3.441-3.554c0.201-1.059,0.008-2.156-0.547-3.082h4.354c0.414,0,0.748-0.334,0.748-0.748v-11.97
				C52.977,11.503,52.426,10.156,51.434,9.164z M51.486,24.126h-3.613c-0.537-0.002-1.033,0.283-1.303,0.748
				c-0.277,0.46-0.277,1.037,0,1.496c0.371,0.618,0.502,1.35,0.367,2.058c-0.301,1.626-1.861,2.699-3.486,2.399
				c-0.488-0.091-0.945-0.301-1.332-0.611v-0.015c-1.154-0.915-1.471-2.533-0.748-3.815c0.279-0.46,0.279-1.037,0-1.496
				c-0.277-0.467-0.781-0.751-1.324-0.748l-3.479-0.016l0.037-3.628c0.666,0.404,1.428,0.623,2.207,0.636
				c2.479,0.064,4.539-1.893,4.604-4.371c0.059-2.244-1.549-4.186-3.766-4.547c-1.055-0.199-2.146-0.005-3.066,0.546l-0.016-3.599
				h11.178c2.064,0,3.74,1.675,3.74,3.741V24.126z"/>
		</g>
	</g>
	<g>
		<g>
			<path fill="#E5006E" d="M32.199,10.661c-1.209-0.208-2.157-1.155-2.364-2.364c0-0.413-0.335-0.748-0.748-0.748
				s-0.748,0.335-0.748,0.748c-0.208,1.209-1.155,2.157-2.364,2.364c-0.414,0-0.749,0.335-0.749,0.748s0.335,0.748,0.749,0.748
				c1.209,0.208,2.156,1.155,2.364,2.364c0,0.413,0.335,0.748,0.748,0.748s0.748-0.335,0.748-0.748
				c0.208-1.209,1.155-2.157,2.364-2.364c0.414,0,0.748-0.335,0.748-0.748S32.613,10.661,32.199,10.661z M29.087,12.479
				c-0.29-0.417-0.652-0.78-1.07-1.07c0.417-0.291,0.78-0.652,1.07-1.07c0.291,0.417,0.652,0.779,1.07,1.07
				C29.739,11.699,29.377,12.061,29.087,12.479z"/>
		</g>
	</g>
	<g>
		<g>
			<path fill="#E5006E" d="M42.359,34.817c-0.146-0.146-0.348-0.225-0.555-0.218h-4.354c-0.539-0.005-1.039,0.281-1.309,0.749
				c-0.268,0.463-0.268,1.033,0,1.496c0.373,0.616,0.506,1.349,0.373,2.057c-0.297,1.626-1.855,2.703-3.482,2.405
				c-0.492-0.091-0.953-0.302-1.342-0.617c-0.695-0.563-1.102-1.409-1.108-2.304c0.001-0.525,0.141-1.042,0.404-1.496
				c0.278-0.461,0.278-1.037,0-1.496c-0.271-0.471-0.775-0.756-1.317-0.749L26.095,34.6v-3.599c0.68,0.399,1.456,0.608,2.244,0.606
				c2.479,0.013,4.499-1.987,4.511-4.466c0.012-2.173-1.535-4.041-3.673-4.436c-1.055-0.199-2.146-0.004-3.067,0.546l-0.015-4.362
				c0-0.413-0.335-0.748-0.749-0.748h-11.97c-2.892,0-5.237,2.345-5.237,5.237v11.925c0,0.101,0.023,0.2,0.067,0.291V47.37
				c0,2.893,2.345,5.236,5.237,5.236h11.902c0.122-0.002,0.24-0.035,0.344-0.097H37.34c2.891,0,5.236-2.345,5.236-5.237V35.349
				C42.576,35.149,42.498,34.958,42.359,34.817z M9.636,23.378c0-2.065,1.675-3.74,3.741-3.74h11.222v3.605
				c-0.005,0.539,0.281,1.039,0.748,1.31c0.463,0.267,1.034,0.267,1.497,0c0.616-0.374,1.349-0.507,2.057-0.374
				c1.625,0.297,2.704,1.856,2.405,3.482c-0.09,0.492-0.302,0.953-0.617,1.343c-0.563,0.695-1.409,1.102-2.304,1.107
				c-0.525-0.001-1.042-0.141-1.496-0.404c-0.463-0.267-1.034-0.267-1.497,0c-0.466,0.278-0.75,0.782-0.748,1.324v3.501H21.12
				c0.877-1.596,0.703-3.564-0.441-4.982c-0.22-0.277-0.471-0.528-0.748-0.748c-1.929-1.557-4.755-1.256-6.313,0.672
				c-0.47,0.582-0.787,1.271-0.922,2.006c-0.199,1.055-0.005,2.146,0.546,3.067H9.636V23.378z M13.437,51.059
				c-2.066,0-3.741-1.675-3.741-3.741V36.097h3.613c0.537,0.002,1.034-0.284,1.302-0.748c0.282-0.459,0.282-1.038,0-1.497
				c-0.814-1.438-0.31-3.264,1.128-4.079c1.25-0.707,2.827-0.428,3.757,0.668c0.4,0.524,0.616,1.166,0.613,1.825
				c-0.001,0.526-0.14,1.042-0.404,1.496c-0.267,0.463-0.267,1.034,0,1.497c0.07,0.12,0.155,0.23,0.254,0.328
				c0.284,0.328,0.696,0.517,1.13,0.517l3.508-0.007v3.531c-0.688-0.382-1.458-0.588-2.244-0.6c-2.479,0-4.489,2.01-4.489,4.489
				c-0.002,0.352,0.033,0.702,0.104,1.048c0.366,1.775,1.766,3.157,3.546,3.5c1.055,0.199,2.146,0.005,3.067-0.545l0.015,3.538
				H13.437L13.437,51.059z M41.057,47.258c0,2.065-1.674,3.741-3.74,3.741H26.095v-3.613c0.002-0.537-0.284-1.034-0.749-1.303
				c-0.458-0.281-1.037-0.281-1.496,0c-0.617,0.371-1.35,0.502-2.057,0.367c-1.168-0.211-2.102-1.091-2.379-2.244
				c-0.036-0.208-0.053-0.418-0.053-0.629c0.041-1.623,1.369-2.918,2.993-2.918c0.525-0.003,1.042,0.134,1.496,0.396
				c0.459,0.282,1.038,0.282,1.496,0c0.47-0.271,0.756-0.774,0.749-1.316v-3.643l3.613,0.037c-1.241,2.146-0.508,4.892,1.638,6.133
				c2.146,1.241,4.893,0.508,6.133-1.638c0.262-0.451,0.441-0.944,0.533-1.458c0.199-1.055,0.006-2.146-0.545-3.067l3.59-0.007
				V47.258z"/>
		</g>
	</g>
	<g>
		<g>
			<path fill="#E5006E" d="M47.791,34.6c0,2.065-1.676,3.741-3.742,3.741v1.496c2.893,0,5.238-2.345,5.238-5.237H47.791z"/>
		</g>
	</g>
	<g>
		<g>
			<path fill="#E5006E" d="M51.531,34.6c0,4.132-3.35,7.481-7.482,7.481v1.496c4.959,0,8.979-4.02,8.979-8.978H51.531z"/>
		</g>
	</g>
</g>
</svg>
