<?xml version="1.0" encoding="utf-8"?>
<!-- Generator: Adobe Illustrator 16.0.3, SVG Export Plug-In . SVG Version: 6.00 Build 0)  -->
<!DOCTYPE svg PUBLIC "-//W3C//DTD SVG 1.1//EN" "http://www.w3.org/Graphics/SVG/1.1/DTD/svg11.dtd">
<svg version="1.1" id="圖層_1" xmlns="http://www.w3.org/2000/svg" xmlns:xlink="http://www.w3.org/1999/xlink" x="0px" y="0px"
	 width="100px" height="100px" viewBox="-20 -29 100 100" enable-background="new -20 -29 100 100" xml:space="preserve">
<title>ic_supervisor_account</title>
<desc>Created with Sketch.</desc>
<circle fill="none" stroke="#E5006E" stroke-width="1.5" stroke-miterlimit="10" cx="30.167" cy="21.167" r="48"/>
<g>
	<g>
		<g>
			<path fill="#E5006E" d="M50.779,18.493c-1.84-0.92-5.29-0.931-5.436-0.931c-0.438,0-0.791,0.354-0.791,0.792
				c0,0.437,0.354,0.792,0.791,0.792c0.891,0,3.475,0.137,4.727,0.764c0.114,0.057,0.234,0.083,0.354,0.083
				c0.29,0,0.569-0.161,0.708-0.438C51.329,19.164,51.17,18.688,50.779,18.493z"/>
		</g>
	</g>
	<g>
		<g>
			<path fill="#E5006E" d="M54.728,29.769l-3.271-0.935c-0.141-0.04-0.239-0.171-0.239-0.318v-1.091
				c0.267-0.185,0.521-0.392,0.757-0.622c1.15-1.115,1.784-2.612,1.784-4.215v-1.506l0.316-0.633c0.347-0.694,0.53-1.472,0.53-2.248
				V14.12c0-0.438-0.355-0.792-0.792-0.792H46.19c-2.771,0-5.025,2.255-5.025,5.026v0.047c0,0.646,0.152,1.292,0.44,1.869
				l0.406,0.811v1.293c0,2.051,1.01,3.891,2.541,4.996v1.145c0,0.177,0,0.25-0.654,0.437l-1.596,0.456l-4.617-1.68
				c0.017-0.217-0.057-0.438-0.216-0.605l-1.476-1.55v-2.603c0.156-0.127,0.31-0.26,0.459-0.4c1.861-1.744,2.928-4.207,2.928-6.756
				v-2.078c0.563-1.223,0.848-2.517,0.848-3.85V1.418c0-0.438-0.355-0.792-0.792-0.792H27.58c-4.172,0-7.565,3.395-7.565,7.566
				v1.694c0,1.333,0.285,2.627,0.847,3.85v1.788c0,2.96,1.316,5.628,3.388,7.386v2.663l-1.477,1.55
				c-0.158,0.167-0.231,0.389-0.216,0.607l-4.872,1.771c-0.353,0.128-0.682,0.302-0.979,0.513l-0.765-0.383
				c2.278-0.991,3-2.386,3.034-2.454c0.111-0.225,0.111-0.486,0-0.709c-0.57-1.143-0.64-3.236-0.695-4.918
				c-0.019-0.559-0.036-1.088-0.069-1.559c-0.271-3.799-3.158-6.664-6.718-6.664s-6.448,2.865-6.718,6.664
				c-0.034,0.471-0.051,1-0.069,1.56c-0.056,1.681-0.125,3.774-0.695,4.917c-0.112,0.223-0.112,0.484,0,0.707
				c0.034,0.07,0.754,1.461,3.037,2.454L4.92,30.692c-1.136,0.569-1.842,1.71-1.842,2.981v5.852c0,0.436,0.354,0.791,0.792,0.791
				c0.437,0,0.792-0.355,0.792-0.791v-5.852c0-0.666,0.37-1.266,0.966-1.564l2.647-1.323l0.92,0.876
				c0.644,0.611,1.469,0.916,2.295,0.916s1.652-0.305,2.295-0.916l0.92-0.875l0.863,0.432c-0.406,0.65-0.637,1.412-0.637,2.211
				v6.096c0,0.438,0.354,0.791,0.792,0.791c0.438,0,0.792-0.354,0.792-0.791V33.43c0-1.088,0.687-2.068,1.708-2.439l5.138-1.868
				l2.139,3.208c0.273,0.41,0.712,0.674,1.202,0.723c0.055,0.004,0.108,0.008,0.163,0.008c0.433,0,0.848-0.17,1.157-0.48
				l1.305-1.305v8.25c0,0.438,0.354,0.791,0.792,0.791s0.792-0.354,0.792-0.791v-8.25l1.305,1.305c0.31,0.311,0.725,0.48,1.157,0.48
				c0.055,0,0.108-0.004,0.163-0.008c0.49-0.049,0.929-0.313,1.202-0.723l2.139-3.208l5.138,1.868
				c1.021,0.371,1.708,1.352,1.708,2.439v6.096c0,0.438,0.354,0.791,0.793,0.791c0.438,0,0.791-0.354,0.791-0.791V33.43
				c0-1.102-0.437-2.135-1.171-2.898l0.195-0.055c0.198-0.058,0.467-0.135,0.737-0.268l2.022,2.023v7.293
				c0,0.438,0.354,0.791,0.791,0.791c0.438,0,0.793-0.354,0.793-0.791v-7.293l2.008-2.01c0.106,0.055,0.219,0.102,0.337,0.135
				l3.271,0.936c0.746,0.213,1.268,0.904,1.268,1.68v6.553c0,0.438,0.354,0.791,0.792,0.791s0.792-0.354,0.792-0.791v-6.553
				C57.145,31.492,56.15,30.176,54.728,29.769z M8.159,28.369c-1.481-0.533-2.224-1.243-2.542-1.631
				c0.216-0.565,0.356-1.213,0.452-1.896c0.437,1.047,1.168,1.941,2.09,2.579V28.369z M12.695,30.514
				c-0.675,0.641-1.733,0.641-2.408,0L9.55,29.813c0.125-0.232,0.192-0.496,0.192-0.773v-0.844c0.553,0.172,1.14,0.266,1.749,0.266
				s1.195-0.094,1.749-0.265v0.843c0,0.277,0.068,0.541,0.192,0.775L12.695,30.514z M11.492,26.878c-2.365,0-4.289-1.925-4.289-4.29
				c0-0.438-0.355-0.792-0.792-0.792c-0.044,0-0.087,0.005-0.13,0.012c0.002-0.067,0.004-0.136,0.007-0.203
				c0.018-0.544,0.035-1.059,0.066-1.5c0.102-1.423,0.67-2.734,1.601-3.692c0.94-0.967,2.196-1.499,3.537-1.499
				c1.341,0,2.597,0.532,3.537,1.499c0.932,0.958,1.5,2.27,1.602,3.692c0.031,0.441,0.048,0.956,0.066,1.5
				c0.002,0.046,0.003,0.094,0.005,0.142c-0.862-1.328-2.193-2.307-3.913-2.859c-1.588-0.51-2.955-0.479-3.012-0.477
				c-0.208,0.006-0.404,0.092-0.548,0.242l-1.428,1.482c-0.304,0.315-0.295,0.817,0.02,1.12s0.816,0.293,1.12-0.021L10.128,20
				c1.024,0.05,4.319,0.433,5.6,3.254C15.405,25.334,13.618,26.878,11.492,26.878z M14.824,28.373v-0.945
				c0.921-0.635,1.654-1.527,2.09-2.582c0.096,0.682,0.235,1.328,0.451,1.893C17.051,27.123,16.303,27.84,14.824,28.373z
				 M22.445,15.523v-1.965c0-0.119-0.026-0.237-0.079-0.344c-0.51-1.055-0.768-2.175-0.768-3.328V8.192
				c0-3.299,2.684-5.982,5.981-5.982h11.064v7.676c0,1.153-0.259,2.273-0.769,3.328c-0.052,0.107-0.079,0.226-0.079,0.345v2.255
				c0,2.145-0.861,4.134-2.427,5.601c-0.196,0.185-0.398,0.354-0.608,0.516c-0.005,0.003-0.01,0.007-0.014,0.009
				c-1.467,1.115-3.263,1.656-5.139,1.533C25.592,23.213,22.445,19.721,22.445,15.523z M26.904,31.459
				c-0.005,0.006-0.019,0.02-0.044,0.018c-0.026-0.004-0.036-0.018-0.04-0.025l-2.464-3.695l0.793-0.832l3.736,2.555L26.904,31.459z
				 M30.121,28.403l-4.288-2.931v-1.479c1.109,0.6,2.352,0.975,3.673,1.061c0.209,0.014,0.417,0.02,0.623,0.02
				c1.515,0,2.973-0.361,4.281-1.049v1.447L30.121,28.403z M33.423,31.451c-0.005,0.008-0.015,0.023-0.041,0.025
				c-0.025,0.002-0.038-0.012-0.044-0.016l-1.981-1.982l3.736-2.555l0.793,0.833L33.423,31.451z M47.884,30.783l-1.797-1.797
				c0.031-0.143,0.05-0.299,0.05-0.471v-0.334c0.498,0.164,1.023,0.261,1.567,0.277c0.062,0.002,0.122,0.002,0.183,0.002
				c0.602,0,1.188-0.09,1.746-0.264v0.318c0,0.158,0.02,0.313,0.058,0.463L47.884,30.783z M50.871,25.666
				c-0.839,0.815-1.948,1.246-3.119,1.209c-2.292-0.068-4.156-2.088-4.156-4.5v-1.48c0-0.123-0.029-0.245-0.084-0.354l-0.489-0.979
				c-0.179-0.358-0.273-0.76-0.273-1.16v-0.047c0-1.898,1.544-3.442,3.441-3.442h6.83v3.289c0,0.531-0.126,1.064-0.363,1.54
				l-0.4,0.799c-0.055,0.11-0.083,0.231-0.083,0.354v1.693C52.174,23.758,51.711,24.852,50.871,25.666z"/>
		</g>
	</g>
	<g>
		<g>
			<path fill="#E5006E" d="M52.965,33.652c-0.437,0-0.791,0.354-0.791,0.791v5.082c0,0.436,0.354,0.791,0.791,0.791
				c0.438,0,0.793-0.355,0.793-0.791v-5.082C53.758,34.006,53.402,33.652,52.965,33.652z"/>
		</g>
	</g>
	<g>
		<g>
			<path fill="#E5006E" d="M7.257,34.699c-0.438,0-0.792,0.354-0.792,0.791v4.035c0,0.436,0.354,0.791,0.792,0.791
				c0.438,0,0.792-0.355,0.792-0.791V35.49C8.049,35.053,7.695,34.699,7.257,34.699z"/>
		</g>
	</g>
	<g>
		<g>
			<path fill="#E5006E" d="M36.609,10.173c-2.996-2.995-9.264-2.422-11.818-2.037c-0.806,0.121-1.39,0.802-1.39,1.62v1.824
				c0,0.438,0.354,0.792,0.792,0.792s0.792-0.354,0.792-0.792V9.755c0-0.027,0.019-0.05,0.041-0.054
				c1.021-0.154,3.047-0.391,5.146-0.251c2.471,0.165,4.259,0.784,5.317,1.843c0.31,0.309,0.811,0.309,1.12,0
				C36.918,10.984,36.918,10.482,36.609,10.173z"/>
		</g>
	</g>
	<g>
		<g>
			<path fill="#E5006E" d="M20.806,35.346c-0.437,0-0.791,0.355-0.791,0.791v3.389c0,0.436,0.354,0.791,0.791,0.791
				c0.438,0,0.793-0.355,0.793-0.791v-3.389C21.599,35.701,21.244,35.346,20.806,35.346z"/>
		</g>
	</g>
	<g>
		<g>
			<path fill="#E5006E" d="M39.437,35.346c-0.438,0-0.792,0.355-0.792,0.791v3.389c0,0.436,0.354,0.791,0.792,0.791
				c0.437,0,0.792-0.355,0.792-0.791v-3.389C40.229,35.701,39.873,35.346,39.437,35.346z"/>
		</g>
	</g>
</g>
</svg>
