<?xml version="1.0" encoding="utf-8"?>
<!-- Generator: Adobe Illustrator 16.0.3, SVG Export Plug-In . SVG Version: 6.00 Build 0)  -->
<!DOCTYPE svg PUBLIC "-//W3C//DTD SVG 1.1//EN" "http://www.w3.org/Graphics/SVG/1.1/DTD/svg11.dtd">
<svg version="1.1" id="Capa_1" xmlns="http://www.w3.org/2000/svg" xmlns:xlink="http://www.w3.org/1999/xlink" x="0px" y="0px"
	 width="100px" height="100px" viewBox="0 0 100 100" enable-background="new 0 0 100 100" xml:space="preserve">
<g>
	<g>
		<path fill="#FFFFFF" d="M97.955,31.115c-0.944-1.205-2.393-1.902-3.923-1.888h-5.681V16.094c0-3.626-2.938-6.566-6.564-6.566
			H41.143c-0.869-0.004-1.7-0.353-2.313-0.967L33.51,3.242c-1.238-1.224-2.903-1.912-4.645-1.921H7.919
			c-3.625,0-6.565,2.938-6.565,6.565v77.151c-0.003,0.367,0.118,0.727,0.345,1.018c0.313,0.396,0.791,0.625,1.296,0.623h82.075
			c0.771,0.023,1.456-0.498,1.643-1.248l12.146-50.113C99.218,33.852,98.884,32.303,97.955,31.115z M4.636,7.887
			c0-1.813,1.471-3.283,3.283-3.283h20.946c0.869,0.004,1.701,0.353,2.313,0.97l5.318,5.317c1.238,1.223,2.905,1.912,4.645,1.922
			h40.645c1.812,0,3.282,1.47,3.282,3.283v13.131h-6.565V21.02c0-0.908-0.736-1.642-1.642-1.642h-64.02
			c-0.906,0-1.642,0.733-1.642,1.642v24.425L4.634,71.709V7.887H4.636z M45.674,29.227v2.609l-4.17,4.154
			c-0.224,0.236-0.479,0.447-0.755,0.623v-7.387h-3.283v8.207h-4.925v-8.207h-3.283v8.207h-4.925v-8.207H21.05v8.207h-2.725
			c-1.381,0.006-2.726,0.449-3.841,1.264V22.661h60.734v6.566h-23.54c-0.929,0.004-1.852,0.17-2.724,0.492v-0.492H45.674
			L45.674,29.227z M95.575,34.544L83.772,83.396H5.096l10.046-40.185c0.362-1.464,1.677-2.494,3.185-2.495h19.699
			c2.178,0.003,4.268-0.858,5.81-2.397l4.366-4.365c0.924-0.924,2.175-1.443,3.479-1.444h42.353
			c0.499,0.003,0.971,0.232,1.281,0.624h-0.051C95.581,33.531,95.696,34.051,95.575,34.544z"/>
	</g>
</g>
</svg>
