<?xml version="1.0" encoding="utf-8"?>
<!-- Generator: Adobe Illustrator 16.0.3, SVG Export Plug-In . SVG Version: 6.00 Build 0)  -->
<!DOCTYPE svg PUBLIC "-//W3C//DTD SVG 1.1//EN" "http://www.w3.org/Graphics/SVG/1.1/DTD/svg11.dtd">
<svg version="1.1" id="圖層_1" xmlns="http://www.w3.org/2000/svg" xmlns:xlink="http://www.w3.org/1999/xlink" x="0px" y="0px"
	 width="100px" height="100px" viewBox="-24 -24 100 100" enable-background="new -24 -24 100 100" xml:space="preserve">
<title>ic_build</title>
<desc>Created with Sketch.</desc>
<g id="Mask">
</g>
<circle fill="none" stroke="#E5006E" stroke-width="1.5" stroke-miterlimit="10" cx="26.167" cy="26.167" r="48"/>
<g>
	<g>
		<g>
			<path fill="#E5006E" d="M38.602,19.495v-0.222c-0.219-2.883-2.621-5.112-5.513-5.112c-0.422,0.007-0.843,0.061-1.253,0.161
				c-1.797-3.308-5.935-4.533-9.243-2.736c-1.157,0.629-2.107,1.579-2.737,2.736c-0.418-0.103-0.847-0.157-1.277-0.161
				c-3.057,0.004-5.534,2.481-5.538,5.538c0,0.145,0,0.281,0,0.426c-1.883,1.412-2.265,4.082-0.853,5.964
				c0.804,1.073,2.067,1.704,3.408,1.704h6.229l2.344,6.264c0.125,0.334,0.444,0.555,0.801,0.553h5.112
				c4.316,0.004,7.945-3.24,8.419-7.531v-0.308c1.13-0.882,1.795-2.231,1.806-3.664C40.305,21.708,39.681,20.384,38.602,19.495z
				 M25.557,32.906l-1.917-5.113h2.445l1.917,5.113H25.557z M30.081,32.906h-0.264l-0.64-1.705h5.395
				C33.335,32.301,31.736,32.908,30.081,32.906z M35.952,29.498h-7.413L27.9,27.793h7.72c0.352-0.001,0.704-0.041,1.047-0.119
				C36.515,28.313,36.274,28.926,35.952,29.498z M38.095,24.764c-0.552,0.828-1.48,1.324-2.475,1.325h-8.095
				c-1.647,0-2.982-1.335-2.982-2.982c0-1.647,1.335-2.982,2.982-2.982v-1.704c-2.586,0.004-4.682,2.1-4.687,4.686
				c-0.003,1.089,0.377,2.145,1.073,2.982h-2.351c0-2.353-1.908-4.26-4.26-4.26v1.704c1.411,0,2.556,1.145,2.556,2.556h-4.26
				c-1.412,0-2.556-1.144-2.556-2.556c0-1.411,1.144-2.556,2.556-2.556v-1.705c-0.287,0-0.572,0.028-0.853,0.086
				c0.177-1.984,1.843-3.501,3.834-3.494c0.472-0.001,0.94,0.085,1.38,0.256c0.526,0.209,1,0.532,1.389,0.945
				c-0.417,0.661-0.639,1.426-0.64,2.207h1.704c0-1.411,1.145-2.556,2.556-2.556v-1.705c-0.887,0.003-1.75,0.283-2.471,0.802
				c-0.316-0.326-0.671-0.613-1.057-0.853c1.457-2.419,4.598-3.199,7.017-1.743c1.527,0.919,2.465,2.567,2.475,4.35h1.705
				c-0.001-0.558-0.073-1.113-0.214-1.653c0.212-0.033,0.426-0.051,0.64-0.051c2.114,0,3.829,1.712,3.835,3.826v0.23
				c-0.001,0.283,0.14,0.549,0.374,0.708C38.643,21.543,39.011,23.395,38.095,24.764z"/>
		</g>
	</g>
	<g>
		<g>
			<path fill="#E5006E" d="M30.933,19.272v1.705c1.412,0,2.557,1.145,2.557,2.556h1.704C35.193,21.18,33.286,19.272,30.933,19.272z"
				/>
		</g>
	</g>
	<g>
		<g>
			<path fill="#E5006E" d="M50.667,4.788c-1.379-0.236-2.457-1.315-2.693-2.692c0-0.471-0.382-0.853-0.852-0.853
				c-0.471,0-0.852,0.381-0.852,0.853c-0.237,1.377-1.315,2.456-2.693,2.692c-0.47,0-0.852,0.382-0.852,0.853
				c0,0.47,0.382,0.852,0.852,0.852c1.378,0.237,2.456,1.315,2.693,2.692c0,0.471,0.381,0.853,0.852,0.853
				c0.47,0,0.852-0.382,0.852-0.853c0.236-1.377,1.314-2.456,2.693-2.692c0.471,0,0.852-0.381,0.852-0.852
				C51.519,5.169,51.138,4.788,50.667,4.788z M47.122,6.858c-0.33-0.475-0.742-0.888-1.22-1.218c0.478-0.331,0.89-0.744,1.22-1.219
				c0.331,0.476,0.743,0.889,1.219,1.219C47.865,5.97,47.453,6.383,47.122,6.858z"/>
		</g>
	</g>
	<g>
		<g>
			<path fill="#E5006E" d="M10.621,43.982c-1.378-0.236-2.457-1.314-2.693-2.693c0-0.471-0.381-0.852-0.853-0.852
				c-0.47,0-0.852,0.381-0.852,0.852c-0.236,1.379-1.315,2.457-2.693,2.693c-0.416,0.066-0.721,0.43-0.716,0.852
				c-0.005,0.422,0.3,0.785,0.716,0.852c1.378,0.236,2.457,1.316,2.693,2.693c0,0.471,0.381,0.852,0.852,0.852
				c0.471,0,0.853-0.381,0.853-0.852c0.236-1.377,1.315-2.457,2.693-2.693c0.47,0,0.852-0.381,0.852-0.852
				S11.091,43.982,10.621,43.982z M7.075,46.053c-0.331-0.475-0.743-0.889-1.218-1.219c0.476-0.33,0.888-0.742,1.218-1.219
				c0.332,0.477,0.744,0.889,1.219,1.219C7.819,45.164,7.407,45.578,7.075,46.053z"/>
		</g>
	</g>
	<g>
		<g>
			<path fill="#E5006E" d="M42.547,32.906c-0.29,0.459-0.589,0.91-0.912,1.354l1.372,1.006c0.349-0.477,0.707-0.971,0.988-1.508
				L42.547,32.906z"/>
		</g>
	</g>
	<g>
		<g>
			<path fill="#E5006E" d="M40.612,35.539c-0.35,0.4-0.732,0.801-1.124,1.184l1.192,1.219c0.426-0.408,0.835-0.844,1.219-1.287
				L40.612,35.539z"/>
		</g>
	</g>
	<g>
		<g>
			<path fill="#E5006E" d="M46.305,16.726l-1.671,0.451c0.154,0.528,0.282,1.056,0.393,1.585l1.704-0.333
				C46.61,17.85,46.475,17.271,46.305,16.726z"/>
		</g>
	</g>
	<g>
		<g>
			<path fill="#E5006E" d="M44.013,29.991c-0.205,0.495-0.427,0.997-0.673,1.491l1.524,0.76c0.265-0.529,0.555-1.041,0.725-1.62
				L44.013,29.991z"/>
		</g>
	</g>
	<g>
		<g>
			<path fill="#E5006E" d="M38.201,5.341L37.213,6.73c0.443,0.316,0.852,0.657,1.287,1.006l1.099-1.304
				C39.155,6.057,38.688,5.69,38.201,5.341z"/>
		</g>
	</g>
	<g>
		<g>
			<path fill="#E5006E" d="M43.143,10.36l-1.346,0.971c0.315,0.443,0.622,0.903,0.853,1.372l1.466-0.852
				C43.816,11.34,43.492,10.846,43.143,10.36z"/>
		</g>
	</g>
	<g>
		<g>
			<path fill="#E5006E" d="M40.902,7.642l-1.21,1.202c0.393,0.384,0.759,0.784,1.108,1.202l1.303-1.1
				C41.729,8.494,41.319,8.093,40.902,7.642z"/>
		</g>
	</g>
	<g>
		<g>
			<path fill="#E5006E" d="M45.001,13.384l-1.534,0.776c0.229,0.494,0.451,0.997,0.648,1.5l1.585-0.648
				C45.494,14.467,45.257,13.913,45.001,13.384z"/>
		</g>
	</g>
	<g>
		<g>
			<path fill="#E5006E" d="M44.933,26.873c-0.11,0.528-0.256,1.064-0.409,1.576l1.627,0.502c0.206-0.562,0.358-1.158,0.487-1.721
				L44.933,26.873z"/>
		</g>
	</g>
	<g>
		<g>
			<path fill="#E5006E" d="M46.978,20.176l-1.704,0.196c0.068,0.537,0.103,1.09,0.128,1.636l1.703-0.061
				C47.122,21.352,47.046,20.763,46.978,20.176z"/>
		</g>
	</g>
	<g>
		<g>
			<path fill="#E5006E" d="M45.419,23.636c0,0.545-0.077,1.091-0.146,1.626l1.704,0.223c0.034-0.58,0.093-1.176,0.145-1.764
				L45.419,23.636z"/>
		</g>
	</g>
	<g>
		<g>
			<path fill="#E5006E" d="M6.224,23.823L4.52,23.925c0,0.589,0.094,1.185,0.179,1.765l1.704-0.239
				C6.343,24.913,6.292,24.385,6.224,23.823z"/>
		</g>
	</g>
	<g>
		<g>
			<path fill="#E5006E" d="M35.193,3.526l-0.741,1.534c0.486,0.239,0.972,0.502,1.432,0.775l0.853-1.465
				C36.216,4.072,35.688,3.791,35.193,3.526z"/>
		</g>
	</g>
	<g>
		<g>
			<path fill="#E5006E" d="M6.709,27.069l-1.662,0.383c0.136,0.571,0.29,1.15,0.469,1.704l1.627-0.511
				C6.973,28.125,6.837,27.598,6.709,27.069z"/>
		</g>
	</g>
	<g>
		<g>
			<path fill="#E5006E" d="M4.622,20.346c-0.043,0.631-0.103,1.21-0.103,1.806h1.704c0-0.537,0.043-1.09,0.102-1.627L4.622,20.346z"
				/>
		</g>
	</g>
	<g>
		<g>
			<path fill="#E5006E" d="M9.197,33.059l-1.448,0.904c0.307,0.494,0.647,0.988,1.005,1.465l1.363-1.023
				C9.794,33.971,9.479,33.553,9.197,33.059z"/>
		</g>
	</g>
	<g>
		<g>
			<path fill="#E5006E" d="M5.338,16.896c-0.18,0.571-0.325,1.15-0.435,1.729l1.704,0.324c0.103-0.537,0.231-1.064,0.375-1.593
				L5.338,16.896z"/>
		</g>
	</g>
	<g>
		<g>
			<path fill="#E5006E" d="M11.148,35.676L9.87,36.799c0.393,0.443,0.853,0.854,1.235,1.279l1.176-1.227
				C11.89,36.477,11.506,36.076,11.148,35.676z"/>
		</g>
	</g>
	<g>
		<g>
			<path fill="#E5006E" d="M6.556,13.581c-0.255,0.58-0.486,1.083-0.69,1.627l1.593,0.605c0.199-0.512,0.412-1.015,0.64-1.509
				L6.556,13.581z"/>
		</g>
	</g>
	<g>
		<g>
			<path fill="#E5006E" d="M13.509,37.891l-1.074,1.363c0.452,0.365,0.938,0.725,1.423,1.057l0.954-1.441
				C14.369,38.563,13.96,38.23,13.509,37.891z"/>
		</g>
	</g>
	<g>
		<g>
			<path fill="#E5006E" d="M16.201,39.756l-0.835,1.492c0.512,0.281,1.04,0.553,1.585,0.801l0.708-1.543
				C17.164,40.275,16.678,40.029,16.201,39.756z"/>
		</g>
	</g>
	<g>
		<g>
			<path fill="#E5006E" d="M35.594,39.645c-0.469,0.266-0.954,0.521-1.448,0.76l0.732,1.566c0.537-0.256,1.065-0.535,1.567-0.852
				L35.594,39.645z"/>
		</g>
	</g>
	<g>
		<g>
			<path fill="#E5006E" d="M7.698,30.162L6.13,30.809c0.222,0.545,0.469,1.092,0.741,1.611l1.517-0.775
				C8.144,31.162,7.914,30.668,7.698,30.162z"/>
		</g>
	</g>
	<g>
		<g>
			<path fill="#E5006E" d="M8.312,10.505c-0.316,0.485-0.631,0.997-0.929,1.499l1.474,0.852c0.273-0.46,0.571-0.929,0.853-1.372
				L8.312,10.505z"/>
		</g>
	</g>
	<g>
		<g>
			<path fill="#E5006E" d="M10.604,7.778C10.185,8.205,9.751,8.63,9.41,9.099l1.313,1.082c0.349-0.409,0.716-0.817,1.099-1.21
				L10.604,7.778z"/>
		</g>
	</g>
	<g>
		<g>
			<path fill="#E5006E" d="M13.279,5.46c-0.477,0.35-0.937,0.716-1.389,1.1l1.15,1.294c0.408-0.357,0.852-0.698,1.278-1.021
				L13.279,5.46z"/>
		</g>
	</g>
	<g>
		<g>
			<path fill="#E5006E" d="M23.069,1.558c-0.59,0.07-1.176,0.169-1.756,0.299l0.367,1.661c0.528-0.111,1.064-0.205,1.602-0.272
				L23.069,1.558z"/>
		</g>
	</g>
	<g>
		<g>
			<path fill="#E5006E" d="M19.601,2.3c-0.562,0.17-1.125,0.375-1.705,0.588l0.639,1.585c0.503-0.196,1.022-0.384,1.534-0.537
				L19.601,2.3z"/>
		</g>
	</g>
	<g>
		<g>
			<path fill="#E5006E" d="M24.833,1.379l0.077,1.704c0.545,0,1.09,0,1.635,0l0.061-1.704C26.017,1.379,25.42,1.379,24.833,1.379z"
				/>
		</g>
	</g>
	<g>
		<g>
			<path fill="#E5006E" d="M31.845,2.231l-0.478,1.628c0.521,0.162,1.04,0.332,1.543,0.529l0.579-1.568
				C32.978,2.606,32.415,2.411,31.845,2.231z"/>
		</g>
	</g>
	<g>
		<g>
			<path fill="#E5006E" d="M28.377,1.533l-0.204,1.704c0.537,0.068,1.073,0.153,1.61,0.264l0.34-1.704
				C29.544,1.695,28.956,1.601,28.377,1.533z"/>
		</g>
	</g>
	<g>
		<g>
			<path fill="#E5006E" d="M16.303,3.611c-0.52,0.265-1.04,0.555-1.55,0.853l0.852,1.457c0.466-0.284,0.943-0.547,1.432-0.792
				L16.303,3.611z"/>
		</g>
	</g>
	<g>
		<g>
			<path fill="#E5006E" d="M38.278,37.813c-0.418,0.342-0.853,0.674-1.304,0.98l0.971,1.406c0.486-0.34,0.963-0.699,1.415-1.074
				L38.278,37.813z"/>
		</g>
	</g>
	<g>
		<g>
			<path fill="#E5006E" d="M40.169,13.491c-0.833-1.301-1.839-2.484-2.99-3.514c-6.988-6.303-17.764-5.749-24.068,1.241
				c-6.303,6.988-5.748,17.763,1.24,24.068c0.704,0.635,1.459,1.209,2.259,1.719c1.501,0.969,2.405,2.637,2.394,4.422v4.26
				c0.002,1.582,1.093,2.955,2.633,3.314c0.445,2.313,2.678,3.824,4.988,3.381c1.712-0.33,3.051-1.668,3.379-3.381
				c1.541-0.359,2.631-1.732,2.634-3.314v-4.26c-0.017-1.771,0.874-3.43,2.36-4.396C42.926,31.957,45.241,21.419,40.169,13.491z
				 M25.821,50.799c-1.084,0-2.051-0.682-2.411-1.705h4.822C27.871,50.117,26.904,50.799,25.821,50.799z M29.229,47.391h-6.817
				c-0.941,0-1.704-0.764-1.704-1.705h10.224C30.933,46.627,30.17,47.391,29.229,47.391z M30.933,43.982H20.708v-1.703h10.224
				V43.982z M37.243,32.902c-0.926,1.035-1.988,1.939-3.157,2.688h-0.009c-1.729,1.109-2.866,2.941-3.093,4.984h-1.755v-4.26h-1.704
				v4.26h-3.409v-5.111h-1.704v5.111h-1.755c-0.241-2.053-1.388-3.887-3.127-5.002c-7.117-4.594-9.164-14.085-4.571-21.202
				c2.481-3.843,6.546-6.379,11.089-6.916c0.588-0.07,1.181-0.106,1.773-0.111c3.775-0.019,7.422,1.373,10.225,3.902
				C42.356,16.896,42.893,26.592,37.243,32.902z"/>
		</g>
	</g>
</g>
</svg>
