<?xml version="1.0" encoding="utf-8"?>
<!-- Generator: Adobe Illustrator 16.0.3, SVG Export Plug-In . SVG Version: 6.00 Build 0)  -->
<!DOCTYPE svg PUBLIC "-//W3C//DTD SVG 1.1//EN" "http://www.w3.org/Graphics/SVG/1.1/DTD/svg11.dtd">
<svg version="1.1" id="圖層_1" xmlns="http://www.w3.org/2000/svg" xmlns:xlink="http://www.w3.org/1999/xlink" x="0px" y="0px"
	 width="100px" height="100px" viewBox="-20 -26 100 100" enable-background="new -20 -26 100 100" xml:space="preserve">
<title>ic_local_atm</title>
<desc>Created with Sketch.</desc>
<circle fill="none" stroke="#E5006E" stroke-width="1.5" stroke-miterlimit="10" cx="29.727" cy="24.365" r="48.001"/>
<g>
	<g>
		<g>
			<path fill="#E5006E" d="M53.013,28.43c-0.809-1.453-2.641-1.976-4.094-1.169l-4.107,1.767l-1.052-2.104
				c-0.157-0.314-0.239-0.659-0.241-1.009v-8.316c-0.007-5.271-3.911-9.725-9.136-10.421l3.009-4.181
				c0.241-0.338,0.162-0.808-0.177-1.049c-0.135-0.096-0.297-0.145-0.463-0.139h-12.03c-0.415,0.002-0.75,0.34-0.748,0.755
				c0.001,0.155,0.049,0.306,0.14,0.433l3.008,4.181c-5.237,0.683-9.158,5.141-9.166,10.421v8.474
				c-0.417,0.338-0.798,0.719-1.135,1.135l-3.323,4.157l-0.932-1.398c-0.111-0.176-0.292-0.299-0.497-0.337
				c-0.204-0.029-0.412,0.021-0.579,0.143l-3.007,2.255c-0.191,0.145-0.303,0.37-0.301,0.61v13.533c0,0.416,0.337,0.751,0.752,0.751
				h9.775c0.2,0.001,0.391-0.076,0.533-0.218l2.256-2.256c0.251-0.253,0.289-0.649,0.09-0.946l-0.376-0.564l17.391-4.001
				c0.941-0.217,1.853-0.551,2.714-0.991l10.527-5.421C53.297,31.717,53.82,29.884,53.013,28.43z M26.181,3.313h9.112l-2.685,3.759
				h-3.758L26.181,3.313z M19.459,17.599c0-4.984,4.04-9.023,9.023-9.023h4.511c4.982,0,9.021,4.04,9.021,9.023v8.316
				c0.002,0.582,0.139,1.156,0.399,1.678l1.008,2.037l-5.166,2.195c-0.093,0.04-0.193,0.061-0.293,0.061H24.722
				c-0.415,0-0.751-0.337-0.751-0.753c0-0.415,0.336-0.751,0.751-0.751h6.016c2.907,0,5.263-2.357,5.263-5.265
				c0-0.414-0.337-0.751-0.751-0.751h-0.97c0.141-0.322,0.215-0.67,0.217-1.023c-0.004-1.053-0.654-1.995-1.64-2.368l-1.367-0.511
				v-2.864h0.481c0.565,0,1.022,0.458,1.022,1.022v0.481h1.503v-0.481c-0.004-1.393-1.133-2.522-2.525-2.526h-0.481v-1.503h-1.503
				v1.503h-0.482c-1.395-0.004-2.53,1.124-2.534,2.518c-0.003,1.06,0.654,2.008,1.647,2.377l1.368,0.511v2.865h-0.482
				c-0.564,0-1.022-0.458-1.022-1.023v-0.481h-1.504v0.481c0.003,0.353,0.078,0.701,0.219,1.023h-4.458
				c-1.136,0-2.257,0.257-3.279,0.751V17.599z M32.993,23.343c0,0.565-0.457,1.023-1.022,1.023h-0.481v-2.301l0.842,0.315
				C32.729,22.536,32.991,22.917,32.993,23.343z M29.986,17.599v2.3l-0.843-0.316c-0.396-0.154-0.659-0.536-0.661-0.962
				c0-0.564,0.458-1.022,1.022-1.022H29.986L29.986,17.599z M18.399,45.42H9.685V33.013l2.068-1.556l8.271,12.36L18.399,45.42z
				 M51.114,31.216l-10.482,5.391c-0.753,0.385-1.552,0.676-2.376,0.864L20.323,41.6l-5.947-8.925l3.617-4.549
				c1.156-1.436,2.902-2.266,4.745-2.256h11.683c-0.357,1.75-1.896,3.007-3.684,3.007h-6.016c-1.245,0-2.254,1.01-2.254,2.256
				c0,1.247,1.009,2.256,2.254,2.256h13.227c0.305,0,0.607-0.061,0.886-0.181l10.737-4.587c0.717-0.425,1.643-0.188,2.068,0.527
				C52.065,29.865,51.829,30.791,51.114,31.216z"/>
		</g>
	</g>
	<g>
		<g>
			<path fill="#E5006E" d="M15.7,40.157c-1.246,0-2.255,1.008-2.255,2.255c0,1.245,1.01,2.255,2.255,2.255s2.256-1.01,2.256-2.255
				C17.956,41.165,16.945,40.157,15.7,40.157z M15.7,43.164c-0.415,0-0.751-0.338-0.751-0.752c0-0.415,0.336-0.753,0.751-0.753
				c0.416,0,0.752,0.338,0.752,0.753C16.452,42.826,16.116,43.164,15.7,43.164z"/>
		</g>
	</g>
	<g>
		<g>
			<path fill="#E5006E" d="M48.902,6.32c-1.215-0.208-2.167-1.161-2.376-2.376c0-0.415-0.336-0.752-0.752-0.752
				c-0.415,0-0.751,0.337-0.751,0.752c-0.21,1.215-1.162,2.167-2.376,2.376c-0.416,0-0.752,0.336-0.752,0.752
				s0.336,0.752,0.752,0.752c1.214,0.208,2.166,1.16,2.376,2.375c0,0.415,0.336,0.752,0.751,0.752c0.416,0,0.752-0.337,0.752-0.752
				c0.209-1.215,1.161-2.167,2.376-2.375c0.415,0,0.753-0.337,0.753-0.752S49.317,6.32,48.902,6.32z M45.774,8.147
				c-0.291-0.419-0.654-0.784-1.075-1.075c0.421-0.292,0.784-0.656,1.075-1.075c0.292,0.419,0.656,0.783,1.076,1.075
				C46.431,7.364,46.066,7.728,45.774,8.147z"/>
		</g>
	</g>
	<g>
		<g>
			<path fill="#E5006E" d="M15.068,21.358c-1.215-0.209-2.167-1.161-2.375-2.376c0-0.415-0.336-0.752-0.752-0.752
				c-0.415,0-0.751,0.337-0.751,0.752c-0.209,1.215-1.161,2.167-2.376,2.376c-0.416,0-0.751,0.336-0.751,0.752
				c0,0.415,0.336,0.751,0.751,0.751c1.216,0.208,2.167,1.161,2.376,2.376c0,0.415,0.336,0.752,0.751,0.752
				c0.416,0,0.752-0.337,0.752-0.752c0.208-1.216,1.161-2.168,2.375-2.376c0.416,0,0.752-0.336,0.752-0.751
				C15.82,21.695,15.484,21.358,15.068,21.358z M11.94,23.186c-0.292-0.42-0.655-0.784-1.075-1.075
				c0.42-0.292,0.783-0.656,1.075-1.076c0.292,0.419,0.656,0.784,1.076,1.076C12.596,22.401,12.232,22.766,11.94,23.186z"/>
		</g>
	</g>
</g>
</svg>
