<?xml version="1.0" encoding="utf-8"?>
<!-- Generator: Adobe Illustrator 16.0.3, SVG Export Plug-In . SVG Version: 6.00 Build 0)  -->
<!DOCTYPE svg PUBLIC "-//W3C//DTD SVG 1.1//EN" "http://www.w3.org/Graphics/SVG/1.1/DTD/svg11.dtd">
<svg version="1.1" id="圖層_1" xmlns="http://www.w3.org/2000/svg" xmlns:xlink="http://www.w3.org/1999/xlink" x="0px" y="0px"
	 width="100px" height="100px" viewBox="-21.5 -21.5 100 100" enable-background="new -21.5 -21.5 100 100" xml:space="preserve">
<title>ic_memory</title>
<desc>Created with Sketch.</desc>
<circle fill="none" stroke="#E5006E" stroke-width="1.5" stroke-miterlimit="10" cx="28.667" cy="28.667" r="48"/>
<g>
	<g>
		<g>
			<path fill="#E5006E" d="M50.249,13.491c0.416,0,0.751-0.336,0.751-0.75v-3c0-0.414-0.335-0.75-0.751-0.75H6.75
				C6.336,8.991,6,9.327,6,9.741v3c0,0.414,0.336,0.75,0.75,0.75H7.5v33H6v1.501h21.75v1.635c-1.172,0.414-1.786,1.698-1.371,2.871
				c0.414,1.17,1.699,1.785,2.873,1.371c1.17-0.415,1.783-1.7,1.369-2.87c-0.227-0.642-0.731-1.146-1.369-1.372v-1.635H51V46.49
				h-1.499v-33H50.249z M28.5,52.491c-0.414,0-0.75-0.337-0.75-0.751s0.335-0.75,0.75-0.75c0.415,0,0.752,0.336,0.752,0.75
				S28.915,52.491,28.5,52.491z M47.999,46.49H9v-33h38.999V46.49z M7.5,11.99v-1.5h42v1.5H7.5z"/>
		</g>
	</g>
	<g>
		<g>
			<path fill="#E5006E" d="M39.531,34.708c0.639-1.49,0.97-3.096,0.97-4.718c0.004-4.359-2.355-8.38-6.165-10.5l1.266-1.5h3.397
				v-1.5H35.25c-0.224,0-0.435,0.099-0.576,0.27l-1.734,2.085c-4.195-1.681-8.981-0.851-12.367,2.145l-0.54-0.54
				c-0.143-0.137-0.334-0.212-0.533-0.209h-2.25v1.5h1.943l0.315,0.322c-4.185,4.749-3.961,11.929,0.51,16.411
				c4.685,4.684,12.279,4.684,16.964,0c0.706-0.708,1.321-1.503,1.831-2.363l1.904,1.914l1.064-1.066L39.531,34.708z M29.252,19.491
				c0.908,0.061,1.806,0.243,2.668,0.541l-0.998,1.2l1.155,0.99l1.283-1.538c0.725,0.377,1.401,0.838,2.018,1.373l-6.126,6.128
				V19.491z M20.563,36.294c-3.095-3.849-3.09-9.331,0.01-13.173l1.395,1.402l1.065-1.064l-1.402-1.403
				c1.704-1.501,3.854-2.401,6.12-2.565v10.5c0.001,0.088,0.019,0.175,0.053,0.256c0,0,0,0,0,0.043
				c0.028,0.061,0.066,0.113,0.112,0.16v0.045l7.41,7.4C30.807,41.529,24.197,40.812,20.563,36.294z M38.377,33.553L38.377,33.553
				l-1.095-1.095l-1.064,1.066l1.5,1.499c-0.36,0.66-0.791,1.282-1.282,1.852l-6.877-6.885l6.877-6.877
				C38.924,25.985,39.667,29.978,38.377,33.553z"/>
		</g>
	</g>
	<g>
		<g>
			<rect x="40.501" y="16.491" fill="#E5006E" width="5.248" height="1.5"/>
		</g>
	</g>
	<g>
		<g>
			<rect x="40.501" y="19.491" fill="#E5006E" width="3.749" height="1.5"/>
		</g>
	</g>
	<g>
		<g>
			<rect x="11.25" y="20.241" fill="#E5006E" width="4.501" height="1.5"/>
		</g>
	</g>
	<g>
		<g>
			<rect x="11.25" y="23.24" fill="#E5006E" width="4.501" height="1.5"/>
		</g>
	</g>
	<g>
		<g>
			<rect x="40.501" y="39.74" fill="#E5006E" width="5.248" height="1.501"/>
		</g>
	</g>
	<g>
		<g>
			<rect x="40.501" y="42.74" fill="#E5006E" width="5.248" height="1.5"/>
		</g>
	</g>
	<g>
		<g>
			<rect x="11.25" y="39.74" fill="#E5006E" width="5.251" height="1.501"/>
		</g>
	</g>
	<g>
		<g>
			<rect x="11.25" y="42.74" fill="#E5006E" width="3.751" height="1.5"/>
		</g>
	</g>
	<g>
		<g>
			<rect x="11.25" y="36.741" fill="#E5006E" width="5.251" height="1.5"/>
		</g>
	</g>
</g>
</svg>
