<?xml version="1.0" encoding="utf-8"?>
<!-- Generator: Adobe Illustrator 16.0.3, SVG Export Plug-In . SVG Version: 6.00 Build 0)  -->
<!DOCTYPE svg PUBLIC "-//W3C//DTD SVG 1.1//EN" "http://www.w3.org/Graphics/SVG/1.1/DTD/svg11.dtd">
<svg version="1.1" id="圖層_1" xmlns="http://www.w3.org/2000/svg" xmlns:xlink="http://www.w3.org/1999/xlink" x="0px" y="0px"
	 width="172px" height="25px" viewBox="0 0 172 25" enable-background="new 0 0 172 25" xml:space="preserve">
<title>GASH</title>
<desc>Created with Sketch.</desc>
<g enable-background="new    ">
	<path fill="#FFFFFF" d="M98.471,4.446v6.599h-6.178v12.144h-1.981V4.446H98.471z M96.51,7.039V5.985h-4.217v1.054H96.51z
		 M92.293,8.389v1.096h4.217V8.389H92.293z M93.98,12.395h10.246v1.687h-1.961v2.214h2.614v1.729h-2.614v4.765h-1.834v-4.765h-2.72
		c-0.155,1.068-0.408,1.968-0.759,2.698c-0.521,1.04-1.385,1.849-2.594,2.425l-0.97-1.56c0.998-0.521,1.687-1.195,2.066-2.024
		c0.196-0.449,0.345-0.963,0.442-1.539h-2.467v-1.729h2.615v-2.214H93.98V12.395z M97.838,14.081v2.214h2.594v-2.214H97.838z
		 M106.082,11.003h-6.283V4.446h8.285v16.402c0,1.504-0.717,2.256-2.15,2.256c-0.73,0-1.475-0.021-2.234-0.063l-0.464-1.771
		c0.802,0.07,1.462,0.105,1.981,0.105c0.576,0,0.865-0.372,0.865-1.118V11.003z M106.082,7.039V6.027h-4.322v1.012H106.082z
		 M101.76,8.389v1.054h4.322V8.389H101.76z"/>
	<path fill="#FFFFFF" d="M110.783,6.934h3.88c-0.408-0.998-0.851-1.897-1.329-2.698l2.046-0.338
		c0.491,1.012,0.921,2.024,1.286,3.036h3.035v1.919h-4.954l-0.021,2.678h4.026c0,5.172-0.091,8.419-0.274,9.74
		c-0.211,1.223-1.124,1.834-2.74,1.834c-0.197,0-0.695-0.035-1.497-0.105l-0.442-1.729c0.674,0.07,1.223,0.105,1.645,0.105
		c0.688,0,1.096-0.338,1.223-1.013c0.098-0.618,0.168-2.944,0.211-6.979h-2.235c-0.295,4.399-1.194,7.724-2.698,9.973l-1.561-1.37
		c1.616-2.39,2.445-6.248,2.488-11.575v-1.56h-2.088V6.934z M121.24,12.415c-0.322,0.521-0.604,0.936-0.843,1.244l-1.243-1.518
		c1.404-2.08,2.361-4.885,2.867-8.413l1.981,0.338c-0.169,1.012-0.358,1.961-0.569,2.846h6.072v1.919h-1.328
		c-0.155,3.472-0.942,6.444-2.361,8.918c1.25,1.673,2.705,2.987,4.363,3.943l-1.139,1.687c-1.658-0.956-3.105-2.277-4.342-3.964
		c-1.224,1.561-2.748,2.881-4.576,3.964l-1.096-1.75c1.883-1.013,3.395-2.319,4.533-3.922
		C122.633,16.104,121.859,14.341,121.24,12.415z M122.885,8.831c-0.141,0.408-0.322,0.893-0.547,1.455
		c0.576,2.108,1.342,3.984,2.297,5.629c0.971-2.023,1.519-4.385,1.645-7.084H122.885z"/>
	<path fill="#FFFFFF" d="M132.815,4.72h17.161v1.961h-7.674v7.464h8.476v1.918h-8.476v7.295h-2.023v-7.295h-8.307v-1.918h8.307
		V6.681h-7.464V4.72z M135.768,7.672c0.787,1.489,1.524,3.064,2.213,4.723l-1.876,0.928c-0.688-1.771-1.427-3.353-2.214-4.744
		L135.768,7.672z M148.986,8.451c-0.59,1.575-1.385,3.163-2.383,4.766l-1.813-0.928c0.983-1.589,1.771-3.155,2.361-4.702
		L148.986,8.451z"/>
	<path fill="#FFFFFF" d="M153.498,10.581c1.603-0.352,3.816-2.601,6.642-6.747l2.087,0.717c-1.715,2.376-3.451,4.357-5.207,5.946
		c3.457-0.127,6.922-0.352,10.394-0.675c-0.576-0.857-1.265-1.799-2.065-2.825l1.813-0.864c1.729,2.122,3.353,4.448,4.87,6.979
		l-1.96,0.97c-0.535-0.941-1.027-1.771-1.477-2.488c-4.399,0.38-9.305,0.675-14.716,0.886L153.498,10.581z M169.669,14.439v8.96
		h-2.024v-0.864h-10.373v0.864h-2.023v-8.96H169.669z M157.271,20.616h10.373v-4.259h-10.373V20.616z"/>
</g>
<g id="GASH" transform="translate(260.000000, 23.000000)">
	<polygon id="Shape" fill="#DA005C" points="-181.028,-8.736 -191.384,-8.736 -191.384,0.828 -195.862,0.828 -195.862,-22.039 
		-191.384,-22.039 -191.384,-12.366 -181.028,-12.366 -181.028,-12.366 -181.028,-22.039 -176.555,-22.039 -176.555,0.828 
		-181.028,0.828 -181.028,-8.99 	"/>
	<polygon id="Shape_1_" fill="#DA005C" points="-224.542,-22.039 -226.453,-22.039 -228.367,-22.039 -238.085,0.828 -233.39,0.828 
		-226.564,-15.691 -226.339,-15.691 -219.578,0.828 -214.821,0.828 	"/>
	<path id="Shape_2_" fill="#DA005C" d="M-215.508-4.199l0.046,0.115c0.319,0.834,2.18,5.21,8.296,5.441
		c9.808,0.377,9.632-5.952,9.632-7.254c0-0.857-0.474-3.453-3.332-4.964c-3.675-1.946-9.934-1.711-9.934-5.457
		c0-1.148,1.021-2.758,4.056-2.817c2.937-0.054,4.475,1.86,4.684,2.935l3.354-0.984c-0.596-1.311-1.872-4.975-8.195-4.975
		c-1.24,0-2.368,0.138-3.33,0.464c-3.933,1.333-4.645,4.37-4.639,5.885c0.054,8.758,13.061,6.484,12.914,11.009
		c-0.053,1.658-1.676,2.969-4.942,2.828c-3.384-0.139-4.539-2.217-5.083-3.43L-215.508-4.199z"/>
	<path id="Shape_3_" fill="#DA005C" d="M-247.938-18.736c2.937-0.063,4.686,1.461,5.002,2.477l3.588-0.984
		c-0.598-1.311-2.656-4.723-8.466-4.979c-11.006,0-11.84,10.315-11.84,11.362c0,10.872,8.082,12.083,11.223,12.226
		c2.804,0.135,7.121-0.156,9.229-0.585v-1.499v-2.66v-8.988h-11.357v3.636h7.095c0.036,0,0.065,0.027,0.065,0.064v6.371
		c0,0.037-0.029,0.076-0.062,0.088c0,0-1.757,0.352-4.292,0.264c-0.997-0.031-7.226-0.279-7.226-8.446
		C-254.979-15.635-252.362-18.689-247.938-18.736"/>
</g>
</svg>
