<?xml version="1.0" encoding="utf-8"?>
<!-- Generator: Adobe Illustrator 16.0.3, SVG Export Plug-In . SVG Version: 6.00 Build 0)  -->
<!DOCTYPE svg PUBLIC "-//W3C//DTD SVG 1.1//EN" "http://www.w3.org/Graphics/SVG/1.1/DTD/svg11.dtd">
<svg version="1.1" id="圖層_1" xmlns="http://www.w3.org/2000/svg" xmlns:xlink="http://www.w3.org/1999/xlink" x="0px" y="0px"
	 width="12px" height="12px" viewBox="417 64 12 12" enable-background="new 417 64 12 12" xml:space="preserve">
<path fill="#757575" d="M427.098,75.78l1.683-1.683c0.293-0.296,0.293-0.767,0-1.06L425.743,70l3.037-3.037
	c0.293-0.294,0.293-0.765,0-1.059l-1.683-1.684c-0.296-0.293-0.767-0.293-1.06,0L423,67.257l-3.037-3.037
	c-0.294-0.293-0.765-0.293-1.059,0l-1.685,1.684c-0.293,0.294-0.293,0.765,0,1.059L420.257,70l-3.037,3.039
	c-0.293,0.293-0.293,0.764,0,1.06l1.685,1.683c0.294,0.293,0.765,0.293,1.059,0L423,72.743l3.038,3.037
	C426.329,76.071,426.802,76.071,427.098,75.78z"/>
</svg>
