<?xml version="1.0" encoding="utf-8"?>
<!-- Generator: Adobe Illustrator 16.0.3, SVG Export Plug-In . SVG Version: 6.00 Build 0)  -->
<!DOCTYPE svg PUBLIC "-//W3C//DTD SVG 1.1//EN" "http://www.w3.org/Graphics/SVG/1.1/DTD/svg11.dtd">
<svg version="1.1" id="圖層_1" xmlns="http://www.w3.org/2000/svg" xmlns:xlink="http://www.w3.org/1999/xlink" x="0px" y="0px"
	 width="640px" height="1136px" viewBox="0 0 640 1136" enable-background="new 0 0 640 1136" xml:space="preserve">
<path fill="#FFFFFF" d="M270,248h100c16.625,0,30,13.375,30,30v210h109.625c22.25,0,33.375,26.875,17.625,42.625l-190.125,190.25
	c-9.375,9.375-24.75,9.375-34.125,0l-190.375-190.25C96.875,514.875,108,488,130.25,488H240V278C240,261.375,253.375,248,270,248z
	 M640,718v140c0,16.625-13.375,30-30,30H30c-16.625,0-30-13.375-30-30V718c0-16.625,13.375-30,30-30h183.375l61.25,61.25
	c25.125,25.125,65.625,25.125,90.75,0l61.25-61.25H610C626.625,688,640,701.375,640,718z M485,828c0-13.75-11.25-25-25-25
	s-25,11.25-25,25s11.25,25,25,25S485,841.75,485,828z M565,828c0-13.75-11.25-25-25-25s-25,11.25-25,25s11.25,25,25,25
	S565,841.75,565,828z"/>
</svg>
