<?xml version="1.0" encoding="utf-8"?>
<!-- Generator: Adobe Illustrator 16.0.3, SVG Export Plug-In . SVG Version: 6.00 Build 0)  -->
<!DOCTYPE svg PUBLIC "-//W3C//DTD SVG 1.1//EN" "http://www.w3.org/Graphics/SVG/1.1/DTD/svg11.dtd">
<svg version="1.1" id="圖層_1" xmlns="http://www.w3.org/2000/svg" xmlns:xlink="http://www.w3.org/1999/xlink" x="0px" y="0px"
	 width="200px" height="200px" viewBox="0 0 200 200" enable-background="new 0 0 200 200" xml:space="preserve">
<path fill="#777777" d="M121.875,71.875c0,7.961-2.846,14.77-8.539,20.424c-5.691,5.655-12.518,8.482-20.479,8.482
	c-7.962,0-14.788-2.828-20.479-8.482c-5.692-5.654-8.538-12.462-8.538-20.424c0-8.036,2.846-14.881,8.538-20.536
	s12.52-8.481,20.479-8.481c7.961,0,14.788,2.827,20.479,8.481C119.029,56.994,121.875,63.839,121.875,71.875z"/>
<path fill="#777777" d="M116.518,96.428c3.424,0,6.492,0.632,9.207,1.897c2.717,1.265,4.949,3.03,6.697,5.301
	s3.219,4.762,4.408,7.478c1.189,2.717,2.084,5.729,2.678,9.04c0.598,3.313,1.023,6.382,1.285,9.208
	c0.26,2.827,0.389,5.768,0.389,8.816c0,4.986-1.469,9.394-4.406,13.227c-2.939,3.832-6.863,5.747-11.775,5.747H60.714
	c-4.911,0-8.835-1.915-11.773-5.747c-2.939-3.833-4.408-8.239-4.408-13.227c0-3.57,0.167-7.049,0.501-10.435
	c0.335-3.387,1.022-7.051,2.064-10.993c1.042-3.943,2.399-7.349,4.074-10.212c1.674-2.865,4.019-5.266,7.031-7.199
	s6.492-2.901,10.436-2.901h0.559c0.521,0.298,1.711,1.023,3.57,2.177c1.86,1.152,3.182,1.934,3.962,2.343
	c0.781,0.409,2.01,1.042,3.684,1.896c1.674,0.855,3.05,1.451,4.129,1.786s2.381,0.669,3.906,1.004
	c1.524,0.336,2.995,0.503,4.407,0.503c1.414,0,2.884-0.167,4.409-0.503c1.525-0.335,2.827-0.669,3.907-1.004
	c1.078-0.335,2.455-0.931,4.129-1.786c1.674-0.854,2.902-1.487,3.684-1.896s2.104-1.19,3.963-2.343
	C114.807,97.451,115.996,96.726,116.518,96.428z"/>
<path fill="#777777" d="M189.285,71.428c0.967,0,1.805-0.354,2.512-1.061s1.061-1.544,1.061-2.511v-21.43
	c0-0.967-0.354-1.804-1.061-2.511s-1.545-1.061-2.512-1.061H178.57v-25c0-4.911-1.748-9.115-5.244-12.612
	C169.828,1.746,165.625,0,160.715,0H25c-4.911,0-9.115,1.749-12.612,5.246s-5.245,7.701-5.245,12.612v164.285
	c0,4.91,1.748,9.114,5.245,12.61C15.884,198.252,20.089,200,25,200h135.715c4.91,0,9.113-1.748,12.611-5.246
	c3.496-3.496,5.244-7.7,5.244-12.609v-25.002h10.715c0.967,0,1.805-0.353,2.512-1.061c0.707-0.706,1.061-1.543,1.061-2.511v-21.429
	c0-0.968-0.354-1.806-1.061-2.512c-0.707-0.707-1.545-1.061-2.512-1.061H178.57v-14.285h10.715c0.967,0,1.805-0.354,2.512-1.061
	s1.061-1.545,1.061-2.513V89.284c0-0.967-0.354-1.804-1.061-2.511s-1.545-1.062-2.512-1.062H178.57V71.426h10.715V71.428z
	 M164.285,182.143c0,0.967-0.354,1.805-1.061,2.512c-0.707,0.706-1.545,1.06-2.512,1.06H25c-0.967,0-1.804-0.354-2.511-1.06
	c-0.707-0.707-1.061-1.545-1.061-2.512V17.857c0-0.968,0.354-1.806,1.061-2.513s1.544-1.06,2.511-1.06h135.715
	c0.965,0,1.803,0.354,2.51,1.06c0.707,0.707,1.061,1.544,1.061,2.513V182.143L164.285,182.143z"/>
</svg>
