<?xml version="1.0" encoding="utf-8"?>
<!-- Generator: Adobe Illustrator 16.0.0, SVG Export Plug-In . SVG Version: 6.00 Build 0)  -->
<!DOCTYPE svg PUBLIC "-//W3C//DTD SVG 1.1//EN" "http://www.w3.org/Graphics/SVG/1.1/DTD/svg11.dtd">
<svg version="1.1" id="圖層_1" xmlns="http://www.w3.org/2000/svg" xmlns:xlink="http://www.w3.org/1999/xlink" x="0px" y="0px"
	 width="200px" height="200px" viewBox="796 796 200 200" enable-background="new 796 796 200 200" xml:space="preserve">
<path fill="#FFFFFF" d="M996,954.333V971c0,2.257-0.825,4.21-2.474,5.859c-1.649,1.649-3.603,2.474-5.859,2.474H804.334
	c-2.257,0-4.21-0.824-5.859-2.474C796.825,975.21,796,973.257,796,971v-16.667c0-2.257,0.825-4.21,2.474-5.859
	c1.649-1.648,3.602-2.474,5.859-2.474h183.333c2.257,0,4.21,0.825,5.859,2.474C995.175,950.123,996,952.076,996,954.333z
	 M996,887.666v16.667c0,2.258-0.825,4.211-2.474,5.859c-1.649,1.649-3.603,2.475-5.859,2.475H804.334
	c-2.257,0-4.21-0.825-5.859-2.475c-1.649-1.648-2.474-3.602-2.474-5.859v-16.667c0-2.257,0.825-4.21,2.474-5.859
	c1.649-1.649,3.602-2.474,5.859-2.474h183.333c2.257,0,4.21,0.825,5.859,2.474C995.175,883.456,996,885.409,996,887.666z M996,821
	v16.667c0,2.257-0.825,4.21-2.474,5.859c-1.649,1.649-3.603,2.474-5.859,2.474H804.334c-2.257,0-4.21-0.825-5.859-2.474
	c-1.649-1.649-2.474-3.602-2.474-5.859V821c0-2.257,0.825-4.21,2.474-5.859c1.649-1.649,3.602-2.474,5.859-2.474h183.333
	c2.257,0,4.21,0.825,5.859,2.474C995.175,816.79,996,818.743,996,821z"/>
</svg>
