<?xml version="1.0" encoding="utf-8"?>
<!-- Generator: Adobe Illustrator 16.0.3, SVG Export Plug-In . SVG Version: 6.00 Build 0)  -->
<!DOCTYPE svg PUBLIC "-//W3C//DTD SVG 1.1//EN" "http://www.w3.org/Graphics/SVG/1.1/DTD/svg11.dtd">
<svg version="1.1" id="Capa_1" xmlns="http://www.w3.org/2000/svg" xmlns:xlink="http://www.w3.org/1999/xlink" x="0px" y="0px"
	 width="200px" height="200px" viewBox="0 0 200 200" enable-background="new 0 0 200 200" xml:space="preserve">
<g>
	<path fill="#777777" d="M195.814,76.548c-2.791-2.789-6.158-4.186-10.104-4.186h0.002V29.505c0-3.869-1.414-7.217-4.239-10.045
		c-2.826-2.828-6.181-4.242-10.047-4.242c-34.3,28.572-67.634,42.857-100,42.857h-53.57c-4.911,0-9.114,1.748-12.612,5.245
		C1.746,66.819,0,71.023,0,75.934v21.428c0,4.911,1.744,9.115,5.242,12.612c3.498,3.5,7.701,5.244,12.612,5.244h13.617
		c-1.265,4.021-2.083,8.134-2.455,12.334c-0.371,4.203-0.501,7.867-0.392,10.994c0.111,3.125,0.67,6.881,1.674,11.271
		c1.005,4.39,1.861,7.7,2.568,9.932c0.705,2.234,1.896,5.748,3.57,10.548c1.673,4.799,2.771,8.054,3.292,9.765
		c3.422,3.125,8.333,5.191,14.731,6.194c6.4,1.002,12.668,0.575,18.807-1.284s10.287-4.949,12.443-9.264
		c-2.826-2.231-5.114-4.11-6.862-5.637c-1.749-1.524-3.534-3.384-5.356-5.579c-1.824-2.193-3.07-4.24-3.74-6.138
		c-0.668-1.896-0.893-4.055-0.668-6.475c0.223-2.419,1.078-4.856,2.566-7.311c-2.828-2.901-4.316-6.344-4.465-10.323
		c-0.146-3.979,1.005-7.72,3.46-11.217c2.455-3.496,5.841-5.953,10.156-7.365c29.391,2.455,59.598,16.592,90.625,42.41
		c3.868,0,7.221-1.414,10.044-4.242c2.828-2.824,4.24-6.175,4.24-10.043v-42.855c3.947,0,7.313-1.395,10.104-4.186
		c2.788-2.791,4.186-6.158,4.186-10.1C199.998,82.706,198.603,79.339,195.814,76.548z M171.428,139.773
		c-29.094-22.246-57.663-34.935-85.713-38.058V71.581c27.826-3.052,56.398-15.812,85.713-38.281V139.773z"/>
</g>
</svg>
