<?xml version="1.0" encoding="utf-8"?>
<!-- Generator: Adobe Illustrator 16.0.3, SVG Export Plug-In . SVG Version: 6.00 Build 0)  -->
<!DOCTYPE svg PUBLIC "-//W3C//DTD SVG 1.1//EN" "http://www.w3.org/Graphics/SVG/1.1/DTD/svg11.dtd">
<svg version="1.1" id="Capa_1" xmlns="http://www.w3.org/2000/svg" xmlns:xlink="http://www.w3.org/1999/xlink" x="0px" y="0px"
	 width="200px" height="200px" viewBox="0 0 200 200" enable-background="new 0 0 200 200" xml:space="preserve">
<g>
	<path fill="#777777" d="M189.616,32.813c-2.824-2.828-6.176-4.242-10.045-4.242h-14.283V17.857c0-4.909-1.75-9.114-5.248-12.61
		c-3.498-3.498-7.699-5.246-12.61-5.246h-7.142c-4.912,0-9.114,1.75-12.612,5.246c-3.498,3.498-5.246,7.701-5.246,12.611v10.715
		H79.575V17.858c0-4.91-1.75-9.113-5.248-12.611c-3.496-3.496-7.699-5.246-12.611-5.246h-7.143c-4.91,0-9.115,1.75-12.611,5.246
		c-3.497,3.498-5.246,7.701-5.246,12.611v10.715H22.432c-3.871,0-7.218,1.414-10.046,4.24c-2.827,2.827-4.241,6.178-4.241,10.045
		v142.857c0,3.865,1.414,7.214,4.241,10.042c2.828,2.828,6.175,4.241,10.046,4.241h157.14c3.867,0,7.219-1.413,10.043-4.241
		c2.827-2.827,4.241-6.177,4.241-10.042V42.858C193.855,38.989,192.442,35.641,189.616,32.813z M54.571,185.715H22.431v-32.146
		h32.141V185.715z M54.571,146.429H22.431v-35.712h32.141V146.429z M54.571,103.571H22.431V71.429h32.141V103.571z M52.063,52.512
		c-0.707-0.708-1.06-1.542-1.06-2.511V17.858c0-0.967,0.354-1.805,1.06-2.511c0.708-0.708,1.542-1.06,2.511-1.06h7.143
		c0.967,0,1.805,0.353,2.511,1.06c0.707,0.707,1.062,1.543,1.062,2.511v32.143c0,0.969-0.355,1.804-1.062,2.511
		c-0.706,0.708-1.542,1.06-2.511,1.06h-7.143C53.606,53.571,52.77,53.219,52.063,52.512z M97.43,185.715H61.715v-32.146H97.43
		V185.715L97.43,185.715z M97.43,146.429H61.715v-35.712H97.43V146.429L97.43,146.429z M97.43,103.571H61.715V71.429H97.43V103.571
		L97.43,103.571z M140.288,185.715h-35.715v-32.146h35.715V185.715z M140.288,146.429h-35.715v-35.712h35.715V146.429z
		 M140.288,103.571h-35.715V71.429h35.715V103.571z M137.776,52.512c-0.707-0.708-1.059-1.542-1.059-2.511V17.858
		c0-0.967,0.352-1.805,1.059-2.511c0.706-0.708,1.543-1.06,2.512-1.06h7.143c0.969,0,1.805,0.353,2.512,1.06
		c0.706,0.707,1.059,1.543,1.059,2.511v32.143c0,0.969-0.354,1.804-1.059,2.511c-0.705,0.708-1.543,1.06-2.512,1.06h-7.143
		C139.319,53.571,138.479,53.219,137.776,52.512z M179.569,185.715h-32.144v-32.146h32.144V185.715z M179.569,146.429h-32.144
		v-35.712h32.144V146.429z M179.569,103.571h-32.144V71.429h32.144V103.571z"/>
</g>
</svg>
