<?xml version="1.0" encoding="utf-8"?>
<!-- Generator: Adobe Illustrator 16.0.0, SVG Export Plug-In . SVG Version: 6.00 Build 0)  -->
<!DOCTYPE svg PUBLIC "-//W3C//DTD SVG 1.1//EN" "http://www.w3.org/Graphics/SVG/1.1/DTD/svg11.dtd">
<svg version="1.1" id="圖層_1" xmlns="http://www.w3.org/2000/svg" xmlns:xlink="http://www.w3.org/1999/xlink" x="0px" y="0px"
	 width="400px" height="400px" viewBox="952 696 400 400" enable-background="new 952 696 400 400" xml:space="preserve">
<path fill="#FFFFFF" d="M1237.59,927.069c0-6.828-1.967-12.992-5.902-18.489c-3.936-5.498-8.97-9.462-15.104-11.893
	c-0.81,5.208-2.141,10.532-3.993,15.973c-0.81,2.777-2.401,4.977-4.773,6.597c-2.373,1.62-4.948,2.431-7.727,2.431
	c-1.389,0-2.777-0.174-4.166-0.521c-3.588-1.157-6.192-3.386-7.813-6.685c-1.621-3.299-1.853-6.684-0.694-10.156
	c2.662-8.217,3.993-16.493,3.993-24.826c0-14.236-3.53-27.401-10.591-39.497c-7.061-12.095-16.667-21.672-28.819-28.732
	c-12.153-7.06-25.347-10.59-39.583-10.59c-15.509,0-29.803,4.225-42.882,12.673c-13.079,8.449-22.743,19.676-28.993,33.681
	c12.5,3.241,23.38,9.375,32.639,18.403c2.546,2.662,3.819,5.845,3.819,9.549c0,3.704-1.273,6.829-3.819,9.375
	c-2.546,2.546-5.671,3.819-9.375,3.819c-3.704,0-6.887-1.273-9.549-3.819c-8.681-8.681-19.097-13.021-31.25-13.021
	c-12.269,0-22.743,4.312-31.423,12.934c-8.681,8.623-13.021,19.068-13.021,31.337s4.34,22.714,13.021,31.337
	c8.68,8.622,19.155,12.934,31.423,12.934h181.598c9.144,0,16.927-3.212,23.351-9.636
	C1234.379,943.823,1237.59,936.097,1237.59,927.069z M1264.153,927.069c0,16.436-5.815,30.44-17.447,42.014
	c-11.632,11.574-25.666,17.361-42.101,17.361h-181.598c-19.56,0-36.285-6.915-50.173-20.746
	C958.945,951.867,952,935.171,952,915.611c0-17.709,5.787-33.16,17.361-46.354c11.574-13.194,25.983-21.064,43.229-23.611
	c7.176-21.296,19.965-38.542,38.368-51.736s38.889-19.792,61.458-19.792c27.199,0,50.839,9.172,70.92,27.517
	c20.081,18.345,31.452,40.886,34.114,67.622c13.426,2.894,24.566,9.751,33.42,20.573
	C1259.726,900.651,1264.153,913.064,1264.153,927.069z M1307.556,927.069c0,20.255-5.613,38.716-16.841,55.382
	c-2.662,3.819-6.365,5.729-11.11,5.729c-2.778,0-5.267-0.752-7.466-2.257c-3.009-1.968-4.861-4.774-5.556-8.42
	c-0.694-3.646,0-6.974,2.084-9.983c8.217-12.037,12.326-25.521,12.326-40.451s-4.109-28.414-12.326-40.451
	c-2.084-3.009-2.778-6.308-2.084-9.896s2.547-6.423,5.556-8.507c3.01-2.083,6.337-2.749,9.982-1.997
	c3.646,0.752,6.511,2.633,8.594,5.643C1301.943,888.296,1307.556,906.699,1307.556,927.069z M1352,927.069
	c0,28.241-7.755,53.878-23.264,76.91c-2.662,3.935-6.366,5.902-11.111,5.902c-2.662,0-5.093-0.752-7.292-2.257
	c-3.009-2.083-4.89-4.919-5.642-8.507c-0.753-3.588-0.087-6.887,1.996-9.896c12.5-18.981,18.75-39.699,18.75-62.153
	c0-22.569-6.25-43.229-18.75-61.979c-2.083-3.009-2.749-6.337-1.996-9.983c0.752-3.646,2.633-6.452,5.642-8.42
	c3.01-2.083,6.308-2.778,9.896-2.083c3.588,0.695,6.423,2.604,8.507,5.729C1344.245,873.25,1352,898.829,1352,927.069z"/>
</svg>
