<?xml version="1.0" encoding="utf-8"?>
<!-- Generator: Adobe Illustrator 16.0.3, SVG Export Plug-In . SVG Version: 6.00 Build 0)  -->
<!DOCTYPE svg PUBLIC "-//W3C//DTD SVG 1.1//EN" "http://www.w3.org/Graphics/SVG/1.1/DTD/svg11.dtd">
<svg version="1.1" id="Capa_1" xmlns="http://www.w3.org/2000/svg" xmlns:xlink="http://www.w3.org/1999/xlink" x="0px" y="0px"
	 width="200px" height="200px" viewBox="0 0 200 200" enable-background="new 0 0 200 200" xml:space="preserve">
<g>
	<g>
		<path fill="#777777" d="M197.715,56.131l-46.15-46.154c-1.524-1.522-3.33-2.283-5.412-2.283c-0.957,0-1.961,0.201-3.002,0.6
			c-3.127,1.363-4.688,3.727-4.688,7.092v23.078H119.23c-8.492,0-16.367,0.441-23.617,1.322c-7.252,0.88-13.643,2.102-19.17,3.666
			c-5.529,1.561-10.518,3.505-14.965,5.828c-4.445,2.324-8.231,4.787-11.357,7.393c-3.126,2.604-5.87,5.569-8.232,8.895
			c-2.365,3.326-4.248,6.59-5.65,9.795c-1.401,3.207-2.523,6.73-3.365,10.576c-0.844,3.847-1.402,7.453-1.684,10.816
			c-0.28,3.365-0.42,7.011-0.42,10.935c0,4.49,0.701,9.377,2.104,14.666s2.945,9.855,4.627,13.701
			c1.684,3.844,3.667,7.832,5.95,11.957c2.282,4.127,3.866,6.869,4.747,8.232c0.881,1.359,1.724,2.604,2.523,3.727
			c0.801,1.041,1.844,1.563,3.125,1.563c0.321,0,0.801-0.078,1.442-0.24c1.842-0.881,2.644-2.24,2.403-4.084
			c-3.605-26.924-0.641-45.875,8.895-56.853c9.216-10.496,26.764-15.746,52.645-15.746h19.232v23.076
			c0,3.369,1.563,5.73,4.688,7.096c1.041,0.398,2.043,0.6,3.004,0.6c2.162,0,3.968-0.762,5.41-2.283l46.152-46.154
			c1.521-1.524,2.284-3.325,2.284-5.408C199.998,59.456,199.236,57.651,197.715,56.131z"/>
		<path fill="#777777" d="M166.705,123.076c-1.525-0.645-2.926-0.322-4.207,0.961c-2.083,1.924-4.249,3.406-6.491,4.447
			c-1.444,0.801-2.164,1.961-2.164,3.482v25.725c0,5.287-1.881,9.813-5.647,13.58c-3.766,3.768-8.295,5.65-13.582,5.65h-100
			c-5.289,0-9.816-1.883-13.584-5.65c-3.766-3.768-5.648-8.291-5.648-13.58v-100c0-5.289,1.883-9.814,5.648-13.582
			c3.767-3.766,8.294-5.647,13.584-5.647h13.461c0.48,0,1.123-0.161,1.923-0.481c4.487-2.725,9.813-5.129,15.985-7.213
			c2.082-0.399,3.125-1.681,3.125-3.846c0-1.042-0.381-1.941-1.143-2.705c-0.761-0.759-1.66-1.14-2.703-1.14H34.614
			c-9.536,0-17.689,3.385-24.46,10.155C3.384,40.004-0.002,48.158-0.002,57.692v99.998c0,9.535,3.386,17.689,10.156,24.461
			s14.924,10.156,24.46,10.156h99.999c9.533,0,17.688-3.387,24.459-10.156c6.771-6.771,10.156-14.924,10.156-24.461v-31.129
			C169.23,124.959,168.389,123.797,166.705,123.076z"/>
	</g>
</g>
</svg>
