<?xml version="1.0" encoding="utf-8"?>
<!-- Generator: Adobe Illustrator 16.0.0, SVG Export Plug-In . SVG Version: 6.00 Build 0)  -->
<!DOCTYPE svg PUBLIC "-//W3C//DTD SVG 1.1//EN" "http://www.w3.org/Graphics/SVG/1.1/DTD/svg11.dtd">
<svg version="1.1" id="圖層_1" xmlns="http://www.w3.org/2000/svg" xmlns:xlink="http://www.w3.org/1999/xlink" x="0px" y="0px"
	 width="200px" height="200px" viewBox="796 796 200 200" enable-background="new 796 796 200 200" xml:space="preserve">
<path fill="#FFFFFF" d="M945.61,925.427c0-2.257-0.825-4.21-2.474-5.859L919.568,896l23.568-23.568
	c1.648-1.649,2.474-3.602,2.474-5.859c0-2.344-0.825-4.34-2.474-5.989l-11.719-11.719c-1.649-1.649-3.646-2.474-5.99-2.474
	c-2.257,0-4.21,0.825-5.859,2.474L896,872.432l-23.568-23.567c-1.649-1.649-3.603-2.474-5.859-2.474
	c-2.344,0-4.34,0.825-5.989,2.474l-11.719,11.719c-1.649,1.649-2.474,3.646-2.474,5.989c0,2.257,0.825,4.21,2.474,5.859L872.432,896
	l-23.567,23.567c-1.649,1.649-2.474,3.603-2.474,5.859c0,2.344,0.825,4.341,2.474,5.99l11.719,11.719
	c1.649,1.649,3.646,2.474,5.989,2.474c2.257,0,4.21-0.824,5.859-2.474L896,919.567l23.567,23.568
	c1.649,1.649,3.603,2.474,5.859,2.474c2.344,0,4.341-0.824,5.99-2.474l11.719-11.719C944.784,929.767,945.61,927.77,945.61,925.427z
	 M996,896c0,18.143-4.471,34.874-13.411,50.195c-8.941,15.321-21.072,27.452-36.394,36.394C930.874,991.529,914.143,996,896,996
	s-34.874-4.471-50.195-13.411c-15.321-8.941-27.452-21.072-36.393-36.394C800.47,930.874,796,914.142,796,896
	c0-18.142,4.47-34.874,13.412-50.195c8.941-15.321,21.072-27.452,36.393-36.393S877.858,796,896,796s34.874,4.471,50.195,13.412
	s27.452,21.072,36.394,36.393C991.53,861.126,996,877.858,996,896z"/>
</svg>
