<?xml version="1.0" encoding="utf-8"?>
<!-- Generator: Adobe Illustrator 16.0.3, SVG Export Plug-In . SVG Version: 6.00 Build 0)  -->
<!DOCTYPE svg PUBLIC "-//W3C//DTD SVG 1.1//EN" "http://www.w3.org/Graphics/SVG/1.1/DTD/svg11.dtd">
<svg version="1.1" id="Capa_1" xmlns="http://www.w3.org/2000/svg" xmlns:xlink="http://www.w3.org/1999/xlink" x="0px" y="0px"
	 width="200px" height="200px" viewBox="0 0 200 200" enable-background="new 0 0 200 200" xml:space="preserve">
<g>
	<g>
		<path fill="#777777" d="M39.999,61.001c7.362,0,13.646-2.604,18.854-7.813c5.207-5.207,7.813-11.494,7.813-18.854
			s-2.605-13.646-7.813-18.855c-5.209-5.207-11.491-7.813-18.854-7.813c-7.36,0-13.646,2.604-18.854,7.813
			c-5.207,5.209-7.813,11.494-7.813,18.855c0,7.362,2.605,13.646,7.813,18.854C26.354,58.396,32.637,61.001,39.999,61.001z"/>
		<path fill="#777777" d="M71.717,102.619c7.813,7.811,17.239,11.717,28.282,11.717c11.044,0,20.47-3.906,28.281-11.717
			c7.812-7.815,11.719-17.243,11.719-28.284c0-11.042-3.907-20.468-11.719-28.281c-7.812-7.813-17.237-11.719-28.281-11.719
			c-11.043,0-20.47,3.907-28.282,11.719c-7.812,7.813-11.719,17.238-11.719,28.281S63.905,94.804,71.717,102.619z"/>
		<path fill="#777777" d="M160.002,61.001c7.359,0,13.645-2.604,18.854-7.813c5.207-5.207,7.811-11.494,7.811-18.854
			s-2.604-13.646-7.811-18.855c-5.209-5.207-11.493-7.813-18.854-7.813c-7.363,0-13.648,2.604-18.855,7.813
			s-7.813,11.494-7.813,18.855c0,7.362,2.605,13.646,7.813,18.854S152.637,61.001,160.002,61.001z"/>
		<path fill="#777777" d="M187.081,61.002c-0.414,0-1.925,0.729-4.528,2.188s-5.99,2.935-10.156,4.428
			c-4.164,1.492-8.299,2.238-12.395,2.238c-4.654,0-9.27-0.797-13.854-2.396c0.345,2.568,0.52,4.86,0.52,6.875
			c0,9.653-2.813,18.541-8.439,26.667c11.252,0.348,20.451,4.791,27.606,13.336h13.958c5.693,0,10.484-1.408,14.373-4.223
			c3.889-2.811,5.834-6.926,5.834-12.342C200,73.258,195.696,61.001,187.081,61.002z"/>
		<path fill="#777777" d="M171.514,145.219c-0.729-4.063-1.65-7.83-2.763-11.301c-1.11-3.475-2.604-6.857-4.478-10.156
			c-1.875-3.297-4.028-6.109-6.459-8.438c-2.434-2.328-5.402-4.184-8.908-5.574c-3.506-1.389-7.379-2.082-11.614-2.082
			c-0.694,0-2.188,0.746-4.479,2.24c-2.291,1.492-4.823,3.162-7.604,5c-2.777,1.838-6.49,3.506-11.146,4.998
			c-4.655,1.494-9.342,2.24-14.063,2.24s-9.41-0.746-14.063-2.24c-4.654-1.492-8.368-3.16-11.146-4.998
			c-2.779-1.838-5.313-3.508-7.604-5c-2.293-1.494-3.785-2.24-4.48-2.24c-4.234,0-8.107,0.693-11.613,2.082
			c-3.508,1.393-6.477,3.246-8.906,5.574c-2.434,2.324-4.584,5.143-6.461,8.438c-1.873,3.299-3.366,6.682-4.478,10.156
			c-1.11,3.471-2.03,7.238-2.761,11.301c-0.73,4.064-1.215,7.848-1.458,11.355c-0.243,3.506-0.364,7.102-0.364,10.783
			c0,8.332,2.534,14.91,7.604,19.736c5.072,4.824,11.808,7.238,20.209,7.238h91.041c8.402,0,15.139-2.414,20.211-7.238
			c5.068-4.826,7.604-11.404,7.604-19.736c0-3.682-0.123-7.275-0.361-10.783C172.727,153.066,172.24,149.283,171.514,145.219z"/>
		<path fill="#777777" d="M61.77,101.002c-5.625-8.125-8.438-17.014-8.437-26.667c0-2.015,0.174-4.305,0.521-6.875
			c-4.584,1.597-9.201,2.396-13.854,2.396c-4.097,0-8.228-0.746-12.396-2.238c-4.166-1.493-7.553-2.969-10.155-4.428
			C14.844,61.73,13.332,61,12.916,61C4.305,61-0.001,73.258-0.001,97.771c0,5.417,1.944,9.534,5.833,12.344
			c3.889,2.813,8.682,4.219,14.374,4.219h13.959C41.318,105.795,50.518,101.35,61.77,101.002z"/>
	</g>
</g>
</svg>
