<?xml version="1.0" encoding="utf-8"?>
<!-- Generator: Adobe Illustrator 16.0.3, SVG Export Plug-In . SVG Version: 6.00 Build 0)  -->
<!DOCTYPE svg PUBLIC "-//W3C//DTD SVG 1.1//EN" "http://www.w3.org/Graphics/SVG/1.1/DTD/svg11.dtd">
<svg version="1.1" id="圖層_1" xmlns="http://www.w3.org/2000/svg" xmlns:xlink="http://www.w3.org/1999/xlink" x="0px" y="0px"
	 width="140px" height="140px" viewBox="353 0 140 140" enable-background="new 353 0 140 140" xml:space="preserve">
<path fill="#3B5998" d="M493,15v110c0,8.281-6.719,15-15,15h-26.656V84.625h18.938L473,63.5h-21.656V50
	c0-6.125,1.688-10.281,10.468-10.281H473V20.844c-1.937-0.25-8.563-0.844-16.313-0.844c-16.126,0-27.187,9.844-27.187,27.938v15.594
	H410.5v21.125h19.031V140H368c-8.281,0-15-6.719-15-15V15c0-8.281,6.719-15,15-15h110C486.281,0,493,6.719,493,15z"/>
</svg>
