<?xml version="1.0" encoding="utf-8"?>
<!-- Generator: Adobe Illustrator 16.0.3, SVG Export Plug-In . SVG Version: 6.00 Build 0)  -->
<!DOCTYPE svg PUBLIC "-//W3C//DTD SVG 1.1//EN" "http://www.w3.org/Graphics/SVG/1.1/DTD/svg11.dtd">
<svg version="1.1" id="圖層_1" xmlns="http://www.w3.org/2000/svg" xmlns:xlink="http://www.w3.org/1999/xlink" x="0px" y="0px"
	 width="140px" height="140px" viewBox="353 0 140 140" enable-background="new 353 0 140 140" xml:space="preserve">
<path fill="#DD4E40" d="M478,0H368c-8.281,0-15,6.719-15,15v110c0,8.281,6.719,15,15,15h110c8.281,0,15-6.719,15-15V15
	C493,6.719,486.281,0,478,0z M404.25,101.25C386.969,101.25,373,87.281,373,70s13.969-31.25,31.25-31.25
	c8.438,0,15.469,3.063,20.938,8.188l-8.469,8.157c-2.313-2.219-6.343-4.813-12.438-4.813c-10.656,0-19.344,8.813-19.344,19.75
	c0,10.906,8.688,19.749,19.344,19.749c12.375,0,17-8.905,17.75-13.468H404.25v-10.75h29.5c0.313,1.563,0.5,3.155,0.5,5.187
	C434.25,88.594,422.281,101.25,404.25,101.25z M473,75.688h-9.063v9.063h-9.126v-9.063h-9.062v-9.125h9.062V57.5h9.126v9.063H473
	V75.688z"/>
</svg>
