<?xml version="1.0" encoding="utf-8"?>
<!-- Generator: Adobe Illustrator 16.0.0, SVG Export Plug-In . SVG Version: 6.00 Build 0)  -->
<!DOCTYPE svg PUBLIC "-//W3C//DTD SVG 1.1//EN" "http://www.w3.org/Graphics/SVG/1.1/DTD/svg11.dtd">
<svg version="1.1" id="圖層_1" xmlns="http://www.w3.org/2000/svg" xmlns:xlink="http://www.w3.org/1999/xlink" x="0px" y="0px"
	 width="400px" height="105px" viewBox="0 0 400 105" enable-background="new 0 0 400 105" xml:space="preserve">
<g>
	<rect fill="#DE5F0F" width="105.211" height="105.212"/>
	<polygon fill="#231815" points="15.783,47.346 15.783,28.934 28.934,47.346 36.824,47.346 36.824,15.783 28.934,15.783 
		28.934,34.195 15.783,15.783 7.891,15.783 7.891,47.346 	"/>
	<line fill="#DE5F0F" x1="42.085" y1="15.782" x2="65.758" y2="15.782"/>
	<polyline fill="#231815" points="65.758,15.782 65.758,23.673 57.867,23.673 57.867,47.346 49.976,47.346 49.976,23.673 
		42.085,23.673 42.085,15.782 	"/>
	<rect x="7.891" y="57.867" fill="#231815" width="7.892" height="31.563"/>
	<rect x="23.673" y="57.867" fill="#231815" width="7.891" height="31.563"/>
	<rect x="23.673" y="81.539" fill="#231815" width="15.782" height="7.892"/>
	<path fill="#F4E829" d="M57.867,52.606c-10.169,0-18.413,8.245-18.413,18.413s8.243,18.412,18.413,18.412
		c10.169,0,18.412-8.244,18.412-18.412S68.036,52.606,57.867,52.606 M57.867,84.169c-7.264,0-13.152-5.888-13.152-13.15
		c0-7.264,5.889-13.151,13.152-13.151c7.263,0,13.151,5.888,13.151,13.151C71.018,78.281,65.13,84.169,57.867,84.169"/>
	<path fill="#1E95D4" d="M76.279,33.823c-10.169,0-18.412,8.243-18.412,18.412c0,10.169,8.243,18.412,18.412,18.412
		c10.168,0,18.411-8.243,18.411-18.412C94.69,42.066,86.447,33.823,76.279,33.823 M76.279,65.387
		c-7.264,0-13.152-5.889-13.152-13.152c0-7.263,5.888-13.151,13.152-13.151c7.263,0,13.151,5.888,13.151,13.151
		C89.43,59.498,83.542,65.387,76.279,65.387"/>
	<path fill="#231815" d="M78.909,35.509c0,2.906,2.355,5.261,5.261,5.261c2.905,0,5.26-2.355,5.26-5.261v-3.151V15.783h7.891v18.412
		c0,7.263-5.888,13.151-13.151,13.151c-7.264,0-13.152-5.889-13.152-13.151V15.783h7.891v16.576V35.509z"/>
	<path fill="#1E95D4" d="M81.832,40.223c2.784,1.363,5.076,3.662,6.385,6.488c1.71-0.553,3.265-1.446,4.59-2.599
		c-1.058-2.149-2.523-4.061-4.292-5.636c-0.948,1.385-2.54,2.294-4.344,2.294C83.33,40.77,82.536,40.574,81.832,40.223"/>
	<path fill="#F4E829" d="M75.392,65.356c-3.222-0.215-6.126-1.589-8.298-3.709c2.167,2.133,3.597,5.013,3.873,8.222
		c1.682,0.506,3.462,0.777,5.308,0.777C76.238,68.805,75.931,67.028,75.392,65.356"/>
	<path fill="#D21577" d="M105.212,78.91c-2.399,3.193-6.219,5.259-10.521,5.259c-7.263,0-13.152-5.888-13.152-13.15
		c0-7.264,5.889-13.151,13.152-13.151c4.303,0,8.122,2.066,10.521,5.259v-7.22c-2.982-2.079-6.609-3.3-10.521-3.3
		c-10.168,0-18.412,8.244-18.412,18.413s8.244,18.412,18.412,18.412c3.912,0,7.539-1.222,10.521-3.301V78.91z"/>
	<path fill="#1E95D4" d="M85.485,61.626c-2.176,2.136-5.084,3.516-8.318,3.73c-0.54,1.672-0.847,3.448-0.884,5.29
		c1.844,0,3.626-0.271,5.307-0.777C81.868,66.653,83.309,63.762,85.485,61.626"/>
	<rect x="126.254" y="58.096" fill="#9F9E9F" width="2.654" height="12.627"/>
	<polygon fill="#9F9E9F" points="140.095,70.722 134.199,62.456 134.199,70.722 131.658,70.722 131.658,58.095 134.199,58.095 
		140.095,66.361 140.095,58.095 142.635,58.095 142.635,70.722 	"/>
	<path fill="#9F9E9F" d="M145.291,58.095h3.811c1.113,0,2.121,0.157,3.025,0.474c0.903,0.315,1.674,0.756,2.313,1.317
		c0.639,0.563,1.131,1.229,1.479,2.001c0.347,0.771,0.521,1.611,0.521,2.521c0,0.911-0.174,1.753-0.521,2.523
		c-0.348,0.77-0.841,1.438-1.479,2.001c-0.638,0.562-1.409,1.002-2.313,1.317c-0.904,0.315-1.912,0.473-3.025,0.473h-3.811V58.095z
		 M149.159,68.618c0.67,0,1.29-0.097,1.858-0.286c0.569-0.19,1.059-0.467,1.47-0.829c0.41-0.361,0.729-0.803,0.957-1.323
		c0.227-0.52,0.341-1.11,0.341-1.772c0-0.659-0.114-1.249-0.341-1.771c-0.228-0.521-0.547-0.962-0.957-1.322
		c-0.411-0.363-0.901-0.64-1.47-0.829c-0.569-0.19-1.188-0.286-1.858-0.286h-1.214v8.419H149.159z"/>
	<path fill="#9F9E9F" d="M166.11,58.094h2.653v8.077c0,0.722-0.121,1.376-0.359,1.963c-0.241,0.589-0.582,1.091-1.024,1.508
		c-0.443,0.417-0.989,0.739-1.64,0.968c-0.652,0.227-1.383,0.34-2.191,0.34c-0.822,0-1.555-0.113-2.198-0.34
		c-0.646-0.229-1.189-0.551-1.632-0.968c-0.441-0.417-0.783-0.919-1.023-1.508c-0.24-0.587-0.36-1.241-0.36-1.963v-8.077h2.653V66.3
		c0,0.798,0.216,1.421,0.646,1.872c0.43,0.448,1.068,0.673,1.915,0.673s1.486-0.225,1.916-0.673c0.43-0.451,0.645-1.074,0.645-1.872
		V58.094z"/>
	<path fill="#9F9E9F" d="M179.42,67.12c0,0.557-0.114,1.068-0.341,1.536c-0.228,0.467-0.547,0.871-0.958,1.214
		c-0.411,0.341-0.907,0.606-1.488,0.796c-0.582,0.189-1.226,0.283-1.935,0.283c-0.671,0-1.343-0.071-2.02-0.217
		c-0.675-0.146-1.297-0.356-1.867-0.636l0.549-2.03c0.456,0.216,0.964,0.4,1.527,0.552c0.562,0.151,1.14,0.227,1.735,0.227
		c0.631,0,1.146-0.129,1.545-0.389c0.398-0.259,0.597-0.634,0.597-1.127c0-0.456-0.189-0.828-0.57-1.12
		c-0.377-0.29-0.959-0.593-1.743-0.909c-0.557-0.228-1.049-0.465-1.479-0.711c-0.429-0.246-0.79-0.521-1.08-0.824
		c-0.291-0.305-0.516-0.642-0.673-1.016c-0.158-0.373-0.238-0.793-0.238-1.261c0-1.162,0.396-2.058,1.186-2.683
		c0.791-0.626,1.849-0.938,3.175-0.938c0.683,0,1.31,0.063,1.877,0.188c0.569,0.128,1.119,0.33,1.65,0.607l-0.493,2.029
		c-0.444-0.216-0.908-0.389-1.394-0.521c-0.487-0.133-0.984-0.2-1.489-0.2c-0.557,0-1.005,0.104-1.347,0.314
		c-0.341,0.208-0.511,0.533-0.511,0.977c0,0.202,0.028,0.379,0.084,0.531c0.058,0.15,0.162,0.293,0.313,0.426
		c0.15,0.133,0.351,0.265,0.597,0.396c0.246,0.134,0.558,0.283,0.939,0.447c0.505,0.215,0.989,0.442,1.451,0.682
		c0.461,0.241,0.869,0.519,1.222,0.836c0.355,0.315,0.64,0.682,0.854,1.099C179.313,66.095,179.42,66.576,179.42,67.12"/>
	<polygon fill="#9F9E9F" points="190.038,58.094 190.038,60.199 186.548,60.199 186.548,70.722 183.895,70.722 183.895,60.199 
		180.406,60.199 180.406,58.094 	"/>
	<path fill="#9F9E9F" d="M200.864,61.943c0,0.897-0.252,1.652-0.757,2.267c-0.506,0.612-1.232,1.084-2.181,1.412l4.267,5.101h-3.3
		l-3.658-4.607h-0.854v4.607h-2.654V58.095h3.772c0.784,0,1.504,0.079,2.162,0.236c0.657,0.159,1.223,0.398,1.696,0.722
		c0.475,0.322,0.844,0.723,1.11,1.203S200.864,61.299,200.864,61.943 M198.21,62c0-0.645-0.252-1.111-0.758-1.402
		s-1.164-0.437-1.972-0.437h-1.1v3.944h0.795c0.911,0,1.644-0.177,2.2-0.531C197.933,63.221,198.21,62.696,198.21,62"/>
	<polygon fill="#9F9E9F" points="209.776,58.094 212.678,58.094 208.506,66.001 208.506,70.722 205.852,70.722 205.852,66.001 
		201.68,58.094 204.58,58.094 207.179,63.65 	"/>
	<polygon fill="#9F9E9F" points="220.735,58.094 220.735,68.618 225.437,68.618 225.437,70.722 218.082,70.722 218.082,58.094 	"/>
	<rect x="227.296" y="58.096" fill="#9F9E9F" width="2.654" height="12.627"/>
	<path fill="#9F9E9F" d="M244.209,70.723h-2.749l-0.892-2.655h-5.195l-0.891,2.655h-2.75l4.797-12.629h2.883L244.209,70.723z
		 M237.971,60.218l-1.896,5.746h3.792L237.971,60.218z"/>
	<rect x="245.991" y="58.096" fill="#9F9E9F" width="2.654" height="12.627"/>
	<path fill="#9F9E9F" d="M259.435,67.12c0,0.557-0.114,1.068-0.341,1.536c-0.228,0.467-0.547,0.871-0.958,1.214
		c-0.411,0.341-0.907,0.606-1.488,0.796c-0.582,0.189-1.226,0.283-1.934,0.283c-0.672,0-1.344-0.071-2.021-0.217
		c-0.675-0.146-1.298-0.356-1.867-0.636l0.55-2.03c0.455,0.216,0.964,0.4,1.526,0.552c0.562,0.151,1.14,0.227,1.735,0.227
		c0.632,0,1.146-0.129,1.545-0.389c0.398-0.259,0.598-0.634,0.598-1.127c0-0.456-0.189-0.828-0.569-1.12
		c-0.379-0.29-0.961-0.593-1.744-0.909c-0.556-0.228-1.049-0.465-1.479-0.711c-0.429-0.246-0.791-0.521-1.08-0.824
		c-0.291-0.305-0.516-0.642-0.673-1.016c-0.159-0.373-0.238-0.793-0.238-1.261c0-1.162,0.396-2.058,1.186-2.683
		c0.791-0.626,1.849-0.938,3.176-0.938c0.684,0,1.31,0.063,1.878,0.188c0.568,0.128,1.118,0.33,1.648,0.607l-0.492,2.029
		c-0.443-0.216-0.907-0.389-1.394-0.521s-0.983-0.2-1.488-0.2c-0.557,0-1.005,0.104-1.347,0.314
		c-0.341,0.208-0.511,0.533-0.511,0.977c0,0.202,0.027,0.379,0.084,0.531c0.058,0.15,0.162,0.293,0.313,0.426
		c0.152,0.133,0.352,0.265,0.598,0.396c0.246,0.134,0.56,0.283,0.939,0.447c0.505,0.215,0.988,0.442,1.45,0.682
		c0.462,0.241,0.869,0.519,1.223,0.836c0.354,0.315,0.639,0.682,0.853,1.099C259.327,66.095,259.435,66.576,259.435,67.12"/>
	<path fill="#9F9E9F" d="M273.485,64.408c0,0.897-0.144,1.742-0.427,2.531c-0.285,0.79-0.695,1.482-1.232,2.076
		c-0.538,0.596-1.201,1.064-1.991,1.412c-0.79,0.349-1.69,0.522-2.702,0.522s-1.913-0.174-2.702-0.522
		c-0.791-0.348-1.457-0.816-2-1.412c-0.544-0.594-0.956-1.286-1.233-2.076c-0.277-0.789-0.418-1.634-0.418-2.531
		c0-0.885,0.141-1.726,0.418-2.521c0.277-0.797,0.689-1.491,1.233-2.086c0.543-0.595,1.209-1.063,2-1.412
		c0.789-0.348,1.69-0.521,2.702-0.521s1.912,0.174,2.702,0.521c0.79,0.349,1.453,0.817,1.991,1.412
		c0.537,0.595,0.947,1.289,1.232,2.086C273.342,62.683,273.485,63.523,273.485,64.408 M267.133,68.864
		c0.619,0,1.16-0.114,1.621-0.341c0.461-0.229,0.848-0.54,1.157-0.938c0.309-0.399,0.54-0.87,0.69-1.414
		c0.152-0.542,0.228-1.131,0.228-1.763c0-0.631-0.075-1.22-0.228-1.764c-0.15-0.542-0.382-1.015-0.69-1.412
		c-0.31-0.398-0.696-0.71-1.157-0.938c-0.461-0.227-1.002-0.341-1.621-0.341c-0.62,0-1.16,0.114-1.621,0.341
		c-0.461,0.229-0.848,0.54-1.156,0.938c-0.31,0.397-0.541,0.87-0.692,1.412c-0.152,0.544-0.228,1.133-0.228,1.764
		c0,0.632,0.075,1.221,0.228,1.763c0.151,0.544,0.383,1.015,0.692,1.414c0.309,0.398,0.695,0.71,1.156,0.938
		C265.973,68.75,266.513,68.864,267.133,68.864"/>
	<polygon fill="#9F9E9F" points="283.97,70.722 278.073,62.456 278.073,70.722 275.531,70.722 275.531,58.095 278.073,58.095 
		283.97,66.361 283.97,58.095 286.51,58.095 286.51,70.722 	"/>
	<path fill="#9F9E9F" d="M305.339,64.408c0,0.897-0.144,1.742-0.427,2.531c-0.284,0.79-0.695,1.482-1.232,2.076
		c-0.537,0.596-1.2,1.064-1.99,1.412c-0.791,0.349-1.691,0.522-2.702,0.522c-1.012,0-1.913-0.174-2.702-0.522
		c-0.792-0.348-1.457-0.816-2-1.412c-0.544-0.594-0.956-1.286-1.233-2.076c-0.277-0.789-0.418-1.634-0.418-2.531
		c0-0.885,0.141-1.726,0.418-2.521c0.277-0.797,0.689-1.491,1.233-2.086c0.543-0.595,1.208-1.063,2-1.412
		c0.789-0.348,1.69-0.521,2.702-0.521c1.011,0,1.911,0.174,2.702,0.521c0.79,0.349,1.453,0.817,1.99,1.412s0.948,1.289,1.232,2.086
		C305.195,62.683,305.339,63.523,305.339,64.408 M298.987,68.864c0.619,0,1.159-0.114,1.621-0.341
		c0.461-0.229,0.847-0.54,1.156-0.938c0.31-0.399,0.54-0.87,0.691-1.414c0.151-0.542,0.228-1.131,0.228-1.763
		c0-0.631-0.076-1.22-0.228-1.764c-0.151-0.542-0.382-1.015-0.691-1.412c-0.31-0.398-0.695-0.71-1.156-0.938
		c-0.462-0.227-1.002-0.341-1.621-0.341s-1.16,0.114-1.622,0.341c-0.461,0.229-0.847,0.54-1.156,0.938
		c-0.31,0.397-0.54,0.87-0.691,1.412c-0.151,0.544-0.228,1.133-0.228,1.764c0,0.632,0.076,1.221,0.228,1.763
		c0.151,0.544,0.382,1.015,0.691,1.414c0.31,0.398,0.695,0.71,1.156,0.938C297.827,68.75,298.368,68.864,298.987,68.864"/>
	<polygon fill="#9F9E9F" points="307.386,70.722 307.386,58.095 315.009,58.095 315.009,60.199 310.04,60.199 310.04,63.574 
		314.781,63.574 314.781,65.678 310.04,65.678 310.04,70.722 	"/>
	<polygon fill="#9F9E9F" points="317.019,70.722 317.019,58.095 324.641,58.095 324.641,60.199 319.673,60.199 319.673,63.574 
		324.413,63.574 324.413,65.678 319.673,65.678 319.673,70.722 	"/>
	<rect x="326.745" y="58.096" fill="#9F9E9F" width="2.655" height="12.627"/>
	<path fill="#9F9E9F" d="M338.255,57.867c0.315,0,0.638,0.016,0.967,0.047c0.328,0.031,0.647,0.075,0.956,0.131
		c0.311,0.057,0.608,0.127,0.893,0.208c0.285,0.081,0.539,0.178,0.767,0.29l-0.379,1.941c-0.403-0.152-0.854-0.275-1.346-0.371
		c-0.492-0.095-0.98-0.143-1.459-0.143c-1.441,0-2.545,0.376-3.31,1.124c-0.764,0.749-1.146,1.854-1.146,3.313
		c0,1.46,0.383,2.563,1.146,3.314c0.765,0.748,1.868,1.123,3.31,1.123c0.479,0,0.967-0.049,1.459-0.143
		c0.492-0.095,0.942-0.218,1.346-0.37l0.379,1.941c-0.228,0.112-0.481,0.209-0.767,0.291c-0.284,0.08-0.582,0.15-0.893,0.207
		c-0.309,0.056-0.628,0.099-0.956,0.131c-0.329,0.03-0.651,0.047-0.967,0.047c-1.088,0-2.048-0.165-2.882-0.493
		c-0.836-0.329-1.537-0.783-2.105-1.365c-0.568-0.581-0.999-1.27-1.289-2.067c-0.291-0.795-0.437-1.667-0.437-2.616
		c0-0.948,0.146-1.82,0.437-2.615c0.29-0.798,0.721-1.486,1.289-2.068c0.568-0.581,1.27-1.036,2.105-1.364
		C336.207,58.031,337.167,57.867,338.255,57.867"/>
	<polygon fill="#9F9E9F" points="343.924,58.094 351.509,58.094 351.509,60.199 346.577,60.199 346.577,63.251 351.281,63.251 
		351.281,65.357 346.577,65.357 346.577,68.618 351.564,68.618 351.564,70.722 343.924,70.722 	"/>
	<polygon fill="#9F9E9F" points="134.692,89.202 128.794,80.936 128.794,89.202 126.253,89.202 126.253,76.575 128.794,76.575 
		134.692,84.842 134.692,76.575 137.232,76.575 137.232,89.202 	"/>
	<path fill="#9F9E9F" d="M151.397,89.202h-2.75l-0.891-2.655h-5.195l-0.893,2.655h-2.75l4.797-12.628h2.883L151.397,89.202z
		 M145.158,78.698l-1.896,5.744h3.792L145.158,78.698z"/>
	<polygon fill="#9F9E9F" points="160.611,76.574 160.611,78.68 157.122,78.68 157.122,89.202 154.468,89.202 154.468,78.68 
		150.979,78.68 150.979,76.574 	"/>
	<rect x="162.394" y="76.575" fill="#9F9E9F" width="2.654" height="12.629"/>
	<path fill="#9F9E9F" d="M179.895,82.888c0,0.899-0.143,1.742-0.427,2.532c-0.285,0.79-0.695,1.482-1.232,2.076
		c-0.538,0.595-1.201,1.064-1.991,1.412c-0.791,0.348-1.691,0.522-2.702,0.522s-1.913-0.175-2.702-0.522
		c-0.791-0.348-1.457-0.817-2-1.412c-0.544-0.594-0.955-1.286-1.233-2.076c-0.277-0.79-0.417-1.633-0.417-2.532
		c0-0.883,0.139-1.726,0.417-2.521c0.278-0.796,0.689-1.492,1.233-2.086c0.543-0.595,1.209-1.064,2-1.412
		c0.789-0.348,1.691-0.521,2.702-0.521s1.912,0.174,2.702,0.521c0.79,0.348,1.453,0.817,1.991,1.412
		c0.537,0.594,0.948,1.29,1.232,2.086C179.751,81.162,179.895,82.005,179.895,82.888 M173.542,87.345c0.62,0,1.16-0.114,1.621-0.341
		c0.461-0.229,0.847-0.54,1.157-0.939c0.309-0.398,0.54-0.869,0.692-1.413c0.15-0.542,0.227-1.131,0.227-1.764
		c0-0.631-0.076-1.22-0.227-1.764c-0.152-0.541-0.383-1.013-0.692-1.411c-0.31-0.399-0.696-0.711-1.157-0.939
		c-0.461-0.227-1.001-0.34-1.621-0.34c-0.619,0-1.16,0.113-1.621,0.34c-0.461,0.229-0.848,0.54-1.156,0.939
		c-0.31,0.398-0.541,0.87-0.692,1.411c-0.151,0.544-0.228,1.133-0.228,1.764c0,0.633,0.076,1.222,0.228,1.764
		c0.151,0.544,0.382,1.015,0.692,1.413c0.309,0.399,0.695,0.711,1.156,0.939C172.382,87.23,172.923,87.345,173.542,87.345"/>
	<polygon fill="#9F9E9F" points="190.379,89.202 184.483,80.936 184.483,89.202 181.942,89.202 181.942,76.575 184.483,76.575 
		190.379,84.842 190.379,76.575 192.919,76.575 192.919,89.202 	"/>
	<path fill="#9F9E9F" d="M207.085,89.202h-2.75l-0.892-2.655h-5.196l-0.892,2.655h-2.749l4.797-12.628h2.883L207.085,89.202z
		 M200.847,78.698l-1.896,5.744h3.792L200.847,78.698z"/>
	<polygon fill="#9F9E9F" points="211.426,76.574 211.426,87.098 216.128,87.098 216.128,89.202 208.771,89.202 208.771,76.574 	"/>
	<polygon fill="#9F9E9F" points="230.444,76.574 230.444,78.68 226.955,78.68 226.955,89.202 224.301,89.202 224.301,78.68 
		220.811,78.68 220.811,76.574 	"/>
	<path fill="#9F9E9F" d="M242.504,89.202h-2.75l-0.892-2.655h-5.194l-0.893,2.655h-2.75l4.798-12.628h2.883L242.504,89.202z
		 M236.266,78.698l-1.896,5.744h3.792L236.266,78.698z"/>
	<rect x="244.287" y="76.575" fill="#9F9E9F" width="2.653" height="12.629"/>
	<polygon fill="#9F9E9F" points="261.673,85.848 263.91,76.574 266.602,76.574 263.076,89.204 260.383,89.204 257.634,79.305 
		254.884,89.204 252.191,89.204 248.664,76.574 251.357,76.574 253.596,85.848 256.137,76.574 259.133,76.574 	"/>
	<path fill="#9F9E9F" d="M278.7,89.202h-2.75l-0.891-2.655h-5.195l-0.891,2.655h-2.751l4.797-12.628h2.883L278.7,89.202z
		 M272.462,78.698l-1.896,5.744h3.792L272.462,78.698z"/>
	<polygon fill="#9F9E9F" points="288.825,89.202 282.928,80.936 282.928,89.202 280.386,89.202 280.386,76.575 282.928,76.575 
		288.825,84.842 288.825,76.575 291.365,76.575 291.365,89.202 	"/>
	<path fill="#9F9E9F" d="M305.833,76.574h2.653v8.077c0,0.721-0.12,1.375-0.359,1.963c-0.24,0.589-0.581,1.091-1.023,1.508
		s-0.99,0.739-1.641,0.968c-0.652,0.227-1.382,0.341-2.189,0.341c-0.823,0-1.557-0.114-2.2-0.341
		c-0.645-0.229-1.188-0.551-1.632-0.968c-0.441-0.417-0.782-0.919-1.021-1.508c-0.241-0.588-0.361-1.242-0.361-1.963v-8.077h2.653
		v8.206c0,0.797,0.216,1.421,0.646,1.872c0.43,0.449,1.068,0.672,1.915,0.672c0.846,0,1.484-0.223,1.915-0.672
		c0.43-0.451,0.645-1.075,0.645-1.872V76.574z"/>
	<polygon fill="#9F9E9F" points="319.541,89.202 313.645,80.936 313.645,89.202 311.104,89.202 311.104,76.575 313.645,76.575 
		319.541,84.842 319.541,76.575 322.081,76.575 322.081,89.202 	"/>
	<rect x="324.831" y="76.575" fill="#9F9E9F" width="2.654" height="12.629"/>
	<polygon fill="#9F9E9F" points="337.763,76.574 340.53,76.574 336.284,89.202 333.212,89.202 328.965,76.574 331.733,76.574 
		334.748,86.511 	"/>
	<polygon fill="#9F9E9F" points="341.915,76.574 349.5,76.574 349.5,78.68 344.569,78.68 344.569,81.733 349.272,81.733 
		349.272,83.838 344.569,83.838 344.569,87.098 349.556,87.098 349.556,89.202 341.915,89.202 	"/>
	<path fill="#9F9E9F" d="M361.008,80.423c0,0.897-0.252,1.653-0.758,2.268c-0.506,0.612-1.232,1.084-2.181,1.412l4.267,5.1h-3.3
		l-3.658-4.607h-0.854v4.607h-2.654V76.575h3.773c0.782,0,1.504,0.078,2.161,0.236c0.656,0.159,1.223,0.398,1.696,0.721
		c0.475,0.323,0.845,0.724,1.11,1.203C360.876,79.216,361.008,79.779,361.008,80.423 M358.354,80.481
		c0-0.646-0.253-1.113-0.759-1.405c-0.505-0.29-1.163-0.435-1.972-0.435h-1.1v3.943h0.795c0.911,0,1.645-0.176,2.2-0.531
		C358.076,81.701,358.354,81.177,358.354,80.481"/>
	<path fill="#9F9E9F" d="M371.703,85.601c0,0.557-0.114,1.067-0.342,1.535s-0.546,0.872-0.958,1.215
		c-0.41,0.34-0.907,0.604-1.487,0.795c-0.582,0.188-1.227,0.285-1.934,0.285c-0.672,0-1.344-0.073-2.021-0.218
		c-0.675-0.146-1.297-0.357-1.866-0.636l0.549-2.03c0.456,0.216,0.964,0.398,1.527,0.551c0.562,0.152,1.14,0.227,1.735,0.227
		c0.631,0,1.146-0.129,1.545-0.388c0.398-0.258,0.597-0.635,0.597-1.127c0-0.457-0.189-0.828-0.569-1.12
		c-0.379-0.29-0.961-0.593-1.744-0.91c-0.556-0.227-1.048-0.464-1.479-0.71c-0.43-0.247-0.79-0.522-1.08-0.825
		c-0.292-0.304-0.516-0.642-0.674-1.015s-0.238-0.794-0.238-1.262c0-1.161,0.396-2.057,1.187-2.682
		c0.79-0.627,1.849-0.938,3.175-0.938c0.684,0,1.31,0.063,1.879,0.188c0.567,0.128,1.118,0.329,1.649,0.606l-0.493,2.03
		c-0.443-0.216-0.908-0.39-1.394-0.522c-0.486-0.132-0.984-0.199-1.489-0.199c-0.556,0-1.005,0.105-1.347,0.313
		c-0.34,0.209-0.511,0.535-0.511,0.977c0,0.201,0.028,0.379,0.084,0.531c0.059,0.15,0.162,0.294,0.313,0.426
		c0.152,0.133,0.352,0.267,0.599,0.399c0.245,0.132,0.559,0.28,0.938,0.445c0.505,0.214,0.989,0.442,1.451,0.682
		c0.461,0.241,0.869,0.519,1.223,0.835c0.353,0.315,0.639,0.682,0.853,1.099C371.596,84.575,371.703,85.058,371.703,85.601"/>
	<rect x="373.751" y="76.575" fill="#9F9E9F" width="2.654" height="12.629"/>
	<polygon fill="#9F9E9F" points="387.82,76.574 387.82,78.68 384.329,78.68 384.329,89.202 381.676,89.202 381.676,78.68 
		378.187,78.68 378.187,76.574 	"/>
	<polygon fill="#9F9E9F" points="396.655,76.574 399.557,76.574 395.385,84.48 395.385,89.202 392.73,89.202 392.73,84.48 
		388.558,76.574 391.459,76.574 394.056,82.13 	"/>
	<path fill="#231815" d="M196.337,46.879c0.134-1.032,0.2-2.164,0.2-4.294V21.076c0-1.564-0.065-2.763-0.2-3.996
		c1.333,0.134,2.332,0.167,4.03,0.167h21.042c1.632,0,2.696-0.033,3.928-0.167c-0.132,1.232-0.2,2.331-0.2,3.996v21.541
		c0,1.998,0.068,3.297,0.2,4.262h-3.728v-1.464h-21.576v1.464H196.337z M217.714,20.311c0.898,0.566,1.299,0.865,2.164,1.598
		l-1.266,1.199c0.933-0.034,1.332-0.066,1.997-0.167v3.23c-0.831-0.134-1.731-0.167-3.163-0.167h-2.729
		c0.167,2.497,0.434,4.328,0.832,6.226c0.833-1.732,1.431-3.563,1.565-4.928l3.03,0.999c-0.233,0.5-0.233,0.5-0.899,2.231
		c-0.732,1.898-1.465,3.396-2.563,5.194c0.633,1.432,1.199,2.23,1.565,2.23c0.332,0,0.532-0.832,0.766-2.796
		c1.031,1.132,1.464,1.499,2.33,1.964c-0.366,1.964-0.699,2.83-1.365,3.695c-0.4,0.5-0.965,0.766-1.631,0.766
		c-1.367,0-2.498-0.965-3.663-3.097c-1.231,1.499-2.197,2.398-3.795,3.596c-0.733-0.999-1.299-1.598-2.165-2.396
		c1.064-0.633,1.399-0.833,2.098-1.365c-2.297,0.499-4.594,0.899-7.69,1.398c-1.066,0.166-1.133,0.166-1.698,0.3l-0.534-3.263
		c0.267,0.033,0.466,0.033,0.633,0.033c2.198,0,6.493-0.566,10.055-1.298v2.164c0.7-0.632,1.1-1.065,1.865-2.064
		c-0.833-2.431-1.432-5.928-1.698-9.589h-7.425c-1.331,0-2.131,0.033-3.063,0.167v-3.263c0.798,0.133,1.763,0.199,3.063,0.199h7.292
		c-0.1-1.398-0.1-1.564-0.201-2.13h3.331c-0.101,0.599-0.101,0.999-0.134,2.13h2.863c-0.866-0.732-1.332-1.099-2.031-1.499
		l1.365-1.298h-16.781v22.141h21.576V20.311H217.714z M202.397,29.766c0-0.933-0.033-1.764-0.133-2.43
		c0.799,0.066,1.332,0.1,2.297,0.1h4.13c1.032,0,1.631-0.034,2.296-0.1c-0.066,0.6-0.099,1.231-0.099,2.297v2.93
		c0,1.298,0.032,1.797,0.099,2.431c-0.632-0.034-1.232-0.067-2.097-0.067h-4.361c-1.1,0-1.565,0.033-2.265,0.1
		c0.1-0.767,0.133-1.465,0.133-2.564V29.766z M205.194,32.363h2.93v-2.396h-2.93V32.363z"/>
	<path fill="#231815" d="M243.684,24.806c0.766,0.566,0.998,0.766,1.797,1.532c0.4-0.434,0.566-0.633,0.998-1.199
		c-0.698-0.6-1.131-0.866-1.996-1.399l1.564-2.164c0.665,0.399,1.232,0.799,1.897,1.333c0.4-0.766,0.533-1.099,0.966-2.198h-3.13
		c-1.432,2.33-2.897,4.095-4.96,5.96c-0.367-1.033-0.667-1.599-1.1-2.331l-1.465,3.662c1.265,1.598,1.864,2.73,2.264,4.328
		c0.199,0.766,0.267,1.365,0.267,2.531c0,2.364-0.767,3.929-2.198,4.562c-0.598,0.233-1.198,0.333-2.33,0.333h-0.499
		c0-2.098-0.067-2.53-0.599-3.396c0.633,0.067,0.898,0.1,1.264,0.1c0.866,0,1.232-0.632,1.232-1.963
		c0-0.899-0.166-1.931-0.466-2.832c-0.433-1.331-0.898-2.13-2.131-3.561c1.165-2.431,1.765-4.263,2.431-7.691h-2.697v22.374
		c0,1.765,0.067,3.196,0.132,4.129h-3.628c0.134-0.966,0.2-2.431,0.2-4.129V20.311c0-1.499-0.033-2.297-0.134-3.229
		c0.667,0.099,1.3,0.133,2.231,0.133h4.028c1.198,0,1.831-0.034,2.396-0.133l1.665,1.897c-0.233,0.433-0.332,0.633-0.466,1.099
		c-0.199,0.6-0.632,1.831-1,2.93c1.698-1.698,3.164-3.829,3.964-5.959c0.267-0.599,0.3-0.733,0.365-1.265l3.497,0.532
		c-0.267,0.434-0.267,0.434-0.5,1c-0.033,0.066-0.033,0.066-0.2,0.466h1.666c1.464,0,2.097-0.034,2.729-0.1
		c0.233,1.764,1.432,4.294,3.064,6.359c0.998-1.065,1.729-2.065,2.364-3.263h-2.631c-0.4,0-0.866,0.033-1.432,0.099v-3.296
		c0.666,0.1,1.298,0.133,1.997,0.133h2.298c1.166,0,1.797-0.033,2.23-0.133l1.599,2.13c-0.3,0.4-0.533,0.799-1.1,1.832
		c-0.865,1.531-2.097,3.263-3.33,4.627c1.633,1.499,2.897,2.331,5.261,3.396c-0.897,1.299-1.264,2.065-1.764,3.497
		c-1.831-1.066-2.764-1.732-4.263-3.03v1.931c-0.498-0.067-0.965-0.1-2.03-0.1h-6.192c-0.732,0-1.298,0.033-1.864,0.1v-1.832
		c-1.433,1.399-2.264,2.065-3.764,3.063c-0.465-1.099-0.931-1.797-1.797-2.73c1.365-0.865,1.865-1.232,3.097-2.264
		c-0.401-0.465-0.5-0.566-1.665-1.465L243.684,24.806z M246.547,39.122c-1.666,3.13-2.964,4.695-5.794,7.125
		c-0.799-1.166-1.365-1.798-2.396-2.598c3.095-2.164,3.929-3.063,5.393-5.893L246.547,39.122z M244.749,36.992
		c-1.4,0-2.432,0.033-2.931,0.133v-3.462c0.499,0.1,1.765,0.166,3.097,0.166h12.452c1.598,0,2.529-0.033,3.163-0.166v3.496
		c-0.833-0.101-1.931-0.166-3.13-0.166h-4.929v6.459c0,2.596-0.798,3.195-4.194,3.195c-0.565,0-1.498-0.033-2.73-0.099
		c-0.066-1.333-0.332-2.431-0.831-3.562c1.763,0.299,2.695,0.399,3.461,0.399c0.767,0,0.933-0.166,0.933-0.832v-5.56H244.749z
		 M254.736,28.834c-1.631-1.698-2.696-3.297-3.896-5.827c-0.832,2.198-1.765,3.696-3.63,5.827h0.8h6.027H254.736z M256.934,37.791
		c1.366,2.396,2.598,3.795,4.861,5.36c-0.865,1.032-1.199,1.531-1.964,2.963c-2.764-2.296-3.929-3.663-5.793-6.992L256.934,37.791z"
		/>
	<path fill="#231815" d="M272.814,27.302c-0.398-0.698-0.765-1.132-1.665-1.964c2.398-0.233,4.762-0.6,6.726-1.032
		c-2.063-0.633-2.363-0.699-5.193-1.332l1.932-1.499h-3.763c-1.765,0-2.464,0.033-3.396,0.133v-3.496
		c0.899,0.133,1.932,0.2,3.63,0.2h8.157V18.08c0-0.533-0.067-1.232-0.168-1.931h4.095c-0.132,0.632-0.166,1.332-0.166,1.931v0.233
		h8.125c1.764,0,2.829-0.066,3.795-0.2v3.496c-0.966-0.1-1.798-0.133-3.563-0.133h-3.164l1.999,1.099
		c-0.232,0.1-0.232,0.1-1.499,0.667c-0.965,0.432-1.897,0.799-2.963,1.264c1.798,0.667,2.265,0.866,3.529,1.465l-1.299,1.332h3.796
		c1.798,0,2.797-0.033,3.729-0.166v3.296c-1.066-0.132-1.998-0.166-3.729-0.166h-20.542c-0.033,3.229-0.068,4.128-0.334,6.459
		c1.1-0.933,1.632-1.565,2.331-2.63c0.666-1.065,1.232-2.364,1.498-3.43l3.297,0.7c-0.168,0.366-0.401,0.898-0.7,1.598h4.029
		c-0.033-1.066-0.066-1.465-0.166-1.998h3.795c-0.1,0.667-0.134,1.099-0.134,1.998h5.993c1.632,0,2.364-0.034,3.196-0.167v3.396
		c-0.965-0.1-1.664-0.134-3.23-0.134h-5.959v1.998h4.994c1.266,0,1.266,0,2.265-0.066c0.398,0,0.433-0.034,0.733-0.2v3.262
		c-0.933-0.099-1.533-0.133-2.998-0.133h-4.994v1.931h7.525c1.364,0,2.33-0.066,3.163-0.167v3.463c-0.999-0.133-1.998-0.2-3.229-0.2
		H273.78c-1.132,0-1.997,0.034-3.196,0.167v-3.43c0.832,0.134,1.698,0.167,3.13,0.167h7.625V40.92h-3.829
		c-1.232,0-2.131,0.034-3.096,0.133V38.09c-0.5,0.599-0.8,0.965-1.665,1.831c-0.799-1.265-1.1-1.631-1.965-2.43
		c-0.366,2.631-0.499,3.23-0.966,4.761c-0.632,2.064-1.132,3.096-2.23,4.662c-0.899-1.366-1.466-2.065-2.664-3.297
		c0.899-1.132,1.499-2.297,1.999-3.862c0.532-1.765,0.831-5.061,0.831-9.223c0-1.232-0.032-2.297-0.133-3.396
		c1.266,0.133,2.298,0.166,3.762,0.166H272.814z M275.778,36.059c-0.466,0.766-0.8,1.266-1.266,1.897
		c0.767,0.066,1.398,0.1,2.964,0.1h3.862v-1.998H275.778z M285.766,27.302c-0.398-0.166-1.664-0.698-3.761-1.531
		c-2.997,0.865-3.13,0.899-7.125,1.531H285.766z M276.577,21.476c1.199,0.3,3.729,1.032,5.461,1.631
		c1.331-0.433,2.996-1.166,3.862-1.631H276.577z"/>
	<path fill="#231815" d="M302.559,20.244c-0.033-0.833-0.1-1.432-0.199-2.164c3.296-0.466,5.093-0.999,6.493-1.865l1.564,2.696
		c-0.134,0.034-0.167,0.034-0.367,0.1c-1.564,0.566-2.464,0.833-4.327,1.199l0.033,0.965h2.23c0.966,0,1.465-0.033,1.863-0.1v2.664
		c-0.467-0.066-0.997-0.1-1.863-0.1h-2.099l0.067,1.099h2.031c0.966,0,1.465-0.033,1.863-0.1v2.597
		c-0.432-0.067-0.933-0.1-1.863-0.1h-1.932l0.067,1.199h18.312l0.066-1.199h-2.031c-0.898,0-1.432,0.033-1.863,0.1v-2.597
		c0.399,0.067,0.865,0.1,1.863,0.1h2.197l0.066-1.166h-2.264c-0.832,0-1.398,0.034-1.863,0.101V21.01
		c0.365,0.066,0.932,0.1,1.863,0.1h2.397l0.065-1.166h-2.429c-0.832,0-1.366,0.033-1.932,0.067v-2.93
		c0.499,0.1,1.165,0.134,2.264,0.134h3.297c0.966,0,1.631-0.034,2.23-0.101c-0.1,0.799-0.166,1.499-0.2,2.396l-0.499,8.824
		c1.199-0.033,1.564-0.033,2.33-0.133c-0.1,0.799-0.133,1.432-0.133,2.664v1.265c0,0.965,0.033,1.498,0.133,2.363h-3.462v-3.295
		H303.99v3.295h-3.529c0.134-0.898,0.167-1.498,0.167-2.43v-1.199c0-1.132-0.033-1.865-0.134-2.664c0.8,0.1,1.333,0.1,2.465,0.133
		L302.559,20.244z M313.679,38.19c0-0.533-0.032-0.866-0.065-1.365h1.098c1.365-0.433,2.165-0.766,3.431-1.465h-8.857
		c-1.631,0-2.53,0.034-3.362,0.134v-3.13c0.898,0.134,1.564,0.167,3.063,0.167h11.419c1.133,0,1.897-0.033,2.431-0.167l1.831,1.965
		c-0.433,0.199-0.698,0.333-2.229,1.398c-1.366,0.932-3.264,1.897-4.861,2.464h8.157c2.197,0,3.263-0.034,4.294-0.2v3.462
		c-1.064-0.133-2.164-0.199-4.329-0.199h-8.555v2.463c0,1.399-0.434,2.264-1.3,2.697c-0.766,0.399-1.898,0.533-4.096,0.533
		c-0.498,0-0.964,0-2.097-0.034c-0.066-1.166-0.268-1.965-0.767-3.296c2.231,0.2,2.397,0.2,3.13,0.2
		c1.432,0,1.665-0.133,1.665-0.898v-1.666h-8.923c-2.163,0-3.229,0.066-4.295,0.199V37.99c0.999,0.133,2.064,0.2,4.262,0.2H313.679z
		 M312.88,22.275c1.232,0.6,1.565,0.766,2.698,1.431c0.698-0.465,1.031-0.732,1.83-1.498c-0.699-0.6-1.1-0.933-1.799-1.398
		c-1.33,0.731-1.996,1.065-3.762,1.765c-0.566-0.933-0.998-1.465-1.664-2.065c1.531-0.466,2.097-0.666,3.13-1.165
		c-0.7-0.434-1.099-0.632-2.298-1.231l1.565-1.665c1.432,0.665,1.83,0.865,3.028,1.598c0.899-0.599,1.267-0.899,2.198-1.864
		l2.097,1.63c-1.031,0.833-1.398,1.099-2.097,1.599c0.566,0.367,0.899,0.6,1.897,1.332l-1.598,1.599l1.631,1.265
		c-1.031,0.832-1.364,1.099-1.931,1.499c0.665,0.399,1,0.666,2.031,1.365l-1.931,1.797c-1.065-0.898-1.432-1.198-2.299-1.797
		c-1.397,0.799-2.131,1.132-3.961,1.831c-0.533-0.932-0.834-1.332-1.698-2.097c1.632-0.467,2.231-0.667,3.396-1.199
		c-0.699-0.433-1.066-0.6-2.197-1.132L312.88,22.275z"/>
	<path fill="#231815" d="M336.098,20.411c-0.665,0.034-1.099,0.066-1.598,0.167v-3.563c0.766,0.133,1.53,0.166,2.83,0.166h5.594
		c1.432,0,2.197-0.033,2.863-0.166v3.462c-0.634-0.033-0.699-0.033-1.333-0.066v22.973c0,1.731,0.033,2.663,0.201,3.53h-3.396
		c0.134-0.966,0.167-1.998,0.167-3.563v-2.497c-0.834,0.267-2.664,0.799-5.561,1.599c-0.567,0.166-0.632,0.166-1.099,0.366
		l-0.699-3.629c0.399,0,0.932-0.067,2.03-0.267V20.411z M339.128,24.273h2.298V20.41h-2.298V24.273z M339.128,30.832h2.298v-3.696
		h-2.298V30.832z M339.128,38.257c0.933-0.234,1.265-0.333,2.298-0.634v-3.929h-2.298V38.257z M361.701,17.348
		c-1.23,2.164-1.996,3.263-3.495,5.094c0.432,0.499,0.598,0.732,0.998,1.298c1.199-1.631,1.633-2.264,2.598-4.029l2.63,1.665
		c-1.798,2.63-2.098,2.997-5.26,6.66c1.363-0.1,1.765-0.134,2.73-0.234c-0.234-0.6-0.334-0.833-0.733-1.598l2.397-0.965
		c1.166,2.363,1.565,3.496,2.097,5.859L363,32.164c-0.133-0.933-0.199-1.232-0.366-1.964c-1.298,0.2-1.531,0.233-2.896,0.4
		c-1.231,0.166-1.432,0.166-3.03,0.332c-0.665,0.067-0.665,0.067-1.031,0.134l0.065,0.4l-2.563,0.932h1.363
		c-0.064,0.633-0.064,0.633-0.064,3.23c-0.034,3.762-0.634,6.26-1.965,8.09c-1.165,1.598-2.364,2.463-4.962,3.629
		c-0.599-1.099-1.031-1.732-2.063-2.797c2.297-0.732,3.463-1.432,4.395-2.63c0.434-0.566,0.666-0.999,0.899-1.765h-1.897
		c0,0.7,0.033,1.099,0.066,1.499h-3.196c0.1-0.632,0.132-1.099,0.132-1.665v-5.527c0-0.633-0.032-1.065-0.132-1.632h3.262
		c-0.099,0.5-0.132,1.033-0.132,1.765v2.498h2.363c0.034-0.567,0.034-1.399,0.034-2.031c0-1.099-0.034-2.131-0.135-2.664h2.032
		c-0.101-0.732-0.167-1.132-0.267-1.698c-2.664,0.367-2.664,0.367-6.926,0.767c-0.367,0.033-0.433,0.033-0.965,0.099l-0.301-3.163
		c0.2,0.066,0.301,0.066,0.533,0.066h0.533h0.332c0.999-1.065,1.332-1.465,2.099-2.397c-1.133-1.565-2.099-2.63-3.463-3.896
		l1.896-2.296l0.8,0.765c1.031-1.465,1.831-2.996,2.431-4.661l2.897,1.332c-1.299,2.264-2.133,3.496-3.497,5.293
		c0.466,0.5,0.6,0.666,0.866,1.032c1.231-1.698,1.632-2.331,2.397-3.795l1.497,0.866l1.232-1.532
		c0.566,0.566,0.733,0.733,1.133,1.166c0.998-1.299,1.798-2.73,2.43-4.329L361.701,17.348z M355.643,28.135
		c0.865-0.965,1.064-1.198,1.698-1.964c-1-1.398-1.965-2.531-2.997-3.629c-1.631,2.265-2.964,3.896-4.761,5.794
		c1.398-0.1,1.464-0.1,2.73-0.266c-0.201-0.7-0.3-1-0.667-1.832l2.363-0.732c0.5,1.198,0.667,1.665,0.966,2.664L355.643,28.135z
		 M359.005,44.25c0,0.866,0.065,1.731,0.199,2.63h-3.528c0.1-0.833,0.166-1.464,0.166-2.563v-9.855c0-0.566-0.032-1.265-0.066-2.031
		h3.363c-0.101,0.565-0.134,1.065-0.134,2.031v2.631h2.53v-2.398c0-0.732-0.033-1.165-0.133-1.865h3.33
		c-0.102,0.6-0.135,1.133-0.135,1.865v5.194c0,0.699,0.033,1.232,0.135,1.832h-3.33c0.1-0.499,0.1-0.733,0.133-1.565h-2.53V44.25z"
		/>
	<path fill="#231815" d="M382.21,35.193c-0.834-0.765-1.533-1.266-2.631-1.897c0.999-0.666,1.365-0.933,1.965-1.499
		c-0.733-0.034-1.432-0.034-2.497-0.034h-4.962v1.532h-3.462c0.133-1.132,0.166-1.964,0.166-3.83v-8.79
		c0-1.464-0.033-2.097-0.133-3.062c0.898,0.099,1.798,0.133,3.029,0.133h5.361c1.397,0,2.164-0.034,3.029-0.133
		c-0.1,0.999-0.1,1.364-0.1,2.996v7.658c0,1.598,0,2.13,0.033,3.03c1.865-2.264,2.496-5.061,2.496-11.187
		c0-1.033-0.033-1.998-0.132-2.93c0.598,0.1,1.599,0.132,2.896,0.132h7.592c1.863,0,2.397-0.032,3.196-0.132
		c-0.066,0.865-0.1,1.765-0.1,3.296v10.854c0,2.397-0.966,3.196-3.863,3.196c-0.897,0-1.396-0.033-3.396-0.167
		c-0.166-1.333-0.266-1.698-0.766-2.93c1.099,0.201,2.463,0.3,3.396,0.3c0.998,0,1.23-0.133,1.23-0.799v-1.065h-7.723
		c-0.766,2.231-1.832,3.729-3.83,5.327h10.389c1.265,0,2.031-0.033,3.03-0.134c-0.033,0.4-0.033,0.4-0.1,1.1
		c-0.034,0.366-0.068,1.065-0.068,1.864v4.694h0.933c1.066,0,1.599-0.033,2.365-0.132v3.595c-0.934-0.1-2.231-0.166-3.797-0.166
		h-22.206c-1.565,0-2.965,0.066-3.931,0.166v-3.595c0.767,0.099,1.333,0.132,2.265,0.132h0.865v-4.495
		c0-0.566-0.065-1.631-0.132-3.164c0.998,0.101,1.864,0.134,3.097,0.134H382.21z M374.085,28.833h4.628V26.17h-4.628V28.833z
		 M374.119,23.274h4.595v-2.598h-4.595V23.274z M376.184,42.718h3.329V38.29h-3.329V42.718z M382.643,42.718h3.362V38.29h-3.362
		V42.718z M387.736,25.072c-0.101,0.899-0.134,1.099-0.232,1.865h7.057v-1.865H387.736z M394.561,20.311h-6.657l-0.034,1.864h6.691
		V20.311z M389.202,42.718h3.596V38.29h-3.596V42.718z"/>
	<path fill="#231815" d="M150.464,39.844c-0.666-0.734-0.899-0.934-1.399-1.4c-3.802,0.233-3.802,0.233-6.372,0.334v1.433h7.338
		c1.6,0,2.501-0.032,3.434-0.132v2.601c-1.067-0.133-1.867-0.167-3.502-0.167h-7.271v1.368h9.74c1.534,0,2.667-0.067,3.735-0.2
		v2.867c-1.134-0.133-2.467-0.199-4.203-0.199h-21.509c-1.701,0-3.001,0.066-4.203,0.199v-2.867c1.166,0.133,2.301,0.2,3.834,0.2
		h9.171v-1.368h-6.57c-1.7,0-2.467,0.034-3.569,0.167v-2.601c0.968,0.1,1.635,0.132,3.602,0.132h6.537v-1.334
		c-2.368,0.069-2.368,0.069-8.17,0.202c-0.7,0-1.001,0-1.501,0.066l-0.501-2.569c0.802,0.101,2.069,0.134,5.17,0.134
		c0.468-0.567,0.6-0.734,1-1.333h-0.9c-1.835,0-2.636,0.033-3.435,0.099v-2.267c0.767,0.067,1.533,0.1,3.435,0.1h13.84
		c1.8,0,2.601-0.033,3.334-0.1v2.267c-0.601-0.066-1.233-0.099-2.201-0.099c1.5,0.934,2.268,1.5,4.001,2.901L150.464,39.844z
		 M126.854,31.839c0-0.634-0.034-1.299-0.101-1.8c0.701,0.066,1.535,0.101,3.001,0.101h22.712c1.566,0,2.434-0.035,3.234-0.101
		c-0.066,0.6-0.1,1.201-0.1,1.935v1.3c0,0.801,0.033,1.301,0.133,1.8h-3.501V32.34h-22.011v2.734h-3.501
		c0.1-0.533,0.133-1.066,0.133-1.867V31.839z M151.966,17.7c1.435,0,2.468-0.066,3.436-0.167v2.668
		c-0.901-0.134-1.802-0.167-3.436-0.167h-9.237v1.101h7.702c1.435,0,2.269-0.034,3.135-0.135v2.502
		c-1.033-0.1-1.766-0.133-3.135-0.133h-18.408c-1.366,0-2.2,0.033-3.202,0.133V21c0.868,0.101,1.734,0.135,3.202,0.135h7.27v-1.101
		h-8.937c-1.601,0-2.502,0.033-3.436,0.167v-2.668c0.968,0.101,2.001,0.167,3.503,0.167h8.87c-0.033-0.666-0.065-1.2-0.166-1.7
		h3.768c-0.1,0.566-0.166,1.034-0.166,1.7H151.966z M152.033,27.738c0,0.602,0.034,1.034,0.099,1.534
		c-1.033-0.066-1.766-0.1-3.368-0.1h-15.106c-1.567,0-2.401,0.034-3.401,0.1c0.065-0.5,0.1-0.967,0.1-1.5v-1.967
		c0-0.5-0.035-1.034-0.1-1.567c0.833,0.067,1.634,0.099,3.401,0.099h15.106c1.736,0,2.535-0.032,3.368-0.099
		c-0.065,0.5-0.099,1-0.099,1.6V27.738z M133.923,27.305h14.54v-1.101h-14.54V27.305z M138.961,35.375
		c-0.435,0.599-0.567,0.801-1.001,1.333c6.37-0.066,6.37-0.066,8.771-0.167c-0.668-0.467-1.034-0.7-1.768-1.167H138.961z"/>
	<path fill="#231815" d="M178.137,27.872c0.833,3.001,2.601,6.236,4.802,8.737c2.468,2.802,5.234,4.703,9.204,6.337
		c-1.135,1.333-1.601,2.034-2.435,3.834c-3.567-1.833-5.869-3.535-8.237-6.102c-2.167-2.301-3.801-4.97-5.036-8.07
		c-1.001,3.434-2.768,6.303-5.436,8.937c-2.269,2.233-4.669,3.8-7.97,5.235c-0.567-1.268-1.268-2.301-2.335-3.501
		c2.402-0.967,3.736-1.667,5.403-2.834c4.47-3.168,6.704-6.903,7.503-12.572h-7.87c-2.102,0-3.068,0.067-4.169,0.233v-4.236
		c1.034,0.167,2.235,0.234,4.203,0.234h8.17c0.067-1.668,0.101-2.201,0.101-3.936c0-1.4-0.101-2.401-0.233-3.335h4.401
		c-0.165,1.167-0.2,1.668-0.234,3.902c0,1.368-0.031,2.134-0.065,3.369h8.837c1.9,0,3.069-0.067,4.203-0.234v4.236
		c-1.334-0.166-2.334-0.233-4.169-0.233H178.137z"/>
</g>
</svg>
