<?xml version="1.0" encoding="utf-8"?>
<!-- Generator: Adobe Illustrator 16.0.3, SVG Export Plug-In . SVG Version: 6.00 Build 0)  -->
<!DOCTYPE svg PUBLIC "-//W3C//DTD SVG 1.1//EN" "http://www.w3.org/Graphics/SVG/1.1/DTD/svg11.dtd">
<svg version="1.1" id="圖層_1" xmlns="http://www.w3.org/2000/svg" xmlns:xlink="http://www.w3.org/1999/xlink" x="0px" y="0px"
	 width="140px" height="140px" viewBox="353 0 140 140" enable-background="new 353 0 140 140" xml:space="preserve">
<path fill="#494949" d="M479.875,52.5H475.5V22.406c0-1.74-0.691-3.41-1.922-4.64L457.734,1.922c-1.23-1.23-2.899-1.922-4.64-1.922
	h-76.032c-3.625,0-6.563,2.938-6.563,6.563V52.5h-4.375C358.876,52.5,353,58.376,353,65.625v36.094c0,1.813,1.469,3.281,3.281,3.281
	H370.5v28.438c0,3.625,2.938,6.563,6.563,6.563h91.875c3.624,0,6.563-2.938,6.563-6.563V105h14.219c1.813,0,3.281-1.469,3.281-3.281
	V65.625C493,58.376,487.124,52.5,479.875,52.5z M458,122.5h-70V96.25h70V122.5z M388,61.25V17.5h52.5v10.938
	c0,3.609,2.953,6.563,6.563,6.563H458v26.25H388z M471.125,80.938c-3.624,0-6.563-2.938-6.563-6.563s2.938-6.563,6.563-6.563
	s6.563,2.938,6.563,6.563S474.749,80.938,471.125,80.938z"/>
</svg>
