<?xml version="1.0" encoding="utf-8"?>
<!-- Generator: Adobe Illustrator 16.0.3, SVG Export Plug-In . SVG Version: 6.00 Build 0)  -->
<!DOCTYPE svg PUBLIC "-//W3C//DTD SVG 1.1//EN" "http://www.w3.org/Graphics/SVG/1.1/DTD/svg11.dtd">
<svg version="1.1" id="圖層_1" xmlns="http://www.w3.org/2000/svg" xmlns:xlink="http://www.w3.org/1999/xlink" x="0px" y="0px"
	 width="140px" height="140px" viewBox="353 0 140 140" enable-background="new 353 0 140 140" xml:space="preserve">
<path fill="#55ACEF" d="M478,0H368c-8.281,0-15,6.719-15,15v110c0,8.281,6.719,15,15,15h110c8.281,0,15-6.719,15-15V15
	C493,6.719,486.281,0,478,0z M462.719,49.625c0.063,0.875,0.063,1.781,0.063,2.656c0,27.094-20.625,58.313-58.313,58.313
	c-11.625,0-22.406-3.375-31.469-9.188c1.656,0.188,3.25,0.25,4.938,0.25c9.594,0,18.406-3.25,25.438-8.75
	c-9-0.188-16.563-6.094-19.156-14.219c3.156,0.469,6,0.469,9.25-0.375c-9.375-1.906-16.406-10.156-16.406-20.125v-0.25
	c2.719,1.531,5.906,2.469,9.25,2.594c-5.71-3.798-9.136-10.205-9.125-17.063c0-3.813,1-7.313,2.781-10.344
	c10.094,12.438,25.25,20.563,42.25,21.438c-2.906-13.906,7.5-25.188,20-25.188c5.906,0,11.219,2.469,14.969,6.469
	c4.625-0.875,9.063-2.594,13-4.938c-1.531,4.75-4.75,8.75-9,11.281C465.313,41.75,469.313,40.594,473,39
	C470.219,43.094,466.719,46.719,462.719,49.625z"/>
</svg>
