<?xml version="1.0" encoding="utf-8"?>
<!-- Generator: Adobe Illustrator 16.0.3, SVG Export Plug-In . SVG Version: 6.00 Build 0)  -->
<!DOCTYPE svg PUBLIC "-//W3C//DTD SVG 1.1//EN" "http://www.w3.org/Graphics/SVG/1.1/DTD/svg11.dtd">
<svg version="1.1" id="圖層_1" xmlns="http://www.w3.org/2000/svg" xmlns:xlink="http://www.w3.org/1999/xlink" x="0px" y="0px"
	 width="100px" height="100px" viewBox="846 846 100 100" enable-background="new 846 846 100 100" xml:space="preserve">
<path fill="#FFFFFF" d="M946,916.842c0,0.869-0.334,1.637-1.002,2.305l-5.01,5.01c-0.668,0.668-1.437,1.002-2.305,1.002
	c-0.869,0-1.637-0.334-2.305-1.002L896,884.778l-39.379,39.378c-0.668,0.668-1.436,1.002-2.305,1.002
	c-0.868,0-1.636-0.334-2.304-1.002l-5.01-5.01c-0.668-0.668-1.002-1.436-1.002-2.305s0.334-1.637,1.002-2.305l46.693-46.693
	c0.668-0.668,1.436-1.002,2.305-1.002c0.869,0,1.637,0.334,2.305,1.002l46.693,46.693C945.666,915.205,946,915.973,946,916.842z"/>
</svg>
