<?xml version="1.0" encoding="utf-8"?>
<!-- Generator: Adobe Illustrator 16.0.3, SVG Export Plug-In . SVG Version: 6.00 Build 0)  -->
<!DOCTYPE svg PUBLIC "-//W3C//DTD SVG 1.1//EN" "http://www.w3.org/Graphics/SVG/1.1/DTD/svg11.dtd">
<svg version="1.1" id="圖層_1" xmlns="http://www.w3.org/2000/svg" xmlns:xlink="http://www.w3.org/1999/xlink" x="0px" y="0px"
	 width="200px" height="200px" viewBox="796 796 200 200" enable-background="new 796 796 200 200" xml:space="preserve">
<path fill="#231815" d="M889.359,960.975l59.115-59.115c1.648-1.649,2.473-3.603,2.473-5.859s-0.824-4.21-2.473-5.859
	l-59.115-59.115c-1.649-1.649-3.603-2.474-5.859-2.474s-4.21,0.825-5.859,2.474l-13.281,13.281
	c-1.649,1.649-2.474,3.603-2.474,5.859c0,2.257,0.825,4.21,2.474,5.859L904.334,896l-39.975,39.975
	c-1.649,1.648-2.474,3.602-2.474,5.859c0,2.256,0.825,4.209,2.474,5.859l13.281,13.281c1.649,1.648,3.603,2.473,5.859,2.473
	S887.71,962.623,889.359,960.975z M996,896c0,18.143-4.471,34.874-13.412,50.195c-8.94,15.321-21.071,27.452-36.393,36.393
	C930.874,991.529,914.143,996,896,996c-18.142,0-34.874-4.471-50.195-13.412c-15.321-8.94-27.452-21.071-36.393-36.393
	S796,914.143,796,896c0-18.142,4.471-34.874,13.412-50.195s21.072-27.452,36.393-36.393S877.858,796,896,796
	c18.143,0,34.874,4.471,50.195,13.412s27.452,21.072,36.393,36.393C991.529,861.126,996,877.858,996,896z"/>
</svg>
