<?xml version="1.0" encoding="utf-8"?>
<!-- Generator: Adobe Illustrator 16.0.0, SVG Export Plug-In . SVG Version: 6.00 Build 0)  -->
<!DOCTYPE svg PUBLIC "-//W3C//DTD SVG 1.1//EN" "http://www.w3.org/Graphics/SVG/1.1/DTD/svg11.dtd">
<svg version="1.1" id="圖層_1" xmlns="http://www.w3.org/2000/svg" xmlns:xlink="http://www.w3.org/1999/xlink" x="0px" y="0px"
	 width="200px" height="200px" viewBox="796 796 200 200" enable-background="new 796 796 200 200" xml:space="preserve">
<path d="M956.317,896c0,1.737-0.668,3.273-2.004,4.609l-93.387,93.387c-1.336,1.336-2.873,2.004-4.609,2.004
	s-3.273-0.668-4.609-2.004l-10.02-10.021c-1.336-1.336-2.004-2.872-2.004-4.608c0-1.737,0.667-3.273,2.004-4.609L920.446,896
	l-78.758-78.757c-1.336-1.336-2.004-2.873-2.004-4.609s0.667-3.273,2.004-4.609l10.02-10.02c1.336-1.336,2.872-2.004,4.609-2.004
	s3.273,0.668,4.609,2.004l93.387,93.387C955.649,892.726,956.317,894.263,956.317,896z"/>
</svg>
