<?xml version="1.0" encoding="utf-8"?>
<!-- Generator: Adobe Illustrator 16.0.3, SVG Export Plug-In . SVG Version: 6.00 Build 0)  -->
<!DOCTYPE svg PUBLIC "-//W3C//DTD SVG 1.1//EN" "http://www.w3.org/Graphics/SVG/1.1/DTD/svg11.dtd">
<svg version="1.1" id="圖層_1" xmlns="http://www.w3.org/2000/svg" xmlns:xlink="http://www.w3.org/1999/xlink" x="0px" y="0px"
	 width="400px" height="400px" viewBox="0 0 400 400" enable-background="new 0 0 400 400" xml:space="preserve">
<path fill="#FFFFFF" d="M388.57,199.816c0,2.578-0.799,4.818-2.395,6.721c-1.595,1.904-3.621,3.102-6.076,3.594l-37.751,65.558
	c0.368,1.104,0.553,2.21,0.553,3.314c0,2.455-0.768,4.634-2.302,6.537c-1.535,1.904-3.529,3.1-5.985,3.592l-35.541,62.059
	c0.368,0.983,0.553,1.965,0.553,2.946c0,2.823-1.014,5.28-3.039,7.366c-2.026,2.089-4.512,3.131-7.458,3.131
	c-3.069,0-5.586-1.105-7.55-3.314h-73.661c-2.088,2.454-4.727,3.683-7.918,3.683c-3.191,0-5.832-1.229-7.918-3.683h-73.477
	c-2.087,2.454-4.726,3.683-7.917,3.683c-2.824,0-5.28-1.013-7.367-3.038c-2.087-2.026-3.131-4.512-3.131-7.459
	c0-0.983,0.246-2.209,0.737-3.683l-35.541-61.69c-2.456-0.492-4.451-1.689-5.986-3.593c-1.535-1.902-2.301-4.081-2.301-6.538
	c0-1.104,0.184-2.21,0.553-3.314l-37.936-65.558c-2.455-0.613-4.45-1.871-5.985-3.775c-1.535-1.904-2.302-4.081-2.302-6.538
	c0-2.578,0.829-4.817,2.486-6.722c1.659-1.902,3.714-3.1,6.17-3.591l36.645-63.349c0-0.123-0.03-0.307-0.092-0.553
	c-0.062-0.245-0.092-0.43-0.092-0.552c0-4.42,2.086-7.55,6.261-9.392l38.488-66.847c-0.492-1.228-0.737-2.333-0.737-3.315
	c0-2.946,1.042-5.433,3.131-7.458c2.086-2.025,4.541-3.039,7.366-3.039c3.191,0,5.893,1.289,8.103,3.867h72.925
	c1.963-2.577,4.604-3.867,7.918-3.867s5.955,1.289,7.918,3.867h73.291c2.21-2.577,4.911-3.867,8.104-3.867
	c2.823,0,5.279,1.012,7.366,3.039c2.088,2.026,3.131,4.512,3.131,7.458c0,0.737-0.247,1.842-0.736,3.315l38.119,65.926
	c2.824,0.124,5.218,1.198,7.182,3.224c1.964,2.025,2.947,4.388,2.947,7.09c0,1.597-0.431,3.254-1.289,4.972l34.436,59.664
	c2.333,0.492,4.266,1.689,5.8,3.592C387.803,195.182,388.57,197.362,388.57,199.816z M207.18,346.955h71.636l-62.979-65.191h-26.334
	l-62.98,65.191h66.294c2.211-1.965,4.604-2.946,7.182-2.946C202.576,344.009,204.972,344.99,207.18,346.955z M32.052,197.422
	c0.123,0.492,0.184,1.289,0.184,2.394c0,1.228-0.122,2.148-0.369,2.764l38.304,66.295l2.763,1.104l34.621-36.646v-63.9
	l-34.437-35.727c-1.596,0.983-3.376,1.597-5.34,1.842L32.052,197.422z M193,53.047H121.55l34.989,36.831l102.02-36.831h-51.563
	c-1.964,1.964-4.297,2.946-6.998,2.946S194.965,55.012,193,53.047z M322.459,276.241c0.123-0.737,0.431-1.413,0.922-2.026
	l-11.785-12.522l-3.131,14.549H322.459L322.459,276.241z M302.939,276.241l4.052-19.338l-46.407-48.983l-54.509,56.535
	l11.602,11.786H302.939z M286.734,344.009l2.946-5.158l11.969-57.087h-78.632l61.322,63.164
	C285.322,344.438,286.12,344.13,286.734,344.009z M117.867,346.955h0.922l62.98-65.191H113.08v61.692l0.736,1.105
	C115.534,345.175,116.884,345.972,117.867,346.955z M113.08,276.241h74.029l11.786-12.156l-56.904-59.11l-28.911,30.568V276.241z
	 M77.538,276.241h30.017v-34.805l-30.938,32.593C77.107,275.013,77.415,275.749,77.538,276.241z M77.353,124.314
	c0,0.124,0.031,0.247,0.093,0.369c0.061,0.123,0.092,0.246,0.092,0.369c0,1.964-0.491,3.746-1.474,5.34l31.49,32.595V113.45
	L77.353,124.314z M113.08,111.423v57.271l28.175,28.912l54.693-57.824l-41.066-43.46L113.08,111.423z M113.815,55.441l-0.736,1.474
	v48.616l37.751-13.627L115.657,54.89C114.92,55.135,114.307,55.32,113.815,55.441z M277.895,53.047h-2.946L160.59,94.297
	l39.225,41.434L277.895,53.047z M199.814,143.651l-54.693,58.006l57.271,58.746l54.509-56.536L199.814,143.651z M138.124,201.107
	l-25.046-25.966v52.299L138.124,201.107z M202.578,268.137l-7.735,8.104h15.653L202.578,268.137z M264.452,204.053l43.827,46.223
	l24.309-114.911l-0.553-0.922l-0.184-0.183L264.452,204.053z M327.8,130.392c-0.982-1.595-1.474-3.376-1.474-5.34v-0.369
	l-39.777-69.242c-0.613-0.123-1.411-0.43-2.394-0.921l-80.475,85.262l57.088,60.219L327.8,130.392z M107.554,107.557V66.491
	l-30.017,51.93L107.554,107.557z M107.554,281.766H77.538l30.017,52.114V281.766z M307.359,281.766l-8.84,41.802l23.939-41.802
	H307.359L307.359,281.766z M329.826,268.875l38.12-66.479c-0.246-1.229-0.369-2.087-0.369-2.579c0-0.123,0.184-1.105,0.553-2.947
	l-31.49-54.509l-23.754,112.702l14.18,15.101C327.678,269.796,328.598,269.364,329.826,268.875z"/>
</svg>
