<?xml version="1.0" encoding="utf-8"?>
<!-- Generator: Adobe Illustrator 16.0.0, SVG Export Plug-In . SVG Version: 6.00 Build 0)  -->
<!DOCTYPE svg PUBLIC "-//W3C//DTD SVG 1.1//EN" "http://www.w3.org/Graphics/SVG/1.1/DTD/svg11.dtd">
<svg version="1.1" id="Capa_1" xmlns="http://www.w3.org/2000/svg" xmlns:xlink="http://www.w3.org/1999/xlink" x="0px" y="0px"
	 width="200px" height="200px" viewBox="130.149 130.149 200 200" enable-background="new 130.149 130.149 200 200"
	 xml:space="preserve">
<g>
	<g>
		<path fill="#FFFFFF" d="M230.149,182.697L158.82,241.5c0,0.083-0.021,0.205-0.063,0.372c-0.041,0.165-0.063,0.285-0.063,0.37
			v59.544c0,2.15,0.786,4.014,2.357,5.582c1.571,1.57,3.432,2.36,5.583,2.36h47.634v-47.637h31.76v47.638h47.634
			c2.15,0,4.014-0.788,5.583-2.361c1.571-1.567,2.359-3.432,2.359-5.582v-59.544c0-0.33-0.045-0.58-0.125-0.742L230.149,182.697z"/>
		<path fill="#FFFFFF" d="M328.768,228.102l-27.165-22.577v-50.614c0-1.157-0.372-2.108-1.119-2.854
			c-0.74-0.744-1.691-1.116-2.852-1.116h-23.817c-1.158,0-2.109,0.372-2.854,1.116c-0.744,0.745-1.115,1.697-1.115,2.854v24.19
			l-30.268-25.307c-2.644-2.151-5.787-3.226-9.427-3.226c-3.639,0-6.782,1.075-9.428,3.226l-89.197,74.308
			c-0.826,0.661-1.28,1.55-1.364,2.666c-0.084,1.116,0.205,2.091,0.868,2.917l7.691,9.181c0.663,0.744,1.53,1.198,2.605,1.365
			c0.993,0.083,1.985-0.207,2.978-0.868l85.844-71.581l85.844,71.58c0.663,0.577,1.53,0.865,2.605,0.865h0.373
			c1.073-0.163,1.938-0.621,2.604-1.363l7.692-9.179c0.662-0.828,0.951-1.801,0.865-2.919
			C330.049,229.653,329.594,228.764,328.768,228.102z"/>
	</g>
</g>
</svg>
