<?xml version="1.0" encoding="utf-8"?>
<!-- Generator: Adobe Illustrator 16.0.3, SVG Export Plug-In . SVG Version: 6.00 Build 0)  -->
<!DOCTYPE svg PUBLIC "-//W3C//DTD SVG 1.1//EN" "http://www.w3.org/Graphics/SVG/1.1/DTD/svg11.dtd">
<svg version="1.1" id="圖層_1" xmlns="http://www.w3.org/2000/svg" xmlns:xlink="http://www.w3.org/1999/xlink" x="0px" y="0px"
	 width="200px" height="200px" viewBox="0 0 200 200" enable-background="new 0 0 200 200" xml:space="preserve">
<path fill="#777777" d="M138.465,84.615c0-14.822-5.27-27.504-15.807-38.041C112.121,36.037,99.441,30.77,84.617,30.77
	c-14.824,0-27.504,5.268-38.041,15.805C36.039,57.112,30.77,69.793,30.77,84.615c0,14.824,5.27,27.504,15.807,38.041
	c10.537,10.537,23.217,15.807,38.041,15.807c14.824,0,27.504-5.27,38.041-15.807C133.195,112.119,138.465,99.439,138.465,84.615z
	 M200.002,184.615c0,4.166-1.521,7.771-4.566,10.816c-3.045,3.045-6.652,4.568-10.818,4.568c-4.328,0-7.934-1.521-10.816-4.566
	l-41.227-41.104c-14.344,9.937-30.33,14.901-47.957,14.901c-11.459,0-22.416-2.223-32.873-6.67
	c-10.457-4.446-19.471-10.457-27.043-18.028c-7.572-7.57-13.582-16.587-18.029-27.043C2.225,107.032,0,96.074,0,84.615
	c0-11.457,2.225-22.416,6.672-32.871c4.447-10.457,10.457-19.473,18.029-27.043c7.572-7.572,16.586-13.582,27.043-18.029
	C62.201,2.223,73.158,0,84.617,0c11.457,0,22.416,2.225,32.873,6.672c10.455,4.445,19.471,10.457,27.043,18.027
	c7.572,7.572,13.582,16.586,18.029,27.043c4.444,10.457,6.67,21.414,6.67,32.873c0,17.627-4.969,33.613-14.904,47.957l41.227,41.227
	C198.52,176.762,200.002,180.367,200.002,184.615z"/>
</svg>
