<?xml version="1.0" encoding="utf-8"?>
<!-- Generator: Adobe Illustrator 16.0.3, SVG Export Plug-In . SVG Version: 6.00 Build 0)  -->
<!DOCTYPE svg PUBLIC "-//W3C//DTD SVG 1.1//EN" "http://www.w3.org/Graphics/SVG/1.1/DTD/svg11.dtd">
<svg version="1.1" id="圖層_1" xmlns="http://www.w3.org/2000/svg" xmlns:xlink="http://www.w3.org/1999/xlink" x="0px" y="0px"
	 width="400px" height="400px" viewBox="0 0 400 400" enable-background="new 0 0 400 400" xml:space="preserve">
<path fill="#FFFFFF" d="M369.549,27.263c4.296,3.125,6.053,7.292,5.271,12.5l-49.995,299.972c-0.651,3.775-2.733,6.705-6.249,8.79
	c-1.823,1.04-3.842,1.561-6.054,1.561c-1.435,0-2.996-0.324-4.688-0.975l-102.92-41.989l-58.199,63.861
	c-2.344,2.734-5.403,4.102-9.179,4.102c-1.823,0-3.32-0.261-4.492-0.782c-2.474-0.91-4.427-2.44-5.859-4.588
	c-1.432-2.148-2.148-4.525-2.148-7.129v-88.274l-92.178-37.69c-4.817-1.823-7.421-5.404-7.813-10.741
	c-0.39-5.077,1.693-8.918,6.25-11.521L356.268,26.873C360.824,24.139,365.25,24.269,369.549,27.263z M302.757,320.011
	l43.159-258.376L65.864,223.145l65.62,26.754l168.539-124.793l-93.351,155.651L302.757,320.011z"/>
</svg>
