<?xml version="1.0" encoding="utf-8"?>
<!-- Generator: Adobe Illustrator 16.0.3, SVG Export Plug-In . SVG Version: 6.00 Build 0)  -->
<!DOCTYPE svg PUBLIC "-//W3C//DTD SVG 1.1//EN" "http://www.w3.org/Graphics/SVG/1.1/DTD/svg11.dtd">
<svg version="1.1" id="圖層_1" xmlns="http://www.w3.org/2000/svg" xmlns:xlink="http://www.w3.org/1999/xlink" x="0px" y="0px"
	 width="200px" height="200px" viewBox="0 0 200 200" enable-background="new 0 0 200 200" xml:space="preserve">
<path fill="#777777" d="M158.333,116.666c11.545,0,21.376,4.059,29.492,12.174c8.116,8.117,12.175,17.947,12.175,29.492
	c0,11.547-4.06,21.377-12.175,29.492C179.709,195.941,169.878,200,158.333,200s-21.376-4.059-29.492-12.176
	c-8.116-8.115-12.174-17.945-12.174-29.492c0-1.041,0.086-2.516,0.26-4.426l-46.875-23.439
	c-7.985,7.467-17.447,11.199-28.386,11.199c-11.545,0-21.376-4.059-29.492-12.176C4.058,121.375,0,111.545,0,100
	s4.058-21.376,12.174-29.493s17.947-12.174,29.492-12.174c10.938,0,20.399,3.732,28.386,11.198l46.875-23.438
	c-0.174-1.91-0.26-3.385-0.26-4.427c0-11.545,4.058-21.375,12.174-29.492C136.957,4.058,146.788,0,158.333,0
	s21.376,4.058,29.492,12.174C195.941,20.291,200,30.121,200,41.666s-4.06,21.376-12.175,29.492
	c-8.116,8.117-17.947,12.175-29.492,12.175c-10.938,0-20.399-3.733-28.385-11.198L83.073,95.573c0.174,1.91,0.261,3.386,0.261,4.426
	c0,1.043-0.087,2.518-0.261,4.428l46.875,23.438C137.934,120.398,147.396,116.666,158.333,116.666z"/>
</svg>
