<?xml version="1.0" encoding="utf-8"?>
<!-- Generator: Adobe Illustrator 16.0.3, SVG Export Plug-In . SVG Version: 6.00 Build 0)  -->
<!DOCTYPE svg PUBLIC "-//W3C//DTD SVG 1.1//EN" "http://www.w3.org/Graphics/SVG/1.1/DTD/svg11.dtd">
<svg version="1.1" id="Capa_1" xmlns="http://www.w3.org/2000/svg" xmlns:xlink="http://www.w3.org/1999/xlink" x="0px" y="0px"
	 width="200px" height="200px" viewBox="0 0 200 200" enable-background="new 0 0 200 200" xml:space="preserve">
<g>
	<path fill="#777777" d="M196.878,131.697c-2.082-2.084-4.612-3.125-7.59-3.125h-10.713v-21.43c0-3.869-1.414-7.219-4.24-10.044
		c-2.828-2.829-6.18-4.242-10.047-4.242h-57.144V71.427h10.713c2.978,0,5.509-1.041,7.591-3.125c2.082-2.082,3.123-4.612,3.123-7.59
		V25c0-2.977-1.041-5.506-3.123-7.588c-2.082-2.084-4.613-3.125-7.591-3.125H82.144c-2.977,0-5.506,1.041-7.589,3.125
		c-2.083,2.082-3.124,4.611-3.124,7.588v35.713c0,2.978,1.041,5.506,3.124,7.59s4.612,3.125,7.589,3.125h10.714v21.429H35.714
		c-3.868,0-7.217,1.415-10.045,4.242c-2.828,2.825-4.24,6.175-4.24,10.044v21.43H10.712c-2.975,0-5.504,1.041-7.588,3.125
		c-2.084,2.082-3.125,4.611-3.125,7.59V175c0,2.977,1.041,5.508,3.125,7.59c2.082,2.082,4.613,3.123,7.588,3.123h35.717
		c2.975,0,5.505-1.041,7.589-3.123s3.125-4.613,3.125-7.59v-35.713c0-2.979-1.041-5.508-3.125-7.59s-4.614-3.125-7.589-3.125H35.714
		v-21.43h57.143v21.43H82.143c-2.978,0-5.505,1.041-7.589,3.125c-2.084,2.082-3.125,4.611-3.125,7.59V175
		c0,2.977,1.041,5.508,3.125,7.59c2.083,2.082,4.611,3.123,7.589,3.123h35.713c2.979,0,5.507-1.041,7.591-3.123
		c2.082-2.084,3.125-4.613,3.125-7.59v-35.713c0-2.979-1.039-5.508-3.125-7.59c-2.084-2.084-4.611-3.125-7.591-3.125h-10.712v-21.43
		h57.145v21.43h-10.715c-2.976,0-5.508,1.041-7.592,3.125c-2.082,2.082-3.122,4.611-3.122,7.59V175c0,2.977,1.04,5.508,3.122,7.59
		c2.084,2.082,4.616,3.123,7.592,3.123h35.715c2.975,0,5.504-1.041,7.588-3.123s3.125-4.613,3.125-7.59v-35.713
		C199.999,136.309,198.96,133.779,196.878,131.697z"/>
</g>
</svg>
