<?xml version="1.0" encoding="utf-8"?>
<!-- Generator: Adobe Illustrator 16.0.3, SVG Export Plug-In . SVG Version: 6.00 Build 0)  -->
<!DOCTYPE svg PUBLIC "-//W3C//DTD SVG 1.1//EN" "http://www.w3.org/Graphics/SVG/1.1/DTD/svg11.dtd">
<svg version="1.1" id="圖層_1" xmlns="http://www.w3.org/2000/svg" xmlns:xlink="http://www.w3.org/1999/xlink" x="0px" y="0px"
	 width="140px" height="140px" viewBox="353 0 140 140" enable-background="new 353 0 140 140" xml:space="preserve">
<path fill="#01B901" d="M438.031,53.813v22.219c0,0.563-0.438,1-1,1h-3.563c-0.344,0-0.656-0.188-0.813-0.406l-10.188-13.75v13.188
	c0,0.563-0.438,1-1,1h-3.563c-0.563,0-1-0.438-1-1V53.844c0-0.563,0.438-1,1-1h3.531c0.313,0,0.656,0.156,0.813,0.438l10.188,13.75
	V53.844c0-0.563,0.438-1,1-1H437C437.563,52.813,438.031,53.281,438.031,53.813z M412.406,52.813h-3.563c-0.563,0-1,0.438-1,1
	v22.219c0,0.563,0.438,1,1,1h3.563c0.563,0,1-0.438,1-1V53.813C413.406,53.281,412.969,52.813,412.406,52.813z M403.813,71.438
	h-9.719V53.813c0-0.563-0.438-1-1-1h-3.563c-0.563,0-1,0.438-1,1v22.219c0,0.281,0.094,0.5,0.281,0.688
	C389,76.875,389.219,77,389.5,77h14.281c0.563,0,1-0.438,1-1v-3.563C404.781,71.906,404.344,71.438,403.813,71.438z M456.781,52.813
	H442.5c-0.531,0-1,0.438-1,1v22.219c0,0.531,0.438,1,1,1h14.281c0.563,0,1-0.438,1-1v-3.563c0-0.563-0.438-1-1-1h-9.719v-3.75h9.719
	c0.563,0,1-0.438,1-1v-3.594c0-0.563-0.438-1-1-1h-9.719v-3.75h9.719c0.563,0,1-0.438,1-1v-3.563
	C457.75,53.281,457.313,52.813,456.781,52.813z M493,25.531v89.156c-0.031,14-11.5,25.344-25.531,25.313h-89.156
	c-14-0.031-25.344-11.531-25.313-25.531V25.313c0.031-14,11.531-25.344,25.531-25.313h89.156C481.688,0.031,493.031,11.5,493,25.531
	z M473.75,63.844c0-22.813-22.875-41.375-50.969-41.375s-50.969,18.563-50.969,41.375c0,20.438,18.125,37.563,42.625,40.813
	c5.969,1.281,5.281,3.469,3.938,11.5c-0.219,1.281-1.031,5.031,4.406,2.75s29.344-17.281,40.063-29.594
	C470.219,81.188,473.75,72.969,473.75,63.844z"/>
</svg>
