<?xml version="1.0" encoding="utf-8"?>
<!-- Generator: Adobe Illustrator 16.0.3, SVG Export Plug-In . SVG Version: 6.00 Build 0)  -->
<!DOCTYPE svg PUBLIC "-//W3C//DTD SVG 1.1//EN" "http://www.w3.org/Graphics/SVG/1.1/DTD/svg11.dtd">
<svg version="1.1" id="圖層_2" xmlns="http://www.w3.org/2000/svg" xmlns:xlink="http://www.w3.org/1999/xlink" x="0px" y="0px"
	 width="200px" height="200px" viewBox="0 0 200 200" enable-background="new 0 0 200 200" xml:space="preserve">
<g>
	<rect y="0.001" fill="#FFFFFE" width="200" height="199.997"/>
	<polygon fill="#FF5F00" points="30.002,90.001 30.002,55.001 55.001,90.001 70.001,90.001 70.001,30.001 55.001,30.001 55.001,65 
		30.002,30.001 15.002,30.001 15.002,90.001 	"/>
	<line fill="#EA6000" x1="80.001" y1="30.002" x2="125.001" y2="30.002"/>
	<polyline fill="#FF5F00" points="125.001,30.002 125.001,45.002 110.001,45.002 110.001,90.001 95.001,90.001 95.001,45.002 
		80.001,45.002 80.001,30.002 	"/>
	<rect x="15.002" y="110.002" fill="#FF5F00" width="15" height="60.002"/>
	<rect x="45.002" y="110.002" fill="#FF5F00" width="15" height="60.002"/>
	<rect x="45.002" y="155.002" fill="#FF5F00" width="30" height="14.996"/>
	<path fill="#FF8C3F" d="M110.001,100c-19.33,0-34.999,15.672-34.999,35.002S90.671,170,110.001,170
		C129.33,170,145,154.332,145,135.002S129.33,100,110.001,100 M110.001,160.002c-13.808,0-24.999-11.193-24.999-25
		S96.193,110,110.001,110s25,11.195,25,25.002S123.809,160.002,110.001,160.002"/>
	<path fill="#FFB37E" d="M145,64.296c-19.328,0-34.999,15.668-34.999,35c0,19.329,15.671,35,34.999,35
		c19.333,0,35.001-15.672,35.001-35C180.001,79.964,164.333,64.296,145,64.296 M145,124.297c-13.808,0-24.999-11.197-24.999-25
		c0-13.808,11.191-25,24.999-25c13.809,0,25,11.193,25,25C170,113.1,158.809,124.297,145,124.297"/>
	<path fill="#FF5F00" d="M150.001,67.503c0,5.521,4.478,10,10,10c5.521,0,9.999-4.479,9.999-10v-5.991v-31.51h15.001v35.001
		c0,13.807-11.192,24.998-25,24.998c-13.809,0-25-11.191-25-24.998V30.002h15v31.51V67.503z"/>
	<path fill="#FFB37E" d="M155.559,76.462c5.292,2.592,9.646,6.962,12.136,12.333c3.247-1.05,6.206-2.747,8.723-4.938
		c-2.009-4.086-4.79-7.721-8.157-10.715c-1.801,2.632-4.827,4.36-8.259,4.36C158.402,77.502,156.896,77.128,155.559,76.462"/>
	<path fill="#FF8C3F" d="M143.313,124.238c-6.123-0.408-11.645-3.02-15.773-7.047c4.12,4.053,6.84,9.525,7.368,15.623
		c3.191,0.963,6.58,1.479,10.086,1.479C144.925,130.795,144.342,127.418,143.313,124.238"/>
	<path fill="#FFD9BD" d="M200,150.004c-4.562,6.072-11.818,9.998-19.999,9.998c-13.809,0-25-11.193-25-25s11.191-25.002,25-25.002
		c8.181,0,15.438,3.926,19.999,10v-13.727c-5.67-3.951-12.563-6.274-19.999-6.274c-19.33,0-35.003,15.672-35.003,35.002
		S160.671,170,180.001,170c7.437,0,14.329-2.316,19.999-6.271V150.004z"/>
	<path fill="#FFB37E" d="M162.499,117.148c-4.134,4.059-9.665,6.682-15.813,7.09c-1.026,3.18-1.609,6.557-1.676,10.059
		c3.506-0.004,6.893-0.521,10.086-1.48C155.623,126.701,158.365,121.207,162.499,117.148"/>
</g>
</svg>
