<?xml version="1.0" encoding="utf-8"?>
<!-- Generator: Adobe Illustrator 16.0.3, SVG Export Plug-In . SVG Version: 6.00 Build 0)  -->
<!DOCTYPE svg PUBLIC "-//W3C//DTD SVG 1.1//EN" "http://www.w3.org/Graphics/SVG/1.1/DTD/svg11.dtd">
<svg version="1.1" id="圖層_1" xmlns="http://www.w3.org/2000/svg" xmlns:xlink="http://www.w3.org/1999/xlink" x="0px" y="0px"
	 width="200px" height="250px" viewBox="0 -25 200 250" enable-background="new 0 -25 200 250" xml:space="preserve">
<g>
	<rect x="0.048" y="-25" fill="#FF5F00" width="200" height="199.999"/>
	<polygon fill="#FFFFFE" points="30.049,65 30.049,30 55.048,65 70.048,65 70.048,5.001 55.048,5.001 55.048,40.001 30.049,5.001 
		15.049,5.001 15.049,65 	"/>
	<line fill="#EA6000" x1="80.049" y1="5.001" x2="125.049" y2="5.001"/>
	<polyline fill="#FFFFFE" points="125.049,5.001 125.049,20.001 110.049,20.001 110.049,65 95.049,65 95.049,20.001 80.049,20.001 
		80.049,5.001 	"/>
	<rect x="15.048" y="85.001" fill="#FFFFFE" width="15" height="59.999"/>
	<rect x="45.049" y="85.001" fill="#FFFFFE" width="15" height="59.999"/>
	<rect x="45.049" y="130" fill="#FFFFFE" width="30" height="15"/>
	<path fill="#FFD9BD" d="M110.049,75c-19.33,0-35,15.672-35,35c0,19.33,15.67,35,35,35c19.329,0,34.999-15.67,34.999-35
		C145.048,90.671,129.378,75,110.049,75 M110.049,135.002c-13.808,0-25.001-11.193-25.001-25.002
		c0-13.806,11.193-24.999,25.001-24.999c13.807,0,24.999,11.192,24.999,24.999C135.048,123.809,123.855,135.002,110.049,135.002"/>
	<path fill="#FFB37E" d="M145.048,39.295c-19.329,0-34.999,15.67-34.999,34.999c0,19.331,15.67,35.001,34.999,35.001
		c19.33,0,35-15.67,35-35.001C180.048,54.965,164.378,39.295,145.048,39.295 M145.048,99.294c-13.807,0-24.999-11.192-24.999-25.001
		c0-13.806,11.192-24.999,24.999-24.999c13.808,0,25.001,11.193,25.001,24.999C170.049,88.102,158.855,99.294,145.048,99.294"/>
	<path fill="#FFFFFE" d="M150.048,42.501c0,5.522,4.478,10,10,10c5.523,0,10.001-4.478,10.001-10V36.51V5.001h15v35
		c0,13.806-11.193,24.999-25.001,24.999c-13.807,0-25-11.193-25-24.999v-35h15V36.51V42.501z"/>
	<path fill="#FFB37E" d="M155.605,51.461c5.291,2.591,9.647,6.961,12.137,12.333c3.25-1.052,6.208-2.747,8.725-4.939
		c-2.01-4.085-4.794-7.719-8.16-10.715c-1.802,2.632-4.828,4.36-8.259,4.36C158.452,52.5,156.943,52.126,155.605,51.461"/>
	<path fill="#FFD9BD" d="M143.363,99.238c-6.124-0.408-11.645-3.02-15.773-7.051c4.118,4.057,6.837,9.53,7.363,15.629
		c3.195,0.961,6.58,1.479,10.088,1.479C144.972,105.793,144.388,102.416,143.363,99.238"/>
	<path fill="#FF8C3F" d="M200.049,125.002c-4.562,6.072-11.822,10-20.001,10c-13.806,0-24.999-11.193-24.999-25.002
		c0-13.806,11.193-24.999,24.999-24.999c8.179,0,15.439,3.927,20.001,9.997V81.275C194.38,77.32,187.484,75,180.048,75
		c-19.33,0-35,15.672-35,35c0,19.33,15.67,35,35,35c7.437,0,14.332-2.32,20.001-6.273V125.002z"/>
	<path fill="#FFB37E" d="M162.549,92.148c-4.136,4.059-9.664,6.68-15.814,7.09c-1.025,3.178-1.609,6.555-1.678,10.057
		c3.507,0,6.892-0.518,10.087-1.479C155.674,101.701,158.413,96.207,162.549,92.148"/>
	<rect x="0.048" y="174.998" fill="#FFB37E" width="200" height="50.002"/>
	<rect x="15.048" y="210.082" fill="#FFFFFF" width="0.884" height="4.207"/>
	<polygon fill="#FFFFFF" points="19.659,214.289 17.696,211.531 17.696,214.289 16.849,214.289 16.849,210.082 17.696,210.082 
		19.659,212.834 19.659,210.082 20.503,210.082 20.503,214.289 	"/>
	<path fill="#FFFFFF" d="M21.389,210.082h1.269c0.37,0,0.707,0.053,1.008,0.158c0.3,0.105,0.557,0.252,0.769,0.438
		c0.214,0.188,0.377,0.41,0.492,0.666c0.116,0.258,0.175,0.537,0.175,0.842c0,0.303-0.059,0.582-0.175,0.838
		c-0.115,0.258-0.278,0.479-0.492,0.666c-0.212,0.189-0.469,0.336-0.769,0.439c-0.301,0.105-0.638,0.16-1.008,0.16h-1.269V210.082z
		 M22.676,213.588c0.224,0,0.431-0.033,0.621-0.098c0.187-0.063,0.351-0.154,0.488-0.275c0.136-0.121,0.244-0.268,0.32-0.441
		c0.076-0.172,0.113-0.369,0.113-0.588c0-0.221-0.037-0.418-0.113-0.592c-0.076-0.172-0.184-0.32-0.32-0.441
		c-0.138-0.119-0.301-0.211-0.488-0.275c-0.19-0.063-0.397-0.094-0.621-0.094h-0.404v2.805H22.676z"/>
	<path fill="#FFFFFF" d="M28.321,210.082h0.885v2.689c0,0.24-0.041,0.459-0.12,0.654s-0.194,0.363-0.342,0.502
		c-0.148,0.139-0.328,0.246-0.545,0.322c-0.217,0.076-0.46,0.113-0.729,0.113c-0.275,0-0.519-0.037-0.734-0.113
		s-0.395-0.184-0.543-0.322c-0.146-0.139-0.261-0.307-0.34-0.502c-0.079-0.195-0.121-0.414-0.121-0.654v-2.689h0.885v2.732
		c0,0.266,0.071,0.473,0.213,0.623s0.356,0.225,0.64,0.225c0.28,0,0.494-0.074,0.637-0.225c0.143-0.15,0.213-0.357,0.213-0.623
		V210.082z"/>
	<path fill="#FFFFFF" d="M32.755,213.088c0,0.186-0.037,0.355-0.113,0.512c-0.076,0.154-0.183,0.291-0.319,0.404
		c-0.137,0.113-0.303,0.201-0.495,0.266c-0.194,0.063-0.409,0.094-0.646,0.094c-0.224,0-0.448-0.025-0.67-0.074
		c-0.226-0.047-0.434-0.117-0.623-0.211l0.184-0.676c0.15,0.072,0.319,0.133,0.508,0.186c0.187,0.049,0.377,0.074,0.577,0.074
		c0.211,0,0.383-0.043,0.515-0.131c0.132-0.086,0.199-0.209,0.199-0.375c0-0.152-0.064-0.275-0.189-0.371
		c-0.129-0.098-0.321-0.199-0.582-0.305c-0.185-0.074-0.349-0.154-0.494-0.234c-0.143-0.084-0.262-0.176-0.358-0.277
		c-0.099-0.1-0.173-0.213-0.226-0.336c-0.051-0.127-0.077-0.264-0.077-0.422c0-0.387,0.13-0.684,0.395-0.891
		c0.262-0.207,0.614-0.314,1.057-0.314c0.227,0,0.438,0.021,0.626,0.064s0.372,0.107,0.549,0.201l-0.164,0.676
		c-0.146-0.072-0.303-0.131-0.464-0.174c-0.162-0.045-0.328-0.066-0.496-0.066c-0.187,0-0.335,0.035-0.448,0.104
		c-0.115,0.07-0.171,0.18-0.171,0.326c0,0.066,0.009,0.127,0.028,0.176c0.02,0.051,0.053,0.1,0.104,0.143
		c0.052,0.045,0.118,0.09,0.2,0.133c0.083,0.045,0.185,0.094,0.312,0.148c0.168,0.072,0.33,0.146,0.483,0.227
		s0.289,0.174,0.407,0.281c0.119,0.104,0.212,0.225,0.284,0.363C32.718,212.746,32.755,212.906,32.755,213.088"/>
	<polygon fill="#FFFFFF" points="36.292,210.082 36.292,210.781 35.129,210.781 35.129,214.289 34.245,214.289 34.245,210.781 
		33.083,210.781 33.083,210.082 	"/>
	<path fill="#FFFFFF" d="M39.897,211.363c0,0.299-0.084,0.551-0.254,0.754c-0.167,0.205-0.409,0.361-0.725,0.471l1.42,1.701H39.24
		l-1.218-1.535h-0.286v1.535h-0.884v-4.207h1.256c0.263,0,0.501,0.025,0.722,0.078c0.219,0.053,0.407,0.133,0.564,0.24
		c0.16,0.109,0.283,0.24,0.371,0.4C39.853,210.961,39.897,211.15,39.897,211.363 M39.013,211.383c0-0.215-0.084-0.371-0.254-0.467
		c-0.167-0.098-0.386-0.145-0.656-0.145h-0.367v1.313h0.266c0.304,0,0.547-0.059,0.732-0.176
		C38.919,211.789,39.013,211.615,39.013,211.383"/>
	<polygon fill="#FFFFFF" points="42.865,210.082 43.831,210.082 42.441,212.715 42.441,214.289 41.557,214.289 41.557,212.715 
		40.17,210.082 41.134,210.082 42,211.932 	"/>
	<polygon fill="#FFFFFF" points="46.515,210.082 46.515,213.588 48.082,213.588 48.082,214.289 45.629,214.289 45.629,210.082 	"/>
	<rect x="48.7" y="210.082" fill="#FFFFFF" width="0.884" height="4.207"/>
	<path fill="#FFFFFF" d="M54.333,214.289h-0.917l-0.296-0.889h-1.729l-0.299,0.889h-0.915l1.598-4.207h0.958L54.333,214.289z
		 M52.254,210.789l-0.631,1.912h1.261L52.254,210.789z"/>
	<rect x="54.924" y="210.082" fill="#FFFFFF" width="0.885" height="4.207"/>
	<path fill="#FFFFFF" d="M59.402,213.088c0,0.186-0.036,0.355-0.112,0.512c-0.076,0.154-0.184,0.291-0.321,0.404
		c-0.136,0.113-0.302,0.201-0.493,0.266c-0.196,0.063-0.409,0.094-0.646,0.094c-0.224,0-0.447-0.025-0.672-0.074
		c-0.224-0.047-0.434-0.117-0.622-0.211l0.185-0.676c0.15,0.072,0.319,0.133,0.509,0.186c0.185,0.049,0.377,0.074,0.576,0.074
		c0.21,0,0.383-0.043,0.516-0.131c0.132-0.086,0.197-0.209,0.197-0.375c0-0.152-0.063-0.275-0.188-0.371
		c-0.128-0.098-0.319-0.199-0.581-0.305c-0.185-0.074-0.352-0.154-0.493-0.234c-0.143-0.084-0.264-0.176-0.36-0.277
		c-0.097-0.1-0.171-0.213-0.224-0.336c-0.054-0.127-0.079-0.264-0.079-0.422c0-0.387,0.132-0.684,0.395-0.891
		s0.615-0.314,1.057-0.314c0.228,0,0.438,0.021,0.626,0.064s0.374,0.107,0.551,0.201l-0.164,0.676
		c-0.148-0.072-0.302-0.131-0.466-0.174c-0.162-0.045-0.326-0.066-0.494-0.066c-0.188,0-0.337,0.035-0.45,0.104
		c-0.114,0.07-0.17,0.18-0.17,0.326c0,0.066,0.01,0.127,0.029,0.176c0.02,0.051,0.053,0.1,0.103,0.143
		c0.053,0.045,0.117,0.09,0.201,0.133c0.083,0.045,0.186,0.094,0.311,0.148c0.169,0.072,0.331,0.146,0.484,0.227
		s0.289,0.174,0.405,0.281c0.121,0.104,0.214,0.225,0.284,0.363C59.366,212.746,59.402,212.906,59.402,213.088"/>
	<path fill="#FFFFFF" d="M64.081,212.186c0,0.297-0.048,0.578-0.143,0.842c-0.096,0.264-0.231,0.494-0.41,0.691
		c-0.179,0.199-0.399,0.355-0.663,0.471c-0.265,0.115-0.564,0.174-0.899,0.174c-0.337,0-0.637-0.059-0.901-0.174
		c-0.261-0.115-0.483-0.271-0.665-0.471c-0.18-0.197-0.317-0.428-0.411-0.691c-0.091-0.264-0.138-0.545-0.138-0.842
		c0-0.295,0.047-0.576,0.138-0.842c0.094-0.266,0.231-0.496,0.411-0.693c0.182-0.199,0.404-0.355,0.665-0.471
		c0.265-0.115,0.564-0.174,0.901-0.174c0.335,0,0.635,0.059,0.899,0.174c0.264,0.115,0.484,0.271,0.663,0.471
		c0.179,0.197,0.314,0.428,0.41,0.693C64.033,211.609,64.081,211.891,64.081,212.186 M61.966,213.668
		c0.207,0,0.386-0.035,0.54-0.113c0.153-0.076,0.282-0.18,0.384-0.313c0.104-0.133,0.181-0.289,0.231-0.471
		c0.052-0.18,0.076-0.377,0.076-0.586c0-0.211-0.024-0.406-0.076-0.588c-0.051-0.182-0.127-0.338-0.231-0.471
		c-0.102-0.133-0.23-0.238-0.384-0.313c-0.154-0.076-0.333-0.115-0.54-0.115s-0.387,0.039-0.542,0.115
		c-0.153,0.074-0.279,0.18-0.382,0.313c-0.104,0.133-0.182,0.289-0.231,0.471c-0.051,0.182-0.076,0.377-0.076,0.588
		c0,0.209,0.025,0.406,0.076,0.586c0.05,0.182,0.127,0.338,0.231,0.471c0.103,0.133,0.229,0.236,0.382,0.313
		C61.579,213.633,61.759,213.668,61.966,213.668"/>
	<polygon fill="#FFFFFF" points="67.573,214.289 65.61,211.531 65.61,214.289 64.764,214.289 64.764,210.082 65.61,210.082 
		67.573,212.834 67.573,210.082 68.418,210.082 68.418,214.289 	"/>
	<path fill="#FFFFFF" d="M74.688,212.186c0,0.297-0.046,0.578-0.141,0.842c-0.096,0.264-0.232,0.494-0.409,0.691
		c-0.181,0.199-0.402,0.355-0.663,0.471c-0.266,0.115-0.565,0.174-0.902,0.174c-0.335,0-0.635-0.059-0.899-0.174
		c-0.263-0.115-0.485-0.271-0.667-0.471c-0.18-0.197-0.315-0.428-0.409-0.691c-0.093-0.264-0.14-0.545-0.14-0.842
		c0-0.295,0.047-0.576,0.14-0.842c0.094-0.266,0.229-0.496,0.409-0.693c0.182-0.199,0.404-0.355,0.667-0.471
		c0.265-0.115,0.564-0.174,0.899-0.174c0.337,0,0.637,0.059,0.902,0.174c0.261,0.115,0.482,0.271,0.663,0.471
		c0.177,0.197,0.313,0.428,0.409,0.693C74.643,211.609,74.688,211.891,74.688,212.186 M72.573,213.668
		c0.207,0,0.389-0.035,0.542-0.113c0.153-0.076,0.281-0.18,0.382-0.313c0.104-0.133,0.183-0.289,0.232-0.471
		c0.052-0.18,0.075-0.377,0.075-0.586c0-0.211-0.023-0.406-0.075-0.588c-0.05-0.182-0.128-0.338-0.232-0.471
		c-0.101-0.133-0.229-0.238-0.382-0.313c-0.153-0.076-0.335-0.115-0.542-0.115c-0.205,0-0.386,0.039-0.54,0.115
		c-0.153,0.074-0.281,0.18-0.384,0.313c-0.104,0.133-0.181,0.289-0.229,0.471c-0.053,0.182-0.075,0.377-0.075,0.588
		c0,0.209,0.022,0.406,0.075,0.586c0.049,0.182,0.125,0.338,0.229,0.471c0.103,0.133,0.23,0.236,0.384,0.313
		C72.188,213.633,72.368,213.668,72.573,213.668"/>
	<polygon fill="#FFFFFF" points="75.371,214.289 75.371,210.082 77.91,210.082 77.91,210.783 76.256,210.783 76.256,211.908 
		77.832,211.908 77.832,212.607 76.256,212.607 76.256,214.289 	"/>
	<polygon fill="#FFFFFF" points="78.58,214.289 78.58,210.082 81.117,210.082 81.117,210.783 79.464,210.783 79.464,211.908 
		81.043,211.908 81.043,212.607 79.464,212.607 79.464,214.289 	"/>
	<rect x="81.818" y="210.082" fill="#FFFFFF" width="0.884" height="4.207"/>
	<path fill="#FFFFFF" d="M85.651,210.006c0.104,0,0.213,0.006,0.321,0.016c0.11,0.01,0.216,0.025,0.319,0.045
		s0.205,0.041,0.298,0.068c0.095,0.025,0.179,0.059,0.255,0.098l-0.126,0.645c-0.134-0.049-0.284-0.09-0.446-0.123
		c-0.167-0.031-0.329-0.047-0.489-0.047c-0.479,0-0.847,0.123-1.101,0.373c-0.255,0.25-0.382,0.619-0.382,1.105
		c0,0.484,0.127,0.854,0.382,1.102c0.254,0.25,0.622,0.375,1.101,0.375c0.16,0,0.322-0.018,0.489-0.047
		c0.162-0.031,0.313-0.072,0.446-0.123l0.126,0.646c-0.076,0.037-0.16,0.068-0.255,0.096c-0.093,0.027-0.194,0.051-0.298,0.068
		c-0.104,0.02-0.209,0.033-0.319,0.045c-0.108,0.01-0.217,0.016-0.321,0.016c-0.362,0-0.683-0.055-0.96-0.164
		s-0.512-0.262-0.701-0.455s-0.332-0.422-0.429-0.689c-0.097-0.264-0.145-0.555-0.145-0.869c0-0.316,0.048-0.607,0.145-0.873
		c0.097-0.264,0.239-0.494,0.429-0.688s0.424-0.346,0.701-0.455S85.289,210.006,85.651,210.006"/>
	<polygon fill="#FFFFFF" points="87.539,210.082 90.065,210.082 90.065,210.781 88.424,210.781 88.424,211.799 89.99,211.799 
		89.99,212.5 88.424,212.5 88.424,213.588 90.085,213.588 90.085,214.289 87.539,214.289 	"/>
	<path fill="#FFFFFF" d="M90.615,214.994c0.054-0.131,0.104-0.256,0.148-0.371c0.043-0.119,0.081-0.238,0.11-0.361
		c0.029-0.121,0.052-0.25,0.068-0.381c0.018-0.133,0.027-0.275,0.033-0.426l0.846,0.068c-0.022,0.33-0.085,0.646-0.187,0.938
		c-0.102,0.293-0.257,0.57-0.458,0.83L90.615,214.994z"/>
	<polygon fill="#FFFFFF" points="96.841,214.289 94.877,211.531 94.877,214.289 94.031,214.289 94.031,210.082 94.877,210.082 
		96.841,212.834 96.841,210.082 97.687,210.082 97.687,214.289 	"/>
	<path fill="#FFFFFF" d="M102.404,214.289h-0.916l-0.297-0.889h-1.73l-0.297,0.889H98.25l1.598-4.207h0.958L102.404,214.289z
		 M100.327,210.789l-0.633,1.912h1.263L100.327,210.789z"/>
	<polygon fill="#FFFFFF" points="105.473,210.082 105.473,210.781 104.312,210.781 104.312,214.289 103.428,214.289 
		103.428,210.781 102.265,210.781 102.265,210.082 	"/>
	<rect x="106.066" y="210.082" fill="#FFFFFF" width="0.884" height="4.207"/>
	<path fill="#FFFFFF" d="M111.894,212.186c0,0.297-0.046,0.578-0.141,0.842s-0.232,0.494-0.41,0.691
		c-0.18,0.199-0.401,0.355-0.663,0.471c-0.264,0.115-0.563,0.174-0.901,0.174c-0.334,0-0.636-0.059-0.899-0.174
		c-0.263-0.115-0.485-0.271-0.666-0.471c-0.181-0.197-0.317-0.428-0.41-0.691s-0.14-0.545-0.14-0.842
		c0-0.295,0.047-0.576,0.14-0.842s0.229-0.496,0.41-0.693c0.181-0.199,0.403-0.355,0.666-0.471c0.264-0.115,0.565-0.174,0.899-0.174
		c0.338,0,0.638,0.059,0.901,0.174c0.262,0.115,0.483,0.271,0.663,0.471c0.178,0.197,0.315,0.428,0.41,0.693
		S111.894,211.891,111.894,212.186 M109.778,213.668c0.207,0,0.386-0.035,0.541-0.113c0.155-0.076,0.281-0.18,0.384-0.313
		c0.104-0.133,0.182-0.289,0.231-0.471c0.05-0.18,0.075-0.377,0.075-0.586c0-0.211-0.025-0.406-0.075-0.588
		s-0.128-0.338-0.231-0.471c-0.103-0.133-0.229-0.238-0.384-0.313c-0.155-0.076-0.334-0.115-0.541-0.115
		c-0.205,0-0.386,0.039-0.539,0.115c-0.153,0.074-0.282,0.18-0.386,0.313s-0.179,0.289-0.23,0.471
		c-0.05,0.182-0.076,0.377-0.076,0.588c0,0.209,0.026,0.406,0.076,0.586c0.052,0.182,0.127,0.338,0.23,0.471
		s0.232,0.236,0.386,0.313C109.393,213.633,109.573,213.668,109.778,213.668"/>
	<polygon fill="#FFFFFF" points="115.387,214.289 113.422,211.531 113.422,214.289 112.576,214.289 112.576,210.082 
		113.422,210.082 115.387,212.834 115.387,210.082 116.232,210.082 116.232,214.289 	"/>
	<path fill="#FFFFFF" d="M120.949,214.289h-0.915l-0.298-0.889h-1.729l-0.296,0.889h-0.916l1.597-4.207h0.961L120.949,214.289z
		 M118.872,210.789l-0.633,1.912h1.265L118.872,210.789z"/>
	<polygon fill="#FFFFFF" points="122.396,210.082 122.396,213.588 123.962,213.588 123.962,214.289 121.511,214.289 
		121.511,210.082 	"/>
	<polygon fill="#FFFFFF" points="128.729,210.082 128.729,210.781 127.567,210.781 127.567,214.289 126.684,214.289 
		126.684,210.781 125.521,210.781 125.521,210.082 	"/>
	<path fill="#FFFFFF" d="M132.745,214.289h-0.916l-0.297-0.889h-1.729l-0.298,0.889h-0.914l1.597-4.207h0.957L132.745,214.289z
		 M130.668,210.789l-0.633,1.912h1.263L130.668,210.789z"/>
	<rect x="133.338" y="210.082" fill="#FFFFFF" width="0.885" height="4.207"/>
	<polygon fill="#FFFFFF" points="139.129,213.17 139.875,210.082 140.771,210.082 139.596,214.289 138.7,214.289 137.783,210.99 
		136.869,214.289 135.972,214.289 134.797,210.082 135.694,210.082 136.438,213.17 137.286,210.082 138.283,210.082 	"/>
	<path fill="#FFFFFF" d="M144.8,214.289h-0.917l-0.296-0.889h-1.729l-0.298,0.889h-0.915l1.597-4.207h0.962L144.8,214.289z
		 M142.722,210.789l-0.632,1.912h1.263L142.722,210.789z"/>
	<polygon fill="#FFFFFF" points="148.172,214.289 146.207,211.531 146.207,214.289 145.361,214.289 145.361,210.082 
		146.207,210.082 148.172,212.834 148.172,210.082 149.018,210.082 149.018,214.289 	"/>
	<path fill="#FFFFFF" d="M153.836,210.082h0.884v2.689c0,0.24-0.038,0.459-0.121,0.654c-0.079,0.195-0.192,0.363-0.341,0.502
		c-0.146,0.139-0.329,0.246-0.546,0.322s-0.46,0.113-0.729,0.113c-0.274,0-0.519-0.037-0.732-0.113
		c-0.215-0.076-0.396-0.184-0.544-0.322c-0.146-0.139-0.259-0.307-0.341-0.502c-0.079-0.195-0.119-0.414-0.119-0.654v-2.689h0.884
		v2.732c0,0.266,0.072,0.473,0.215,0.623c0.144,0.15,0.355,0.225,0.638,0.225s0.494-0.074,0.638-0.225
		c0.143-0.15,0.215-0.357,0.215-0.623V210.082z"/>
	<polygon fill="#FFFFFF" points="158.4,214.289 156.438,211.531 156.438,214.289 155.591,214.289 155.591,210.082 156.438,210.082 
		158.4,212.834 158.4,210.082 159.246,210.082 159.246,214.289 	"/>
	<rect x="160.163" y="210.082" fill="#FFFFFF" width="0.884" height="4.207"/>
	<polygon fill="#FFFFFF" points="164.469,210.082 165.389,210.082 163.977,214.289 162.953,214.289 161.539,210.082 
		162.461,210.082 163.465,213.391 	"/>
	<polygon fill="#FFFFFF" points="165.853,210.082 168.378,210.082 168.378,210.781 166.736,210.781 166.736,211.799 
		168.302,211.799 168.302,212.5 166.736,212.5 166.736,213.588 168.396,213.588 168.396,214.289 165.853,214.289 	"/>
	<path fill="#FFFFFF" d="M172.21,211.363c0,0.299-0.084,0.551-0.251,0.754c-0.169,0.205-0.412,0.361-0.727,0.471l1.421,1.701h-1.1
		l-1.218-1.535h-0.284v1.535h-0.885v-4.207h1.257c0.261,0,0.502,0.025,0.719,0.078c0.221,0.053,0.408,0.133,0.566,0.24
		c0.157,0.109,0.281,0.24,0.369,0.4C172.167,210.961,172.21,211.15,172.21,211.363 M171.327,211.383
		c0-0.215-0.085-0.371-0.254-0.467c-0.167-0.098-0.386-0.145-0.656-0.145h-0.365v1.313h0.266c0.302,0,0.546-0.059,0.732-0.176
		C171.233,211.789,171.327,211.615,171.327,211.383"/>
	<path fill="#FFFFFF" d="M175.772,213.088c0,0.186-0.038,0.355-0.113,0.512c-0.076,0.154-0.183,0.291-0.319,0.404
		c-0.138,0.113-0.303,0.201-0.496,0.266c-0.194,0.063-0.408,0.094-0.644,0.094c-0.225,0-0.45-0.025-0.672-0.074
		c-0.226-0.047-0.435-0.117-0.624-0.211l0.185-0.676c0.151,0.072,0.32,0.133,0.508,0.186c0.188,0.049,0.379,0.074,0.577,0.074
		c0.212,0,0.383-0.043,0.516-0.131c0.132-0.086,0.199-0.209,0.199-0.375c0-0.152-0.063-0.275-0.189-0.371
		c-0.127-0.098-0.32-0.199-0.582-0.305c-0.185-0.074-0.35-0.154-0.492-0.234c-0.144-0.084-0.263-0.176-0.36-0.277
		c-0.097-0.1-0.171-0.213-0.224-0.336c-0.052-0.127-0.08-0.264-0.08-0.422c0-0.387,0.133-0.684,0.396-0.891
		c0.262-0.207,0.613-0.314,1.058-0.314c0.228,0,0.436,0.021,0.625,0.064s0.372,0.107,0.55,0.201l-0.165,0.676
		c-0.146-0.072-0.302-0.131-0.464-0.174c-0.161-0.045-0.329-0.066-0.496-0.066c-0.186,0-0.334,0.035-0.447,0.104
		c-0.114,0.07-0.171,0.18-0.171,0.326c0,0.066,0.009,0.127,0.027,0.176c0.02,0.051,0.054,0.1,0.105,0.143
		c0.05,0.045,0.115,0.09,0.198,0.133c0.082,0.045,0.186,0.094,0.313,0.148c0.167,0.072,0.329,0.146,0.482,0.227
		s0.289,0.174,0.406,0.281c0.119,0.104,0.214,0.225,0.282,0.363C175.734,212.746,175.772,212.906,175.772,213.088"/>
	<rect x="176.455" y="210.082" fill="#FFFFFF" width="0.883" height="4.207"/>
	<polygon fill="#FFFFFF" points="181.14,210.082 181.14,210.781 179.978,210.781 179.978,214.289 179.094,214.289 179.094,210.781 
		177.931,210.781 177.931,210.082 	"/>
	<polygon fill="#FFFFFF" points="184.082,210.082 185.049,210.082 183.658,212.715 183.658,214.289 182.774,214.289 
		182.774,212.715 181.387,210.082 182.353,210.082 183.218,211.932 	"/>
	<path fill="#FFFFFE" d="M58.644,204.43c0.082-0.641,0.124-1.346,0.124-2.672v-13.377c0-0.973-0.042-1.719-0.124-2.486
		c0.828,0.084,1.449,0.104,2.506,0.104h13.088c1.015,0,1.678-0.02,2.444-0.104c-0.083,0.768-0.125,1.451-0.125,2.486v13.4
		c0,1.242,0.042,2.049,0.125,2.648H74.36v-0.912H60.941v0.912H58.644z M71.937,187.904c0.562,0.354,0.809,0.539,1.349,0.994
		l-0.787,0.746c0.58-0.021,0.827-0.043,1.241-0.104v2.008c-0.517-0.082-1.077-0.104-1.966-0.104h-1.698
		c0.102,1.555,0.27,2.693,0.519,3.873c0.518-1.078,0.89-2.215,0.971-3.064l1.887,0.621c-0.145,0.311-0.145,0.311-0.562,1.387
		c-0.453,1.182-0.91,2.113-1.593,3.232c0.394,0.891,0.746,1.387,0.974,1.387c0.206,0,0.329-0.518,0.475-1.74
		c0.644,0.703,0.912,0.932,1.452,1.223c-0.228,1.221-0.437,1.76-0.851,2.297c-0.247,0.313-0.602,0.479-1.015,0.479
		c-0.849,0-1.554-0.602-2.278-1.926c-0.766,0.932-1.365,1.49-2.36,2.236c-0.457-0.623-0.808-0.994-1.348-1.49
		c0.663-0.395,0.871-0.52,1.308-0.852c-1.431,0.313-2.858,0.561-4.785,0.871c-0.662,0.104-0.705,0.104-1.058,0.186l-0.329-2.029
		c0.163,0.021,0.289,0.021,0.392,0.021c1.368,0,4.038-0.354,6.255-0.809v1.346c0.436-0.393,0.684-0.662,1.16-1.283
		c-0.519-1.512-0.89-3.686-1.058-5.965h-4.617c-0.829,0-1.324,0.021-1.905,0.104v-2.029c0.498,0.082,1.098,0.125,1.905,0.125h4.535
		c-0.062-0.871-0.062-0.977-0.123-1.326h2.068c-0.062,0.373-0.062,0.621-0.081,1.326h1.779c-0.535-0.455-0.826-0.686-1.263-0.934
		l0.851-0.807H60.941v13.771H74.36v-13.771H71.937z M62.412,193.787c0-0.582-0.021-1.1-0.083-1.516
		c0.495,0.043,0.829,0.064,1.429,0.064h2.568c0.642,0,1.014-0.021,1.43-0.064c-0.042,0.375-0.063,0.77-0.063,1.432v1.822
		c0,0.807,0.021,1.119,0.063,1.512c-0.395-0.021-0.766-0.041-1.306-0.041h-2.714c-0.682,0-0.973,0.02-1.407,0.061
		c0.063-0.475,0.083-0.91,0.083-1.592V193.787z M64.152,195.4h1.821v-1.49h-1.821V195.4z"/>
	<path fill="#FFFFFE" d="M88.092,190.699c0.478,0.354,0.622,0.479,1.118,0.953c0.249-0.27,0.353-0.393,0.621-0.746
		c-0.434-0.371-0.704-0.537-1.241-0.867l0.973-1.348c0.415,0.248,0.767,0.498,1.181,0.828c0.248-0.477,0.33-0.684,0.601-1.367
		h-1.946c-0.889,1.449-1.802,2.547-3.087,3.709c-0.228-0.643-0.413-0.996-0.684-1.451l-0.911,2.277
		c0.787,0.996,1.161,1.699,1.409,2.691c0.124,0.479,0.165,0.85,0.165,1.576c0,1.471-0.476,2.443-1.366,2.836
		c-0.374,0.145-0.746,0.209-1.45,0.209h-0.311c0-1.307-0.041-1.574-0.373-2.113c0.395,0.041,0.56,0.061,0.787,0.061
		c0.539,0,0.767-0.393,0.767-1.221c0-0.561-0.104-1.201-0.29-1.76c-0.271-0.828-0.56-1.324-1.326-2.215
		c0.726-1.514,1.098-2.652,1.513-4.785h-1.678v13.918c0,1.096,0.041,1.986,0.083,2.566h-2.257c0.083-0.6,0.124-1.512,0.124-2.566
		v-13.98c0-0.932-0.021-1.428-0.083-2.01c0.414,0.063,0.808,0.084,1.389,0.084h2.505c0.745,0,1.138-0.021,1.491-0.084l1.035,1.182
		c-0.145,0.27-0.206,0.395-0.291,0.684c-0.124,0.371-0.393,1.139-0.62,1.822c1.056-1.059,1.967-2.383,2.465-3.707
		c0.166-0.373,0.187-0.457,0.228-0.787l2.174,0.33c-0.165,0.271-0.165,0.271-0.31,0.623c-0.021,0.041-0.021,0.041-0.124,0.289h1.035
		c0.911,0,1.304-0.021,1.698-0.063c0.145,1.1,0.891,2.672,1.905,3.957c0.62-0.664,1.076-1.285,1.469-2.031h-1.635
		c-0.249,0-0.539,0.021-0.891,0.064v-2.053c0.414,0.063,0.809,0.084,1.242,0.084h1.43c0.724,0,1.118-0.021,1.387-0.084l0.994,1.326
		c-0.187,0.248-0.331,0.496-0.684,1.139c-0.538,0.953-1.305,2.029-2.071,2.879c1.015,0.932,1.802,1.451,3.273,2.113
		c-0.56,0.807-0.787,1.283-1.098,2.174c-1.14-0.662-1.719-1.076-2.65-1.885v1.201c-0.313-0.041-0.602-0.063-1.265-0.063H90.66
		c-0.457,0-0.808,0.021-1.159,0.063v-1.139c-0.891,0.869-1.409,1.283-2.341,1.904c-0.29-0.684-0.581-1.117-1.118-1.697
		c0.85-0.537,1.159-0.768,1.926-1.408c-0.248-0.291-0.311-0.352-1.035-0.91L88.092,190.699z M89.873,199.605
		c-1.035,1.945-1.844,2.92-3.604,4.432c-0.496-0.725-0.848-1.117-1.49-1.615c1.926-1.346,2.442-1.906,3.354-3.666L89.873,199.605z
		 M88.755,198.281c-0.87,0-1.513,0.02-1.822,0.082v-2.154c0.31,0.061,1.097,0.104,1.926,0.104h7.746
		c0.994,0,1.572-0.021,1.967-0.104v2.176c-0.519-0.063-1.202-0.104-1.946-0.104H93.56v4.016c0,1.617-0.495,1.988-2.61,1.988
		c-0.352,0-0.932-0.02-1.698-0.063c-0.041-0.828-0.207-1.51-0.517-2.215c1.097,0.186,1.678,0.248,2.153,0.248
		c0.477,0,0.58-0.104,0.58-0.518v-3.457H88.755z M94.968,193.205c-1.015-1.055-1.678-2.049-2.423-3.623
		c-0.518,1.367-1.098,2.299-2.257,3.623h0.498h3.748H94.968z M96.334,198.777c0.85,1.49,1.616,2.361,3.025,3.334
		c-0.54,0.643-0.746,0.953-1.224,1.844c-1.719-1.43-2.442-2.279-3.602-4.35L96.334,198.777z"/>
	<path fill="#FFFFFE" d="M106.213,192.254c-0.248-0.436-0.476-0.705-1.035-1.223c1.491-0.146,2.961-0.373,4.184-0.643
		c-1.286-0.395-1.471-0.436-3.231-0.828l1.201-0.932h-2.341c-1.098,0-1.531,0.021-2.112,0.082v-2.174
		c0.56,0.084,1.202,0.125,2.26,0.125h5.071v-0.145c0-0.332-0.041-0.768-0.104-1.203h2.548c-0.083,0.395-0.104,0.828-0.104,1.203
		v0.145h5.055c1.097,0,1.76-0.041,2.359-0.125v2.174c-0.6-0.061-1.118-0.082-2.215-0.082h-1.968l1.242,0.684
		c-0.145,0.063-0.145,0.063-0.932,0.414c-0.602,0.268-1.182,0.498-1.843,0.787c1.117,0.416,1.407,0.539,2.194,0.912l-0.809,0.828
		h2.362c1.117,0,1.739-0.021,2.32-0.104v2.049c-0.663-0.082-1.244-0.104-2.32-0.104h-12.778c-0.021,2.01-0.041,2.568-0.206,4.018
		c0.682-0.578,1.015-0.973,1.448-1.635c0.415-0.662,0.767-1.471,0.932-2.135l2.052,0.438c-0.105,0.227-0.25,0.557-0.436,0.992h2.506
		c-0.021-0.662-0.041-0.91-0.104-1.24h2.36c-0.063,0.412-0.083,0.682-0.083,1.24h3.728c1.017,0,1.472-0.02,1.99-0.104v2.111
		c-0.602-0.061-1.037-0.082-2.011-0.082h-3.707v1.242h3.107c0.787,0,0.787,0,1.407-0.041c0.25,0,0.271-0.02,0.455-0.123v2.029
		c-0.579-0.063-0.951-0.086-1.862-0.086h-3.107v1.205h4.681c0.849,0,1.45-0.041,1.969-0.105v2.154
		c-0.622-0.082-1.244-0.123-2.011-0.123h-11.513c-0.705,0-1.244,0.02-1.988,0.102v-2.133c0.517,0.084,1.056,0.105,1.946,0.105h4.742
		v-1.205h-2.382c-0.767,0-1.325,0.023-1.926,0.086v-1.844c-0.311,0.373-0.496,0.602-1.035,1.141
		c-0.498-0.787-0.685-1.016-1.222-1.516c-0.229,1.639-0.312,2.012-0.602,2.963c-0.393,1.285-0.704,1.926-1.388,2.9
		c-0.559-0.848-0.913-1.283-1.655-2.051c0.558-0.703,0.932-1.428,1.241-2.4c0.331-1.1,0.519-3.148,0.519-5.738
		c0-0.766-0.021-1.428-0.084-2.111c0.787,0.082,1.43,0.104,2.341,0.104H106.213z M108.056,197.699
		c-0.289,0.479-0.496,0.787-0.789,1.182c0.479,0.041,0.872,0.061,1.846,0.061h2.402v-1.242H108.056z M114.27,192.254
		c-0.248-0.104-1.035-0.436-2.341-0.953c-1.864,0.539-1.947,0.561-4.433,0.953H114.27z M108.554,188.629
		c0.744,0.184,2.318,0.643,3.396,1.016c0.828-0.27,1.863-0.727,2.402-1.016H108.554z"/>
	<path fill="#FFFFFE" d="M124.715,187.863c-0.021-0.518-0.063-0.891-0.124-1.346c2.05-0.291,3.168-0.623,4.037-1.162l0.974,1.678
		c-0.083,0.021-0.104,0.021-0.228,0.063c-0.973,0.354-1.533,0.52-2.692,0.744l0.021,0.604h1.387c0.602,0,0.911-0.021,1.161-0.063
		v1.658c-0.291-0.045-0.622-0.064-1.161-0.064h-1.304l0.041,0.684h1.263c0.602,0,0.911-0.021,1.161-0.063v1.617
		c-0.271-0.043-0.578-0.063-1.161-0.063h-1.2l0.041,0.746h11.392l0.041-0.746h-1.265c-0.558,0-0.891,0.02-1.159,0.063v-1.617
		c0.248,0.041,0.539,0.063,1.159,0.063h1.368l0.041-0.725h-1.409c-0.517,0-0.869,0.02-1.159,0.061v-1.654
		c0.229,0.041,0.581,0.063,1.159,0.063h1.492l0.041-0.727h-1.512c-0.518,0-0.85,0.021-1.201,0.043v-1.824
		c0.311,0.063,0.726,0.084,1.409,0.084h2.05c0.602,0,1.015-0.021,1.387-0.063c-0.063,0.498-0.104,0.932-0.124,1.492l-0.311,5.488
		c0.746-0.021,0.974-0.021,1.451-0.084c-0.064,0.496-0.085,0.891-0.085,1.656v0.787c0,0.602,0.021,0.932,0.085,1.471h-2.155v-2.051
		h-14.02v2.051h-2.196c0.083-0.561,0.104-0.932,0.104-1.512v-0.746c0-0.703-0.021-1.16-0.083-1.656
		c0.498,0.063,0.828,0.063,1.533,0.084L124.715,187.863z M131.631,199.025c0-0.332-0.021-0.539-0.041-0.848h0.686
		c0.847-0.271,1.345-0.479,2.129-0.912h-5.507c-1.015,0-1.573,0.021-2.092,0.082V195.4c0.56,0.082,0.974,0.105,1.905,0.105h7.104
		c0.705,0,1.181-0.023,1.513-0.105l1.139,1.223c-0.269,0.125-0.436,0.207-1.389,0.871c-0.849,0.578-2.029,1.18-3.022,1.531h5.074
		c1.366,0,2.029-0.021,2.672-0.125v2.154c-0.663-0.082-1.348-0.123-2.69-0.123h-5.325v1.531c0,0.869-0.27,1.408-0.808,1.678
		c-0.477,0.248-1.182,0.33-2.548,0.33c-0.31,0-0.601,0-1.304-0.02c-0.043-0.725-0.167-1.223-0.477-2.051
		c1.388,0.125,1.493,0.125,1.946,0.125c0.891,0,1.035-0.084,1.035-0.559v-1.035h-5.55c-1.346,0-2.009,0.041-2.672,0.123V198.9
		c0.622,0.082,1.285,0.125,2.65,0.125H131.631z M131.135,189.127c0.767,0.371,0.973,0.475,1.678,0.891
		c0.434-0.291,0.641-0.457,1.139-0.934c-0.436-0.373-0.684-0.578-1.118-0.869c-0.828,0.455-1.243,0.662-2.341,1.098
		c-0.35-0.58-0.622-0.91-1.035-1.285c0.952-0.289,1.304-0.412,1.946-0.723c-0.434-0.271-0.684-0.395-1.43-0.768l0.975-1.035
		c0.891,0.414,1.139,0.539,1.885,0.994c0.559-0.373,0.787-0.559,1.366-1.16l1.308,1.014c-0.645,0.52-0.872,0.684-1.308,0.996
		c0.353,0.227,0.56,0.373,1.18,0.826l-0.994,0.996l1.015,0.785c-0.641,0.52-0.848,0.684-1.2,0.932
		c0.415,0.25,0.622,0.416,1.264,0.85l-1.202,1.121c-0.663-0.561-0.891-0.746-1.428-1.121c-0.87,0.498-1.326,0.705-2.465,1.141
		c-0.331-0.58-0.519-0.828-1.056-1.305c1.015-0.291,1.387-0.414,2.111-0.746c-0.434-0.27-0.663-0.373-1.366-0.705L131.135,189.127z"
		/>
	<path fill="#FFFFFE" d="M145.576,187.967c-0.413,0.018-0.684,0.041-0.994,0.102v-2.215c0.476,0.084,0.953,0.104,1.761,0.104h3.479
		c0.891,0,1.366-0.02,1.781-0.104v2.154c-0.395-0.023-0.436-0.023-0.828-0.041v14.289c0,1.076,0.021,1.658,0.124,2.193h-2.114
		c0.085-0.598,0.105-1.24,0.105-2.213v-1.555c-0.519,0.166-1.657,0.498-3.459,0.994c-0.354,0.105-0.395,0.105-0.684,0.229
		l-0.436-2.258c0.249,0,0.58-0.041,1.264-0.166V187.967z M147.461,190.369h1.43v-2.402h-1.43V190.369z M147.461,194.447h1.43v-2.297
		h-1.43V194.447z M147.461,199.068c0.58-0.146,0.789-0.209,1.43-0.395v-2.445h-1.43V199.068z M161.501,186.061
		c-0.765,1.348-1.241,2.029-2.174,3.17c0.269,0.311,0.374,0.455,0.622,0.809c0.746-1.018,1.017-1.41,1.616-2.508l1.635,1.035
		c-1.118,1.637-1.305,1.865-3.271,4.143c0.849-0.063,1.097-0.084,1.698-0.146c-0.146-0.371-0.208-0.516-0.456-0.992l1.491-0.6
		c0.726,1.469,0.974,2.174,1.304,3.645l-1.656,0.662c-0.083-0.58-0.124-0.768-0.228-1.223c-0.809,0.125-0.953,0.145-1.802,0.248
		c-0.767,0.104-0.891,0.104-1.885,0.207c-0.413,0.043-0.413,0.043-0.643,0.084l0.041,0.248l-1.593,0.58h0.849
		c-0.041,0.395-0.041,0.395-0.041,2.01c-0.022,2.34-0.395,3.893-1.223,5.031c-0.726,0.994-1.47,1.533-3.085,2.258
		c-0.374-0.684-0.643-1.076-1.285-1.74c1.43-0.455,2.154-0.891,2.733-1.635c0.271-0.352,0.415-0.623,0.56-1.098h-1.18
		c0,0.434,0.021,0.684,0.041,0.932h-1.987c0.062-0.395,0.083-0.684,0.083-1.035v-3.438c0-0.395-0.021-0.664-0.083-1.016h2.031
		c-0.064,0.311-0.085,0.641-0.085,1.098v1.553h1.47c0.021-0.352,0.021-0.869,0.021-1.264c0-0.682-0.021-1.324-0.083-1.656h1.265
		c-0.063-0.455-0.104-0.703-0.167-1.057c-1.655,0.229-1.655,0.229-4.307,0.477c-0.229,0.021-0.271,0.021-0.602,0.063l-0.186-1.967
		c0.124,0.041,0.186,0.041,0.331,0.041h0.332h0.207c0.62-0.664,0.828-0.912,1.304-1.492c-0.704-0.973-1.304-1.637-2.153-2.424
		l1.18-1.428l0.498,0.477c0.641-0.912,1.139-1.865,1.511-2.9l1.802,0.83c-0.808,1.408-1.324,2.174-2.174,3.293
		c0.289,0.311,0.372,0.412,0.539,0.641c0.765-1.057,1.015-1.449,1.49-2.359l0.932,0.537l0.767-0.953
		c0.352,0.354,0.457,0.457,0.705,0.725c0.623-0.807,1.117-1.697,1.512-2.691L161.501,186.061z M157.732,192.771
		c0.539-0.602,0.663-0.746,1.058-1.223c-0.622-0.869-1.223-1.574-1.865-2.256c-1.015,1.406-1.844,2.422-2.961,3.604
		c0.869-0.063,0.911-0.063,1.698-0.166c-0.124-0.436-0.187-0.621-0.414-1.143l1.47-0.453c0.312,0.746,0.415,1.035,0.602,1.658
		L157.732,192.771z M159.825,202.795c0,0.537,0.041,1.076,0.124,1.635h-2.196c0.063-0.516,0.104-0.91,0.104-1.594v-6.129
		c0-0.352-0.021-0.789-0.041-1.264h2.093c-0.063,0.352-0.083,0.662-0.083,1.264v1.635h1.573v-1.49c0-0.455-0.021-0.727-0.083-1.16
		h2.072c-0.063,0.373-0.085,0.705-0.085,1.16v3.23c0,0.434,0.022,0.766,0.085,1.139h-2.072c0.062-0.311,0.062-0.457,0.083-0.973
		h-1.573V202.795z"/>
	<path fill="#FFFFFE" d="M174.259,197.16c-0.519-0.475-0.953-0.785-1.637-1.18c0.622-0.412,0.85-0.58,1.223-0.932
		c-0.456-0.02-0.891-0.02-1.554-0.02h-3.087v0.951h-2.152c0.082-0.703,0.103-1.221,0.103-2.381v-5.469
		c0-0.91-0.021-1.303-0.082-1.904c0.56,0.063,1.117,0.082,1.884,0.082h3.335c0.87,0,1.346-0.02,1.885-0.082
		c-0.063,0.621-0.063,0.85-0.063,1.863v4.766c0,0.992,0,1.324,0.021,1.883c1.159-1.408,1.554-3.148,1.554-6.959
		c0-0.643-0.021-1.242-0.085-1.822c0.374,0.063,0.996,0.084,1.802,0.084h4.724c1.159,0,1.49-0.021,1.987-0.084
		c-0.041,0.539-0.062,1.096-0.062,2.051v6.752c0,1.49-0.602,1.988-2.401,1.988c-0.56,0-0.872-0.021-2.113-0.104
		c-0.104-0.828-0.164-1.057-0.478-1.822c0.684,0.123,1.533,0.186,2.113,0.186c0.62,0,0.766-0.082,0.766-0.498v-0.662h-4.805
		c-0.476,1.387-1.139,2.318-2.382,3.313h6.463c0.787,0,1.263-0.02,1.884-0.082c-0.021,0.25-0.021,0.25-0.062,0.684
		c-0.021,0.229-0.041,0.664-0.041,1.16v2.92h0.578c0.663,0,0.994-0.02,1.472-0.084v2.238c-0.581-0.063-1.389-0.104-2.362-0.104
		h-13.813c-0.974,0-1.844,0.041-2.444,0.104v-2.238c0.477,0.064,0.828,0.084,1.409,0.084h0.537v-2.797
		c0-0.352-0.041-1.014-0.083-1.967c0.622,0.063,1.161,0.082,1.926,0.082H174.259z M169.204,193.205h2.881v-1.654h-2.881V193.205z
		 M169.226,189.746h2.859v-1.615h-2.859V189.746z M170.51,201.842h2.071v-2.756h-2.071V201.842z M174.527,201.842h2.093v-2.756
		h-2.093V201.842z M177.696,190.865c-0.062,0.561-0.082,0.684-0.145,1.16h4.39v-1.16H177.696z M181.941,187.904H177.8l-0.021,1.158
		h4.162V187.904z M178.607,201.842h2.238v-2.756h-2.238V201.842z"/>
	<path fill="#FFFFFE" d="M30.11,200.055c-0.416-0.457-0.561-0.58-0.874-0.871c-2.363,0.145-2.363,0.145-3.962,0.207v0.891h4.564
		c0.997,0,1.556-0.02,2.136-0.082v1.617c-0.663-0.082-1.161-0.104-2.177-0.104h-4.522v0.852h6.057c0.955,0,1.66-0.041,2.323-0.123
		v1.779c-0.704-0.08-1.534-0.121-2.612-0.121H17.662c-1.059,0-1.868,0.041-2.612,0.121v-1.779c0.726,0.082,1.431,0.123,2.385,0.123
		h5.703v-0.852h-4.085c-1.059,0-1.535,0.021-2.22,0.104v-1.617c0.603,0.063,1.017,0.082,2.242,0.082h4.063v-0.83
		c-1.471,0.043-1.471,0.043-5.08,0.127c-0.436,0-0.623,0-0.936,0.041l-0.31-1.6c0.498,0.064,1.286,0.086,3.215,0.086
		c0.291-0.354,0.375-0.457,0.621-0.83h-0.559c-1.141,0-1.638,0.02-2.136,0.061v-1.41c0.478,0.041,0.955,0.063,2.136,0.063h8.609
		c1.12,0,1.617-0.021,2.075-0.063v1.41c-0.374-0.041-0.768-0.061-1.371-0.061c0.935,0.58,1.411,0.934,2.488,1.805L30.11,200.055z
		 M15.422,195.074c0-0.395-0.019-0.807-0.063-1.119c0.436,0.041,0.957,0.063,1.868,0.063h14.127c0.973,0,1.513-0.021,2.01-0.063
		c-0.041,0.373-0.062,0.748-0.062,1.205v0.807c0,0.498,0.021,0.811,0.083,1.119h-2.177v-1.699H17.518v1.699h-2.178
		c0.064-0.33,0.083-0.662,0.083-1.16V195.074z M31.043,186.279c0.891,0,1.535-0.041,2.136-0.104v1.66
		c-0.561-0.084-1.12-0.102-2.136-0.102h-5.747v0.684h4.792c0.894,0,1.412-0.021,1.949-0.086v1.557
		c-0.643-0.061-1.099-0.082-1.949-0.082h-11.45c-0.85,0-1.371,0.021-1.992,0.082v-1.557c0.538,0.064,1.078,0.086,1.992,0.086h4.521
		v-0.684H17.6c-0.997,0-1.555,0.018-2.136,0.102v-1.66c0.602,0.063,1.244,0.104,2.177,0.104h5.517
		c-0.021-0.414-0.041-0.746-0.103-1.057h2.345c-0.062,0.352-0.104,0.643-0.104,1.057H31.043z M31.083,192.523
		c0,0.375,0.021,0.643,0.063,0.955c-0.645-0.041-1.101-0.064-2.097-0.064h-9.396c-0.975,0-1.493,0.023-2.114,0.064
		c0.041-0.313,0.061-0.602,0.061-0.934v-1.223c0-0.313-0.021-0.643-0.061-0.977c0.519,0.043,1.016,0.063,2.114,0.063h9.396
		c1.079,0,1.579-0.02,2.097-0.063c-0.042,0.311-0.063,0.623-0.063,0.996V192.523z M19.821,192.256h9.043v-0.688h-9.043V192.256z
		 M22.952,197.275c-0.27,0.373-0.353,0.496-0.623,0.83c3.963-0.041,3.963-0.041,5.456-0.104c-0.415-0.291-0.643-0.436-1.099-0.727
		H22.952z"/>
	<path fill="#FFFFFE" d="M47.321,192.607c0.519,1.867,1.618,3.881,2.986,5.436c1.535,1.742,3.258,2.924,5.726,3.941
		c-0.706,0.828-0.995,1.264-1.513,2.383c-2.221-1.139-3.651-2.197-5.125-3.795c-1.349-1.43-2.365-3.092-3.133-5.018
		c-0.623,2.135-1.722,3.92-3.381,5.559c-1.409,1.389-2.903,2.363-4.958,3.254c-0.351-0.787-0.787-1.432-1.451-2.176
		c1.493-0.602,2.323-1.037,3.361-1.764c2.778-1.971,4.168-4.293,4.666-7.82h-4.895c-1.308,0-1.909,0.043-2.592,0.145v-2.635
		c0.643,0.102,1.389,0.145,2.614,0.145h5.082c0.042-1.037,0.063-1.367,0.063-2.445c0-0.871-0.063-1.496-0.146-2.076h2.737
		c-0.103,0.727-0.123,1.037-0.145,2.428c0,0.85-0.019,1.328-0.041,2.094h5.497c1.182,0,1.909-0.043,2.614-0.145v2.635
		c-0.829-0.102-1.454-0.145-2.593-0.145H47.321z"/>
</g>
</svg>
