<?xml version="1.0" encoding="utf-8"?>
<!-- Generator: Adobe Illustrator 16.0.3, SVG Export Plug-In . SVG Version: 6.00 Build 0)  -->
<!DOCTYPE svg PUBLIC "-//W3C//DTD SVG 1.1//EN" "http://www.w3.org/Graphics/SVG/1.1/DTD/svg11.dtd">
<svg version="1.1" id="圖層_1" xmlns="http://www.w3.org/2000/svg" xmlns:xlink="http://www.w3.org/1999/xlink" x="0px" y="0px"
	 width="100px" height="100px" viewBox="0 0 100 100" enable-background="new 0 0 100 100" xml:space="preserve">
<path fill="#494949" d="M29.571,21.122c0-2.332-0.825-4.323-2.476-5.974c-1.649-1.65-3.642-2.476-5.974-2.476
	s-4.323,0.825-5.974,2.476c-1.65,1.649-2.476,3.642-2.476,5.974s0.825,4.323,2.476,5.974c1.649,1.65,3.642,2.476,5.974,2.476
	s4.323-0.825,5.974-2.476C28.747,25.446,29.571,23.454,29.571,21.122z M100,59.143c0,2.332-0.814,4.313-2.441,5.939l-32.41,32.475
	C63.434,99.186,61.43,100,59.143,100c-2.332,0-4.313-0.814-5.939-2.443L6.008,50.297c-1.672-1.628-3.092-3.85-4.258-6.667
	S0,38.239,0,35.907V8.448C0,6.16,0.836,4.18,2.508,2.508C4.18,0.836,6.16,0,8.448,0h27.459c2.332,0,4.906,0.583,7.723,1.749
	s5.062,2.585,6.733,4.258l47.194,47.128C99.186,54.852,100,56.854,100,59.143z"/>
</svg>
