<?xml version="1.0" encoding="utf-8"?>
<!-- Generator: Adobe Illustrator 16.0.3, SVG Export Plug-In . SVG Version: 6.00 Build 0)  -->
<!DOCTYPE svg PUBLIC "-//W3C//DTD SVG 1.1//EN" "http://www.w3.org/Graphics/SVG/1.1/DTD/svg11.dtd">
<svg version="1.1" id="圖層_1" xmlns="http://www.w3.org/2000/svg" xmlns:xlink="http://www.w3.org/1999/xlink" x="0px" y="0px"
	 width="468.31px" height="140px" viewBox="0 0 468.31 140" enable-background="new 0 0 468.31 140" xml:space="preserve">
<g>
	<g>
		<polygon fill="#326809" points="443.151,80.294 384.916,80.294 384.916,135.691 359.737,135.691 359.737,3.257 384.916,3.257 
			384.916,59.281 443.151,59.281 443.151,59.281 443.151,3.257 468.31,3.257 468.31,135.691 443.151,135.691 443.151,78.831 		"/>
		<polygon fill="#326809" points="198.452,3.257 187.707,3.257 176.943,3.257 122.291,135.691 148.692,135.691 187.075,40.024 
			188.342,40.024 226.369,135.691 253.118,135.691 		"/>
		<path fill="#326809" d="M249.251,106.577l0.257,0.666c1.793,4.831,12.26,30.174,46.652,31.521
			c55.155,2.175,54.167-34.479,54.167-42.017c0-4.966-2.668-19.998-18.736-28.747c-20.667-11.271-55.866-9.912-55.866-31.604
			c0-6.65,5.744-15.974,22.809-16.318c16.518-0.316,25.166,10.776,26.342,16.998l18.861-5.698
			c-3.35-7.59-10.526-28.811-46.085-28.811c-6.975,0-13.317,0.793-18.728,2.687c-22.113,7.714-26.122,25.309-26.09,34.08
			c0.307,50.724,73.448,37.551,72.624,63.76c-0.293,9.607-9.423,17.198-27.788,16.383c-19.029-0.807-25.527-12.839-28.585-19.863
			L249.251,106.577z"/>
		<path fill="#326809" d="M66.883,22.388c16.516-0.366,26.351,8.467,28.131,14.345l20.177-5.699
			c-3.358-7.59-14.933-27.35-47.609-28.834l0,0C5.691,2.2,1,61.937,1,68.001c0,62.964,45.449,69.969,63.115,70.806
			c15.77,0.782,40.043-0.899,51.897-3.389v-8.677v-15.409V59.281h-63.87v21.054H92.04c0.202,0,0.367,0.167,0.367,0.377v36.903
			c0,0.22-0.165,0.44-0.348,0.513c0,0-9.885,2.027-24.141,1.525c-5.606-0.177-40.635-1.619-40.635-48.914
			C27.283,40.349,42,22.659,66.883,22.388"/>
	</g>
</g>
</svg>
