<?xml version="1.0" encoding="utf-8"?>
<!-- Generator: Adobe Illustrator 16.0.3, SVG Export Plug-In . SVG Version: 6.00 Build 0)  -->
<!DOCTYPE svg PUBLIC "-//W3C//DTD SVG 1.1//EN" "http://www.w3.org/Graphics/SVG/1.1/DTD/svg11.dtd">
<svg version="1.1" id="Capa_1" xmlns="http://www.w3.org/2000/svg" xmlns:xlink="http://www.w3.org/1999/xlink" x="0px" y="0px"
	 width="210.004px" height="210px" viewBox="0 0 210.004 210" enable-background="new 0 0 210.004 210" xml:space="preserve">
<g>
	<path fill="#FFFFFF" d="M95.438,45.736c-5.839,4.854-8.314,12.104-6.375,17.729c0.125,0.364,1.002,1.723,1.126,2.085
		c1.722-5.114,6.612-9.265,14.511-11.607c8.132-3.209,10.586-7.341,11.317-9.928C110.91,40.092,101.881,40.572,95.438,45.736z"/>
	<path fill="#FFFFFF" d="M104.485,56.467c-7.363,2.511-11.186,6.464-13.272,10.198c4.946,4.127,13.275,3.831,19.894-1.163
		c6.12-4.644,8.094-11.596,7.082-17.459c-0.224-1.308-0.438-2.122-1.275-3.19C115.942,48.624,112.069,53.689,104.485,56.467z"/>
</g>
<g>
	<g>
		<g>
			<path fill="#FFFFFF" d="M162.096,29.246c1.595,1.202,3.036,2.554,4.437,3.757c4.094,3.725,8.379,7.374,11.853,11.771
				c3.67,4.644,7.243,9.436,10.004,14.732c2.048,3.839,3.38,8.016,4.696,12.129c1.625,5.084,2.832,10.292,3.539,15.556
				c0.082,0.584,0.16,1.169,0.224,1.756l0.119,1.769c0.065,1.18,0.192,2.35,0.276,3.521c0.104,1.507,0.293,2.992,0.433,4.49
				c0.096,1.5,0.192,3.012,0.229,4.557h-4.041c-0.021-0.781-0.063-0.941-0.047-1.506c0.23-4.511,0.146-9.082-0.501-13.582
				c-0.708-4.91-2.22-9.655-3.894-14.287c-1.635-4.479-3.639-8.801-5.809-13.034c-2.347-4.66-5.263-9.02-8.507-13.093
				c-3.251-4.074-6.813-7.878-10.562-11.5c-0.58-0.563-1.471-1.229-2.369-1.924c-0.452-0.344-0.912-0.694-1.35-1.029
				c-0.451-0.32-0.875-0.629-1.244-0.919L162.096,29.246z"/>
			<path fill="#FFFFFF" d="M160.335,37.458c0.632,0.531,1.276,1.036,1.877,1.584c0.596,0.554,1.187,1.104,1.775,1.652
				c1.203,1.072,2.262,2.266,3.385,3.398c0.565,0.561,1.076,1.175,1.608,1.77c0.53,0.598,1.063,1.196,1.597,1.798
				c1.016,1.247,2.069,2.486,3.1,3.781c3.996,5.065,7.263,10.703,9.771,16.633c2.519,5.933,4.278,12.162,5.314,18.487
				c0.387,2.386,1.094,6.36,1.375,9.866c0.083,0.876,0.162,1.718,0.234,2.495c0.037,0.78,0.069,1.493,0.099,2.107
				c0.057,1.229,0.098,2.058,0.104,2.221h-1.468c-0.021-0.298,0.013-2.45-0.062-4.971c-0.074-1.259-0.153-2.611-0.229-3.87
				c-0.146-1.252-0.28-2.414-0.384-3.298c-0.872-6.583-2.648-13.027-5.08-19.194c-0.324-0.795-0.616-1.604-0.966-2.39l-1.068-2.347
				l-0.536-1.172l-0.592-1.146l-1.18-2.292c-0.408-0.756-0.857-1.49-1.281-2.237c-0.438-0.739-0.836-1.502-1.32-2.215
				c-0.938-1.44-1.83-2.911-2.858-4.29l-1.269-1.812l-1.336-1.763c-0.449-0.584-0.889-1.177-1.352-1.751l-1.451-1.669
				c-3.508-3.932-7.398-7.423-11.494-10.68c0.27-0.339,0.645-0.809,0.914-1.148c0.413,0.365,0.912,0.781,1.393,1.22
				C159.434,36.672,159.914,37.11,160.335,37.458z"/>
		</g>
		<g>
			<path fill="#FFFFFF" d="M81.942,10.716c0.487-0.096,0.975-0.188,1.457-0.283c0.487-0.071,0.971-0.143,1.449-0.214
				c0.957-0.14,1.896-0.276,2.806-0.408c5.465-0.682,10.935-1.648,16.485-1.659c5.917-0.005,11.895,0.179,17.759,1.319
				c4.259,0.864,8.397,2.278,12.416,3.875c4.981,1.915,9.816,4.177,14.398,6.868c1.005,0.622,1.988,1.28,2.973,1.929
				c0.993,0.636,1.924,1.366,2.919,1.99c0.628,0.418,1.287,0.788,1.903,1.214l1.882,1.241c0.623,0.421,1.272,0.811,1.878,1.269
				c0.611,0.452,1.221,0.913,1.83,1.39l-2.512,3.164c-0.615-0.482-0.767-0.551-1.191-0.924c-3.438-2.916-6.99-5.809-10.954-8.047
				c-4.312-2.447-8.947-4.245-13.615-5.827l-3.408-1.072l-3.455-0.902c-1.144-0.331-2.319-0.527-3.477-0.808l-1.736-0.404
				l-1.75-0.346c-5.104-1.068-10.332-1.529-15.543-1.484c-5.212,0.036-10.407,0.366-15.598,0.852c-0.804,0.083-1.888,0.32-3,0.553
				c-0.557,0.118-1.122,0.236-1.662,0.349c-0.537,0.121-1.049,0.25-1.509,0.337L81.942,10.716z"/>
			<path fill="#FFFFFF" d="M87.011,17.417c6.542-1.118,12.801-1.374,19.421-1.408c6.453,0.006,12.908,0.911,19.111,2.654
				c6.205,1.74,12.166,4.255,17.78,7.346c2.147,1.114,5.631,3.146,8.604,5.02c1.453,0.988,2.807,1.893,3.81,2.601
				c0.983,0.739,1.646,1.238,1.776,1.336l-0.912,1.149c-0.24-0.178-1.868-1.586-3.922-3.05c-0.51-0.37-1.021-0.777-1.564-1.14
				c-0.547-0.361-1.091-0.723-1.615-1.072c-0.527-0.348-1.033-0.683-1.502-0.992c-0.479-0.293-0.928-0.546-1.311-0.772
				c-5.725-3.354-11.839-6.052-18.19-7.965c-6.586-1.972-13.401-3.157-20.271-3.562c-1.472-0.083-2.946-0.112-4.421-0.183
				c-1.483-0.034-2.986,0.011-4.478,0.047c-5.33,0.257-10.554,0.968-15.733,1.928c-0.079-0.425-0.189-1.015-0.269-1.441
				C84.413,17.721,85.929,17.606,87.011,17.417z"/>
		</g>
		<g>
			<path fill="#FFFFFF" d="M16.935,60.554c0.199-0.458,0.389-0.92,0.596-1.371c0.219-0.445,0.438-0.888,0.654-1.327
				c0.434-0.875,0.859-1.734,1.271-2.565c2.604-4.912,5.15-9.979,8.689-14.383c3.73-4.652,7.715-9.188,12.405-12.957
				c0.416-0.358,0.854-0.684,1.301-0.999l1.341-0.944l1.354-0.925c0.455-0.305,0.935-0.569,1.401-0.853
				c0.942-0.555,1.877-1.116,2.824-1.655l2.881-1.535c4.743-2.493,9.659-4.6,14.709-6.233c1.128-0.346,2.265-0.67,3.404-0.97
				c1.148-0.265,2.294-0.538,3.419-0.865c2.907-0.788,5.726-1.699,8.755-2.256l0.744,3.971c-0.768,0.151-0.917,0.221-1.478,0.299
				l-1.682,0.229l-1.671,0.295c-1.113,0.207-2.239,0.368-3.349,0.613c-1.104,0.252-2.212,0.511-3.314,0.782
				c-1.104,0.267-2.178,0.644-3.26,0.989c-4.694,1.594-9.123,3.854-13.396,6.319c-4.118,2.415-7.948,5.248-11.7,8.169
				c-4.112,3.207-7.778,6.974-11.027,11.045c-3.26,4.07-6.094,8.452-8.663,12.985c-0.438,0.683-0.827,1.727-1.277,2.771
				c-0.222,0.524-0.444,1.055-0.658,1.564c-0.214,0.508-0.387,1.007-0.577,1.435L16.935,60.554z"/>
			<path fill="#FFFFFF" d="M25.325,60.189c1.362-2.998,2.995-5.724,4.683-8.405c0.438-0.66,0.901-1.304,1.349-1.96
				c0.463-0.645,0.875-1.33,1.378-1.952c0.985-1.259,1.897-2.596,2.974-3.84c4.041-4.974,8.848-9.345,14.207-12.873
				c5.353-3.544,11.167-6.346,17.201-8.502c0.561-0.224,1.232-0.444,1.965-0.691c0.73-0.257,1.525-0.534,2.353-0.823
				c0.823-0.295,1.706-0.531,2.572-0.81c0.875-0.257,1.734-0.572,2.592-0.779c0.853-0.226,1.673-0.443,2.429-0.644
				c0.756-0.207,1.447-0.39,2.054-0.51c1.206-0.263,2.021-0.441,2.182-0.476l0.269,1.442c-0.147,0.026-0.754,0.134-1.634,0.292
				c-0.44,0.081-0.954,0.16-1.505,0.271c-0.552,0.124-1.145,0.257-1.763,0.396c-1.235,0.274-2.566,0.562-3.777,0.926
				c-1.214,0.351-2.355,0.63-3.195,0.931c-6.318,2.063-12.361,4.877-17.967,8.354c-2.859,1.869-5.687,3.802-8.271,6.03
				c-1.342,1.056-2.559,2.252-3.817,3.399c-0.638,0.568-1.199,1.21-1.806,1.81c-0.584,0.619-1.215,1.194-1.759,1.851
				c-1.946,2.174-3.896,4.364-5.546,6.782c-2.985,4.289-5.395,8.89-7.494,13.655c-0.396-0.175-0.944-0.417-1.342-0.592
				C24.104,62.47,24.874,61.179,25.325,60.189z"/>
		</g>
		<g>
			<path fill="#FFFFFF" d="M18.227,142.985c-0.43-0.9-0.814-1.814-1.21-2.702c-0.387-0.893-0.793-1.755-1.106-2.624
				c-0.489-1.297-1.048-2.569-1.57-3.856c-0.494-1.297-1.01-2.59-1.527-3.885c-0.468-1.313-0.915-2.636-1.357-3.961
				c-0.438-1.328-0.749-2.688-1.082-4.047c-1.278-5.773-2.415-11.639-2.619-17.6c-0.023-1.082-0.054-2.173-0.013-3.25
				c0.058-1.074,0.13-2.148,0.209-3.219l0.122-1.606l0.192-1.605l0.356-3.201c0.67-5.259,1.624-10.484,3.04-15.595
				c0.334-1.133,0.708-2.253,1.073-3.373c0.4-1.111,0.823-2.212,1.174-3.334c0.424-1.45,0.944-2.856,1.398-4.295
				c0.436-1.446,1.026-2.847,1.626-4.277l3.697,1.626c-0.306,0.719-0.333,0.883-0.585,1.39c-1.944,4.064-3.827,8.248-4.941,12.659
				c-1.241,4.796-1.847,9.726-2.207,14.641c-0.12,1.187-0.125,2.379-0.191,3.566l-0.075,1.784c-0.019,0.593-0.004,1.189-0.011,1.784
				l-0.029,3.566c0.034,1.188,0.057,2.378,0.061,3.567c0.108,5.215,0.838,10.406,1.979,15.488
				c1.126,5.092,2.734,10.053,4.515,14.946c0.135,0.381,0.317,0.824,0.526,1.3c0.217,0.473,0.484,0.969,0.744,1.475
				c0.53,1.01,1.056,2.052,1.458,2.897L18.227,142.985z"/>
			<path fill="#FFFFFF" d="M23.418,136.375c-2.754-6.022-4.439-11.973-5.894-18.425c-1.412-6.308-1.899-12.778-1.623-19.256
				c0.258-6.488,1.187-12.917,2.729-19.152c0.067-0.296,0.142-0.616,0.219-0.957c0.091-0.336,0.185-0.695,0.283-1.069
				c0.193-0.75,0.403-1.564,0.621-2.414c0.192-0.855,0.485-1.716,0.738-2.589c0.265-0.869,0.502-1.75,0.774-2.583
				c0.594-1.649,1.073-3.206,1.536-4.34c0.457-1.137,0.765-1.904,0.825-2.056l1.344,0.591c-0.062,0.135-0.312,0.692-0.674,1.5
				c-0.175,0.407-0.409,0.863-0.606,1.387c-0.204,0.521-0.423,1.084-0.652,1.669c-0.229,0.586-0.465,1.194-0.702,1.802
				c-0.207,0.619-0.411,1.238-0.612,1.836c-0.388,1.199-0.779,2.3-0.98,3.171c-1.766,6.405-2.764,13.04-3.14,19.726l-0.083,1.299
				c-0.022,0.433-0.021,0.87-0.032,1.304l-0.051,2.607c-0.035,0.874,0,1.731,0.024,2.592l0.07,2.58
				c0.04,0.86,0.129,1.716,0.188,2.573c0.08,0.856,0.105,1.72,0.224,2.571l0.328,2.56l0.161,1.281l0.227,1.271
				c0.27,1.448,0.452,2.917,0.793,4.354c0.315,1.44,0.59,2.896,1.037,4.303c1.443,5.074,3.411,9.922,5.656,14.657
				c-0.392,0.188-0.934,0.444-1.323,0.631C24.406,138.779,23.893,137.36,23.418,136.375z"/>
		</g>
		<g>
			<path fill="#FFFFFF" d="M81.828,195.214c-1.955-0.427-3.839-1.025-5.61-1.559c-5.282-1.675-10.703-3.219-15.689-5.781
				c-5.268-2.709-10.499-5.598-15.205-9.264c-0.846-0.678-1.675-1.378-2.495-2.089c-0.814-0.716-1.573-1.497-2.35-2.253
				l-1.153-1.145c-0.381-0.386-0.737-0.796-1.106-1.191l-2.209-2.373c-3.566-3.959-6.855-8.15-9.744-12.596
				c-1.318-1.957-2.333-4.104-3.574-6.093c-0.743-1.313-1.521-2.588-2.307-3.87c-0.742-1.306-1.463-2.638-2.158-4.015l3.646-1.739
				c0.353,0.698,0.461,0.824,0.687,1.344c0.463,1.026,0.864,2.092,1.365,3.105l1.475,3.066c0.512,1.014,1.079,1.996,1.634,2.988
				c0.285,0.492,0.551,0.998,0.862,1.471l0.938,1.422c2.764,4.113,6.067,7.828,9.557,11.311c3.364,3.383,7.021,6.43,10.708,9.436
				c4.065,3.268,8.53,6.025,13.172,8.387c4.646,2.363,9.471,4.33,14.382,6.076c1.542,0.494,4.296,1.053,6.127,1.435L81.828,195.214z
				"/>
			<path fill="#FFFFFF" d="M79.982,187.024c-6.379-1.704-12.033-4.176-17.928-7.165c-5.749-2.937-11.034-6.753-15.789-11.104
				c-4.755-4.363-8.967-9.287-12.634-14.556c-0.66-1.017-1.596-2.334-2.584-3.782c-0.474-0.738-0.967-1.504-1.458-2.271
				c-0.246-0.384-0.493-0.767-0.737-1.146c-0.229-0.393-0.456-0.777-0.677-1.156c-0.448-0.76-0.879-1.488-1.276-2.161
				c-0.393-0.675-0.707-1.317-1.002-1.857c-0.577-1.088-0.967-1.821-1.042-1.966l1.324-0.632c0.064,0.135,0.331,0.688,0.717,1.489
				c0.397,0.797,0.854,1.879,1.478,2.977c0.613,1.104,1.215,2.323,1.876,3.4c0.66,1.078,1.271,2.076,1.739,2.839
				c3.644,5.565,7.963,10.681,12.75,15.288c4.946,4.803,10.522,8.921,16.441,12.412c1.25,0.783,2.559,1.459,3.848,2.179
				c1.276,0.743,2.631,1.325,3.962,1.954c4.819,2.117,9.803,3.664,14.874,4.895c-0.102,0.422-0.244,1.004-0.347,1.426
				c-0.526-0.153-1.15-0.336-1.774-0.518C81.124,187.374,80.511,187.163,79.982,187.024z"/>
		</g>
		<g>
			<path fill="#FFFFFF" d="M162.096,177.321c-0.788,0.613-1.562,1.234-2.343,1.818c-0.795,0.561-1.576,1.109-2.33,1.643
				c-4.555,3.145-9.082,6.493-14.154,8.878c-5.36,2.519-10.847,4.903-16.635,6.382c-2.113,0.498-4.246,0.932-6.409,1.16
				c-2.15,0.318-4.32,0.426-6.475,0.623c-5.322,0.37-10.647,0.383-15.949-0.093c-1.176-0.132-2.349-0.306-3.517-0.472
				c-1.169-0.162-2.325-0.422-3.492-0.567c-0.749-0.112-1.501-0.169-2.242-0.29c-0.743-0.111-1.486-0.225-2.231-0.337
				c-0.745-0.114-1.496-0.211-2.244-0.351c-0.744-0.155-1.493-0.32-2.246-0.502l0.95-3.926c0.761,0.182,0.925,0.182,1.468,0.344
				l0.813,0.246l0.821,0.207l1.645,0.418c1.098,0.282,2.197,0.574,3.313,0.771c1.114,0.216,2.229,0.44,3.353,0.625
				c1.125,0.142,2.255,0.271,3.387,0.376c4.944,0.365,9.903,0.043,14.802-0.52c4.736-0.582,9.384-1.6,14.019-2.676
				c5.08-1.191,9.983-3.068,14.688-5.297c4.709-2.238,9.209-4.859,13.596-7.675c0.673-0.449,1.54-1.142,2.424-1.854
				c0.887-0.711,1.734-1.524,2.479-2.094L162.096,177.321z"/>
			<path fill="#FFFFFF" d="M154.5,173.747c-5.271,3.993-10.685,6.963-16.651,9.809c-5.825,2.777-12.078,4.617-18.426,5.697
				c-6.352,1.072-12.829,1.347-19.218,0.951c-2.416-0.105-6.427-0.441-9.909-0.888c-1.731-0.283-3.335-0.544-4.545-0.742
				c-1.199-0.261-2.008-0.438-2.167-0.473l0.345-1.427c0.144,0.039,0.734,0.191,1.595,0.416c0.854,0.24,2.006,0.43,3.234,0.699
				c0.618,0.117,1.252,0.277,1.897,0.369c0.644,0.096,1.29,0.191,1.913,0.285c0.622,0.092,1.222,0.18,1.776,0.262
				c0.555,0.074,1.067,0.1,1.511,0.143c6.589,0.607,13.284,0.384,19.849-0.555c0.857-0.088,1.696-0.279,2.545-0.422l2.535-0.463
				l2.512-0.587c0.838-0.192,1.677-0.378,2.498-0.634c1.651-0.475,3.312-0.919,4.928-1.508c0.813-0.282,1.633-0.538,2.438-0.84
				l2.396-0.947c2.734-1.092,5.446-2.266,8.042-3.663c4.625-2.524,8.906-5.522,13.004-8.774c0.27,0.34,0.643,0.811,0.911,1.15
				C156.617,172.242,155.39,173.114,154.5,173.747z"/>
		</g>
		<g>
			<path fill="#FFFFFF" d="M197.906,103.284c-0.027,0.998-0.054,1.989-0.08,2.962c-0.033,0.973-0.041,1.928-0.133,2.848
				c-0.33,5.523-0.546,11.152-1.839,16.606c-1.362,5.765-2.905,11.542-5.349,16.993c-0.848,2.002-1.963,3.879-3.043,5.76
				c-0.56,0.931-1.174,1.829-1.756,2.743l-0.879,1.367l-0.927,1.333c-2.997,4.412-6.284,8.621-9.978,12.438
				c-0.791,0.875-1.701,1.641-2.555,2.453l-1.287,1.213c-0.442,0.389-0.879,0.781-1.307,1.186c-1.096,1.041-2.13,2.121-3.25,3.128
				c-1.098,1.028-2.195,2.075-3.429,3.008l-2.513-3.165c0.613-0.482,0.715-0.611,1.18-0.938c3.624-2.688,7.203-5.531,10.32-8.848
				c3.379-3.629,6.166-7.752,8.766-11.936c2.514-4.053,4.636-8.319,6.62-12.643c2.2-4.728,3.813-9.719,4.995-14.792
				c1.201-5.072,1.916-10.24,2.412-15.424c0.043-0.402,0.068-0.881,0.088-1.4c0.014-0.519-0.022-1.081-0.036-1.649
				c-0.041-1.138-0.087-2.307-0.062-3.243L197.906,103.284L197.906,103.284z"/>
			<path fill="#FFFFFF" d="M190.367,107.014c-0.117,6.615-1.162,12.705-2.673,19.139c-2.97,12.578-9.556,24.161-18.179,33.625
				c-0.816,0.894-1.855,2.127-3.08,3.379c-0.605,0.63-1.205,1.317-1.854,1.955c-0.647,0.64-1.299,1.276-1.924,1.894
				c-0.613,0.631-1.246,1.192-1.828,1.713c-0.58,0.523-1.107,1.002-1.563,1.416c-0.912,0.826-1.58,1.319-1.698,1.431l-0.912-1.147
				c0.118-0.092,0.607-0.461,1.316-1c0.684-0.57,1.58-1.315,2.55-2.123c1.905-1.648,4.019-3.631,5.228-4.942
				c2.319-2.376,4.41-4.962,6.438-7.589l1.44-2.03c0.473-0.681,0.979-1.341,1.408-2.051c0.879-1.406,1.819-2.777,2.611-4.236
				c3.441-5.952,6.21-12.298,8.109-18.904c0.396-1.418,0.861-2.818,1.183-4.259c0.353-1.431,0.724-2.86,0.935-4.319
				c0.899-5.189,1.221-10.405,1.236-15.645c0.434,0,1.034,0.001,1.469,0.002C190.496,104.419,190.367,105.92,190.367,107.014z"/>
		</g>
	</g>
</g>
<g>
	<path fill="#FFFFFF" d="M170.317,36.534c-0.015-0.014-0.028-0.027-0.044-0.042c0.068,0.068,0.135,0.139,0.203,0.207
		C170.423,36.646,170.369,36.588,170.317,36.534z"/>
	<path fill="#FFFFFF" d="M175.272,41.834c-0.466-0.523-0.914-1.025-1.351-1.516c0.043,0.067,0.092,0.141,0.136,0.208
		c1.037,1.17,2.044,2.366,3.022,3.586C176.537,43.36,175.951,42.603,175.272,41.834z"/>
	<path fill="#FFFFFF" d="M196.25,120.922c0.115-0.691,0.224-1.355,0.33-2.004c-0.053,0.164-0.11,0.344-0.166,0.516
		c-0.285,1.65-0.611,3.285-0.981,4.906C195.748,123.276,196.029,122.146,196.25,120.922z"/>
	<path fill="#FFFFFF" d="M166.56,32.956c-0.088-0.076-0.186-0.159-0.275-0.238c0.133,0.119,0.269,0.234,0.399,0.354
		C166.643,33.034,166.602,32.992,166.56,32.956z"/>
	<path fill="#FFFFFF" d="M196.983,115.707c0.019-0.02,0.038-0.041,0.058-0.062c0.369-2.618,0.522-4.92,0.703-7.075
		c0.111-1.785,0.111-3.879,0.066-5.761c0,0.005-0.002,0.012-0.004,0.017c0,0.119,0.004,0.237,0.004,0.356
		C197.81,107.428,197.527,111.609,196.983,115.707z"/>
	<path fill="#FFFFFF" d="M207.024,81.293c-1.106-2.583-2.606-4.55-4.344-5.957c-3.358-2.86-7.285-3.556-9.207-3.756
		c-0.468-1.539-1.056-2.839-1.522-3.937c-0.527-1.242-1.154-2.542-1.658-3.605c-0.494-1.067-0.873-1.893-0.992-2.152
		c-0.148-0.309-0.713-1.49-1.502-3.146c-0.379-0.84-0.881-1.759-1.414-2.751c-0.545-0.984-1.068-2.074-1.725-3.109
		c-2.408-4.279-5.615-8.461-6.968-10.002c-1.927-2.077-3.348-3.983-5.168-5.879c0.695,0.444,1.474,0.95,2.278,1.5
		c0.773,0.579,1.572,1.203,2.349,1.853c1.582,1.27,2.9,2.776,3.767,4.103c1.136,1.855,3.399,4.708,5.369,7.18
		c1.978,2.456,3.709,4.504,4.224,4.275c0.499-0.224,0.375-1.802-0.453-4.219c-0.854-2.393-2.529-5.569-5.106-8.775
		c-1.272-1.529-2.654-2.787-4.021-3.81c-1.413-0.988-2.802-1.753-4.087-2.337c-2.663-1.088-4.852-1.499-6.139-1.594
		c-0.291-0.254-0.58-0.507-0.886-0.775c-1.258-1.103-3.641-3.25-6.393-5.465c-1.394-1.086-2.823-2.258-4.291-3.263
		c-0.724-0.516-1.435-1.021-2.115-1.507c-0.701-0.452-1.374-0.885-1.999-1.288c0.732,0.338,1.518,0.7,2.337,1.078
		c0.802,0.4,1.644,0.807,2.509,1.208c1.756,0.771,3.487,1.689,5.266,2.417c1.748,0.766,3.426,1.489,5.021,1.945
		c1.556,0.495,2.974,0.784,4.175,0.688c0.16-0.409-0.529-1.472-1.836-2.833c-1.377-1.277-3.308-2.933-5.752-4.266
		c-4.808-2.777-11.266-4.629-16.416-2.97c-1.385-0.781-2.697-1.375-4.084-2.086c-1.377-0.732-2.928-1.38-4.808-2.241
		c-1.061-0.503-2.119-0.872-3.094-1.288c-0.983-0.393-1.896-0.805-2.789-1.096c0,0,0.996-0.559,1.998-1.038
		c1.016-0.489,2.031-0.978,2.031-0.978c5.681,1.863,10.973,2.869,14.714,3.309c3.768,0.363,5.929,0.072,4.994-0.967
		c-2.721-2.692-5.586-4.29-8.274-5.059c-1.33-0.418-2.638-0.595-3.876-0.623c-1.235-0.036-2.396,0.066-3.473,0.271
		c-4.37,0.943-7.303,3.432-8.686,4.884c-1.521-0.517-2.853-1.026-4.026-1.271c-1.312-0.33-2.707-0.68-3.848-0.966
		c-1.148-0.257-2.036-0.457-2.313-0.519c-0.34-0.058-1.592-0.461-3.394-0.808c-0.897-0.189-1.925-0.405-3.028-0.636
		c-1.108-0.198-2.3-0.369-3.51-0.562c-1.21-0.211-2.451-0.331-3.658-0.445c-1.207-0.101-2.381-0.271-3.472-0.287
		c-2.179-0.069-4.005-0.174-5.03-0.058c-1.414,0.108-2.712,0.138-3.987,0.148c-1.272,0.068-2.521,0.136-3.831,0.206
		c1.564-0.492,3.521-1.183,5.507-1.511c0.99-0.187,1.983-0.338,2.928-0.427c0.944-0.075,1.835-0.037,2.624,0.056
		c2.158,0.234,5.799,0.275,8.957,0.267c1.576,0.02,3.04-0.062,4.122-0.136c1.078-0.066,1.784-0.22,1.851-0.48
		c0.067-0.265-0.224-0.627-0.834-1.038c-0.303-0.205-0.688-0.423-1.145-0.647c-0.461-0.201-0.996-0.405-1.598-0.605
		c-2.403-0.833-5.93-1.519-10.041-1.47c-1.987,0.04-3.829,0.27-5.479,0.769c-1.652,0.48-3.119,1.016-4.373,1.732
		c-2.519,1.357-4.202,2.833-5.081,3.793c-0.378,0.065-0.758,0.129-1.159,0.198c-0.821,0.16-2.032,0.314-3.454,0.615
		c-1.424,0.292-3.093,0.535-4.807,0.972c-0.861,0.2-1.742,0.404-2.624,0.607s-1.748,0.479-2.606,0.711
		c-0.854,0.245-1.692,0.484-2.497,0.714c-0.792,0.268-1.549,0.523-2.253,0.761c0.72-0.363,1.491-0.753,2.298-1.161
		c0.813-0.377,1.655-0.778,2.512-1.203c1.7-0.884,3.492-1.689,5.176-2.604c3.379-1.762,6.438-3.6,7.8-5.545
		c-0.418-0.771-5.114-0.588-10.29,1.497c-5.175,2.032-10.65,5.93-12.561,10.989c-2.908,1.283-5.259,2.35-8.923,4.266
		c-1.052,0.524-2.001,1.115-2.934,1.619c-0.923,0.519-1.807,0.989-2.593,1.502c0,0,0.051-0.278,0.125-0.695
		c0.075-0.419,0.182-0.978,0.304-1.518c0.25-1.099,0.501-2.198,0.501-2.198c4.99-3.287,9.075-6.797,11.749-9.454
		c2.632-2.718,3.751-4.602,2.355-4.514c-3.803,0.458-6.84,1.705-9.117,3.329c-1.157,0.779-2.105,1.7-2.899,2.647
		c-0.795,0.946-1.441,1.91-1.947,2.887c-0.986,2.004-1.454,3.969-1.644,5.669c-0.186,1.704-0.063,3.195,0.06,4.167
		c-1.358,0.856-2.573,1.599-3.5,2.357c-1.057,0.842-2.239,1.667-3.15,2.41c-0.919,0.732-1.63,1.298-1.853,1.476
		c-0.268,0.212-1.333,0.974-2.742,2.152c-0.704,0.587-1.538,1.226-2.382,1.971c-0.837,0.753-1.733,1.559-2.644,2.378
		c-3.565,3.359-7.06,7.301-8.193,9.022c-0.841,1.147-1.604,2.192-2.356,3.22c-0.749,1.032-1.551,1.998-2.248,3.109
		c0.512-1.584,1.352-3.432,2.232-5.262c0.97-1.761,2.033-3.471,3.185-4.57c0.793-0.745,1.741-1.845,2.736-3.067
		c1.04-1.181,2.092-2.521,3.065-3.764c1.001-1.216,1.881-2.378,2.475-3.294c0.606-0.897,0.942-1.529,0.778-1.747
		c-0.326-0.435-1.891-0.023-4.019,1.368c-1.078,0.679-2.315,1.578-3.562,2.756c-0.634,0.581-1.285,1.213-1.945,1.895
		c-0.638,0.704-1.272,1.468-1.909,2.273c-2.467,3.127-3.678,6.474-4.196,9.269c-0.286,1.385-0.368,2.662-0.361,3.746
		c-0.001,1.079,0.072,1.957,0.151,2.586c-0.19,0.334-0.405,0.655-0.579,1.022c-0.375,0.75-0.956,1.822-1.66,3.093
		c-0.712,1.266-1.427,2.795-2.242,4.361c-0.767,1.592-1.514,3.284-2.236,4.909c-0.646,1.656-1.312,3.232-1.802,4.636
		c0.338-1.582,0.776-3.357,1.141-5.238c0.468-1.836,0.822-3.801,1.212-5.662c0.707-3.752,1.237-7.252,0.503-9.568
		c-0.835-0.135-3.597,3.663-5.234,8.986c-1.684,5.297-1.919,12.057,0.777,16.679c-0.801,3.075-1.455,5.574-2.214,9.638
		c-0.197,1.157-0.43,2.252-0.591,3.299C9.378,90.083,9.239,91.073,9.109,92c0,0-0.727-0.856-1.451-1.713
		c-0.722-0.883-1.44-1.766-1.44-1.766c0.55-5.954,0.403-11.319-0.065-15.085c-0.417-3.73-1.271-5.806-2.039-4.649
		c-1.009,1.627-1.778,3.221-2.242,4.777c-0.479,1.55-0.813,3.017-0.85,4.425c-0.066,1.402,0.026,2.709,0.243,3.915
		c0.249,1.212,0.64,2.326,1.091,3.332c0.458,1.006,0.979,1.905,1.559,2.707c0.599,0.803,1.227,1.503,1.843,2.109
		c1.237,1.211,2.434,2.039,3.271,2.55c-0.22,1.591-0.273,3.015-0.328,4.207c-0.071,1.347-0.048,2.79-0.067,3.964
		c-0.021,1.174-0.037,2.083-0.043,2.367c0.029,0.685-0.124,5.232,0.247,10.125c0.375,4.888,1.331,10.07,1.939,12.035
		c0.375,1.373,0.715,2.623,1.052,3.852c0.328,1.232,0.601,2.457,1.032,3.698c-0.928-1.386-1.844-3.198-2.72-5.03
		c-0.81-1.85-1.417-3.763-1.604-5.338c-0.084-1.087-0.333-2.518-0.673-4.059c-0.317-1.543-0.635-3.211-1.028-4.746
		c-0.668-3.075-1.4-5.668-1.929-5.686c-0.569-0.016-1.122,1.458-1.425,3.991c-0.178,1.269-0.167,2.789-0.066,4.505
		c0.069,1.719,0.389,3.613,0.847,5.618c0.917,3.881,2.769,6.92,4.633,9.067c0.896,1.088,1.867,1.943,2.708,2.617
		c0.842,0.674,1.573,1.164,2.113,1.493c0.137,0.361,0.267,0.724,0.444,1.089c0.353,0.762,0.83,1.885,1.382,3.229
		c0.557,1.342,1.302,2.856,2.02,4.47c0.776,1.586,1.622,3.23,2.453,4.803c0.895,1.536,1.704,3.043,2.506,4.297
		c-1.039-1.242-2.139-2.701-3.392-4.152c-1.148-1.508-2.458-3.012-3.678-4.471c-2.493-2.892-4.906-5.486-7.173-6.354
		c-0.626,0.568,0.624,5.099,3.775,9.694c3.092,4.615,8.231,9.005,13.532,9.771c0.961,1.265,1.784,2.445,2.779,3.646
		c0.969,1.222,1.991,2.552,3.371,4.094c1.503,1.804,2.985,3.324,4.253,4.708c0,0-1.117,0.026-2.235,0.054
		c-1.135,0.01-2.271,0.016-2.271,0.016c-4.305-4.141-8.606-7.354-11.828-9.34c-3.188-1.99-5.328-2.621-4.908-1.298
		c0.324,0.901,0.677,1.749,1.056,2.544c0.391,0.787,0.835,1.504,1.281,2.182c0.897,1.35,1.861,2.503,2.93,3.416
		c1.054,0.922,2.111,1.682,3.208,2.246c1.107,0.557,2.209,0.955,3.274,1.23c2.111,0.57,4.188,0.538,5.886,0.344
		c1.715-0.207,3.098-0.615,4.025-0.955c1.149,1.121,2.177,2.104,3.077,2.887c2.096,1.701,4.434,3.687,4.907,4.008
		c0.275,0.204,1.259,1.068,2.693,2.211c1.466,1.104,3.32,2.572,5.372,3.913c1.009,0.698,2.047,1.39,3.097,2
		c1.042,0.62,2.04,1.256,3,1.772c1.937,1.006,3.537,1.893,4.511,2.235c1.322,0.513,2.5,1.065,3.663,1.591
		c1.176,0.495,2.33,0.979,3.539,1.487c-3.26-0.397-8.139-1.308-10.788-3.111c-0.916-0.59-2.211-1.243-3.597-1.995
		c-1.4-0.722-2.947-1.439-4.353-2.152c-2.867-1.328-5.284-2.469-5.646-2.043c-0.345,0.404,0.408,1.834,2.218,3.628
		c0.918,0.872,2.069,1.881,3.476,2.868c1.438,0.935,3.049,1.985,4.93,2.826c1.813,0.825,3.571,1.422,5.279,1.69
		c1.695,0.297,3.259,0.431,4.699,0.336c1.429-0.067,2.683-0.248,3.726-0.462c1.057-0.248,1.901-0.532,2.499-0.756
		c0.37,0.107,0.739,0.215,1.129,0.33c0.403,0.117,0.896,0.261,1.464,0.425c0.571,0.151,1.219,0.321,1.921,0.506
		c0.701,0.19,1.458,0.397,2.253,0.615c0.795,0.215,1.643,0.382,2.502,0.586c0.861,0.196,1.743,0.396,2.626,0.596
		c0.891,0.161,1.783,0.322,2.658,0.479c1.744,0.351,3.444,0.537,4.919,0.726c-1.617,0.015-3.456,0.07-5.356,0.05
		c-0.947,0.019-1.916,0.036-2.901,0.057c-0.966-0.004-1.936,0.011-2.892,0.05c-1.92,0.114-3.74,0.163-5.369,0.426
		c-1.632,0.276-3.03,0.614-4.066,1.208c0.039,0.417,1.095,1.166,2.894,1.737c0.895,0.3,1.958,0.596,3.143,0.856
		c1.188,0.25,2.515,0.391,3.894,0.508c5.547,0.401,12.165-0.769,16.074-4.478c3.175,0.088,5.752,0.17,9.882,0.024
		c1.176-0.006,2.287-0.123,3.344-0.178c1.057-0.078,2.057-0.107,2.989-0.209c0,0-0.167,0.229-0.416,0.571
		c-0.256,0.33-0.597,0.772-0.937,1.213c-0.705,0.884-1.406,1.767-1.406,1.767c-5.92,0.785-11.112,2.17-14.668,3.412
		c-3.545,1.297-5.369,2.545-4.074,3.058c1.809,0.623,3.538,0.937,5.147,1.114c1.614,0.162,3.116,0.033,4.492-0.174
		c1.375-0.197,2.628-0.611,3.751-1.123c1.125-0.506,2.125-1.103,3.004-1.752c3.521-2.754,5.09-6.244,5.707-8.156
		c1.595-0.194,3.012-0.34,4.18-0.59c1.318-0.297,2.73-0.58,3.886-0.801c1.147-0.265,2.033-0.469,2.31-0.533
		c0.668-0.146,5.154-0.975,9.824-2.488c0.584-0.182,1.176-0.365,1.766-0.549c0.58-0.209,1.156-0.42,1.728-0.627
		c1.134-0.432,2.257-0.808,3.255-1.246c1.995-0.885,3.683-1.59,4.558-2.139c1.225-0.716,2.395-1.285,3.524-1.875
		c1.12-0.611,2.22-1.211,3.369-1.839c-2.341,2.3-6.09,5.55-9.149,6.503c-1.033,0.344-2.35,0.961-3.8,1.573
		c-1.441,0.64-2.961,1.415-4.398,2.065c-2.827,1.41-5.223,2.603-5.118,3.143c0.101,0.516,1.694,0.84,4.222,0.523
		c1.256-0.176,2.768-0.437,4.412-0.934c1.626-0.543,3.459-1.142,5.284-2.098c1.777-0.899,3.335-1.914,4.609-3.079
		c1.291-1.136,2.363-2.287,3.188-3.468c0.836-1.159,1.479-2.248,1.956-3.203c0.461-0.984,0.769-1.817,0.964-2.426
		c0.314-0.221,0.629-0.441,0.962-0.676c0.688-0.476,1.668-1.201,2.835-2.066c0.588-0.428,1.221-0.889,1.889-1.372
		c0.645-0.511,1.322-1.046,2.015-1.595c2.795-2.164,5.651-4.765,7.78-6.84c-2.006,2.531-4.533,5.772-6.842,8.797
		c-1.115,1.561-2.19,3.039-3.01,4.459c-0.805,1.443-1.398,2.765-1.585,3.936c0.356,0.239,1.585-0.141,3.156-1.182
		c0.793-0.508,1.688-1.153,2.632-1.916c0.916-0.795,1.872-1.719,2.821-2.725c0.968-0.984,1.827-2.177,2.672-3.365
		c0.849-1.186,1.569-2.498,2.174-3.83c1.253-2.627,1.849-5.518,1.695-8.144c1.021-1.22,1.942-2.323,2.94-3.519
		c0.94-1.242,2.021-2.529,3.237-4.201c0.687-0.952,1.339-1.857,1.959-2.717c0.615-0.862,1.146-1.711,1.668-2.489
		c0,0,0.283,1.091,0.567,2.181c0.135,0.555,0.271,1.108,0.373,1.524c0.089,0.413,0.147,0.688,0.147,0.688
		c-3.048,5.148-5.306,9.996-6.499,13.598c-1.251,3.531-1.337,5.81-0.164,5.082c1.582-1.053,2.975-2.146,4.084-3.324
		c1.102-1.189,1.99-2.403,2.69-3.605c1.305-2.49,1.927-4.871,1.937-7.109c0.129-4.414-1.754-7.904-2.806-9.539
		c0.909-1.327,1.572-2.588,2.133-3.643c0.642-1.188,1.277-2.481,1.791-3.539c0.529-1.052,0.938-1.863,1.066-2.117
		c0.274-0.627,2.394-4.661,4.163-9.239c1.832-4.557,3.129-9.666,3.471-11.689c0.277-1.39,0.443-2.681,0.711-3.929
		c0.126-0.625,0.254-1.244,0.38-1.868c0.093-0.629,0.187-1.263,0.283-1.91c0.429,3.277,0.483,8.207-0.582,11.215
		c-0.757,2.043-1.569,5.597-2.276,8.676c-0.699,3.076-1.211,5.713-0.717,5.97c0.487,0.253,1.645-0.829,3.018-2.983
		c1.34-2.16,2.791-5.447,3.681-9.472c0.433-1.94,0.507-3.817,0.478-5.522c-0.093-1.717-0.39-3.287-0.736-4.657
		c-0.752-2.751-1.902-4.731-2.568-5.791c0.044-0.384,0.042-0.769,0.055-1.173c0.014-0.838,0.074-2.057,0.164-3.506
		c0.063-1.449,0.064-3.135,0.114-4.899c0-1.765-0.073-3.612-0.108-5.388c-0.135-1.773-0.267-3.476-0.381-4.958
		c0.342,1.575,0.764,3.361,1.228,5.214c0.376,1.855,0.913,3.777,1.37,5.62c0.443,1.841,1.056,3.607,1.609,5.131
		c0.577,1.524,1.266,2.813,2.094,3.692c0.418-0.131,0.806-1.332,1.033-3.203c0.131-0.937,0.164-2.039,0.116-3.25
		c-0.049-1.211-0.11-2.531-0.337-3.899c-0.792-5.488-3.506-11.676-7.917-14.681c-0.335-1.555-0.569-2.975-0.913-4.496
		c-0.385-1.511-0.684-3.167-1.261-5.152c-0.313-1.132-0.611-2.21-0.894-3.231c-0.324-1.008-0.627-1.962-0.914-2.855
		c0,0,1.029,0.458,2.058,0.916c1.032,0.469,2.063,0.969,2.063,0.969c2.109,5.602,4.492,10.391,6.588,13.572
		c1.951,3.188,3.666,4.681,3.84,3.309C208.641,87.112,208.054,83.883,207.024,81.293z M197.806,102.825
		c0.001-0.005,0.004-0.011,0.004-0.017c0.045,1.882,0.045,3.976-0.066,5.761c-0.181,2.155-0.334,4.457-0.703,7.075
		c-0.02,0.02-0.039,0.042-0.058,0.061c-0.166,1.252-0.356,2.492-0.569,3.728c0.056-0.171,0.113-0.354,0.166-0.515
		c-0.106,0.647-0.215,1.312-0.33,2.002c-0.221,1.226-0.502,2.355-0.817,3.418c-9.603,41.999-47.169,73.331-92.054,73.331
		c-52.152,0-94.431-42.304-94.431-94.487c0-52.185,42.278-94.489,94.431-94.489c24.165,0,46.205,9.086,62.906,24.025
		c0.09,0.079,0.188,0.162,0.275,0.238c0.042,0.037,0.082,0.079,0.124,0.117c1.226,1.108,2.421,2.249,3.589,3.42
		c0.016,0.015,0.029,0.028,0.044,0.042c0.052,0.054,0.106,0.111,0.159,0.165c1.229,1.242,2.422,2.52,3.581,3.828
		c-0.044-0.067-0.095-0.141-0.136-0.208c0.437,0.49,0.885,0.993,1.351,1.516c0.677,0.768,1.263,1.526,1.808,2.279
		C189.98,60.207,197.724,80.61,197.806,102.825z"/>
</g>
</svg>
