<?xml version="1.0" encoding="utf-8"?>
<!-- Generator: Adobe Illustrator 16.0.3, SVG Export Plug-In . SVG Version: 6.00 Build 0)  -->
<!DOCTYPE svg PUBLIC "-//W3C//DTD SVG 1.1//EN" "http://www.w3.org/Graphics/SVG/1.1/DTD/svg11.dtd">
<svg version="1.1" id="Layer_1" xmlns="http://www.w3.org/2000/svg" xmlns:xlink="http://www.w3.org/1999/xlink" x="0px" y="0px"
	 width="280px" height="64px" viewBox="0 0 280 64" enable-background="new 0 0 280 64" xml:space="preserve">
<g>
	<g>
		<path fill="#FFFFFF" d="M9.028,25.898c0.701-1.263,3.253-8.172,4.357-11.267c1.11-3.092,1.693-5.218-1.541-7.479
			c-3.24-2.25-4.508-2.11-5.641-1.402C5.019,6.488,4.65,11.967,4.512,15.909c-0.14,3.938-0.131,11.114,0.846,12.099
			C6.344,28.992,8.326,27.162,9.028,25.898z"/>
		<path fill="#FFFFFF" d="M30.155,12.524c0,0,3.948-1.139,4.092-4.941c0.139-3.803-1.263-5.633-5.219-6.896
			c-2.065-0.666-8.399-0.264-11.66-0.151c-3.796,0.137-6.396,0.195-5.661,1.984c0.976,2.385,2.179,2.248,5.661,2.385
			c3.486,0.14,7.428-0.137,8.561,0.279c0,0-4.518,3.109-5.351,4.231c-0.838,1.126-2.254,5.497-0.139,6.342
			c2.104,0.861,6.341-0.846,8.028,2.262c1.687,3.094,0.139,9.005-7.181,11.82c-7.341,2.818-11.004,1.694-15.639,0
			c-4.652-1.677-7.63,0.432-4.092,3.817c3.52,3.385,13.523,2.954,17.74,2.387c4.232-0.555,9.88-1.68,15.367-7.742
			C40.158,22.249,35.232,14.493,30.155,12.524z"/>
		<path fill="#FFFFFF" d="M53.265,11.385c-3.094-0.985-6.619,3.664-9.583,8.462c-2.969,4.788-7.749,12.391-7.465,13.668
			c0,0,0.138,0.707,2.813,1.263c2.693,0.567,2.967-0.278,3.529-1.69c0.264-0.642,1.617-3.902,3.13-7.288
			c1.777-0.276,4.066-0.749,5.319-0.749c0.799,0,2.078,0.277,3.048,0.514c0.333,1.248,0.36,2.248-0.507,2.595
			c-0.528,0.208-2.957,0.429-3.664,0.139c-1.125-0.46-2.253-0.57-1.824,0c2.947,5.634,6.611,7.046,8.73,7.187
			c2.113,0.138,1.982-7.757,1.275-12.557C57.356,18.157,56.364,12.37,53.265,11.385z M47.457,21.972
			c1.179-2.483,2.255-4.455,2.714-4.664c0.986-0.443,2.164,2.679,2.747,4.511C50.836,22.082,48.824,22.056,47.457,21.972z"/>
		<path fill="#FFFFFF" d="M80.889,17.018c-0.716-5.204-4.792-6.188-9.025-5.633c-2.282,0.318-3.378,1.262-3.89,2.08
			c-0.737-0.887-2.035-1.553-4.29-1.787c-0.59-0.073,0.299,6.339-0.694,10.142c-0.984,3.801-2.398,11.269-1.837,11.975
			c0.567,0.706,3.948,0.846,5.078,0c0.896-0.681,2.15-5.287,2.399-9.202c0.647,1.931,1.758,4.124,5.199,7.079
			c4.938,4.246,7.192,1.137,7.061-0.14c-0.152-1.262,0.695-2.664-2.675-4.509c-1.133-0.598-1.791-1.125-2.222-1.541
			C79.48,24.76,81.584,22.208,80.889,17.018z M76.505,19.419c-1.257,2.124-6.063,3.677-6.619-0.708
			c-0.326-2.706,0.479-3.899,3.71-4.328C76.831,13.966,77.775,17.309,76.505,19.419z"/>
		<path fill="#FFFFFF" d="M88.763,13.938c-0.852,0.249-2.248,7.466-2.378,10.698c-0.153,3.248,0.422,10.074,4.927,8.881
			c2.107-0.569,0.705-6.772,1.406-9.449c0.701-2.664,2.533-6.619,2.247-8.744C94.697,13.215,92.148,12.938,88.763,13.938z"/>
		<path fill="#FFFFFF" d="M114.273,20.543c-2.871-1.958-4.322-1.179-5.411-1.611c-0.757-0.292,2.317-1.624,3.303-2.192
			c0.986-0.568,0.423-3.371-0.429-3.939c-1.177-0.777-4.7,0.305-7.32,2.109c-2.805,1.928-4.65,3.663-4.232,5.217
			c0.415,1.541,2.394,2.191,5.924,2.122c5.245-0.138,5.822,3.94,3.659,5.759c-5.573,4.703-7.413-2.013-7.882-2.526
			c-0.471-0.527-3.955,0.984-4.379,1.541c-0.43,0.568,1.7,5.924,6.341,7.617c4.67,1.694,10.804-1.347,11.974-3.94
			C117.097,27.883,116.952,22.389,114.273,20.543z"/>
		<path fill="#FFFFFF" d="M133.067,12.593c-3.974-1.126-6.763,0.747-10.213,0.374c-3.441-0.374-4.987,0-6.069,0.486
			c-1.082,0.484-1.748,1.998-1.243,2.372c1.388,1.069,7.264,2.094,7.264,2.094c-0.431,0.973-0.969,3.874-0.969,5.813
			c0,2.568,0.268,7.925,1.455,9.242c1.394,1.556,5.108,1.93,5.32,1.401c0.223-0.541-0.264-9.462-0.319-10.49
			c-0.053-1.025,0.583-5.855,1.341-6.395c0.749-0.542,3.502-1.138,3.711-1.639C133.561,15.395,133.831,12.868,133.067,12.593z"/>
		<path fill="#FFFFFF" d="M154.38,22.429c-0.408-0.513-0.984-0.776-1.625-0.901c-0.476-2.429-0.955-4.579-1.233-5.703
			c-0.866-3.51-0.532-3.345-3.169-3.51c-2.637-0.153-4.621,1.138-8.991,7.229c-4.351,6.062-5.551,13.002-5.267,13.487
			c0.216,0.376,1.506,0.917,3.12,1.345c3.617,0.959,2.415-0.276,3.665-5.062c0.174-0.668,0.457-1.654,0.84-2.734
			c0.574,0.11,1.437,0.012,2.434-0.056c1.512-0.098,2.748,0.082,3.871,0.097c0.097,0.791,0.135,1.581,0.154,2.372
			c0.105,4.623,4.254,6.454,5.271,5.274c0.861-1,0.61-4.732,0.014-8.646C154.505,24.816,155.296,23.637,154.38,22.429z
			 M143.294,22.472c0.777-1.75,1.549-3.082,2.034-2.997c0.735,0.139,1.38,1.179,1.858,2.733
			C145.979,22.318,144.425,22.389,143.294,22.472z"/>
		<path fill="#FFFFFF" d="M180.509,19.862c2.104-1.832,3.273-2.705,8.235-2.317c4.931,0.374,5.052,0.583,5.902-1.61
			c0.87-2.219,0.231-2.525-0.321-2.858c-0.691-0.414-6.936-1.08-11.779,0.333c-4.834,1.387-9.842,6.384-8.857,12.793
			c0.956,6.397,5.53,8.491,9.414,8.868c3.836,0.375,8.381-1.123,10.461-3.553c2.118-2.414,1.625-3.398,0-5.052
			c-1.596-1.663-2.184-3.814-5.512-1.234c-3.354,2.581-7.211,1.831-8.295,0.971C178.669,25.343,178.411,21.681,180.509,19.862z"/>
		<path fill="#FFFFFF" d="M211.968,14.368c-1.721-0.387-2.762,0.056-3.649,0.319c0,0-0.277-0.971-1.181-1.347
			c-0.928-0.373-2.109-0.915-4.674,1.402c-2.596,2.303-6.629,6.827-5.342,13.071c1.289,6.23,9.85,5.48,12.693,2.749
			c2.846-2.749,3.498-5.758,4.038-9.798C214.38,16.74,213.688,14.742,211.968,14.368z M208.206,23.608
			c-1.025,2.65-3.718,4.842-5.701,3.345c-1.984-1.513-1.444-3.83,0.748-6.41c2.207-2.567,3.941-3.151,4.635-3.053
			C209,17.641,209.206,20.973,208.206,23.608z"/>
		<path fill="#FFFFFF" d="M229.339,12.593c-1.123-0.168-6.078-0.321-7.854-0.168c-1.762,0.168-2.621,0.583-2.566,1.457
			c0.041,1.014,1.096,1.5,2.691,1.721c-0.722,1.319-1.887,3.857-2.858,6.508c-1.345,3.663-2.956,10.226-2.163,11.933
			c0.818,1.734,3.564,1.346,3.885,0.65c0.305-0.65,0.998-6.783,1.748-9.503c0.485,0.056,1.207,0.125,2.33,0.152
			c2.846,0.042,2.636-0.207,3.664-1.611c1.012-1.414,0.861-2.592,0-2.592c-0.875,0-2.262-0.043-3.33,0
			c-0.361,0.026-0.735,0-1.098-0.015c0.904-2.067,1.93-4.315,2.541-5.356c0.041,0,0.041,0,0.055,0
			c4.08-0.042,3.608-0.124,4.148-1.304C231.061,13.286,230.464,12.758,229.339,12.593z"/>
		<path fill="#FFFFFF" d="M245.976,12.524c-0.416-0.099-2.359,0.054-4.189-0.055c-1.834-0.099-4.412-0.044-6.299,0
			c-1.875,0.055-2.428,0.457-2.846,1.233c-0.361,0.694,0.305,1.194,1.274,1.542c-0.787,2.357-2.259,9.685-2.411,12.125
			c-0.14,2.86-0.362,6.134,0.541,7.022c0.388,0.402,4.205,0.513,4.133-0.501c-0.041-0.887,0-6.036,0.139-9.198
			c1.984,0.054,5.857,0.221,6.329-0.389c0.485-0.652,1.179-3.177,0.86-3.441c-0.334-0.263-3.013-0.055-4.732,0
			c-0.956,0.041-1.609-0.042-2.124-0.055c0.237-1.984,0.515-3.885,0.736-4.955c1.763,0.125,6.023,0.486,7.507-0.262
			C246.42,14.841,246.42,12.634,245.976,12.524z"/>
		<path fill="#FFFFFF" d="M256.563,27.384c-4.203,0.692-4.898,0.692-5.396,0.374c-0.307-0.208-0.194-1.192,0.109-2.372
			c1.263,0.096,4.564,0.151,5.217,0.055c0.766-0.098,2.859-0.263,3.123-1.943c0.277-1.651-0.097-2.609-0.736-2.678
			c-0.65-0.055-2.163,0.153-4.48,0.112c-0.75-0.014-1.251-0.029-1.581-0.029c0.47-1.081,1.081-2.163,1.942-2.997
			c0.055,0,0.082,0.014,0.124,0.014c4.522,0.375,5.342-1.024,5.743-1.497c0.445-0.487,0.125-2.276-0.79-3.136
			c-0.915-0.861-2.485-0.111-7.159-0.209c-4.676-0.11-5.26,0.667-4.898,1.512c0.181,0.375,0.86,1.153,2.125,1.874
			c-0.82,1.167-1.764,3.635-2.486,6.133c-0.93,3.124-1.457,7.41-0.055,9.031c1.387,1.611,2.094,2.416,4.677,2.098
			c2.566-0.318,7.479-0.584,8.712-0.847c1.223-0.278,1.568-2.443,0.542-4.052C260.267,27.216,260.753,26.689,256.563,27.384z"/>
		<path fill="#FFFFFF" d="M277.583,27.063c-3.495-1.72-4.091-0.707-3.648-0.484c0.43,0.208,1.18,1.012-0.819,1.069
			c-1.983,0.067-5.534,1.29-4.938-1.986c0.015-0.151,0.056-0.305,0.096-0.484c0.917,0.098,2.207,0.083,3.332,0
			c1.346-0.114,4.356-1.18,5.592-2.373c1.234-1.181,0.539-2.151-0.583-2.041c-1.124,0.124-4.483,0.055-5.593,0.055
			c-0.347,0-0.776-0.013-1.178-0.013c0.693-1.442,1.54-2.748,2.398-3.593c1.793,0.138,3.762,0.138,4.592,0.095
			c1.293-0.041,2.416-0.887,2.734-2.774c0.334-1.887-1.455-1.996-2.246-1.996c-0.807,0-4.689-0.168-7.16-0.321
			c-2.484-0.166-5.454,0.458-5.384,1.445c0.083,1.095,1.276,1.886,2.595,2.427c-0.707,1.207-1.706,3.261-2.595,5.911
			c-1.276,3.939-1.276,8.171-0.861,9.09c0.443,0.93,1.362,2.745,5.341,2.356c3.971-0.373,8.646,0.389,9.729-0.735
			C280.055,31.572,281.08,28.772,277.583,27.063z"/>
	</g>
	<g>
		<path fill="#FFFFFF" d="M48.074,62.542c0,0.432-0.104,0.735-0.332,0.89c-0.276,0.222-0.66,0.318-1.173,0.318
			c-0.326-0.015-0.542-0.084-0.695-0.209c-0.125-0.124-0.185-0.319-0.185-0.567V50.333c-0.023-0.07,0-0.125,0.043-0.151
			c0.004,0,0.086,0,0.184,0c0.704,0.166,1.48,0.443,2.325,0.846h2.415c0.033-1.04,0.048-2.346,0.048-3.94h-4.667l-1.277,0.193
			c-0.148,0.057-0.23,0.027-0.23-0.066c-0.084-0.225-0.158-0.447-0.228-0.697c-0.041-0.097,0.049-0.124,0.25-0.068l1.486,0.109
			h13.446c0.167,0.029,0.322-0.041,0.435-0.192c0.348-0.474,0.763-0.944,1.214-1.472c0.104-0.096,0.265-0.11,0.464-0.042
			c0.87,0.503,1.618,1.11,2.215,1.831c0.103,0.099,0.139,0.194,0.097,0.278c-0.077,0.085-0.19,0.126-0.369,0.126h-6.646v3.94h2.523
			c0.218,0.014,0.375-0.04,0.468-0.153c0.254-0.334,0.471-0.541,0.583-0.652c0.125-0.165,0.276-0.223,0.485-0.18
			c0.922,0.306,1.629,0.639,2.123,0.999c0.555,0.39,0.476,0.693-0.222,0.902c-0.133,0.055-0.208,0.153-0.208,0.263v10.561
			c-0.014,0.305-0.161,0.525-0.437,0.691c-0.279,0.154-0.63,0.238-1.089,0.238c-0.306-0.029-0.569-0.099-0.702-0.223
			c-0.083-0.099-0.152-0.251-0.152-0.457v-1.181h-12.19V62.542z M60.264,61.323v-9.645c-0.048-0.109-0.126-0.15-0.213-0.139h-3.158
			v4.037c0,0.432,0.275,0.666,0.832,0.694c0.869,0,1.43,0.112,1.679,0.291c0.202,0.208,0.314,0.486,0.314,0.806
			c0,0.361-0.175,0.596-0.529,0.778c-0.354,0.097-0.818,0.165-1.396,0.165c-1.003,0-1.679-0.083-2.025-0.249
			c-0.388-0.139-0.682-0.374-0.853-0.722c-0.216-0.348-0.313-0.832-0.313-1.47V51.54h-1.74c-0.057,0.362-0.083,0.71-0.083,1.028
			c-0.3,2.969-1.688,5.05-4.205,6.23c-0.119,0.04-0.207,0.04-0.257-0.015c-0.028-0.07,0-0.154,0.084-0.25
			c1.422-1.485,2.158-3.803,2.227-6.994h-2.525l-0.028,0.029v9.754H60.264z M54.602,51.027v-3.94H53.02
			c-0.027,1.499-0.062,2.803-0.117,3.94H54.602z"/>
		<path fill="#FFFFFF" d="M84.776,63.043c-0.023,0.331-0.204,0.568-0.507,0.707c-0.474,0.209-1.002,0.209-1.527-0.015
			c-0.265-0.124-0.389-0.361-0.349-0.692V52.651c-0.79,0.818-1.504,1.471-2.164,1.915c-0.158,0.124-0.263,0.14-0.323,0.026
			c-0.085-0.068-0.064-0.18,0.046-0.277c0.292-0.389,0.618-0.832,0.951-1.345h-1.659v8.519c0,0.637-0.139,1.124-0.36,1.471
			c-0.229,0.389-0.671,0.666-1.291,0.848C77.08,63.931,76.63,64,76.242,64c-0.194,0-0.264-0.069-0.264-0.193
			c0-0.932-0.555-1.611-1.666-2.055c-0.146-0.07-0.208-0.153-0.166-0.235c0.02-0.138,0.089-0.183,0.209-0.153
			c0.707,0.099,1.317,0.153,1.886,0.194c0.394,0.028,0.616-0.153,0.616-0.526V57.63c-1.435,1.806-2.871,2.915-4.33,3.371
			c-0.152,0-0.241-0.011-0.25-0.081c-0.02-0.069,0.009-0.125,0.139-0.167c2.122-1.955,3.511-4.537,4.189-7.783h-1.763
			c-0.026,0.14-0.041,0.263-0.059,0.373c-0.07,0.334-0.292,0.569-0.639,0.693c-0.55,0.153-1.026,0.153-1.442-0.013
			c-0.25-0.152-0.343-0.361-0.273-0.681c0.361-1.983,0.582-3.425,0.639-4.329c0.062-0.373,0.105-0.734,0.146-1.025
			c0-0.113,0.055-0.168,0.167-0.168c0.722,0.084,1.461,0.209,2.24,0.377c0.375,0.124,0.556,0.262,0.542,0.443
			c-0.042,0.166-0.173,0.291-0.436,0.332c-0.162,0.041-0.235,0.139-0.259,0.277c-0.116,0.722-0.305,1.79-0.532,3.205h1.919V46.6
			H74.54l-1.296,0.181c-0.124,0.069-0.221,0.055-0.231-0.055c-0.087-0.196-0.142-0.431-0.208-0.681
			c-0.042-0.096,0.027-0.125,0.23-0.084l1.504,0.14h2.498c0.181,0.015,0.328-0.069,0.44-0.21c0.345-0.456,0.762-0.955,1.219-1.469
			c0.098-0.112,0.25-0.125,0.444-0.043c0.88,0.486,1.616,1.098,2.233,1.834c0.091,0.109,0.126,0.191,0.07,0.289
			c-0.055,0.084-0.174,0.125-0.346,0.125h-1.854v5.217c0.147-0.191,0.331-0.429,0.554-0.707c0.121-0.181,0.287-0.209,0.486-0.069
			c0.402,0.307,0.772,0.651,1.133,1.097c1.046-2.027,1.706-4.469,1.999-7.313c0-0.167,0.096-0.222,0.29-0.208
			c0.958,0.099,1.861,0.349,2.733,0.711c0.237,0.109,0.335,0.262,0.279,0.428c-0.014,0.194-0.203,0.319-0.605,0.348
			c-0.139,0.014-0.27,0.152-0.348,0.428c-0.387,0.863-0.713,1.641-1.013,2.346h2.52c0.408-0.775,0.778-2.094,1.055-3.952
			c0.033-0.1,0.103-0.14,0.209-0.127c0.795,0.208,1.565,0.487,2.33,0.862c0.262,0.151,0.39,0.264,0.353,0.387
			c-0.033,0.166-0.181,0.236-0.409,0.25c-0.123,0-0.208,0.057-0.248,0.141c-0.597,0.789-1.402,1.608-2.457,2.439h1.376
			c0.165,0,0.275-0.054,0.352-0.166c0.229-0.361,0.537-0.79,0.9-1.25c0.139-0.193,0.319-0.22,0.55-0.096
			c0.533,0.39,1.027,0.889,1.457,1.484c0.138,0.139,0.167,0.266,0.104,0.405c-0.034,0.096-0.153,0.136-0.32,0.136h-3.287v3.107
			c0.215-0.318,0.485-0.692,0.813-1.094c0.138-0.195,0.321-0.225,0.532-0.084c0.549,0.373,1.041,0.875,1.466,1.471
			c0.131,0.166,0.171,0.305,0.103,0.416c-0.027,0.098-0.138,0.151-0.319,0.151h-2.594v3.58c0.23-0.359,0.521-0.774,0.888-1.26
			c0.147-0.183,0.331-0.196,0.541-0.071c0.549,0.391,1.042,0.889,1.484,1.484c0.125,0.141,0.162,0.279,0.083,0.418
			c-0.04,0.082-0.144,0.139-0.31,0.139h-2.686v3.73h0.331c0.154,0,0.273-0.055,0.349-0.179c0.222-0.349,0.527-0.763,0.895-1.222
			c0.154-0.182,0.35-0.207,0.542-0.084c0.556,0.346,1.042,0.847,1.479,1.459c0.124,0.138,0.159,0.262,0.104,0.402
			c-0.043,0.095-0.146,0.139-0.334,0.139h-7.824V63.043z M86.848,61.405V57.63h-2.071v3.774H86.848z M86.848,49.417h-2.071v3.43
			h2.071V49.417z M86.848,53.343h-2.071v3.774h2.071V53.343z"/>
		<path fill="#FFFFFF" d="M110.117,50.181h-1.296c-0.042,0.138-0.144,0.263-0.285,0.358c-0.296,0.169-0.639,0.238-1.027,0.238
			c-0.29,0-0.519-0.057-0.72-0.168c-0.097-0.055-0.159-0.22-0.125-0.498v-3.5c-0.021-0.109,0.027-0.148,0.076-0.148
			c0.755,0.164,1.394,0.372,1.959,0.65h0.282h4.19c0.083,0.014,0.16-0.027,0.235-0.139c0.153-0.18,0.332-0.348,0.542-0.512
			c0.026-0.059,0.111-0.071,0.236-0.016c0.688,0.209,1.326,0.527,1.936,0.916c0.446,0.292,0.408,0.527-0.16,0.75
			c-0.141,0.055-0.208,0.166-0.208,0.346v1.609c-0.006,0.264-0.125,0.459-0.339,0.584c-0.23,0.125-0.591,0.206-1.069,0.221
			c-0.305,0-0.513-0.07-0.651-0.221c-0.097-0.113-0.162-0.263-0.162-0.472h-1.198v1.553h2.566c0.139,0,0.25-0.056,0.325-0.165
			c0.204-0.334,0.48-0.71,0.861-1.166c0.125-0.195,0.285-0.222,0.481-0.084c0.532,0.347,0.97,0.818,1.336,1.389
			c0.139,0.137,0.174,0.264,0.118,0.389c-0.04,0.109-0.152,0.166-0.318,0.166h-11.01L105.27,52.4
			c-0.097,0.056-0.163,0.028-0.167-0.069c-0.057-0.194-0.12-0.415-0.162-0.652c-0.041-0.084,0.021-0.109,0.18-0.095l1.569,0.15
			h3.426V50.181z M113.53,49.653v-1.915c-0.054-0.11-0.124-0.151-0.22-0.11h-4.336l-0.111,0.028v1.997H113.53z M110.486,59.201
			c-0.257,0.138-0.554,0.222-0.887,0.235c-0.257,0-0.467-0.057-0.597-0.154c-0.112-0.081-0.151-0.234-0.139-0.47v-3.804
			c-0.008-0.109,0.027-0.178,0.089-0.152c0.777,0.14,1.373,0.361,1.845,0.652h0.343h0.417c0.073,0,0.115-0.056,0.208-0.137
			c0.13-0.169,0.29-0.335,0.456-0.473c0.035-0.027,0.099-0.043,0.215-0.016c0.576,0.195,1.132,0.473,1.693,0.821
			c0.092,0.081,0.145,0.124,0.194,0.206c0.035,0.057-0.138,0.306-0.519,0.75v2.068c-0.022,0.222-0.12,0.387-0.285,0.484
			c-0.236,0.139-0.561,0.209-0.958,0.223c-0.276,0.013-0.488-0.057-0.575-0.194c-0.111-0.126-0.162-0.306-0.138-0.513v-0.016h-1.051
			C110.756,58.936,110.668,59.102,110.486,59.201z M111.847,58.27v-2.221c-0.042-0.125-0.1-0.154-0.18-0.11h-0.528l-0.313,0.042
			v2.289H111.847z M107.753,60.907c0,0.319-0.119,0.526-0.329,0.651c-0.29,0.153-0.602,0.237-0.942,0.249
			c-0.296-0.012-0.502-0.055-0.644-0.139c-0.11-0.069-0.162-0.235-0.132-0.484v-7.951c-0.014-0.097,0.022-0.152,0.098-0.152
			c0.66,0.125,1.206,0.304,1.691,0.527l0.62,0.041h6.34c0.104,0.014,0.167-0.041,0.242-0.137c0.163-0.182,0.342-0.348,0.542-0.516
			c0.048-0.056,0.118-0.069,0.229-0.026c0.694,0.22,1.338,0.526,1.944,0.929c0.472,0.277,0.416,0.514-0.148,0.749
			c-0.153,0.058-0.221,0.183-0.221,0.348v5.952c-0.014,0.236-0.111,0.432-0.335,0.582c-0.226,0.111-0.58,0.182-1.072,0.223
			c-0.306-0.015-0.528-0.084-0.647-0.223c-0.089-0.15-0.144-0.332-0.144-0.582v-0.374h-7.091V60.907z M114.844,60.086v-5.813
			c-0.064-0.109-0.148-0.152-0.236-0.109h-6.502l-0.353,0.068v5.854H114.844z M103.929,63.654c-0.255,0.194-0.639,0.306-1.125,0.318
			c-0.295-0.013-0.516-0.083-0.664-0.206c-0.132-0.112-0.193-0.309-0.193-0.544V44.754c-0.021-0.082,0-0.15,0.039-0.182
			c0.022,0,0.093,0,0.189,0c0.729,0.182,1.514,0.475,2.403,0.891h13.018c0.197,0.025,0.348-0.016,0.446-0.125
			c0.271-0.319,0.472-0.527,0.581-0.625c0.125-0.153,0.286-0.209,0.481-0.153c0.889,0.291,1.568,0.585,2.039,0.917
			c0.492,0.374,0.424,0.68-0.229,0.888c-0.118,0.083-0.188,0.151-0.188,0.235v16.332c0,0.29-0.138,0.5-0.424,0.665
			c-0.253,0.153-0.616,0.237-1.06,0.237c-0.313-0.015-0.527-0.099-0.664-0.223c-0.108-0.096-0.164-0.224-0.164-0.43v-0.321H104.23
			C104.22,63.25,104.118,63.516,103.929,63.654z M118.437,62.334V46.101c-0.05-0.125-0.125-0.151-0.221-0.11H104.4l-0.17,0.041
			v16.303H118.437z"/>
		<path fill="#FFFFFF" d="M144.843,60.823c-0.111,0.055-0.203,0.069-0.246,0c-0.068-0.069-0.068-0.139,0-0.194
			c0.939-1.192,1.703-2.581,2.305-4.147c-0.486-0.973-1.09-1.973-1.824-3.012c-0.084-0.126-0.084-0.223,0-0.264
			c0.084-0.096,0.167-0.084,0.292,0.014c0.687,0.541,1.339,1.123,1.961,1.748c0.286-0.803,0.417-1.984,0.398-3.537h-0.903
			l-1.187,0.153c-0.187,0.055-0.281,0.04-0.298-0.044c-0.05-0.109-0.082-0.248-0.131-0.389c-0.285,0.07-0.41,0.166-0.41,0.334
			c0.029,3.246-0.041,5.924-0.175,8.075c-0.153,1.027-0.458,1.72-0.921,2.081c-0.526,0.359-1.275,0.555-2.263,0.582
			c-0.063-0.388-0.132-0.706-0.292-1.053c-0.221-0.389-0.797-0.75-1.719-1.084c-0.166-0.041-0.244-0.139-0.195-0.277
			c0.016-0.151,0.117-0.207,0.264-0.195c1.25,0.169,2.004,0.209,2.311,0.154c0.221-0.069,0.367-0.208,0.397-0.389
			c0.267-1.013,0.31-3.898,0.142-8.645H141.1l-0.069,0.252c-0.129,0.278-0.373,0.484-0.691,0.597
			c-0.667,0.136-1.227,0.069-1.67-0.196c-0.205-0.166-0.26-0.4-0.133-0.666l1.713-4.051h-2.563l-1.274,0.165
			c-0.14,0.085-0.224,0.056-0.237-0.055c-0.07-0.194-0.153-0.431-0.208-0.68c-0.027-0.097,0.042-0.125,0.245-0.069l1.475,0.125
			h7.604c0.161,0,0.318-0.041,0.433-0.195c0.367-0.484,0.77-0.956,1.234-1.469c0.105-0.127,0.244-0.139,0.45-0.042
			c0.876,0.5,1.616,1.097,2.214,1.831c0.109,0.083,0.131,0.182,0.098,0.248c-0.059,0.098-0.188,0.141-0.367,0.141h-6.532
			l-1.483,3.551h0.729c0.089,0,0.181-0.04,0.249-0.18c0.175-0.223,0.41-0.457,0.688-0.679c0.09-0.041,0.166-0.041,0.291,0.014
			c1.346,0.583,2.063,1.055,2.121,1.427l1.41,0.113h0.861c0.09-0.028,0.145-0.082,0.157-0.139c0.122-0.264,0.251-0.527,0.44-0.791
			c0.041-0.112,0.143-0.124,0.309-0.068c0.591,0.178,1.16,0.429,1.694,0.747c0.306,0.193,0.452,0.361,0.442,0.515
			c0,0.151-0.171,0.276-0.485,0.359c-0.142,0.044-0.241,0.194-0.295,0.445c-0.288,1.358-0.766,2.775-1.423,4.258
			c0.964,0.89,1.553,1.834,1.761,2.846c0.069,0.291,0,0.61-0.185,0.944c-0.231,0.276-0.502,0.485-0.807,0.581
			c-0.387,0.07-0.703,0-0.984-0.209c-0.246-0.178-0.387-0.525-0.426-1.039c-0.061-0.443-0.18-0.9-0.361-1.429
			C146.646,59.213,145.743,60.186,144.843,60.823z M136.475,62.502h9.594c0.177,0,0.318-0.055,0.438-0.209
			c0.352-0.498,0.754-0.986,1.222-1.471c0.103-0.125,0.263-0.139,0.45,0c0.881,0.457,1.622,1.054,2.227,1.79
			c0.104,0.109,0.125,0.194,0.084,0.263c-0.055,0.099-0.18,0.154-0.368,0.154h-13.646l-1.262,0.165
			c-0.139,0.068-0.235,0.027-0.245-0.056c-0.083-0.221-0.152-0.472-0.208-0.691c-0.048-0.1,0.042-0.125,0.245-0.085L136.475,62.502z
			 M134.268,62.875c0,0.347-0.188,0.611-0.554,0.791c-0.471,0.182-0.958,0.168-1.457-0.055c-0.223-0.154-0.355-0.349-0.355-0.623
			v-6.427c-0.575,1.14-1.212,1.958-1.92,2.499c-0.12,0.097-0.217,0.109-0.305,0.041c-0.069-0.041-0.069-0.151,0-0.264
			c1.151-2.413,1.887-5.41,2.226-8.92v-0.224h-0.311l-1.416,0.168c-0.098,0.026-0.152,0.012-0.16-0.069
			c-0.071-0.209-0.13-0.446-0.182-0.682c-0.031-0.056,0.028-0.083,0.205-0.056l1.553,0.126h0.311v-4.316
			c-0.014-0.068-0.027-0.152-0.027-0.223c-0.007-0.083,0.048-0.111,0.16-0.111c0.722,0.041,1.513,0.152,2.359,0.279
			c0.431,0.096,0.638,0.249,0.638,0.471c0,0.207-0.189,0.376-0.541,0.473c-0.133,0.027-0.223,0.124-0.223,0.306v3.024
			c0.021-0.028,0.047-0.028,0.076-0.056c0.202-0.348,0.494-0.749,0.869-1.179c0.13-0.194,0.282-0.194,0.492-0.069
			c0.507,0.347,0.937,0.805,1.339,1.387c0.13,0.14,0.166,0.264,0.102,0.374c-0.047,0.111-0.157,0.182-0.318,0.182h-2.559v1.789
			c1.11,0.332,1.879,0.818,2.296,1.458v-0.79c-0.015-0.113,0.022-0.154,0.077-0.139c0.783,0.139,1.447,0.358,2.027,0.691
			l0.406,0.029h0.064c0.096,0,0.158-0.056,0.228-0.14c0.151-0.167,0.314-0.333,0.522-0.458c0.031-0.041,0.096-0.041,0.221-0.028
			c0.616,0.21,1.227,0.515,1.781,0.89c0.391,0.248,0.334,0.471-0.144,0.678c-0.126,0.043-0.207,0.152-0.207,0.32v4.287
			c-0.023,0.223-0.121,0.402-0.313,0.514c-0.208,0.139-0.55,0.223-0.979,0.223c-0.305,0.014-0.494-0.07-0.606-0.209
			c-0.114-0.125-0.157-0.305-0.124-0.527v-0.512h-0.905v0.429c0,0.306-0.106,0.526-0.33,0.639c-0.281,0.165-0.597,0.249-0.943,0.249
			c-0.282,0-0.49-0.039-0.63-0.139c-0.123-0.084-0.16-0.234-0.138-0.472v-3.733c-0.138,0.127-0.3,0.224-0.513,0.277
			c-0.805,0.153-1.256-0.219-1.382-1.137c-0.075-0.443-0.195-0.873-0.409-1.29V62.875z M139.519,57.271v-3.94
			c-0.073-0.084-0.151-0.098-0.24-0.041h-0.203l-0.462,0.041v3.94H139.519z"/>
		<path fill="#FFFFFF" d="M165.308,52.011c0,0.376-0.111,0.64-0.386,0.776c-0.315,0.183-0.691,0.265-1.084,0.277
			c-0.32,0.03-0.579-0.039-0.744-0.179c-0.144-0.069-0.2-0.264-0.167-0.556v-7.186c-0.004-0.126,0.023-0.194,0.107-0.181
			c1.192,0.29,2.043,0.608,2.62,0.985h5.813c0.328,0.012,0.52-0.043,0.617-0.195c0.121-0.223,0.305-0.459,0.55-0.735
			c0.081-0.112,0.208-0.126,0.361-0.068c0.853,0.275,1.544,0.597,2.102,0.97c0.442,0.348,0.373,0.609-0.229,0.846
			c-0.166,0.043-0.258,0.141-0.258,0.294v4.896c0,0.319-0.157,0.556-0.513,0.736c-0.361,0.138-0.687,0.207-0.978,0.207
			c-0.277,0.013-0.494-0.04-0.666-0.193c-0.175-0.126-0.23-0.349-0.23-0.681v-0.207h-6.916V52.011z M172.224,51.317v-4.744
			c-0.047-0.125-0.139-0.168-0.255-0.109h-6.544l-0.117,0.025v4.828H172.224z M162.191,62.418c0,0.376-0.125,0.625-0.381,0.776
			c-0.326,0.153-0.679,0.252-1.08,0.278c-0.32,0-0.565-0.056-0.75-0.182c-0.147-0.097-0.19-0.275-0.161-0.555V54.33
			c-0.02-0.111,0.014-0.181,0.112-0.165c1.15,0.275,1.978,0.581,2.477,0.899h2.261c0.32,0.029,0.527-0.056,0.612-0.181
			c0.124-0.222,0.311-0.484,0.569-0.762c0.073-0.085,0.199-0.111,0.354-0.069c0.853,0.29,1.553,0.624,2.102,0.984
			c0.437,0.347,0.354,0.625-0.245,0.834c-0.167,0.068-0.228,0.165-0.228,0.288v6.344c0,0.305-0.18,0.555-0.521,0.734
			c-0.366,0.151-0.693,0.221-0.963,0.221c-0.278,0-0.513-0.069-0.688-0.194c-0.183-0.124-0.257-0.345-0.224-0.665V62h-3.247V62.418z
			 M165.438,61.473v-5.769c-0.045-0.128-0.143-0.168-0.283-0.128h-2.964v5.896H165.438z M171.848,62.502
			c0,0.358-0.13,0.61-0.38,0.789c-0.34,0.155-0.701,0.237-1.109,0.25c-0.297,0-0.548-0.068-0.734-0.193
			c-0.125-0.057-0.181-0.25-0.166-0.541V54.33c-0.011-0.111,0.041-0.181,0.109-0.165c1.172,0.275,2.005,0.581,2.49,0.899h2.271
			c0.297,0.029,0.516-0.056,0.598-0.181c0.127-0.222,0.318-0.484,0.553-0.762c0.086-0.085,0.212-0.111,0.381-0.069
			c0.846,0.29,1.525,0.624,2.094,0.984c0.445,0.347,0.361,0.625-0.242,0.834c-0.159,0.068-0.242,0.165-0.242,0.288v6.26
			c0,0.304-0.158,0.541-0.5,0.735c-0.389,0.138-0.697,0.221-0.971,0.221c-0.293,0-0.52-0.067-0.693-0.192
			c-0.159-0.111-0.237-0.332-0.208-0.65V62h-3.25V62.502z M175.098,61.473v-5.769c-0.07-0.128-0.153-0.168-0.293-0.128h-2.957v5.896
			H175.098z"/>
		<path fill="#FFFFFF" d="M189.577,57.618c-0.01,0.402-0.126,0.693-0.301,0.848c-0.254,0.18-0.616,0.277-1.096,0.277
			c-0.283,0.012-0.505-0.043-0.639-0.196c-0.125-0.11-0.171-0.276-0.171-0.499V46.809c-0.022-0.057,0-0.098,0.032-0.139
			c0.014-0.014,0.084-0.014,0.176,0c0.641,0.151,1.359,0.402,2.135,0.762h0.063h0.042c0.202,0.029,0.346-0.025,0.425-0.139
			c0.283-0.277,0.477-0.472,0.595-0.567c0.14-0.169,0.293-0.224,0.46-0.169c0.836,0.278,1.484,0.584,1.956,0.93
			c0.187,0.127,0.291,0.279,0.255,0.432c-0.018,0.166-0.187,0.305-0.479,0.389c-0.124,0.068-0.18,0.14-0.18,0.25v8.895
			c-0.008,0.25-0.146,0.457-0.396,0.625c-0.241,0.151-0.582,0.234-1.013,0.234c-0.305,0-0.505-0.083-0.645-0.234
			c-0.091-0.07-0.146-0.209-0.146-0.375v-1.318h-1.074V57.618z M190.651,55.843v-7.771c-0.035-0.097-0.117-0.125-0.225-0.097h-0.65
			l-0.199,0.055v7.813H190.651z M193.864,50.485c-0.173,0.043-0.264,0.029-0.278-0.028c-0.077-0.194-0.161-0.429-0.208-0.679
			c-0.04-0.083,0.035-0.097,0.208-0.083l1.041,0.099c0.042-1.236,0.062-2.984,0.062-5.246c-0.015-0.097,0.037-0.152,0.152-0.14
			c0.701,0,1.41,0.097,2.168,0.222c0.318,0.084,0.486,0.222,0.486,0.39c-0.193,0.181-0.402,0.36-0.596,0.582
			c0,1.333-0.043,2.733-0.125,4.192h0.417c0.289,0.041,0.483,0,0.582-0.099c0.29-0.362,0.526-0.61,0.721-0.819
			c0.082-0.11,0.21-0.11,0.415-0.041c0.516,0.194,1.068,0.473,1.694,0.832c0.222,0.14,0.318,0.306,0.306,0.458
			c0,0.182-0.166,0.319-0.5,0.46c-0.166,0.04-0.236,0.179-0.236,0.402c0.027,3.703-0.027,6.422-0.208,8.129
			c-0.138,1.332-0.373,2.289-0.68,2.885c-0.665,1.043-1.554,1.597-2.72,1.641c-0.084,0-0.124-0.044-0.124-0.141
			c-0.015-0.706-0.509-1.318-1.468-1.818c-0.18-0.041-0.248-0.124-0.222-0.249c0.042-0.11,0.144-0.165,0.332-0.153
			c0.71,0.027,1.151,0.027,1.343,0c0.32-0.041,0.598-0.248,0.846-0.596c0.208-0.305,0.402-2.012,0.556-5.162
			c0.084-3.232,0.084-4.952,0.027-5.175c-0.013-0.041-0.082-0.041-0.222-0.028h-0.903c-0.025,0.166-0.025,0.334-0.025,0.516
			c-0.14,2.678-0.427,4.813-0.864,6.383c-0.949,3.121-2.554,5.23-4.766,6.324c-0.098,0.056-0.188,0.043-0.237-0.025
			c-0.041-0.059-0.013-0.142,0.104-0.238c2.436-2.524,3.672-6.826,3.672-12.888L193.864,50.485z M203.544,62.516
			c-0.014,0.375-0.125,0.666-0.291,0.818c-0.264,0.182-0.637,0.277-1.109,0.277c-0.277,0-0.5-0.07-0.637-0.194
			c-0.113-0.126-0.169-0.278-0.169-0.485V46.92c-0.014-0.07,0-0.111,0.044-0.14c0.041,0,0.096,0,0.178,0
			c0.584,0.153,1.222,0.36,1.944,0.681h0.25h0.483c0.195,0.041,0.334-0.014,0.418-0.125c0.277-0.291,0.472-0.486,0.583-0.584
			c0.138-0.166,0.306-0.223,0.472-0.18c0.846,0.293,1.484,0.596,1.942,0.93c0.194,0.153,0.305,0.304,0.292,0.444
			c-0.042,0.181-0.211,0.306-0.516,0.388c-0.108,0.068-0.167,0.138-0.167,0.236v14.305c0,0.264-0.151,0.473-0.4,0.625
			c-0.251,0.166-0.598,0.25-0.999,0.25c-0.318-0.028-0.525-0.097-0.651-0.25c-0.098-0.083-0.153-0.209-0.153-0.373v-1.002h-1.514
			V62.516z M205.058,61.599V48.072c-0.043-0.112-0.125-0.125-0.223-0.097h-1.096l-0.195,0.041v13.583H205.058z"/>
		<path fill="#FFFFFF" d="M218.418,57.77c0,0.402-0.108,0.68-0.304,0.818c-0.236,0.195-0.625,0.278-1.081,0.278
			c-0.277,0.026-0.501-0.042-0.64-0.181c-0.109-0.098-0.168-0.278-0.168-0.5V46.752c-0.012-0.082,0-0.125,0.045-0.166
			c0.04,0,0.081,0,0.167,0c0.579,0.14,1.192,0.361,1.872,0.681h0.027l0.041,0.026h0.016h0.332h0.388
			c0.194,0.014,0.331-0.041,0.43-0.125c0.277-0.292,0.472-0.498,0.569-0.611c0.152-0.165,0.318-0.207,0.499-0.152
			c0.819,0.266,1.457,0.584,1.929,0.902c0.193,0.154,0.277,0.32,0.277,0.474c-0.016,0.179-0.18,0.304-0.5,0.388
			c-0.096,0.068-0.166,0.125-0.166,0.223v8.395c-0.014,0.277-0.138,0.485-0.402,0.638c-0.248,0.139-0.566,0.222-1.014,0.222
			c-0.305,0-0.513-0.083-0.65-0.222c-0.098-0.083-0.14-0.206-0.14-0.375v-0.832h-1.527V57.77z M219.945,55.69v-7.771
			c-0.057-0.098-0.111-0.138-0.222-0.112h-1.012l-0.294,0.044v7.84H219.945z M227.495,58.713c-1.017,2.72-2.998,4.414-5.94,5.094
			c-0.099,0.013-0.167,0-0.18-0.057c-0.055-0.097-0.014-0.166,0.097-0.234c2.082-1.193,3.484-2.958,4.162-5.288
			c-1.261,0.526-1.887,0.874-1.887,0.999c-0.043,0.209-0.168,0.333-0.347,0.361c-0.22,0.055-0.388-0.068-0.513-0.307
			c-0.235-0.443-0.486-1.054-0.695-1.775c-0.109-0.264-0.041-0.402,0.209-0.43c1.042-0.068,2.221-0.221,3.539-0.457
			c0.096-1.043,0.193-2.137,0.207-3.276h-1.525l-1.291,0.153c-0.111,0.027-0.18,0.016-0.195-0.042
			c-0.083-0.222-0.136-0.429-0.193-0.638c-0.014-0.084,0.058-0.11,0.209-0.096l1.471,0.109h1.553c0-1.152,0-2.221,0-3.205h-1.802
			l-1.306,0.152c-0.111,0.028-0.18,0.016-0.18-0.039c-0.086-0.223-0.154-0.447-0.209-0.67c-0.015-0.068,0.055-0.081,0.223-0.068
			l1.472,0.111h1.802v-3.414V45.06c0-0.109,0-0.236,0-0.331c0-0.086,0.043-0.125,0.098-0.125c0.679,0.013,1.374,0.08,2.095,0.179
			c0.403,0.041,0.584,0.168,0.584,0.334c0,0.194-0.124,0.318-0.403,0.36c-0.137,0.041-0.192,0.096-0.181,0.221v3.665
			c0,3.161-0.082,5.438-0.265,6.827c0.265-0.086,0.558-0.154,0.849-0.209c0.192-0.042,0.318-0.028,0.36,0.055
			c0.027,0.113-0.027,0.195-0.168,0.278c-0.373,0.263-0.776,0.512-1.206,0.763C227.813,57.645,227.66,58.186,227.495,58.713z
			 M231.811,62.891c0,0.331-0.183,0.566-0.526,0.734c-0.461,0.153-0.904,0.125-1.336-0.084c-0.234-0.124-0.357-0.319-0.357-0.567
			V45.032c0-0.067,0-0.139-0.016-0.221c-0.012-0.069,0.041-0.098,0.139-0.098c0.707,0.057,1.417,0.138,2.191,0.278
			c0.391,0.068,0.584,0.208,0.584,0.402c-0.015,0.207-0.166,0.36-0.5,0.443c-0.126,0.041-0.179,0.153-0.179,0.319v2.955h0.858
			c0.124,0,0.249-0.056,0.291-0.152c0.224-0.348,0.514-0.736,0.875-1.153c0.15-0.192,0.305-0.22,0.516-0.096
			c0.498,0.361,0.942,0.82,1.329,1.374c0.124,0.152,0.153,0.263,0.099,0.388c-0.029,0.112-0.139,0.153-0.307,0.153h-3.661v3.205
			h0.513c0.139,0,0.234-0.055,0.318-0.152c0.193-0.348,0.487-0.735,0.86-1.15c0.138-0.196,0.305-0.236,0.501-0.098
			c0.498,0.359,0.944,0.819,1.331,1.387c0.138,0.153,0.153,0.278,0.097,0.389c-0.041,0.098-0.138,0.138-0.307,0.138h-3.313v3.552
			h1.29c0.138,0,0.248-0.055,0.318-0.15c0.208-0.348,0.485-0.721,0.86-1.168c0.124-0.193,0.304-0.205,0.485-0.068
			c0.513,0.335,0.956,0.806,1.348,1.375c0.139,0.125,0.179,0.275,0.096,0.388c-0.029,0.097-0.153,0.138-0.305,0.138h-4.093V62.891z"
			/>
	</g>
</g>
</svg>
